<?xml version="1.0" encoding="utf-8"?>
<!-- Generator: Adobe Illustrator 16.0.0, SVG Export Plug-In . SVG Version: 6.00 Build 0)  -->
<!DOCTYPE svg PUBLIC "-//W3C//DTD SVG 1.0//EN" "http://www.w3.org/TR/2001/REC-SVG-20010904/DTD/svg10.dtd">
<svg version="1.0" xmlns="http://www.w3.org/2000/svg" xmlns:xlink="http://www.w3.org/1999/xlink" x="0px" y="0px"
	 width="1253.489px" height="930.669px" viewBox="0 0 1253.489 930.669" style="enable-background:new 0 0 1253.489 930.669;"
	 xml:space="preserve">
<g id="Ebene_1">
	<path style="fill:none;stroke:#3C3C3C;stroke-width:3;stroke-miterlimit:10;" d="M636.878,434.616"/>
	<g>
		<text transform="matrix(1 0 0 1 674.9204 890.1709)" style="fill:#3C3C3C; font-family:'FiraSans-SemiBold'; font-size:33.9014;"> </text>
	</g>
	<g>
		<text transform="matrix(1 0 0 1 627.9434 904.3389)" style="fill:#3C3C3C; font-family:'FiraSans-SemiBold'; font-size:41.9973;"> </text>
	</g>
	<g>
		<path style="fill:#3C3C3C;" d="M360.004,535.634c0,7.735,6.276,14.012,14.008,14.012h524.275c7.74,0,14.016-6.276,14.016-14.012
			V411.861c0-7.74-6.275-14.013-14.016-14.013H374.013c-7.732,0-14.008,6.273-14.008,14.013V535.634z"/>
		<g>
			<g>
				<g>
					<path style="fill:#FFFFFF;" d="M416.797,473.679v-5.495c0-2.872,0.848-5.208,2.527-7.004c1.68-1.794,4.143-2.688,7.396-2.687
						c2.059,0,3.78,0.376,5.156,1.111c1.392,0.738,2.083,1.482,2.076,2.238c0,0.376-0.149,0.74-0.461,1.104
						c-0.305,0.357-0.643,0.539-1.021,0.535c-0.206,0-0.527-0.15-0.955-0.449c-0.428-0.301-1.03-0.609-1.82-0.927
						c-0.783-0.314-1.729-0.475-2.825-0.479c-2.19,0-3.854,0.574-5.007,1.728c-1.145,1.157-1.721,2.775-1.721,4.851l-0.009,5.464
						c-0.008,2.111,0.56,3.75,1.712,4.905c1.137,1.161,2.834,1.742,5.057,1.745c1.162,0.004,2.142-0.158,2.948-0.473
						c0.808-0.313,1.417-0.632,1.854-0.948c0.419-0.316,0.766-0.475,0.997-0.475c0.444,0,0.815,0.175,1.112,0.512
						c0.288,0.347,0.428,0.723,0.428,1.133c0,0.789-0.717,1.551-2.167,2.279c-1.433,0.738-3.211,1.105-5.336,1.102
						c-3.286-0.004-5.765-0.904-7.436-2.683C417.621,478.988,416.788,476.621,416.797,473.679z"/>
					<path style="fill:#FFFFFF;" d="M437.789,473.706l0.008-5.597c0.009-2.601,0.964-4.847,2.891-6.747
						c1.918-1.898,4.2-2.845,6.835-2.843c2.626,0.004,4.924,0.95,6.869,2.833c1.952,1.886,2.923,4.15,2.923,6.783l-0.016,5.596
						c0,2.568-0.98,4.84-2.957,6.802c-1.968,1.964-4.258,2.95-6.86,2.946c-2.561-0.005-4.818-0.994-6.77-2.967
						C438.761,478.546,437.789,476.274,437.789,473.706z M441.132,473.696c0,1.736,0.618,3.278,1.861,4.626
						c1.252,1.347,2.751,2.019,4.489,2.022c1.787,0.006,3.31-0.666,4.578-2.016c1.269-1.336,1.902-2.878,1.902-4.617l0.009-5.565
						c0.008-1.669-0.634-3.165-1.918-4.495c-1.277-1.332-2.792-1.999-4.539-1.999c-1.746-0.002-3.245,0.662-4.497,1.985
						c-1.252,1.328-1.877,2.823-1.886,4.496V473.696z"/>
					<path style="fill:#FFFFFF;" d="M462.528,481.806l0.034-21.718c0-0.341,0.156-0.638,0.461-0.877
						c0.304-0.239,0.708-0.358,1.186-0.358c0.444,0,0.815,0.123,1.128,0.369c0.304,0.242,0.453,0.537,0.453,0.883v2.396
						c0.618-1.141,1.515-2.085,2.701-2.828c1.178-0.746,2.561-1.114,4.134-1.114c1.647,0.002,3.113,0.479,4.415,1.433
						c1.301,0.951,2.256,2.203,2.874,3.764c0.856-1.694,1.985-2.979,3.394-3.86c1.399-0.874,2.874-1.319,4.414-1.315
						c2.322,0.002,4.349,0.879,6.053,2.627c1.712,1.752,2.561,4.079,2.561,6.988l-0.024,13.66c0,0.342-0.157,0.646-0.485,0.922
						c-0.321,0.275-0.725,0.412-1.211,0.412c-0.445,0-0.824-0.137-1.153-0.414c-0.321-0.273-0.486-0.578-0.486-0.924L493,468.225
						c0-2.014-0.584-3.601-1.771-4.769c-1.178-1.159-2.537-1.744-4.077-1.744c-1.572-0.003-2.964,0.585-4.183,1.759
						c-1.219,1.176-1.829,2.688-1.837,4.532l-0.016,13.883c0,0.854-0.568,1.277-1.696,1.274c-1.095,0-1.647-0.427-1.639-1.278
						l0.016-13.834c0-1.809-0.568-3.323-1.712-4.533c-1.145-1.215-2.52-1.823-4.134-1.826c-1.606-0.002-3.015,0.584-4.233,1.762
						c-1.219,1.176-1.828,2.757-1.828,4.737l-0.018,13.626c0,0.342-0.172,0.646-0.527,0.92c-0.338,0.27-0.725,0.41-1.169,0.41
						s-0.832-0.141-1.162-0.414C462.693,482.456,462.528,482.146,462.528,481.806z"/>
					<path style="fill:#FFFFFF;" d="M502.306,493.821l0.05-33.684c0-0.342,0.156-0.633,0.461-0.871
						c0.312-0.236,0.7-0.359,1.177-0.359c0.444,0,0.824,0.123,1.128,0.37c0.314,0.242,0.462,0.533,0.462,0.882v2.392
						c0.618-1.106,1.523-2.038,2.726-2.802c1.203-0.76,2.586-1.139,4.159-1.135c2.529,0.002,4.703,0.947,6.522,2.83
						c1.812,1.887,2.709,4.146,2.709,6.78l-0.007,5.601c0,2.568-0.923,4.834-2.76,6.799c-1.836,1.966-3.944,2.947-6.341,2.943
						c-1.506,0-2.898-0.389-4.158-1.173c-1.269-0.783-2.191-1.728-2.768-2.84l-0.016,14.269c0,0.312-0.165,0.604-0.494,0.877
						c-0.321,0.273-0.725,0.41-1.211,0.406c-0.437,0-0.832-0.133-1.153-0.41C502.471,494.423,502.306,494.128,502.306,493.821z
						 M505.674,475.371c0,0.916,0.634,1.987,1.919,3.22c1.284,1.222,2.75,1.84,4.389,1.844c1.672,0.004,3.163-0.674,4.439-2.034
						c1.284-1.364,1.927-2.896,1.936-4.6l0.008-5.562c0-1.67-0.634-3.168-1.918-4.498c-1.286-1.326-2.792-1.993-4.538-1.993
						c-1.648-0.005-3.097,0.59-4.349,1.78c-1.251,1.188-1.87,2.758-1.877,4.694L505.674,475.371z"/>
					<path style="fill:#FFFFFF;" d="M526.271,473.829v-5.75c0-2.566,0.964-4.779,2.891-6.645c1.919-1.863,4.225-2.794,6.926-2.792
						c2.602,0.005,4.851,0.901,6.753,2.683c1.902,1.785,2.841,4.018,2.841,6.691c-0.008,0.953-0.115,1.721-0.337,2.303
						c-0.223,0.582-0.585,0.992-1.088,1.229c-0.485,0.239-0.938,0.394-1.35,0.461c-0.412,0.068-0.98,0.1-1.696,0.1l-11.604-0.018
						l-0.008,1.898c0,2.022,0.725,3.641,2.183,4.857c1.449,1.215,3.327,1.826,5.616,1.83c1.162,0,2.183-0.17,3.064-0.508
						c0.864-0.344,1.531-0.682,2-1.027c0.461-0.338,0.824-0.509,1.104-0.509c0.371,0,0.708,0.181,0.997,0.538
						c0.296,0.361,0.437,0.709,0.437,1.051c0,0.723-0.742,1.468-2.207,2.234c-1.474,0.77-3.303,1.152-5.493,1.149
						c-3.262-0.003-5.905-0.911-7.956-2.706C527.285,479.097,526.264,476.74,526.271,473.829z M529.606,469.62l10.278,0.015
						c1.021,0,1.705-0.106,2.051-0.329c0.338-0.218,0.51-0.684,0.51-1.402c0.009-1.696-0.601-3.195-1.812-4.492
						c-1.219-1.293-2.742-1.939-4.596-1.941c-1.778-0.004-3.302,0.605-4.546,1.83c-1.252,1.221-1.877,2.686-1.877,4.385
						L529.606,469.62z"/>
					<path style="fill:#FFFFFF;" d="M550.607,475.722l0.033-27.02c0-0.341,0.165-0.63,0.511-0.868
						c0.346-0.239,0.716-0.362,1.137-0.356c0.444,0,0.832,0.117,1.177,0.356c0.338,0.238,0.511,0.527,0.511,0.868l-0.017,10.275
						l6.629,0.008c0.338,0,0.618,0.142,0.849,0.417c0.214,0.282,0.321,0.614,0.321,0.999c0,0.381-0.107,0.713-0.33,0.992
						c-0.229,0.278-0.51,0.414-0.84,0.414l-6.629-0.006l-0.016,13.852c-0.009,1.662,0.337,2.825,1.037,3.488
						c0.708,0.662,1.944,0.996,3.731,0.996l1.433,0.002c0.444,0,0.815,0.154,1.103,0.455c0.289,0.301,0.437,0.661,0.437,1.09
						c0,0.424-0.148,0.797-0.437,1.113c-0.295,0.319-0.659,0.476-1.103,0.476h-1.44
						C553.292,483.267,550.599,480.749,550.607,475.722z"/>
					<path style="fill:#FFFFFF;" d="M564.575,473.881l0.009-5.747c0-2.569,0.956-4.782,2.874-6.648
						c1.919-1.861,4.241-2.791,6.942-2.787c2.603,0.004,4.851,0.899,6.745,2.683c1.895,1.786,2.85,4.011,2.842,6.684
						c0,0.96-0.115,1.726-0.338,2.31c-0.222,0.576-0.584,0.988-1.078,1.227c-0.494,0.234-0.956,0.388-1.367,0.456
						c-0.403,0.067-0.964,0.103-1.696,0.103l-11.604-0.017v1.898c0,2.022,0.725,3.64,2.182,4.856c1.45,1.22,3.319,1.831,5.625,1.835
						c1.161,0,2.174-0.171,3.047-0.513c0.873-0.342,1.54-0.68,2.001-1.023c0.469-0.342,0.831-0.51,1.111-0.51
						c0.379,0,0.708,0.18,0.997,0.537c0.288,0.361,0.437,0.713,0.437,1.055c0,0.719-0.733,1.463-2.216,2.229
						c-1.465,0.77-3.303,1.153-5.493,1.147c-3.245-0.002-5.905-0.907-7.956-2.705C565.587,479.149,564.566,476.794,564.575,473.881z
						 M567.91,469.676l10.278,0.016c1.029,0.002,1.705-0.108,2.05-0.33c0.346-0.222,0.52-0.688,0.52-1.401
						c0-1.701-0.602-3.2-1.82-4.493c-1.211-1.294-2.743-1.94-4.596-1.946c-1.779-0.004-3.286,0.609-4.546,1.831
						c-1.243,1.221-1.877,2.685-1.877,4.386L567.91,469.676z"/>
					<path style="fill:#FFFFFF;" d="M589.002,481.979l0.032-21.719c0-0.378,0.156-0.677,0.461-0.898
						c0.304-0.222,0.7-0.335,1.178-0.335c0.412,0,0.766,0.123,1.079,0.365c0.304,0.243,0.453,0.542,0.453,0.887v2.396
						c0.584-1.104,1.474-2.042,2.676-2.802c1.202-0.764,2.602-1.143,4.216-1.139c2.463,0.002,4.596,0.951,6.407,2.832
						c1.812,1.885,2.717,4.15,2.71,6.783l-0.009,13.656c0,0.41-0.181,0.735-0.519,0.975c-0.346,0.242-0.733,0.359-1.178,0.359
						c-0.412,0-0.791-0.119-1.129-0.361c-0.354-0.237-0.526-0.562-0.519-0.973l0.017-13.625c0-1.677-0.626-3.182-1.886-4.512
						c-1.268-1.332-2.776-2.005-4.521-2.01c-1.614,0-3.031,0.6-4.258,1.793c-1.243,1.195-1.853,2.764-1.861,4.712l-0.016,13.628
						c0,0.34-0.173,0.646-0.519,0.92c-0.346,0.27-0.733,0.407-1.178,0.407c-0.479,0-0.873-0.138-1.186-0.409
						C589.158,482.633,589.002,482.319,589.002,481.979z"/>
					<path style="fill:#FFFFFF;" d="M613.609,473.948l0.009-5.49c0-2.876,0.849-5.213,2.52-7.007
						c1.688-1.792,4.15-2.688,7.395-2.685c2.06,0.004,3.78,0.373,5.164,1.107c1.383,0.741,2.076,1.486,2.076,2.242
						c0,0.377-0.157,0.744-0.461,1.102c-0.313,0.355-0.65,0.537-1.03,0.537c-0.206,0-0.526-0.15-0.947-0.451
						c-0.437-0.304-1.038-0.609-1.82-0.928c-0.791-0.319-1.729-0.48-2.824-0.482c-2.191-0.004-3.862,0.575-5.008,1.732
						c-1.152,1.154-1.729,2.771-1.729,4.846l-0.008,5.467c0,2.11,0.568,3.744,1.713,4.906c1.152,1.159,2.833,1.74,5.056,1.744
						c1.161,0,2.15-0.158,2.957-0.472c0.799-0.319,1.426-0.634,1.854-0.947c0.428-0.319,0.757-0.478,0.997-0.478
						c0.444,0,0.815,0.174,1.103,0.515c0.296,0.346,0.437,0.721,0.437,1.129c0,0.794-0.725,1.552-2.158,2.28
						c-1.44,0.739-3.228,1.106-5.345,1.102c-3.286-0.002-5.765-0.899-7.437-2.684C614.433,479.261,613.601,476.893,613.609,473.948z
						"/>
					<path style="fill:#FFFFFF;" d="M634.404,473.979v-5.751c0.008-2.565,0.971-4.778,2.891-6.644
						c1.918-1.863,4.232-2.794,6.934-2.79c2.603,0.002,4.851,0.898,6.753,2.681c1.895,1.787,2.842,4.018,2.833,6.688
						c0,0.955-0.107,1.726-0.329,2.307c-0.23,0.578-0.585,0.987-1.087,1.229c-0.495,0.234-0.947,0.389-1.359,0.457
						c-0.411,0.065-0.979,0.103-1.696,0.101l-11.604-0.019v1.902c0,2.018,0.725,3.641,2.167,4.855
						c1.458,1.217,3.335,1.83,5.624,1.832c1.162,0,2.183-0.171,3.063-0.509c0.874-0.346,1.54-0.682,2.002-1.026
						c0.469-0.343,0.831-0.51,1.103-0.51c0.371,0,0.709,0.182,1.005,0.54c0.289,0.36,0.429,0.708,0.429,1.05
						c0,0.723-0.732,1.469-2.206,2.234c-1.483,0.768-3.304,1.152-5.502,1.15c-3.253-0.004-5.897-0.91-7.956-2.707
						C635.417,479.248,634.396,476.892,634.404,473.979z M637.748,469.771l10.269,0.015c1.021,0.004,1.713-0.107,2.051-0.326
						c0.346-0.218,0.511-0.688,0.511-1.402c0.008-1.703-0.602-3.199-1.812-4.491c-1.211-1.296-2.743-1.942-4.596-1.95
						c-1.779,0-3.294,0.613-4.546,1.834s-1.877,2.685-1.877,4.386V469.771z"/>
				</g>
			</g>
			<g>
				<path style="fill:#E3E3E3;" d="M702.99,438.07c19.706,0,35.675,15.973,35.675,35.677c0,19.703-15.969,35.676-35.675,35.676
					c-19.708,0-35.677-15.973-35.677-35.676C667.313,454.043,683.282,438.07,702.99,438.07z"/>
				<g>
					<g>
						<g>
							<polygon style="fill:#575756;" points="682.409,475.423 698.714,478.443 701.68,494.758 718.628,458.575 							"/>
						</g>
						<g>
							<path style="fill:#575756;" d="M703.384,505.075c-0.461,0-0.923-0.014-1.392-0.033c-17.326-0.785-30.801-15.518-30.02-32.852
								c0.8-17.328,15.51-30.78,32.854-30.014c5.615,0.259,11.067,2.004,15.745,5.062c0.742,0.484,0.948,1.47,0.462,2.209
								c-0.477,0.738-1.467,0.951-2.207,0.465c-4.2-2.742-9.092-4.31-14.142-4.535c-15.539-0.698-28.806,11.396-29.516,26.96
								c-0.699,15.572,11.398,28.807,26.972,29.509c15.59,0.7,28.799-11.392,29.516-26.963c0.264-6.128-1.399-12.043-4.826-17.115
								c-0.494-0.73-0.304-1.722,0.429-2.209c0.732-0.501,1.723-0.306,2.216,0.424c3.812,5.643,5.674,12.225,5.37,19.041
								C734.086,491.894,720.111,505.099,703.384,505.075z"/>
						</g>
					</g>
				</g>
			</g>
			<g>
				<path style="fill:#FFFFFF;" d="M752.797,480.201c0-0.337,0.116-0.68,0.354-1.024c0.248-0.341,0.519-0.514,0.824-0.514
					c0.238,0.002,0.617,0.197,1.129,0.596c0.509,0.394,1.251,0.797,2.206,1.207c0.955,0.417,2.1,0.623,3.442,0.623
					c1.812,0.002,3.146-0.34,4.002-1.021c0.856-0.688,1.285-1.559,1.285-2.619c0.008-1.235-0.429-2.219-1.302-2.956
					c-0.872-0.739-1.926-1.297-3.154-1.672c-1.233-0.372-2.47-0.753-3.723-1.132c-1.251-0.381-2.312-1.045-3.179-1.984
					c-0.871-0.943-1.308-2.204-1.308-3.777c0-1.881,0.683-3.512,2.032-4.901c1.359-1.382,3.385-2.074,6.095-2.069
					c1.673,0.002,3.236,0.27,4.688,0.803c1.457,0.533,2.188,1.105,2.188,1.721c0,0.342-0.139,0.721-0.411,1.129
					c-0.278,0.412-0.601,0.615-0.979,0.615c-0.108,0-0.742-0.238-1.903-0.723c-1.161-0.481-2.34-0.725-3.541-0.725
					c-1.713-0.002-2.998,0.401-3.854,1.205c-0.858,0.801-1.278,1.711-1.286,2.713c0,1.04,0.444,1.861,1.326,2.469
					c0.89,0.604,1.952,1.09,3.179,1.453c1.243,0.371,2.496,0.742,3.757,1.121c1.268,0.379,2.33,1.124,3.186,2.236
					c0.849,1.115,1.276,2.557,1.269,4.32c0,2.053-0.732,3.676-2.191,4.847c-1.456,1.181-3.483,1.772-6.077,1.769
					c-2.266-0.002-4.167-0.414-5.732-1.217C753.564,481.888,752.797,481.058,752.797,480.201z"/>
				<path style="fill:#FFFFFF;" d="M773.238,474.175l0.01-5.497c0.008-2.874,0.849-5.211,2.528-7.005
					c1.68-1.795,4.142-2.689,7.396-2.684c2.058,0,3.771,0.372,5.163,1.107c1.383,0.74,2.075,1.486,2.075,2.238
					c0,0.376-0.156,0.743-0.462,1.105c-0.312,0.358-0.657,0.537-1.037,0.537c-0.198,0-0.519-0.154-0.938-0.451
					c-0.438-0.303-1.04-0.609-1.829-0.928c-0.792-0.32-1.722-0.477-2.816-0.48c-2.199,0-3.863,0.576-5.008,1.732
					c-1.153,1.156-1.729,2.771-1.737,4.848v5.463c0,2.113,0.568,3.749,1.705,4.906c1.151,1.158,2.841,1.739,5.064,1.743
					c1.161,0.005,2.149-0.154,2.948-0.471c0.807-0.315,1.425-0.63,1.854-0.945c0.427-0.321,0.757-0.476,1.005-0.476
					c0.444,0,0.807,0.171,1.103,0.515c0.288,0.342,0.429,0.72,0.429,1.128c0,0.791-0.725,1.549-2.149,2.281
					c-1.449,0.734-3.229,1.102-5.354,1.098c-3.285-0.002-5.755-0.896-7.435-2.681C774.079,479.48,773.23,477.114,773.238,474.175z"
					/>
				<path style="fill:#FFFFFF;" d="M793.983,474.197l0.01-5.596c0.008-2.601,0.963-4.847,2.882-6.749
					c1.928-1.896,4.201-2.84,6.836-2.836c2.626,0.004,4.934,0.943,6.877,2.832c1.95,1.887,2.923,4.146,2.915,6.779l-0.009,5.596
					c0,2.57-0.98,4.84-2.956,6.803c-1.978,1.963-4.259,2.945-6.861,2.941c-2.568-0.003-4.817-0.99-6.77-2.959
					C794.956,479.038,793.983,476.767,793.983,474.197z M797.319,474.188c0,1.736,0.627,3.281,1.87,4.625
					c1.243,1.347,2.742,2.021,4.487,2.021c1.789,0.002,3.303-0.664,4.58-2.012c1.269-1.342,1.901-2.879,1.911-4.617l0.008-5.567
					c0-1.666-0.643-3.165-1.928-4.495c-1.284-1.324-2.8-1.992-4.537-1.996c-1.747-0.005-3.245,0.658-4.496,1.984
					c-1.253,1.326-1.887,2.824-1.887,4.494L797.319,474.188z"/>
				<path style="fill:#FFFFFF;" d="M818.739,474.339l0.01-13.711c0-0.306,0.164-0.6,0.494-0.873c0.32-0.271,0.725-0.406,1.201-0.406
					c0.412,0,0.791,0.137,1.129,0.41c0.346,0.273,0.519,0.568,0.519,0.873l-0.017,13.68c-0.008,1.706,0.627,3.229,1.886,4.56
					c1.261,1.334,2.776,2.001,4.521,2.003c1.746,0.009,3.245-0.658,4.521-1.988c1.268-1.332,1.91-2.85,1.91-4.559l0.018-13.73
					c0-0.337,0.174-0.628,0.511-0.869c0.346-0.238,0.732-0.355,1.177-0.355c0.446,0,0.841,0.123,1.161,0.36
					c0.33,0.238,0.494,0.532,0.486,0.874l-0.024,13.761c0,2.566-0.973,4.815-2.906,6.749c-1.936,1.934-4.219,2.896-6.861,2.893
					c-2.668-0.002-4.958-0.975-6.876-2.912C819.687,479.155,818.732,476.905,818.739,474.339z"/>
				<path style="fill:#FFFFFF;" d="M844.353,476.127l0.04-27.013c0-0.35,0.174-0.638,0.511-0.877
					c0.346-0.238,0.726-0.355,1.129-0.355c0.444,0,0.84,0.123,1.177,0.363c0.348,0.239,0.519,0.525,0.519,0.869l-0.015,10.271
					l6.621,0.006c0.345,0,0.625,0.145,0.849,0.419c0.221,0.279,0.327,0.611,0.327,0.998c0,0.379-0.106,0.712-0.337,0.993
					c-0.214,0.275-0.502,0.417-0.847,0.417l-6.623-0.011l-0.016,13.851c0,1.66,0.346,2.827,1.053,3.491
					c0.692,0.658,1.936,0.991,3.725,0.994l1.432,0.004c0.444,0,0.807,0.15,1.104,0.451c0.288,0.304,0.437,0.664,0.437,1.088
					c-0.01,0.427-0.148,0.801-0.437,1.114c-0.298,0.319-0.667,0.479-1.111,0.479l-1.435-0.004
					C847.045,483.675,844.343,481.153,844.353,476.127z"/>
			</g>
		</g>
	</g>
	<g>
		<path style="fill:#3C3C3C;" d="M434.831,99.6c0,5.592,4.538,10.13,10.13,10.13h378.98c5.592,0,10.13-4.538,10.13-10.13V10.13
			c0-5.592-4.538-10.13-10.13-10.13H444.96c-5.592,0-10.13,4.538-10.13,10.13V99.6z"/>
	</g>
	<path style="fill:#FFFFFF;" d="M548.974,43.394v22.243h-5.047V43.394h-7.137v-3.987h19.511l-0.532,3.987H548.974z"/>
	<path style="fill:#FFFFFF;" d="M560.393,57.097c0.383,3.795,2.241,5.427,4.937,5.427c1.709,0,3.15-0.494,4.86-1.859l2.087,2.922
		c-1.898,1.556-4.328,2.621-7.251,2.621c-6.453,0-9.681-4.367-9.681-10.593c0-5.998,3.228-10.628,9.034-10.628
		c5.505,0,8.734,3.797,8.734,10.137c0,0.644-0.078,1.44-0.115,1.974H560.393z M560.356,53.944h7.936
		c-0.037-3.454-1.1-5.503-3.871-5.503C562.103,48.441,560.624,50.15,560.356,53.944z"/>
	<path style="fill:#FFFFFF;" d="M580.187,41.342c-1.824,0-3.076-1.291-3.076-2.96c0-1.633,1.251-2.924,3.076-2.924
		c1.783,0,3.072,1.291,3.072,2.924C583.259,40.051,581.97,41.342,580.187,41.342z M577.757,65.637v-20.08h4.859v20.08H577.757z"/>
	<path style="fill:#FFFFFF;" d="M596.464,65.524c-0.95,0.378-2.165,0.684-3.38,0.684c-2.887,0-4.781-1.672-4.781-5.393V37.508
		l4.859-0.531v23.763c0,1.139,0.379,1.557,1.1,1.557c0.416,0,0.835-0.076,1.136-0.192L596.464,65.524z"/>
	<path style="fill:#FFFFFF;" d="M611.667,51.438c0-2.011-0.758-2.808-2.466-2.808c-1.668,0-3.035,1.291-4.138,2.808v14.198h-4.859
		v-20.08h4.216l0.341,2.504c1.705-2.012,3.945-3.074,6.3-3.074c3.719,0,5.464,2.201,5.464,5.96v14.69h-4.859V51.438z"/>
	<path style="fill:#FFFFFF;" d="M626.285,57.097c0.379,3.795,2.237,5.427,4.934,5.427c1.709,0,3.15-0.494,4.859-1.859l2.088,2.922
		c-1.898,1.556-4.328,2.621-7.251,2.621c-6.453,0-9.682-4.367-9.682-10.593c0-5.998,3.229-10.628,9.035-10.628
		c5.505,0,8.733,3.797,8.733,10.137c0,0.644-0.078,1.44-0.115,1.974H626.285z M626.244,53.944h7.935
		c-0.036-3.454-1.1-5.503-3.87-5.503C627.99,48.441,626.512,50.15,626.244,53.944z"/>
	<path style="fill:#FFFFFF;" d="M643.79,65.637V37.546l4.859-0.492v10.78c1.635-1.822,3.687-2.847,6-2.847
		c3.719,0,5.465,2.201,5.465,5.96v14.69h-4.859V51.438c0-2.011-0.758-2.808-2.467-2.808c-1.672,0-3.034,1.291-4.139,2.808v14.198
		H643.79z"/>
	<path style="fill:#FFFFFF;" d="M665.994,65.637v-20.08h4.216l0.342,2.504c1.705-2.049,3.719-3.074,5.881-3.074
		c2.582,0,4.138,1.102,4.858,3.074c1.709-1.973,3.875-3.074,6-3.074c3.682,0,5.316,2.201,5.316,5.96v14.69h-4.859V51.591
		c0-2.125-0.61-2.96-2.166-2.96c-1.441,0-2.845,1.214-3.833,2.771v14.234h-4.858V51.515c0-2.087-0.646-2.884-2.163-2.884
		c-1.445,0-2.887,1.214-3.875,2.771v14.234H665.994z"/>
	<path style="fill:#FFFFFF;" d="M702.416,57.097c0.378,3.795,2.235,5.427,4.93,5.427c1.715,0,3.154-0.494,4.859-1.859l2.092,2.922
		c-1.901,1.556-4.331,2.621-7.254,2.621c-6.451,0-9.68-4.367-9.68-10.593c0-5.998,3.229-10.628,9.037-10.628
		c5.501,0,8.728,3.797,8.728,10.137c0,0.644-0.072,1.44-0.114,1.974H702.416z M702.374,53.944h7.938
		c-0.042-3.454-1.104-5.503-3.871-5.503C704.119,48.441,702.641,50.15,702.374,53.944z"/>
	<path style="fill:#FFFFFF;" d="M719.879,65.637v-20.08h4.291l0.454,3.795c1.021-2.732,2.849-4.328,5.164-4.328
		c0.717,0,1.367,0.076,2.01,0.268l-0.834,4.707c-0.608-0.153-1.102-0.229-1.786-0.229c-2.47,0-3.797,2.277-4.439,4.973v10.895
		H719.879z"/>
	<g>
		<path style="fill:#4A4A49;" d="M992.572,807.683h82.721c0-21.321-11.018-44.142-26.521-52.406
			c5.917-4.465,9.771-11.164,9.771-19.173c0-13.579-11.028-24.384-24.617-24.384c-13.593,0-24.61,11.1-24.61,24.689
			c0,7.995,3.85,14.33,9.774,18.83C1003.59,763.483,992.572,786.361,992.572,807.683z"/>
		<path style="fill:#4A4A49;" d="M1096.331,770.558c4.216-3.179,6.972-8.321,6.972-14.014c0-9.644-7.85-17.521-17.504-17.521
			c-9.661,0-17.478,7.799-17.478,17.452c0,5.694,2.71,10.133,6.927,13.327c-1.368,0.734-2.68,2.352-3.944,3.395
			c5.84,10.08,9.355,25.094,9.355,35.338h34.506C1115.165,791.752,1107.362,776.408,1096.331,770.558z"/>
	</g>
	<g>
		<path style="fill:#4A4A49;" d="M854.247,920.539c0,5.591,4.53,10.13,10.122,10.13h378.982c5.593,0,10.138-4.539,10.138-10.13
			v-89.472c0-5.592-4.545-10.13-10.138-10.13H864.369c-5.592,0-10.122,4.538-10.122,10.13V920.539z"/>
	</g>
	<g>
		<g>
			<path style="fill:#FFFFFF;" d="M990.29,861.754v29.632h-6.729v-29.632h-9.508v-5.313h25.996l-0.708,5.313H990.29z"/>
			<path style="fill:#FFFFFF;" d="M1000.802,891.386v-26.749h5.711l0.61,5.056c1.363-3.641,3.793-5.765,6.877-5.765
				c0.959,0,1.818,0.099,2.681,0.354l-1.111,6.267c-0.812-0.196-1.467-0.3-2.376-0.3c-3.292,0-5.062,3.034-5.918,6.625v14.512
				H1000.802z"/>
			<path style="fill:#FFFFFF;" d="M1040.766,884.46c0,2.021,0.561,2.781,1.872,3.285l-1.415,4.299
				c-2.833-0.256-4.752-1.265-5.767-3.592c-1.922,2.529-4.902,3.69-8.141,3.69c-5.463,0-8.798-3.385-8.798-8.393
				c0-5.665,4.5-8.848,12.69-8.848h3.289v-1.521c0-3.385-1.567-4.55-5.311-4.55c-1.718,0-4.251,0.408-6.979,1.363l-1.565-4.448
				c3.385-1.263,6.773-1.869,9.504-1.869c7.536,0,10.62,3.236,10.62,9.1V884.46z M1034.498,884.154v-5.362h-2.276
				c-5.008,0-6.777,1.673-6.777,4.605c0,2.626,1.215,4.043,3.896,4.043C1031.463,887.44,1033.234,886.229,1034.498,884.154z"/>
			<path style="fill:#FFFFFF;" d="M1051.205,859.019c-2.426,0-4.095-1.716-4.095-3.945c0-2.174,1.669-3.89,4.095-3.89
				c2.38,0,4.096,1.716,4.096,3.89C1055.3,857.303,1053.584,859.019,1051.205,859.019z M1047.968,891.386v-26.749h6.473v26.749
				H1047.968z"/>
			<path style="fill:#FFFFFF;" d="M1076.912,872.477c0-2.686-1.009-3.747-3.285-3.747c-2.229,0-4.049,1.72-5.515,3.747v18.909
				h-6.473v-26.749h5.612l0.458,3.335c2.276-2.677,5.257-4.094,8.394-4.094c4.954,0,7.281,2.933,7.281,7.938v19.569h-6.473V872.477z
				"/>
			<path style="fill:#FFFFFF;" d="M1095.758,880.007c0.507,5.061,2.986,7.234,6.577,7.234c2.276,0,4.195-0.657,6.472-2.479
				l2.784,3.896c-2.532,2.071-5.769,3.484-9.66,3.484c-8.599,0-12.896-5.814-12.896-14.107c0-7.988,4.298-14.157,12.036-14.157
				c7.332,0,11.633,5.058,11.633,13.499c0,0.864-0.104,1.927-0.153,2.63H1095.758z M1095.708,875.812h10.57
				c-0.05-4.604-1.465-7.334-5.158-7.334C1098.035,868.478,1096.063,870.755,1095.708,875.812z"/>
			<path style="fill:#FFFFFF;" d="M1118.401,891.386v-26.749h5.712l0.609,5.056c1.364-3.641,3.793-5.765,6.877-5.765
				c0.959,0,1.821,0.099,2.681,0.354l-1.111,6.267c-0.811-0.196-1.467-0.3-2.376-0.3c-3.29,0-5.062,3.034-5.917,6.625v14.512
				H1118.401z"/>
		</g>
	</g>
	<g>
		<path style="fill:#4A4A49;" d="M138.325,807.429h82.721c0-21.323-11.019-44.144-26.522-52.408
			c5.917-4.463,9.771-11.163,9.771-19.173c0-13.579-11.028-24.384-24.616-24.384c-13.594,0-24.612,11.101-24.612,24.689
			c0,7.998,3.85,14.33,9.775,18.831C149.344,763.228,138.325,786.105,138.325,807.429z"/>
		<path style="fill:#4A4A49;" d="M242.084,770.303c4.216-3.179,6.971-8.322,6.971-14.015c0-9.643-7.848-17.521-17.504-17.521
			c-9.66,0-17.476,7.8-17.476,17.452c0,5.694,2.71,10.134,6.926,13.33c-1.367,0.731-2.681,2.351-3.944,3.392
			c5.839,10.08,9.355,25.094,9.355,35.338h34.507C260.919,791.496,253.116,776.153,242.084,770.303z"/>
	</g>
	<g>
		<g>
			<path style="fill:#4A4A49;" d="M0,920.539c0,5.591,4.53,10.13,10.122,10.13h378.982c5.592,0,10.138-4.539,10.138-10.13v-89.472
				c0-5.592-4.546-10.13-10.138-10.13H10.122C4.53,820.938,0,825.476,0,831.067V920.539z"/>
		</g>
	</g>
	<g>
		<g>
			<path style="fill:#FFFFFF;" d="M72.165,884.74l7.634-28.627h6.827l-10.669,34.942h-7.992l-10.719-34.942h7.182l7.535,28.627
				H72.165z"/>
			<path style="fill:#FFFFFF;" d="M94.235,879.679c0.502,5.062,2.981,7.235,6.572,7.235c2.277,0,4.196-0.66,6.473-2.479l2.783,3.895
				c-2.532,2.072-5.769,3.483-9.66,3.483c-8.598,0-12.897-5.814-12.897-14.107c0-7.988,4.299-14.157,12.037-14.157
				c7.334,0,11.632,5.058,11.632,13.499c0,0.864-0.103,1.927-0.152,2.632H94.235z M94.182,875.481h10.57
				c-0.049-4.604-1.465-7.334-5.159-7.334C96.508,868.147,94.536,870.427,94.182,875.481z"/>
			<path style="fill:#FFFFFF;" d="M116.875,891.056v-26.749h5.712l0.609,5.056c1.363-3.639,3.792-5.765,6.876-5.765
				c0.959,0,1.82,0.099,2.68,0.354l-1.111,6.269c-0.811-0.198-1.466-0.302-2.376-0.302c-3.289,0-5.06,3.034-5.917,6.625v14.512
				H116.875z"/>
			<path style="fill:#FFFFFF;" d="M156.838,884.13c0,2.021,0.56,2.784,1.874,3.285l-1.417,4.299
				c-2.833-0.254-4.752-1.265-5.765-3.591c-1.923,2.528-4.905,3.689-8.141,3.689c-5.464,0-8.8-3.385-8.8-8.393
				c0-5.665,4.5-8.848,12.691-8.848h3.29v-1.521c0-3.385-1.569-4.55-5.312-4.55c-1.717,0-4.25,0.408-6.979,1.364l-1.564-4.447
				c3.385-1.265,6.773-1.871,9.504-1.871c7.536,0,10.62,3.238,10.62,9.102V884.13z M150.571,883.824v-5.36h-2.277
				c-5.007,0-6.777,1.671-6.777,4.604c0,2.626,1.214,4.043,3.895,4.043C147.536,887.11,149.307,885.899,150.571,883.824z"/>
			<path style="fill:#FFFFFF;" d="M179.486,872.146c0-2.685-1.01-3.747-3.287-3.747c-2.227,0-4.047,1.722-5.514,3.747v18.909h-6.473
				v-26.749h5.613l0.457,3.336c2.277-2.678,5.258-4.095,8.396-4.095c4.955,0,7.281,2.934,7.281,7.94v19.567h-6.473V872.146z"/>
			<path style="fill:#FFFFFF;" d="M205.749,883.774c0-2.223-1.009-2.98-6.268-4.348c-4.805-1.215-7.791-3.64-7.791-7.988
				c0-4.506,4.097-7.891,10.723-7.891c3.896,0,7.182,1.261,9.355,2.834l-2.73,4.045c-1.923-1.318-4.047-2.077-6.526-2.077
				c-2.627,0-4.246,1.062-4.246,2.682c0,1.824,1.214,2.528,5.967,3.896c4.904,1.361,8.343,3.285,8.343,8.343
				c0,5.662-5.308,8.543-11.378,8.543c-4.653,0-8.244-1.563-10.772-3.787l3.34-3.693c2.071,1.617,4.5,2.679,7.231,2.679
				C203.929,887.011,205.749,885.749,205.749,883.774z"/>
			<path style="fill:#FFFFFF;" d="M234.24,889.795c-1.82,1.363-4.398,2.018-6.675,2.018c-5.967-0.05-8.091-3.435-8.091-8.897V868.91
				h-4.093v-4.604h4.093v-5.917l6.473-0.763v6.68h6.526l-0.708,4.604h-5.818v14.005c0,2.632,0.86,3.693,2.833,3.693
				c1.062,0,2.021-0.305,3.188-1.013L234.24,889.795z"/>
			<path style="fill:#FFFFFF;" d="M258.555,884.13c0,2.021,0.56,2.784,1.874,3.285l-1.417,4.299
				c-2.833-0.254-4.752-1.265-5.765-3.591c-1.923,2.528-4.904,3.689-8.141,3.689c-5.464,0-8.799-3.385-8.799-8.393
				c0-5.665,4.5-8.848,12.69-8.848h3.291v-1.521c0-3.385-1.569-4.55-5.313-4.55c-1.717,0-4.25,0.408-6.979,1.364l-1.565-4.447
				c3.385-1.265,6.773-1.871,9.504-1.871c7.535,0,10.62,3.238,10.62,9.102V884.13z M252.288,883.824v-5.36h-2.278
				c-5.007,0-6.777,1.671-6.777,4.604c0,2.626,1.215,4.043,3.895,4.043C249.253,887.11,251.024,885.899,252.288,883.824z"/>
			<path style="fill:#FFFFFF;" d="M276.405,890.907c-1.265,0.503-2.882,0.905-4.5,0.905c-3.842,0-6.37-2.224-6.37-7.176v-31.053
				l6.473-0.709v31.659c0,1.514,0.506,2.074,1.465,2.074c0.556,0,1.112-0.103,1.52-0.255L276.405,890.907z"/>
			<path style="fill:#FFFFFF;" d="M295.615,889.795c-1.82,1.363-4.397,2.018-6.675,2.018c-5.966-0.05-8.091-3.435-8.091-8.897
				V868.91h-4.093v-4.604h4.093v-5.917l6.473-0.763v6.68h6.526l-0.707,4.604h-5.819v14.005c0,2.632,0.861,3.693,2.834,3.693
				c1.062,0,2.021-0.305,3.187-1.013L295.615,889.795z"/>
			<path style="fill:#FFFFFF;" d="M303.772,879.679c0.506,5.062,2.985,7.235,6.575,7.235c2.278,0,4.196-0.66,6.474-2.479
				l2.783,3.895c-2.533,2.072-5.77,3.483-9.661,3.483c-8.598,0-12.896-5.814-12.896-14.107c0-7.988,4.299-14.157,12.037-14.157
				c7.333,0,11.632,5.058,11.632,13.499c0,0.864-0.103,1.927-0.153,2.632H303.772z M303.723,875.481h10.57
				c-0.049-4.604-1.466-7.334-5.16-7.334C306.049,868.147,304.077,870.427,303.723,875.481z"/>
			<path style="fill:#FFFFFF;" d="M326.416,891.056v-26.749h5.711l0.609,5.056c1.364-3.639,3.793-5.765,6.877-5.765
				c0.959,0,1.82,0.099,2.68,0.354l-1.111,6.269c-0.812-0.198-1.466-0.302-2.376-0.302c-3.289,0-5.061,3.034-5.917,6.625v14.512
				H326.416z"/>
		</g>
	</g>
	<text transform="matrix(1 0 0 1 760.5356 286.2036)" style="font-family:'FiraSans-SemiBold'; font-size:33.9014;"> </text>
	<path style="fill:#F4E47C;" d="M433.172,289.992c0,5.592,4.539,10.13,10.13,10.13h378.983c5.592,0,10.13-4.538,10.13-10.13v-89.471
		c0-5.592-4.538-10.13-10.13-10.13H443.302c-5.591,0-10.13,4.539-10.13,10.13V289.992z"/>
	<path style="fill:#3C3C3C;" d="M499.708,258.806c-4.253,0-7.478-1.48-9.644-3.607l2.698-2.961c1.856,1.709,4.06,2.695,6.756,2.695
		c2.809,0,4.86-1.367,4.86-3.91c0-2.163-1.141-3.188-5.126-4.44c-5.617-1.71-7.935-3.91-7.935-7.896
		c0-4.441,3.875-7.252,8.997-7.252c3.834,0,6.416,1.139,8.656,3.227l-2.545,2.886c-1.783-1.595-3.644-2.279-5.77-2.279
		c-2.429,0-4.138,1.064-4.138,3.113c0,1.898,0.952,2.735,5.317,4.099c4.591,1.483,7.782,3.342,7.782,8.238
		C509.615,255.464,505.893,258.806,499.708,258.806z"/>
	<path style="fill:#3C3C3C;" d="M518.217,249.695c0.382,3.794,2.24,5.427,4.937,5.427c1.708,0,3.15-0.494,4.859-1.859l2.088,2.921
		c-1.898,1.556-4.328,2.621-7.252,2.621c-6.452,0-9.681-4.367-9.681-10.593c0-5.998,3.229-10.628,9.034-10.628
		c5.505,0,8.734,3.797,8.734,10.136c0,0.645-0.078,1.441-0.115,1.975H518.217z M518.18,246.543h7.935
		c-0.037-3.456-1.099-5.503-3.87-5.503C519.926,241.04,518.448,242.749,518.18,246.543z"/>
	<path style="fill:#3C3C3C;" d="M535.722,258.236v-20.081h4.216l0.342,2.503c1.705-2.048,3.718-3.074,5.88-3.074
		c2.581,0,4.138,1.102,4.859,3.074c1.708-1.972,3.875-3.074,5.999-3.074c3.682,0,5.316,2.202,5.316,5.961v14.69h-4.859V244.19
		c0-2.125-0.609-2.961-2.166-2.961c-1.442,0-2.845,1.215-3.834,2.772v14.235h-4.859v-14.122c0-2.088-0.646-2.885-2.162-2.885
		c-1.445,0-2.887,1.215-3.875,2.772v14.235H535.722z"/>
	<path style="fill:#3C3C3C;" d="M570.599,233.94c-1.824,0-3.076-1.291-3.076-2.96c0-1.632,1.252-2.923,3.076-2.923
		c1.783,0,3.072,1.291,3.072,2.923C573.671,232.649,572.382,233.94,570.599,233.94z M568.169,258.236v-20.081h4.859v20.081H568.169z
		"/>
	<path style="fill:#3C3C3C;" d="M590.368,244.038c0-2.012-0.757-2.809-2.466-2.809c-1.668,0-3.035,1.291-4.139,2.809v14.198h-4.859
		v-20.081h4.217l0.341,2.503c1.705-2.012,3.945-3.074,6.301-3.074c3.717,0,5.464,2.202,5.464,5.961v14.69h-4.86V244.038z"/>
	<path style="fill:#3C3C3C;" d="M616.138,253.035c0,1.52,0.416,2.088,1.404,2.466l-1.063,3.229c-2.125-0.189-3.57-0.95-4.328-2.695
		c-1.44,1.896-3.68,2.771-6.109,2.771c-4.102,0-6.606-2.544-6.606-6.302c0-4.251,3.377-6.644,9.529-6.644h2.467v-1.138
		c0-2.543-1.178-3.417-3.986-3.417c-1.289,0-3.187,0.303-5.237,1.026l-1.178-3.342c2.545-0.949,5.085-1.404,7.136-1.404
		c5.658,0,7.972,2.429,7.972,6.833V253.035z M611.431,252.806v-4.022h-1.709c-3.76,0-5.085,1.253-5.085,3.454
		c0,1.975,0.91,3.038,2.923,3.038C609.153,255.275,610.479,254.363,611.431,252.806z"/>
	<path style="fill:#3C3C3C;" d="M622.112,258.236v-20.081h4.292l0.453,3.794c1.025-2.731,2.849-4.328,5.163-4.328
		c0.721,0,1.367,0.076,2.014,0.268l-0.836,4.706c-0.609-0.152-1.103-0.229-1.787-0.229c-2.467,0-3.792,2.278-4.438,4.972v10.896
		H622.112z"/>
	<path style="fill:#3C3C3C;" d="M641.116,249.695c0.379,3.794,2.236,5.427,4.933,5.427c1.709,0,3.15-0.494,4.859-1.859l2.088,2.921
		c-1.898,1.556-4.327,2.621-7.251,2.621c-6.453,0-9.682-4.367-9.682-10.593c0-5.998,3.229-10.628,9.035-10.628
		c5.506,0,8.733,3.797,8.733,10.136c0,0.645-0.079,1.441-0.115,1.975H641.116z M641.075,246.543h7.935
		c-0.037-3.456-1.1-5.503-3.87-5.503C642.82,241.04,641.342,242.749,641.075,246.543z"/>
	<path style="fill:#3C3C3C;" d="M679.559,258.236v-16.589h-6.336v16.589h-4.859v-16.589h-3.154v-3.492h3.154v-2.126
		c0-3.681,2.235-6.453,7.704-6.453c2.582,0,4.554,0.645,6.188,1.442l-1.481,3.229c-1.251-0.57-2.692-0.95-4.138-0.95
		c-2.734,0-3.413,0.873-3.413,2.809v2.05h11.159v20.081H679.559z"/>
	<path style="fill:#3C3C3C;" d="M701.85,244.038c0-2.012-0.76-2.809-2.468-2.809c-1.673,0-3.034,1.291-4.139,2.809v14.198h-4.858
		v-20.081h4.216l0.342,2.503c1.705-2.012,3.945-3.074,6.301-3.074c3.718,0,5.465,2.202,5.465,5.961v14.69h-4.858V244.038z"/>
	<path style="fill:#3C3C3C;" d="M724.661,239.635v-10.06l4.858,0.532v28.128h-4.284l-0.306-2.393
		c-1.253,1.785-3.267,2.962-5.732,2.962c-5.2,0-7.63-4.214-7.63-10.63c0-6.15,3.034-10.591,8.162-10.591
		C721.701,237.584,723.41,238.305,724.661,239.635z M716.651,248.176c0,5.164,1.484,6.947,3.988,6.947
		c1.67,0,3.075-1.138,4.021-2.656v-9.226c-0.91-1.251-2.161-2.012-3.681-2.012C718.324,241.229,716.651,243.354,716.651,248.176z"/>
	<path style="fill:#3C3C3C;" d="M739.431,249.695c0.384,3.794,2.241,5.427,4.938,5.427c1.709,0,3.15-0.494,4.858-1.859l2.089,2.921
		c-1.897,1.556-4.327,2.621-7.252,2.621c-6.451,0-9.68-4.367-9.68-10.593c0-5.998,3.229-10.628,9.033-10.628
		c5.505,0,8.733,3.797,8.733,10.136c0,0.645-0.078,1.441-0.114,1.975H739.431z M739.395,246.543h7.936
		c-0.039-3.456-1.101-5.503-3.871-5.503C741.14,241.04,739.663,242.749,739.395,246.543z"/>
	<path style="fill:#3C3C3C;" d="M768.404,244.038c0-2.012-0.757-2.809-2.466-2.809c-1.669,0-3.036,1.291-4.138,2.809v14.198h-4.859
		v-20.081h4.217l0.341,2.503c1.705-2.012,3.945-3.074,6.301-3.074c3.719,0,5.463,2.202,5.463,5.961v14.69h-4.858V244.038z"/>
	<polygon style="fill:#F4E47C;" points="737.051,847.251 725.275,847.251 531.632,847.251 529.071,847.251 505.065,875.848 
		529.071,904.356 531.632,904.356 725.275,904.356 737.051,904.356 761.066,875.848 	"/>
	<polygon style="fill:#3C3C3C;" points="605.852,80.863 605.852,134.324 634.449,158.33 662.957,134.324 662.957,80.863 	"/>
	<polygon style="fill:#F4E47C;" points="605.852,300.122 605.852,338.822 634.449,362.828 662.957,338.822 662.957,300.122 	"/>
	<polygon style="fill:#40798C;" points="662.957,660.025 662.957,621.326 634.359,597.319 605.852,621.326 605.852,660.025 	"/>
	<g>
		<path style="fill:#3C3C3C;" d="M596.418,887.202v-14.733h-5.629v14.733h-4.315v-14.733h-2.8v-3.106h2.8v-1.886
			c0-3.269,1.989-5.73,6.844-5.73c2.289,0,4.043,0.572,5.493,1.279l-1.314,2.866c-1.112-0.507-2.392-0.845-3.672-0.845
			c-2.43,0-3.035,0.774-3.035,2.496v1.819h9.911v17.84H596.418z"/>
		<path style="fill:#3C3C3C;" d="M616.393,874.593c0-1.786-0.671-2.496-2.191-2.496c-1.483,0-2.698,1.146-3.673,2.496v12.609h-4.315
			v-17.84h3.743l0.3,2.224c1.519-1.787,3.508-2.726,5.596-2.726c3.307,0,4.855,1.953,4.855,5.292v13.05h-4.315V874.593z"/>
		<path style="fill:#3C3C3C;" d="M636.821,870.68v-8.934l4.315,0.469v24.987h-3.809l-0.272-2.125
			c-1.112,1.581-2.898,2.626-5.089,2.626c-4.62,0-6.777-3.737-6.777-9.438c0-5.459,2.696-9.405,7.251-9.405
			C634.194,868.86,635.709,869.5,636.821,870.68z M629.71,878.266c0,4.586,1.313,6.169,3.537,6.169c1.482,0,2.731-1.015,3.575-2.36
			v-8.19c-0.808-1.112-1.923-1.787-3.27-1.787C631.192,872.097,629.71,873.982,629.71,878.266z"/>
		<path style="fill:#3C3C3C;" d="M650.114,879.616c0.337,3.369,1.988,4.818,4.381,4.818c1.52,0,2.801-0.437,4.315-1.651l1.857,2.598
			c-1.688,1.38-3.847,2.322-6.44,2.322c-5.731,0-8.598-3.879-8.598-9.405c0-5.328,2.866-9.438,8.025-9.438
			c4.888,0,7.754,3.368,7.754,9.001c0,0.568-0.07,1.278-0.104,1.755H650.114z M650.081,876.816h7.046
			c-0.033-3.072-0.977-4.892-3.439-4.892C651.628,871.925,650.315,873.443,650.081,876.816z"/>
		<path style="fill:#3C3C3C;" d="M676.004,874.593c0-1.786-0.671-2.496-2.188-2.496c-1.483,0-2.698,1.146-3.673,2.496v12.609h-4.317
			v-17.84h3.743l0.302,2.224c1.52-1.787,3.509-2.726,5.597-2.726c3.307,0,4.853,1.953,4.853,5.292v13.05h-4.315V874.593z"/>
	</g>
	<path style="fill:#40798C;" d="M803.047,749.693c3.195-17.929,25.562-27.662,25.562-27.662s-22.367-9.372-25.562-27.301
		c-3.2-17.93-18.519-34.705-30.681-34.705h-34.722H527.939h-34.717c-12.168,0-27.486,16.693-30.686,34.623
		c-3.195,17.929-25.559,27.511-25.559,27.511s22.363,9.59,25.559,27.52c3.2,17.929,18.517,34.922,30.686,34.922h34.717h209.702
		h34.726C784.529,784.601,799.847,767.623,803.047,749.693z"/>
	<g>
		<g>
			<path style="fill:#F7FBFF;" d="M489.212,726.26c1.482,0.951,3.607,1.668,5.884,1.668c3.381,0,5.354-1.783,5.354-4.365
				c0-2.354-1.367-3.754-4.823-5.047c-4.175-1.517-6.757-3.719-6.757-7.289c0-3.987,3.303-6.946,8.277-6.946
				c2.582,0,4.518,0.604,5.617,1.255l-0.91,2.694c-0.799-0.496-2.504-1.215-4.822-1.215c-3.492,0-4.818,2.086-4.818,3.833
				c0,2.393,1.552,3.565,5.086,4.933c4.328,1.673,6.489,3.759,6.489,7.52c0,3.945-2.882,7.402-8.919,7.402
				c-2.467,0-5.164-0.761-6.531-1.67L489.212,726.26z"/>
			<path style="fill:#F7FBFF;" d="M510.373,721.702c0.073,4.521,2.923,6.382,6.299,6.382c2.393,0,3.871-0.419,5.086-0.951
				l0.609,2.394c-1.178,0.525-3.229,1.176-6.152,1.176c-5.654,0-9.034-3.758-9.034-9.302c0-5.542,3.265-9.87,8.619-9.87
				c6.036,0,7.592,5.238,7.592,8.615c0,0.683-0.041,1.177-0.114,1.557H510.373z M520.165,719.314
				c0.036-2.088-0.873-5.395-4.633-5.395c-3.414,0-4.859,3.079-5.122,5.395H520.165z"/>
			<path style="fill:#F7FBFF;" d="M527.741,716.885c0-1.936-0.074-3.455-0.152-4.976h2.924l0.151,2.998h0.112
				c1.025-1.747,2.734-3.377,5.811-3.377c2.466,0,4.365,1.516,5.163,3.683h0.074c0.568-1.062,1.33-1.821,2.088-2.39
				c1.1-0.839,2.277-1.293,4.023-1.293c2.47,0,6.073,1.594,6.073,7.973v10.78h-3.261v-10.36c0-3.574-1.33-5.658-3.986-5.658
				c-1.939,0-3.38,1.405-3.985,2.998c-0.153,0.493-0.268,1.062-0.268,1.672v11.349h-3.266v-11.011c0-2.924-1.289-5.008-3.834-5.008
				c-2.05,0-3.607,1.673-4.138,3.339c-0.188,0.458-0.263,1.064-0.263,1.637v11.043h-3.266V716.885z"/>
			<path style="fill:#F7FBFF;" d="M563.216,706.746c0,1.14-0.795,2.052-2.125,2.052c-1.215,0-2.009-0.912-2.009-2.052
				c0-1.137,0.832-2.083,2.087-2.083C562.384,704.663,563.216,705.569,563.216,706.746z M559.498,730.283v-18.374h3.34v18.374
				H559.498z"/>
			<path style="fill:#F7FBFF;" d="M568.438,716.885c0-1.936-0.037-3.455-0.153-4.976h2.96l0.19,3.04h0.078
				c0.91-1.709,3.035-3.419,6.074-3.419c2.541,0,6.489,1.516,6.489,7.82v10.933h-3.339v-10.592c0-2.959-1.104-5.427-4.253-5.427
				c-2.163,0-3.871,1.556-4.477,3.419c-0.152,0.416-0.231,0.984-0.231,1.557v11.043h-3.339V716.885z"/>
			<path style="fill:#F7FBFF;" d="M602.467,725.878c0,1.596,0.078,3.154,0.268,4.405h-2.998l-0.268-2.313h-0.115
				c-1.026,1.439-2.998,2.732-5.617,2.732c-3.719,0-5.617-2.618-5.617-5.278c0-4.439,3.946-6.868,11.044-6.834v-0.38
				c0-1.478-0.416-4.25-4.175-4.212c-1.746,0-3.529,0.493-4.822,1.367l-0.758-2.241c1.52-0.951,3.76-1.594,6.074-1.594
				c5.617,0,6.984,3.835,6.984,7.479V725.878z M599.242,720.906c-3.644-0.078-7.782,0.568-7.782,4.139c0,2.2,1.44,3.188,3.113,3.188
				c2.43,0,3.986-1.517,4.518-3.072c0.115-0.38,0.152-0.763,0.152-1.062V720.906z"/>
			<path style="fill:#F7FBFF;" d="M607.914,717.642c0-2.166-0.037-4.023-0.152-5.732h2.923l0.153,3.645h0.11
				c0.836-2.466,2.887-4.023,5.127-4.023c0.342,0,0.609,0.038,0.911,0.074v3.154c-0.342-0.078-0.684-0.078-1.137-0.078
				c-2.356,0-4.024,1.746-4.48,4.254c-0.078,0.452-0.115,1.021-0.115,1.557v9.792h-3.34V717.642z"/>
			<path style="fill:#F7FBFF;" d="M622.224,721.702c0.074,4.521,2.923,6.382,6.3,6.382c2.393,0,3.87-0.419,5.085-0.951l0.609,2.394
				c-1.178,0.525-3.228,1.176-6.152,1.176c-5.653,0-9.034-3.758-9.034-9.302c0-5.542,3.266-9.87,8.619-9.87
				c6.036,0,7.593,5.238,7.593,8.615c0,0.683-0.037,1.177-0.115,1.557H622.224z M632.016,719.314
				c0.037-2.088-0.874-5.395-4.633-5.395c-3.414,0-4.859,3.079-5.122,5.395H632.016z"/>
			<path style="fill:#F7FBFF;" d="M660.321,725.878c0,1.596,0.079,3.154,0.269,4.405h-2.998l-0.268-2.313h-0.115
				c-1.025,1.439-2.998,2.732-5.617,2.732c-3.719,0-5.617-2.618-5.617-5.278c0-4.439,3.945-6.868,11.044-6.834v-0.38
				c0-1.478-0.415-4.25-4.175-4.212c-1.746,0-3.529,0.493-4.821,1.367l-0.759-2.241c1.521-0.951,3.76-1.594,6.074-1.594
				c5.616,0,6.983,3.835,6.983,7.479V725.878z M657.096,720.906c-3.644-0.078-7.782,0.568-7.782,4.139
				c0,2.2,1.441,3.188,3.113,3.188c2.43,0,3.985-1.517,4.518-3.072c0.114-0.38,0.151-0.763,0.151-1.062V720.906z"/>
			<path style="fill:#F7FBFF;" d="M665.761,716.885c0-1.936-0.038-3.455-0.153-4.976h2.962l0.188,3.04h0.078
				c0.91-1.709,3.034-3.419,6.074-3.419c2.54,0,6.489,1.516,6.489,7.82v10.933h-3.339v-10.592c0-2.959-1.101-5.427-4.255-5.427
				c-2.16,0-3.869,1.556-4.476,3.419c-0.152,0.416-0.23,0.984-0.23,1.557v11.043h-3.339V716.885z"/>
			<path style="fill:#F7FBFF;" d="M686.876,703.328h3.303v11.543h0.074c1.177-2.048,3.303-3.341,6.267-3.341
				c4.592,0,7.778,3.797,7.778,9.34c0,6.563-4.175,9.832-8.272,9.832c-2.66,0-4.784-1.027-6.188-3.417h-0.074l-0.194,2.998h-2.845
				c0.078-1.251,0.152-3.112,0.152-4.743V703.328z M690.179,722.92c0,0.416,0.036,0.832,0.152,1.211
				c0.604,2.319,2.582,3.911,5.012,3.911c3.527,0,5.579-2.849,5.579-7.058c0-3.684-1.898-6.834-5.505-6.834
				c-2.24,0-4.365,1.592-5.05,4.102c-0.114,0.416-0.188,0.872-0.188,1.403V722.92z"/>
			<path style="fill:#F7FBFF;" d="M712.445,706.746c0,1.14-0.796,2.052-2.127,2.052c-1.214,0-2.008-0.912-2.008-2.052
				c0-1.137,0.832-2.083,2.087-2.083C711.611,704.663,712.445,705.569,712.445,706.746z M708.726,730.283v-18.374h3.339v18.374
				H708.726z"/>
			<path style="fill:#F7FBFF;" d="M719.655,721.702c0.074,4.521,2.923,6.382,6.299,6.382c2.393,0,3.871-0.419,5.086-0.951
				l0.609,2.394c-1.178,0.525-3.229,1.176-6.151,1.176c-5.654,0-9.035-3.758-9.035-9.302c0-5.542,3.267-9.87,8.619-9.87
				c6.036,0,7.594,5.238,7.594,8.615c0,0.683-0.042,1.177-0.116,1.557H719.655z M729.447,719.314
				c0.036-2.088-0.873-5.395-4.634-5.395c-3.413,0-4.859,3.079-5.122,5.395H729.447z"/>
			<path style="fill:#F7FBFF;" d="M741.12,707.509v4.4h4.786v2.546h-4.786v9.907c0,2.276,0.646,3.565,2.507,3.565
				c0.912,0,1.442-0.074,1.936-0.227l0.153,2.546c-0.646,0.225-1.671,0.455-2.96,0.455c-1.558,0-2.812-0.533-3.608-1.407
				c-0.909-1.021-1.292-2.656-1.292-4.818v-10.021h-2.846v-2.546h2.846v-3.417L741.12,707.509z"/>
			<path style="fill:#F7FBFF;" d="M751.358,721.702c0.072,4.521,2.923,6.382,6.298,6.382c2.394,0,3.871-0.419,5.086-0.951
				l0.61,2.394c-1.179,0.525-3.229,1.176-6.151,1.176c-5.654,0-9.035-3.758-9.035-9.302c0-5.542,3.265-9.87,8.619-9.87
				c6.035,0,7.592,5.238,7.592,8.615c0,0.683-0.036,1.177-0.114,1.557H751.358z M761.15,719.314
				c0.036-2.088-0.874-5.395-4.634-5.395c-3.414,0-4.859,3.079-5.122,5.395H761.15z"/>
			<path style="fill:#F7FBFF;" d="M768.726,716.885c0-1.936-0.038-3.455-0.152-4.976h2.959l0.19,3.04h0.079
				c0.909-1.709,3.033-3.419,6.073-3.419c2.54,0,6.489,1.516,6.489,7.82v10.933h-3.339v-10.592c0-2.959-1.104-5.427-4.255-5.427
				c-2.162,0-3.871,1.556-4.476,3.419c-0.152,0.416-0.23,0.984-0.23,1.557v11.043h-3.339V716.885z"/>
		</g>
	</g>
</g>
<g id="Ebene_2">
</g>
<g id="Ebene_3">
</g>
</svg>
