<?xml version="1.0" encoding="utf-8"?>
<!-- Generator: Adobe Illustrator 16.0.0, SVG Export Plug-In . SVG Version: 6.00 Build 0)  -->
<!DOCTYPE svg PUBLIC "-//W3C//DTD SVG 1.0//EN" "http://www.w3.org/TR/2001/REC-SVG-20010904/DTD/svg10.dtd">
<svg version="1.0" id="Ebene_1" xmlns="http://www.w3.org/2000/svg" xmlns:xlink="http://www.w3.org/1999/xlink" x="0px" y="0px"
	 width="10.439px" height="10.439px" viewBox="0 0 10.439 10.439" enable-background="new 0 0 10.439 10.439" xml:space="preserve">
<g>
	<circle fill="#FFFFFF" cx="5.219" cy="5.219" r="5.219"/>
	<g>
		<g>
			<g>
				<polygon fill="#575756" points="2.918,3.265 4.291,5.263 2.911,7.258 8.407,5.268 				"/>
			</g>
			<g>
				<path fill="#575756" d="M2.021,8.501C1.973,8.455,1.926,8.405,1.88,8.355C0.168,6.48,0.299,3.563,2.173,1.851
					C4.047,0.14,6.962,0.27,8.676,2.144C9.23,2.752,9.613,3.497,9.781,4.296c0.026,0.127-0.055,0.25-0.181,0.277
					C9.475,4.6,9.35,4.519,9.324,4.392C9.173,3.674,8.829,3.006,8.33,2.46C6.795,0.78,4.171,0.659,2.488,2.197
					C0.804,3.735,0.687,6.355,2.225,8.039C3.766,9.724,6.384,9.84,8.067,8.302c0.662-0.605,1.101-1.39,1.272-2.27
					c0.022-0.126,0.146-0.209,0.271-0.184c0.128,0.024,0.21,0.147,0.187,0.274C9.609,7.101,9.119,7.974,8.383,8.648
					C6.56,10.314,3.748,10.234,2.021,8.501z"/>
			</g>
		</g>
	</g>
</g>
</svg>
