<?xml version="1.0" encoding="utf-8"?>
<!-- Generator: Adobe Illustrator 16.0.0, SVG Export Plug-In . SVG Version: 6.00 Build 0)  -->
<!DOCTYPE svg PUBLIC "-//W3C//DTD SVG 1.0//EN" "http://www.w3.org/TR/2001/REC-SVG-20010904/DTD/svg10.dtd">
<svg version="1.0" id="Ebene_1" xmlns="http://www.w3.org/2000/svg" xmlns:xlink="http://www.w3.org/1999/xlink" x="0px" y="0px"
	 width="243px" height="42.5px" viewBox="0 0 243 42.5" style="enable-background:new 0 0 243 42.5;" xml:space="preserve">
<g>
	<path style="fill:#3D3D3D;" d="M1.207,21.068l0.004-3.005c0.002-1.573,0.463-2.851,1.382-3.832c0.919-0.982,2.268-1.472,4.047-1.47
		c1.124,0.001,2.064,0.205,2.822,0.608c0.757,0.404,1.136,0.811,1.135,1.224c0,0.206-0.084,0.406-0.253,0.604
		c-0.168,0.196-0.356,0.294-0.562,0.293c-0.112,0-0.286-0.082-0.52-0.246c-0.234-0.165-0.566-0.333-0.996-0.507
		c-0.431-0.173-0.946-0.261-1.544-0.262c-1.199-0.001-2.113,0.314-2.741,0.946c-0.628,0.632-0.943,1.517-0.944,2.652l-0.004,2.99
		c-0.001,1.155,0.31,2.05,0.937,2.683c0.626,0.636,1.548,0.953,2.765,0.955c0.637,0.001,1.175-0.086,1.617-0.258
		c0.439-0.173,0.777-0.347,1.012-0.519c0.233-0.174,0.417-0.261,0.547-0.261c0.243,0.001,0.444,0.095,0.604,0.281
		c0.159,0.188,0.239,0.394,0.238,0.618c0,0.432-0.395,0.849-1.183,1.248c-0.786,0.404-1.76,0.604-2.921,0.603
		c-1.798-0.003-3.155-0.494-4.072-1.468C1.662,23.974,1.205,22.679,1.207,21.068z"/>
	<path style="fill:#3D3D3D;" d="M12.696,21.084l0.004-3.062c0.002-1.423,0.528-2.653,1.579-3.691
		c1.05-1.039,2.295-1.557,3.738-1.555c1.441,0.002,2.696,0.52,3.762,1.55c1.066,1.031,1.598,2.269,1.596,3.71l-0.004,3.062
		c-0.002,1.405-0.542,2.646-1.621,3.72c-1.078,1.075-2.329,1.614-3.751,1.612c-1.404-0.002-2.641-0.545-3.707-1.623
		C13.226,23.731,12.694,22.489,12.696,21.084z M14.523,21.078c-0.001,0.95,0.338,1.794,1.021,2.53
		c0.682,0.736,1.5,1.105,2.456,1.107c0.974,0.002,1.807-0.365,2.502-1.102c0.693-0.732,1.041-1.577,1.042-2.527l0.004-3.044
		c0.001-0.913-0.348-1.733-1.049-2.46c-0.702-0.727-1.53-1.092-2.485-1.093c-0.956-0.001-1.775,0.362-2.459,1.086
		c-0.685,0.726-1.027,1.544-1.028,2.458L14.523,21.078z"/>
	<path style="fill:#3D3D3D;" d="M26.229,25.515l0.017-11.882c0-0.187,0.085-0.347,0.253-0.478c0.169-0.13,0.384-0.196,0.646-0.196
		c0.243,0,0.45,0.067,0.618,0.201c0.168,0.133,0.251,0.295,0.251,0.484l-0.002,1.311c0.339-0.625,0.831-1.141,1.478-1.548
		c0.646-0.407,1.401-0.61,2.263-0.609c0.899,0.001,1.703,0.262,2.414,0.783s1.234,1.206,1.571,2.058
		c0.469-0.925,1.087-1.628,1.856-2.11c0.769-0.48,1.575-0.721,2.417-0.719c1.273,0.001,2.377,0.48,3.312,1.437
		c0.936,0.957,1.401,2.231,1.399,3.822l-0.01,7.473c0,0.187-0.089,0.354-0.268,0.505c-0.179,0.149-0.398,0.225-0.66,0.225
		c-0.243,0-0.454-0.075-0.632-0.227c-0.178-0.148-0.266-0.316-0.266-0.504l0.01-7.455c0.001-1.102-0.32-1.971-0.965-2.608
		c-0.645-0.636-1.389-0.955-2.232-0.956c-0.862-0.001-1.625,0.32-2.291,0.963c-0.666,0.644-1,1.471-1.001,2.479l-0.011,7.595
		c0,0.468-0.31,0.701-0.927,0.699c-0.6,0-0.899-0.234-0.898-0.701l0.011-7.567c0.001-0.989-0.312-1.817-0.938-2.48
		c-0.627-0.665-1.38-0.997-2.26-0.999c-0.88-0.001-1.653,0.32-2.319,0.964s-0.999,1.507-1,2.591l-0.01,7.455
		c0,0.188-0.095,0.354-0.282,0.504c-0.188,0.148-0.403,0.225-0.646,0.225c-0.243-0.001-0.454-0.076-0.632-0.227
		C26.317,25.87,26.229,25.7,26.229,25.515z"/>
	<path style="fill:#3D3D3D;" d="M47.991,32.088l0.025-18.427c0-0.187,0.085-0.346,0.253-0.477c0.169-0.13,0.385-0.196,0.646-0.196
		c0.243,0,0.45,0.067,0.618,0.201c0.168,0.133,0.251,0.293,0.251,0.483l-0.002,1.309c0.339-0.605,0.834-1.116,1.491-1.533
		c0.657-0.416,1.415-0.623,2.277-0.622c1.385,0.002,2.574,0.519,3.565,1.55c0.991,1.031,1.485,2.269,1.483,3.71l-0.004,3.062
		c-0.002,1.406-0.505,2.646-1.508,3.72c-1.004,1.076-2.161,1.613-3.471,1.611c-0.824,0-1.583-0.215-2.275-0.644
		c-0.692-0.428-1.197-0.944-1.514-1.552l-0.011,7.805c0,0.17-0.09,0.329-0.268,0.479c-0.178,0.149-0.398,0.225-0.661,0.224
		c-0.243,0-0.454-0.074-0.632-0.225C48.079,32.417,47.99,32.257,47.991,32.088z M49.831,21.994c0,0.503,0.349,1.088,1.05,1.761
		c0.702,0.67,1.502,1.008,2.4,1.01c0.918,0.002,1.729-0.369,2.432-1.114c0.703-0.744,1.056-1.582,1.057-2.513l0.004-3.044
		c0.001-0.913-0.349-1.733-1.05-2.46c-0.701-0.727-1.53-1.092-2.485-1.093c-0.899-0.001-1.69,0.324-2.374,0.975
		c-0.685,0.651-1.027,1.508-1.029,2.569L49.831,21.994z"/>
	<path style="fill:#3D3D3D;" d="M61.096,21.151l0.004-3.146c0.002-1.404,0.527-2.615,1.578-3.635
		c1.05-1.019,2.315-1.528,3.795-1.526c1.423,0.002,2.653,0.492,3.691,1.467c1.038,0.977,1.556,2.196,1.554,3.659
		c-0.001,0.523-0.062,0.943-0.184,1.261c-0.123,0.317-0.319,0.542-0.591,0.672c-0.271,0.13-0.52,0.214-0.744,0.251
		c-0.226,0.038-0.534,0.056-0.928,0.055L62.923,20.2l-0.001,1.039c-0.001,1.105,0.396,1.99,1.19,2.656
		c0.796,0.666,1.82,1,3.075,1.002c0.637,0,1.194-0.094,1.672-0.278c0.478-0.188,0.842-0.373,1.096-0.562
		c0.253-0.187,0.454-0.279,0.605-0.279c0.206,0,0.388,0.099,0.547,0.296c0.159,0.196,0.238,0.388,0.238,0.575
		c0,0.394-0.404,0.802-1.209,1.222c-0.806,0.42-1.809,0.63-3.007,0.628c-1.779-0.002-3.229-0.497-4.352-1.48
		C61.653,24.033,61.094,22.744,61.096,21.151z M62.925,18.85l5.619,0.008c0.561,0,0.936-0.059,1.124-0.18
		c0.187-0.121,0.281-0.376,0.282-0.768c0.001-0.93-0.331-1.749-0.994-2.457c-0.664-0.708-1.501-1.063-2.513-1.065
		c-0.974-0.001-1.803,0.333-2.488,1.002c-0.684,0.668-1.027,1.469-1.028,2.399L62.925,18.85z"/>
	<path style="fill:#3D3D3D;" d="M74.409,22.187L74.43,7.404c0-0.188,0.094-0.345,0.281-0.476c0.187-0.131,0.394-0.197,0.619-0.196
		c0.243,0,0.458,0.066,0.646,0.197s0.28,0.289,0.28,0.476l-0.009,5.621l3.625,0.005c0.186,0,0.34,0.077,0.462,0.229
		c0.122,0.153,0.183,0.334,0.183,0.544c0,0.209-0.062,0.39-0.184,0.543c-0.123,0.152-0.277,0.228-0.463,0.228l-3.625-0.005
		l-0.01,7.577c-0.001,0.91,0.189,1.546,0.573,1.91c0.384,0.362,1.062,0.545,2.037,0.545l0.786,0.002
		c0.243,0,0.445,0.084,0.604,0.248c0.159,0.164,0.238,0.361,0.237,0.595c0,0.231-0.08,0.437-0.239,0.61
		c-0.16,0.174-0.362,0.261-0.605,0.261l-0.786-0.001C75.882,26.313,74.405,24.937,74.409,22.187z"/>
	<path style="fill:#3D3D3D;" d="M82.052,21.18l0.004-3.146c0.002-1.404,0.527-2.616,1.577-3.635c1.05-1.019,2.315-1.528,3.795-1.526
		c1.423,0.002,2.653,0.492,3.691,1.467c1.037,0.977,1.556,2.196,1.554,3.658c-0.001,0.523-0.062,0.943-0.184,1.261
		c-0.123,0.317-0.319,0.542-0.591,0.672c-0.271,0.129-0.52,0.213-0.745,0.251c-0.226,0.037-0.534,0.055-0.928,0.055l-6.348-0.009
		l-0.001,1.039c-0.001,1.105,0.395,1.992,1.19,2.658s1.82,1,3.075,1.002c0.637,0,1.194-0.094,1.672-0.279
		c0.478-0.188,0.842-0.372,1.096-0.561c0.254-0.188,0.454-0.279,0.605-0.279c0.206,0,0.388,0.098,0.547,0.295
		s0.238,0.389,0.238,0.576c0,0.394-0.404,0.801-1.209,1.221c-0.806,0.421-1.809,0.631-3.007,0.629
		c-1.779-0.002-3.229-0.498-4.352-1.481C82.609,24.062,82.05,22.772,82.052,21.18z M83.881,18.879l5.619,0.008
		c0.561,0.001,0.935-0.059,1.124-0.18c0.187-0.121,0.281-0.376,0.281-0.768c0.001-0.93-0.33-1.749-0.994-2.457
		s-1.501-1.063-2.512-1.065c-0.974-0.001-1.803,0.333-2.488,1.002c-0.684,0.668-1.027,1.469-1.028,2.399L83.881,18.879z"/>
	<path style="fill:#3D3D3D;" d="M95.416,25.609l0.017-11.882c0-0.206,0.085-0.369,0.253-0.491c0.168-0.122,0.384-0.183,0.646-0.183
		c0.225,0,0.421,0.068,0.589,0.201c0.168,0.133,0.252,0.295,0.252,0.484l-0.002,1.311c0.319-0.606,0.806-1.118,1.462-1.534
		c0.657-0.417,1.424-0.624,2.305-0.623c1.348,0.002,2.517,0.52,3.509,1.55c0.99,1.031,1.485,2.269,1.483,3.71l-0.01,7.472
		c0,0.225-0.095,0.401-0.282,0.533c-0.188,0.132-0.403,0.195-0.646,0.195c-0.224,0-0.431-0.065-0.617-0.197
		c-0.188-0.13-0.282-0.307-0.281-0.531l0.01-7.455c0.001-0.916-0.344-1.739-1.035-2.468c-0.692-0.729-1.516-1.095-2.471-1.097
		c-0.88-0.001-1.658,0.326-2.332,0.979c-0.675,0.653-1.013,1.512-1.015,2.577l-0.01,7.455c0,0.187-0.095,0.354-0.282,0.504
		c-0.188,0.147-0.403,0.224-0.646,0.224c-0.262,0-0.478-0.076-0.646-0.226C95.5,25.968,95.416,25.796,95.416,25.609z"/>
	<path style="fill:#3D3D3D;" d="M108.877,21.217l0.004-3.005c0.002-1.573,0.463-2.851,1.382-3.832
		c0.919-0.981,2.268-1.472,4.047-1.47c1.124,0.002,2.065,0.205,2.822,0.608c0.758,0.404,1.136,0.812,1.136,1.224
		c0,0.206-0.084,0.406-0.253,0.603c-0.168,0.196-0.357,0.294-0.563,0.293c-0.112,0-0.285-0.082-0.519-0.246
		c-0.234-0.165-0.566-0.334-0.996-0.508c-0.431-0.173-0.946-0.261-1.544-0.262c-1.199-0.002-2.113,0.314-2.74,0.946
		c-0.628,0.632-0.943,1.517-0.944,2.652l-0.004,2.99c-0.002,1.155,0.31,2.051,0.937,2.684c0.626,0.635,1.548,0.953,2.765,0.955
		c0.637,0,1.175-0.086,1.617-0.258c0.439-0.174,0.777-0.346,1.012-0.519c0.234-0.175,0.417-0.261,0.548-0.261
		c0.243,0,0.444,0.094,0.603,0.281c0.16,0.188,0.239,0.395,0.239,0.618c-0.001,0.433-0.396,0.849-1.183,1.248
		c-0.786,0.403-1.761,0.604-2.921,0.603c-1.798-0.002-3.155-0.493-4.071-1.469C109.332,24.122,108.874,22.828,108.877,21.217z"/>
	<path style="fill:#3D3D3D;" d="M120.254,21.233l0.004-3.146c0.002-1.404,0.528-2.615,1.578-3.635
		c1.051-1.019,2.316-1.528,3.795-1.526c1.424,0.002,2.653,0.492,3.689,1.467c1.039,0.977,1.558,2.196,1.556,3.658
		c0,0.523-0.062,0.943-0.185,1.261c-0.123,0.317-0.319,0.542-0.59,0.672c-0.272,0.129-0.521,0.214-0.746,0.251
		c-0.226,0.037-0.533,0.056-0.928,0.055l-6.348-0.009l-0.001,1.039c-0.001,1.104,0.396,1.991,1.188,2.657
		c0.797,0.666,1.82,1,3.074,1.002c0.639,0,1.195-0.094,1.674-0.278c0.479-0.188,0.842-0.373,1.096-0.562
		c0.254-0.187,0.455-0.279,0.604-0.279c0.206,0,0.388,0.099,0.548,0.296c0.157,0.196,0.237,0.388,0.237,0.575
		c-0.001,0.394-0.403,0.802-1.21,1.221c-0.807,0.421-1.809,0.631-3.007,0.629c-1.779-0.002-3.229-0.497-4.353-1.48
		C120.811,24.114,120.251,22.826,120.254,21.233z M122.082,18.932l5.619,0.008c0.562,0.001,0.936-0.059,1.123-0.179
		c0.188-0.121,0.281-0.377,0.281-0.768c0.002-0.93-0.33-1.749-0.994-2.457c-0.662-0.708-1.5-1.064-2.512-1.065
		c-0.975-0.001-1.804,0.333-2.488,1.002c-0.684,0.668-1.026,1.469-1.027,2.399L122.082,18.932z"/>
</g>
<g>
	<circle style="fill:#E3E3E2;" cx="157.773" cy="21.105" r="19.518"/>
	<g>
		<g>
			<g>
				<polygon style="fill:#585857;" points="146.518,22.022 155.436,23.675 157.061,32.601 166.331,12.807 				"/>
			</g>
			<g>
				<path style="fill:#585857;" d="M157.992,38.244c-0.251,0-0.506-0.007-0.76-0.019c-9.481-0.429-16.849-8.489-16.422-17.971
					c0.431-9.479,8.483-16.842,17.97-16.42c3.075,0.142,6.054,1.097,8.614,2.768c0.405,0.264,0.516,0.804,0.256,1.209
					c-0.264,0.404-0.807,0.52-1.211,0.254c-2.299-1.499-4.974-2.356-7.736-2.482c-8.504-0.381-15.762,6.236-16.145,14.75
					c-0.385,8.521,6.234,15.761,14.752,16.144c8.531,0.385,15.76-6.231,16.146-14.75c0.149-3.353-0.763-6.587-2.638-9.362
					c-0.271-0.399-0.168-0.941,0.232-1.21c0.4-0.272,0.944-0.167,1.215,0.232c2.088,3.087,3.104,6.689,2.938,10.418
					C174.787,31.033,167.143,38.257,157.992,38.244z"/>
			</g>
		</g>
	</g>
</g>
<g>
	<path style="fill:#3D3D3D;" d="M185.021,24.638c0-0.187,0.066-0.373,0.197-0.562c0.133-0.187,0.282-0.28,0.449-0.28
		c0.132,0.001,0.338,0.108,0.618,0.324s0.683,0.438,1.208,0.662c0.521,0.227,1.148,0.339,1.881,0.34
		c0.992,0.001,1.725-0.186,2.191-0.559c0.469-0.375,0.703-0.853,0.703-1.434c0.002-0.674-0.235-1.213-0.713-1.617
		c-0.478-0.403-1.054-0.708-1.728-0.913c-0.673-0.206-1.353-0.413-2.035-0.621c-0.685-0.208-1.265-0.57-1.739-1.085
		c-0.479-0.516-0.716-1.204-0.715-2.066c0.002-1.029,0.373-1.923,1.114-2.681c0.739-0.757,1.851-1.135,3.33-1.133
		c0.918,0.001,1.774,0.147,2.569,0.439s1.192,0.605,1.192,0.942c-0.001,0.188-0.075,0.394-0.226,0.617
		c-0.151,0.225-0.329,0.337-0.535,0.337c-0.057,0-0.402-0.131-1.039-0.395c-0.637-0.263-1.281-0.395-1.938-0.396
		c-0.938-0.001-1.64,0.218-2.108,0.658c-0.468,0.439-0.702,0.935-0.703,1.484c-0.001,0.569,0.241,1.019,0.726,1.351
		c0.486,0.33,1.066,0.596,1.741,0.797s1.359,0.404,2.052,0.611c0.693,0.207,1.272,0.615,1.741,1.224
		c0.466,0.61,0.699,1.398,0.697,2.364c-0.001,1.123-0.399,2.009-1.196,2.652c-0.798,0.646-1.908,0.968-3.33,0.966
		c-1.236-0.002-2.279-0.225-3.132-0.665S185.021,25.104,185.021,24.638z"/>
	<path style="fill:#3D3D3D;" d="M196.207,21.339l0.004-3.006c0.002-1.573,0.463-2.851,1.383-3.832
		c0.918-0.982,2.268-1.472,4.047-1.469c1.123,0.001,2.063,0.204,2.822,0.607c0.758,0.404,1.135,0.812,1.135,1.224
		c0,0.206-0.084,0.407-0.252,0.604c-0.17,0.196-0.356,0.294-0.562,0.294c-0.111,0-0.285-0.083-0.52-0.247
		c-0.233-0.165-0.566-0.333-0.996-0.507c-0.432-0.174-0.945-0.261-1.545-0.262c-1.199-0.001-2.111,0.314-2.74,0.946
		c-0.629,0.633-0.942,1.517-0.944,2.653l-0.004,2.989c-0.002,1.155,0.312,2.051,0.937,2.684c0.627,0.635,1.551,0.951,2.768,0.953
		c0.636,0.002,1.176-0.084,1.613-0.258c0.44-0.172,0.778-0.344,1.015-0.517c0.233-0.175,0.416-0.261,0.548-0.261
		c0.243,0,0.443,0.095,0.604,0.281c0.157,0.188,0.238,0.395,0.238,0.618c-0.001,0.433-0.396,0.847-1.182,1.248
		c-0.789,0.402-1.762,0.603-2.924,0.601c-1.797-0.002-3.154-0.49-4.07-1.467C196.662,24.242,196.204,22.949,196.207,21.339z"/>
	<path style="fill:#3D3D3D;" d="M207.557,21.354l0.004-3.062c0.002-1.423,0.527-2.654,1.578-3.692s2.295-1.555,3.737-1.553
		c1.44,0.002,2.697,0.518,3.763,1.55c1.066,1.031,1.598,2.268,1.596,3.709l-0.004,3.062c-0.002,1.404-0.541,2.646-1.621,3.72
		c-1.077,1.075-2.328,1.612-3.752,1.61c-1.404-0.002-2.639-0.543-3.705-1.62C208.085,24.001,207.555,22.759,207.557,21.354z
		 M209.382,21.348c-0.002,0.95,0.339,1.793,1.021,2.529c0.684,0.737,1.503,1.106,2.457,1.107c0.975,0.001,1.808-0.364,2.502-1.101
		c0.693-0.733,1.041-1.576,1.044-2.527l0.004-3.044c0.001-0.913-0.351-1.733-1.052-2.46c-0.7-0.727-1.528-1.091-2.483-1.093
		s-1.774,0.361-2.46,1.086c-0.686,0.726-1.027,1.544-1.027,2.458L209.382,21.348z"/>
	<path style="fill:#3D3D3D;" d="M221.096,21.429l0.01-7.5c0-0.168,0.09-0.327,0.268-0.477c0.178-0.149,0.398-0.224,0.66-0.223
		c0.225,0,0.432,0.075,0.617,0.225c0.188,0.15,0.281,0.309,0.281,0.477l-0.01,7.483c-0.002,0.935,0.344,1.767,1.034,2.496
		s1.517,1.095,2.472,1.097s1.778-0.361,2.473-1.09c0.693-0.729,1.043-1.559,1.045-2.493l0.01-7.511
		c0.001-0.187,0.094-0.345,0.279-0.476c0.188-0.13,0.404-0.195,0.646-0.195c0.244,0,0.455,0.066,0.633,0.197
		c0.178,0.131,0.268,0.291,0.267,0.478l-0.011,7.528c-0.002,1.405-0.533,2.635-1.592,3.692c-1.061,1.057-2.312,1.584-3.753,1.582
		c-1.461-0.002-2.715-0.533-3.764-1.593C221.616,24.065,221.094,22.834,221.096,21.429z"/>
	<path style="fill:#3D3D3D;" d="M235.109,22.409l0.021-14.782c0-0.188,0.094-0.346,0.282-0.476c0.188-0.131,0.394-0.196,0.617-0.196
		c0.243,0,0.459,0.066,0.646,0.197c0.188,0.131,0.279,0.29,0.279,0.476l-0.008,5.621l3.623,0.005c0.188,0,0.343,0.077,0.464,0.229
		c0.121,0.152,0.182,0.334,0.182,0.544c0,0.209-0.062,0.391-0.184,0.543c-0.121,0.152-0.276,0.229-0.464,0.228l-3.623-0.005
		l-0.012,7.577c0,0.909,0.191,1.546,0.575,1.909c0.382,0.362,1.062,0.544,2.035,0.546l0.786,0.001c0.244,0,0.443,0.083,0.604,0.248
		c0.158,0.165,0.238,0.362,0.238,0.595c-0.001,0.233-0.081,0.438-0.238,0.61c-0.162,0.173-0.361,0.261-0.605,0.261l-0.786-0.001
		C236.583,26.536,235.105,25.158,235.109,22.409z"/>
</g>
</svg>
