<?xml version="1.0" encoding="utf-8"?>
<!-- Generator: Adobe Illustrator 16.0.0, SVG Export Plug-In . SVG Version: 6.00 Build 0)  -->
<!DOCTYPE svg PUBLIC "-//W3C//DTD SVG 1.0//EN" "http://www.w3.org/TR/2001/REC-SVG-20010904/DTD/svg10.dtd">
<svg version="1.0" id="Ebene_1" xmlns="http://www.w3.org/2000/svg" xmlns:xlink="http://www.w3.org/1999/xlink" x="0px" y="0px"
	 width="269.78px" height="39.035px" viewBox="0 0 269.78 39.035" style="enable-background:new 0 0 269.78 39.035;"
	 xml:space="preserve">
<g>
	<circle style="fill:#E3E3E2;" cx="175.644" cy="19.518" r="19.518"/>
	<g>
		<g>
			<g>
				<polygon style="fill:#585857;" points="164.388,20.436 173.306,22.088 174.931,31.014 184.202,11.22 				"/>
			</g>
			<g>
				<path style="fill:#585857;" d="M175.863,36.656c-0.251,0-0.506-0.006-0.76-0.018c-9.481-0.43-16.849-8.49-16.422-17.971
					c0.431-9.479,8.483-16.842,17.97-16.42c3.075,0.142,6.054,1.097,8.614,2.768c0.405,0.264,0.516,0.804,0.256,1.209
					c-0.264,0.404-0.807,0.52-1.211,0.254c-2.299-1.499-4.974-2.356-7.736-2.482c-8.504-0.381-15.762,6.236-16.145,14.75
					c-0.385,8.521,6.234,15.761,14.752,16.144c8.531,0.385,15.76-6.232,16.146-14.75c0.149-3.353-0.763-6.587-2.638-9.362
					c-0.271-0.399-0.168-0.941,0.232-1.21c0.4-0.272,0.944-0.167,1.215,0.232c2.088,3.087,3.104,6.689,2.938,10.418
					C192.658,29.445,185.013,36.67,175.863,36.656z"/>
			</g>
		</g>
	</g>
</g>
<g>
	<path style="fill:#5E5D5C;" d="M207.121,20.382c-0.717-0.313-1.217-0.639-1.5-0.979c-0.56-0.644-0.839-1.42-0.839-2.33
		s0.292-1.705,0.874-2.385c1.135-1.351,2.614-2.027,4.441-2.027c1.977,0,3.67,0.924,5.079,2.771
		c0.126,0.175,0.185,0.391,0.177,0.648c0,0.303-0.092,0.563-0.277,0.779c-0.185,0.216-0.407,0.324-0.667,0.324
		s-0.469-0.097-0.626-0.29c-0.158-0.193-0.271-0.331-0.343-0.414c-0.921-1.075-2.035-1.613-3.343-1.613
		c-1.307,0-2.351,0.478-3.13,1.434c-0.189,0.267-0.283,0.583-0.283,0.951c0.023,0.432,0.216,0.726,0.578,0.882l5.812,2.248
		c0.717,0.312,1.217,0.639,1.5,0.979c0.56,0.644,0.839,1.42,0.839,2.33c0,0.909-0.292,1.704-0.874,2.385
		c-1.134,1.351-2.614,2.026-4.441,2.026c-1.984,0-3.678-0.924-5.079-2.771c-0.118-0.193-0.177-0.409-0.177-0.648
		c0-0.304,0.093-0.562,0.277-0.779c0.185-0.216,0.407-0.323,0.667-0.323c0.261,0,0.469,0.096,0.626,0.289
		c0.158,0.193,0.272,0.331,0.343,0.414c0.922,1.075,2.036,1.612,3.343,1.612c1.308,0,2.351-0.478,3.13-1.434
		c0.189-0.267,0.284-0.583,0.284-0.951c-0.024-0.432-0.217-0.726-0.579-0.882L207.121,20.382z"/>
	<path style="fill:#5E5D5C;" d="M227.579,24.324c0.26,0,0.481,0.108,0.667,0.324c0.185,0.216,0.277,0.476,0.277,0.778
		c0,0.304-0.099,0.575-0.295,0.813c-1.221,1.241-2.658,1.861-4.312,1.861c-1.827,0-3.386-0.754-4.678-2.261
		c-1.291-1.508-1.937-3.327-1.937-5.459c0-2.132,0.646-3.952,1.937-5.459c1.292-1.507,2.851-2.261,4.678-2.261
		c1.653,0,3.091,0.621,4.312,1.861c0.22,0.229,0.33,0.515,0.33,0.854c0,0.303-0.092,0.563-0.277,0.779
		c-0.185,0.216-0.407,0.324-0.667,0.324c-0.229,0-0.43-0.083-0.603-0.248c-0.882-0.91-1.913-1.365-3.095-1.365
		c-1.308,0-2.421,0.538-3.343,1.613c-0.921,1.075-1.382,2.376-1.382,3.902c0,1.525,0.461,2.826,1.382,3.901
		c0.922,1.075,2.035,1.612,3.343,1.612c1.182,0,2.209-0.45,3.083-1.351C227.165,24.397,227.358,24.324,227.579,24.324z"/>
	<path style="fill:#5E5D5C;" d="M244.244,20.382c0,2.132-0.646,3.951-1.937,5.459c-1.292,1.507-2.851,2.261-4.678,2.261
		s-3.386-0.754-4.678-2.261c-1.291-1.508-1.937-3.327-1.937-5.459c0-2.132,0.646-3.952,1.937-5.459
		c1.292-1.507,2.851-2.261,4.678-2.261s3.386,0.754,4.678,2.261C243.598,16.43,244.244,18.25,244.244,20.382z M237.629,14.867
		c-1.308,0-2.421,0.538-3.343,1.613c-0.921,1.075-1.382,2.376-1.382,3.902c0,1.525,0.461,2.826,1.382,3.901
		c0.922,1.075,2.035,1.612,3.343,1.612c1.307,0,2.422-0.537,3.343-1.612s1.382-2.376,1.382-3.901c0-1.526-0.461-2.827-1.382-3.902
		S238.936,14.867,237.629,14.867z"/>
	<path style="fill:#5E5D5C;" d="M258.902,26.999c0,0.303-0.093,0.562-0.278,0.778c-0.185,0.216-0.407,0.324-0.667,0.324
		s-0.482-0.108-0.667-0.324c-0.186-0.216-0.278-0.476-0.278-0.778v-0.896c-1.181,1.333-2.598,1.999-4.252,1.999
		c-1.692,0-3.14-0.701-4.341-2.103c-1.2-1.401-1.801-3.09-1.801-5.066v-7.168c0-0.303,0.093-0.563,0.277-0.779
		s0.407-0.324,0.667-0.324c0.261,0,0.482,0.108,0.668,0.324c0.185,0.216,0.277,0.476,0.277,0.779v7.168
		c0,1.37,0.415,2.539,1.246,3.509s1.833,1.454,3.006,1.454c1.174,0,2.176-0.484,3.006-1.454c0.831-0.97,1.246-2.139,1.246-3.509
		v-7.168c0-0.303,0.093-0.563,0.278-0.779c0.185-0.216,0.407-0.324,0.667-0.324s0.482,0.108,0.667,0.324
		c0.186,0.216,0.278,0.476,0.278,0.779V26.999z"/>
	<path style="fill:#5E5D5C;" d="M267.89,25.896c0.26,0,0.481,0.108,0.667,0.324c0.185,0.216,0.277,0.476,0.277,0.779
		c0,0.303-0.093,0.562-0.277,0.778c-0.186,0.216-0.407,0.324-0.667,0.324c-3.15,0-4.725-1.838-4.725-5.515v-7.72h-0.945
		c-0.26,0-0.482-0.108-0.667-0.324c-0.186-0.216-0.278-0.476-0.278-0.779s0.093-0.563,0.278-0.779
		c0.185-0.216,0.407-0.324,0.667-0.324h0.945V7.147c0-0.303,0.092-0.563,0.277-0.779c0.185-0.216,0.407-0.324,0.667-0.324
		s0.482,0.108,0.668,0.324c0.185,0.216,0.277,0.476,0.277,0.779v5.514h1.901c0.26,0,0.482,0.108,0.667,0.324
		c0.186,0.216,0.278,0.476,0.278,0.779s-0.093,0.563-0.278,0.779c-0.185,0.216-0.407,0.324-0.667,0.324h-1.901v7.72
		C265.055,24.793,266,25.896,267.89,25.896z"/>
</g>
<g>
	<path style="fill:#5E5D5C;" d="M11.221,24.324c0.26,0,0.482,0.107,0.667,0.324c0.185,0.216,0.278,0.476,0.278,0.779
		c0,0.303-0.099,0.574-0.295,0.812c-1.221,1.24-2.658,1.861-4.311,1.861c-1.827,0-3.386-0.754-4.678-2.261s-1.937-3.327-1.937-5.459
		c0-2.132,0.646-3.952,1.937-5.459s2.851-2.261,4.678-2.261c1.653,0,3.09,0.621,4.311,1.861c0.22,0.229,0.331,0.515,0.331,0.854
		c0,0.303-0.092,0.563-0.277,0.779c-0.185,0.216-0.408,0.324-0.667,0.324c-0.229,0-0.429-0.083-0.603-0.248
		c-0.882-0.91-1.913-1.365-3.094-1.365c-1.308,0-2.421,0.538-3.343,1.613s-1.382,2.376-1.382,3.901c0,1.526,0.46,2.826,1.382,3.902
		c0.921,1.074,2.035,1.613,3.343,1.613c1.181,0,2.208-0.451,3.083-1.352C10.808,24.398,11,24.324,11.221,24.324z"/>
	<path style="fill:#5E5D5C;" d="M27.403,20.381c0,2.132-0.646,3.953-1.937,5.459s-2.851,2.261-4.677,2.261
		c-1.827,0-3.386-0.754-4.678-2.261s-1.937-3.327-1.937-5.459c0-2.132,0.646-3.952,1.937-5.459s2.851-2.261,4.678-2.261
		c1.827,0,3.386,0.754,4.677,2.261S27.403,18.25,27.403,20.381z M20.789,14.867c-1.308,0-2.421,0.538-3.343,1.613
		s-1.382,2.376-1.382,3.901c0,1.526,0.46,2.826,1.382,3.902c0.921,1.074,2.035,1.613,3.343,1.613c1.307,0,2.421-0.539,3.342-1.613
		c0.921-1.076,1.382-2.376,1.382-3.902c0-1.525-0.461-2.826-1.382-3.901C23.21,15.405,22.095,14.867,20.789,14.867z"/>
	<path style="fill:#5E5D5C;" d="M32.15,26.998c0,0.304-0.093,0.563-0.278,0.779c-0.185,0.217-0.407,0.324-0.667,0.324
		c-0.26,0-0.482-0.107-0.667-0.324c-0.185-0.216-0.278-0.476-0.278-0.779V13.764c0-0.303,0.093-0.563,0.278-0.779
		c0.185-0.216,0.407-0.324,0.667-0.324c0.26,0,0.482,0.108,0.667,0.324s0.278,0.476,0.278,0.779v0.29
		c0.937-0.928,2.039-1.393,3.307-1.393c1.433,0,2.658,0.593,3.673,1.778c0.212,0.249,0.405,0.51,0.579,0.786
		c0.173-0.276,0.366-0.538,0.579-0.786c1.016-1.186,2.24-1.778,3.673-1.778c1.433,0,2.657,0.593,3.673,1.778
		c1.016,1.186,1.523,2.615,1.523,4.288v8.271c0,0.304-0.092,0.563-0.277,0.779c-0.185,0.217-0.408,0.324-0.667,0.324
		s-0.482-0.107-0.667-0.324c-0.185-0.216-0.277-0.476-0.277-0.779v-8.271c0-1.066-0.323-1.976-0.969-2.729s-1.425-1.13-2.338-1.13
		c-0.914,0-1.693,0.377-2.339,1.13s-0.969,1.664-0.969,2.729v8.271c0,0.304-0.092,0.563-0.277,0.779
		c-0.185,0.217-0.408,0.324-0.667,0.324s-0.482-0.107-0.667-0.324c-0.186-0.216-0.278-0.476-0.278-0.779v-8.271
		c0-1.066-0.323-1.976-0.969-2.729c-0.646-0.753-1.425-1.13-2.338-1.13c-0.914,0-1.693,0.377-2.339,1.13s-0.968,1.664-0.968,2.729
		V26.998z"/>
	<path style="fill:#5E5D5C;" d="M54.39,33.615c0,0.305-0.093,0.563-0.278,0.779c-0.185,0.217-0.407,0.324-0.667,0.324
		c-0.26,0-0.482-0.107-0.667-0.324c-0.185-0.216-0.278-0.475-0.278-0.779V20.381c0-2.132,0.646-3.952,1.937-5.459
		s2.851-2.261,4.678-2.261c1.827,0,3.386,0.754,4.677,2.261s1.937,3.327,1.937,5.459c0,2.132-0.646,3.953-1.937,5.459
		s-2.851,2.261-4.677,2.261c-1.827,0-3.386-0.754-4.678-2.261c-0.016-0.019-0.031-0.036-0.047-0.056V33.615z M54.39,20.381
		c0,1.526,0.46,2.826,1.382,3.902c0.921,1.074,2.035,1.613,3.343,1.613c1.307,0,2.421-0.539,3.342-1.613
		c0.921-1.076,1.382-2.376,1.382-3.902c0-1.525-0.461-2.826-1.382-3.901c-0.921-1.075-2.036-1.613-3.342-1.613
		c-1.308,0-2.421,0.538-3.343,1.613S54.39,18.856,54.39,20.381z"/>
	<path style="fill:#5E5D5C;" d="M77.871,24.352c0.26,0,0.482,0.108,0.667,0.324s0.277,0.476,0.277,0.779
		c0,0.303-0.09,0.564-0.271,0.785c-1.221,1.24-2.658,1.861-4.311,1.861c-1.827,0-3.386-0.754-4.678-2.261s-1.937-3.327-1.937-5.459
		c0-2.132,0.646-3.952,1.937-5.459s2.851-2.261,4.678-2.261c1.827,0,3.386,0.754,4.677,2.261s1.937,3.327,1.937,5.459
		c0,0.303-0.093,0.563-0.277,0.779c-0.185,0.217-0.408,0.324-0.667,0.324H69.591c0.173,1.057,0.606,1.99,1.299,2.799
		c0.921,1.074,2.035,1.613,3.343,1.613c1.181,0,2.197-0.438,3.047-1.311C77.454,24.43,77.651,24.352,77.871,24.352z M78.875,19.278
		c-0.173-1.057-0.606-1.99-1.299-2.798c-0.921-1.075-2.036-1.613-3.342-1.613c-1.308,0-2.421,0.538-3.343,1.613
		c-0.693,0.809-1.126,1.742-1.299,2.798H78.875z"/>
	<path style="fill:#5E5D5C;" d="M88.869,25.896c0.26,0,0.482,0.107,0.667,0.323s0.278,0.476,0.278,0.778
		c0,0.304-0.093,0.563-0.278,0.779c-0.185,0.217-0.407,0.324-0.667,0.324c-3.15,0-4.725-1.838-4.725-5.514v-7.721h-0.945
		c-0.26,0-0.482-0.108-0.667-0.324c-0.185-0.216-0.278-0.476-0.278-0.779s0.093-0.563,0.278-0.779
		c0.185-0.216,0.407-0.324,0.667-0.324h0.945V7.147c0-0.303,0.092-0.563,0.277-0.779c0.185-0.216,0.408-0.324,0.667-0.324
		s0.482,0.108,0.667,0.324c0.185,0.216,0.277,0.476,0.277,0.779v5.514h1.902c0.26,0,0.482,0.108,0.667,0.324
		s0.278,0.476,0.278,0.779s-0.093,0.563-0.278,0.779c-0.185,0.216-0.407,0.324-0.667,0.324h-1.902v7.721
		C86.034,24.793,86.979,25.896,88.869,25.896z"/>
	<path style="fill:#5E5D5C;" d="M100.77,24.352c0.26,0,0.482,0.108,0.667,0.324s0.277,0.476,0.277,0.779
		c0,0.303-0.09,0.564-0.271,0.785c-1.221,1.24-2.658,1.861-4.311,1.861c-1.827,0-3.386-0.754-4.678-2.261s-1.937-3.327-1.937-5.459
		c0-2.132,0.646-3.952,1.937-5.459s2.851-2.261,4.678-2.261c1.827,0,3.386,0.754,4.677,2.261s1.937,3.327,1.937,5.459
		c0,0.303-0.093,0.563-0.277,0.779c-0.185,0.217-0.408,0.324-0.667,0.324H92.49c0.173,1.057,0.606,1.99,1.299,2.799
		c0.921,1.074,2.035,1.613,3.343,1.613c1.181,0,2.197-0.438,3.047-1.311C100.353,24.43,100.55,24.352,100.77,24.352z
		 M101.774,19.278c-0.173-1.057-0.606-1.99-1.299-2.798c-0.921-1.075-2.036-1.613-3.342-1.613c-1.308,0-2.421,0.538-3.343,1.613
		c-0.693,0.809-1.126,1.742-1.299,2.798H101.774z"/>
	<path style="fill:#5E5D5C;" d="M106.12,13.764c0-0.303,0.093-0.563,0.278-0.779c0.185-0.216,0.407-0.324,0.667-0.324
		c0.26,0,0.482,0.108,0.667,0.324s0.278,0.476,0.278,0.779v0.896c1.181-1.333,2.598-1.999,4.252-1.999
		c1.693,0,3.14,0.701,4.341,2.103c1.201,1.401,1.802,3.09,1.802,5.066v7.168c0,0.304-0.094,0.563-0.278,0.779
		c-0.185,0.217-0.407,0.324-0.667,0.324s-0.482-0.107-0.667-0.324c-0.185-0.216-0.278-0.476-0.278-0.779V19.83
		c0-1.37-0.415-2.539-1.246-3.509c-0.831-0.969-1.833-1.454-3.006-1.454s-2.175,0.485-3.006,1.454
		c-0.831,0.97-1.246,2.139-1.246,3.509v7.168c0,0.304-0.093,0.563-0.278,0.779c-0.185,0.217-0.407,0.324-0.667,0.324
		c-0.26,0-0.482-0.107-0.667-0.324c-0.185-0.216-0.278-0.476-0.278-0.779V13.764z"/>
	<path style="fill:#5E5D5C;" d="M131.054,24.324c0.26,0,0.481,0.107,0.667,0.324c0.186,0.216,0.277,0.476,0.277,0.779
		c0,0.303-0.098,0.574-0.295,0.812c-1.221,1.24-2.658,1.861-4.311,1.861c-1.828,0-3.387-0.754-4.678-2.261
		c-1.292-1.507-1.938-3.327-1.938-5.459c0-2.132,0.646-3.952,1.938-5.459c1.291-1.507,2.85-2.261,4.678-2.261
		c1.652,0,3.09,0.621,4.311,1.861c0.221,0.229,0.33,0.515,0.33,0.854c0,0.303-0.092,0.563-0.277,0.779
		c-0.185,0.216-0.407,0.324-0.667,0.324c-0.229,0-0.429-0.083-0.603-0.248c-0.882-0.91-1.913-1.365-3.094-1.365
		c-1.309,0-2.422,0.538-3.344,1.613c-0.921,1.075-1.381,2.376-1.381,3.901c0,1.526,0.46,2.826,1.381,3.902
		c0.922,1.074,2.035,1.613,3.344,1.613c1.181,0,2.208-0.451,3.082-1.352C130.641,24.398,130.833,24.324,131.054,24.324z"/>
	<path style="fill:#5E5D5C;" d="M144.259,24.352c0.26,0,0.482,0.108,0.667,0.324c0.186,0.216,0.278,0.476,0.278,0.779
		c0,0.303-0.091,0.564-0.271,0.785c-1.222,1.24-2.658,1.861-4.312,1.861c-1.827,0-3.387-0.754-4.678-2.261s-1.938-3.327-1.938-5.459
		c0-2.132,0.646-3.952,1.938-5.459s2.851-2.261,4.678-2.261c1.826,0,3.386,0.754,4.677,2.261c1.292,1.507,1.938,3.327,1.938,5.459
		c0,0.303-0.093,0.563-0.277,0.779c-0.186,0.217-0.407,0.324-0.668,0.324h-10.312c0.174,1.057,0.607,1.99,1.3,2.799
		c0.921,1.074,2.035,1.613,3.343,1.613c1.182,0,2.197-0.438,3.047-1.311C143.842,24.43,144.04,24.352,144.259,24.352z
		 M145.263,19.278c-0.173-1.057-0.606-1.99-1.3-2.798c-0.92-1.075-2.035-1.613-3.342-1.613c-1.308,0-2.422,0.538-3.343,1.613
		c-0.692,0.809-1.126,1.742-1.3,2.798H145.263z"/>
</g>
</svg>
