<?xml version="1.0" encoding="UTF-8"?>
<svg xmlns="http://www.w3.org/2000/svg" xmlns:xlink="http://www.w3.org/1999/xlink" version="1.2" >
<font id="Merriweather">
<font-face  font-family="Merriweather" units-per-em="2048" ascent="2014" descent="-560" font-style="normal" font-weight="400" font-stretch="normal" cap-height="1522" x-height="1137" underline-position="-122" underline-thickness="96" />
<missing-glyph  horiz-adv-x="1770" d="M1593 1416 L1593 0 L177 0 L177 1416 L1593 1416 Z M883 605 L1220 252 L1333 365 L985 708 L1333 1042 L1214 1158 L886 807 L553 1159 L439 1043 L783 705 L440 387 L559 252 L883 605 Z " />
<glyph glyph-name="NULL" d="" />
<glyph glyph-name="nonmarkingreturn" unicode="&#xd;" d="" />
<glyph glyph-name="space" unicode="&#x20;" horiz-adv-x="616" d="" />
<glyph glyph-name="A" unicode="A" horiz-adv-x="1417" d="M93 133 L586 1534 L824 1534 L1321 133 L1448 109 L1448 0 L899 0 L899 109 L1062 133 L967 425 L379 425 L288 133 L459 109 L459 0 L-33 0 L-34 109 L93 133 Z M926 552 L712 1209 L668 1377 L624 1207 L419 552 L926 552 Z " />
<glyph glyph-name="Aacute" unicode="&#xc1;" horiz-adv-x="1417" d="M93 133 L586 1534 L824 1534 L1321 133 L1448 109 L1448 0 L899 0 L899 109 L1062 133 L967 425 L379 425 L288 133 L459 109 L459 0 L-33 0 L-34 109 L93 133 Z M926 552 L712 1209 L668 1377 L624 1207 L419 552 L926 552 Z M899 2012 L900 2012 L1053 1885 Q1017 1838 940 1785.5 Q863 1733 780 1690.5 Q697 1648 649 1633 L648 1633 L568 1701 L899 2012 Z " />
<glyph glyph-name="Abreve" unicode="&#x102;" horiz-adv-x="1417" d="M93 133 L586 1534 L824 1534 L1321 133 L1448 109 L1448 0 L899 0 L899 109 L1062 133 L967 425 L379 425 L288 133 L459 109 L459 0 L-33 0 L-34 109 L93 133 Z M926 552 L712 1209 L668 1377 L624 1207 L419 552 L926 552 Z M370 1956 Q370 1984 372 1998 L493 1998 Q493 1983 496 1971 Q505 1911 556 1861.5 Q607 1812 717 1812 Q826 1812 875 1861.5 Q924 1911 931 1972 Q933 1984 933 1998 L1052 1998 Q1054 1984 1054 1957 Q1054 1869 1013.5 1797.5 Q973 1726 896.5 1684.5 Q820 1643 715 1643 Q606 1643 528 1684 Q450 1725 410 1796.5 Q370 1868 370 1956 Z " />
<glyph glyph-name="uni01CD" unicode="&#x1cd;" horiz-adv-x="1417" d="M93 133 L586 1534 L824 1534 L1321 133 L1448 109 L1448 0 L899 0 L899 109 L1062 133 L967 425 L379 425 L288 133 L459 109 L459 0 L-33 0 L-34 109 L93 133 Z M926 552 L712 1209 L668 1377 L624 1207 L419 552 L926 552 Z M620 2013 L803 2013 L1077 1715 L985 1654 L712 1856 L434 1654 L349 1713 L620 2013 Z " />
<glyph glyph-name="Acircumflex" unicode="&#xc2;" horiz-adv-x="1417" d="M93 133 L586 1534 L824 1534 L1321 133 L1448 109 L1448 0 L899 0 L899 109 L1062 133 L967 425 L379 425 L288 133 L459 109 L459 0 L-33 0 L-34 109 L93 133 Z M926 552 L712 1209 L668 1377 L624 1207 L419 552 L926 552 Z M620 2013 L803 2013 L1077 1715 L985 1654 L712 1856 L434 1654 L349 1713 L620 2013 Z " />
<glyph glyph-name="Adieresis" unicode="&#xc4;" horiz-adv-x="1417" d="M93 133 L586 1534 L824 1534 L1321 133 L1448 109 L1448 0 L899 0 L899 109 L1062 133 L967 425 L379 425 L288 133 L459 109 L459 0 L-33 0 L-34 109 L93 133 Z M926 552 L712 1209 L668 1377 L624 1207 L419 552 L926 552 Z M323 1823 Q323 1891 361.5 1937 Q400 1983 470 1983 L471 1983 Q512 1983 542 1963.5 Q572 1944 587.5 1912.5 Q603 1881 603 1846 Q603 1776 563.5 1731.5 Q524 1687 449 1687 L448 1687 Q393 1687 358 1726.5 Q323 1766 323 1823 Z M823 1823 Q823 1891 861.5 1937 Q900 1983 969 1983 L970 1983 Q1012 1983 1042 1963.5 Q1072 1944 1087.5 1912.5 Q1103 1881 1103 1846 Q1103 1776 1064 1731.5 Q1025 1687 950 1687 L949 1687 Q893 1687 858 1726.5 Q823 1766 823 1823 Z " />
<glyph glyph-name="Agrave" unicode="&#xc0;" horiz-adv-x="1417" d="M93 133 L586 1534 L824 1534 L1321 133 L1448 109 L1448 0 L899 0 L899 109 L1062 133 L967 425 L379 425 L288 133 L459 109 L459 0 L-33 0 L-34 109 L93 133 Z M926 552 L712 1209 L668 1377 L624 1207 L419 552 L926 552 Z M547 2012 L548 2012 L879 1701 L799 1633 L798 1633 Q749 1649 664.5 1692 Q580 1735 503.5 1787.5 Q427 1840 395 1885 L547 2012 Z " />
<glyph glyph-name="Amacron" unicode="&#x100;" horiz-adv-x="1417" d="M93 133 L586 1534 L824 1534 L1321 133 L1448 109 L1448 0 L899 0 L899 109 L1062 133 L967 425 L379 425 L288 133 L459 109 L459 0 L-33 0 L-34 109 L93 133 Z M926 552 L712 1209 L668 1377 L624 1207 L419 552 L926 552 Z M1002 1904 L1002 1746 L432 1746 L432 1904 L1002 1904 Z " />
<glyph glyph-name="Aogonek" unicode="&#x104;" horiz-adv-x="1410" d="M93 133 L586 1534 L824 1534 L1321 133 L1448 109 L1448 0 L1291 0 Q1228 -27 1176.5 -70 Q1125 -113 1095.5 -160 Q1066 -207 1066 -245 Q1066 -307 1107.5 -336 Q1149 -365 1216 -365 Q1282 -365 1358 -332 L1358 -442 Q1316 -474 1250 -492.5 Q1184 -511 1120 -511 Q1009 -511 934 -463 Q859 -415 859 -315 Q859 -260 897 -198 Q935 -136 999 -83 Q1063 -30 1137 0 L899 0 L899 109 L1062 133 L967 425 L379 425 L288 133 L459 109 L459 0 L-33 0 L-34 109 L93 133 Z M926 552 L712 1209 L668 1377 L624 1207 L419 552 L926 552 Z " />
<glyph glyph-name="Aring" unicode="&#xc5;" horiz-adv-x="1417" d="M1448 109 L1448 0 L899 0 L899 109 L1062 133 L967 425 L379 425 L288 133 L459 109 L459 0 L-33 0 L-34 109 L93 133 L581 1520 Q481 1545 431 1608.5 Q381 1672 381 1758 Q381 1839 429 1897 Q477 1955 555.5 1984.5 Q634 2014 725 2014 L726 2014 Q830 2014 902.5 1981.5 Q975 1949 1011 1891.5 Q1047 1834 1047 1759 Q1047 1668 987.5 1605.5 Q928 1543 829 1519 L1321 133 L1448 109 Z M717 1914 Q542 1914 542 1763 Q542 1696 585.5 1650 Q629 1604 716 1604 L717 1604 Q807 1604 847.5 1641 Q888 1678 888 1750 Q888 1823 846.5 1868.5 Q805 1914 718 1914 L717 1914 Z M926 552 L712 1209 L668 1377 L624 1207 L419 552 L926 552 Z " />
<glyph glyph-name="Atilde" unicode="&#xc3;" horiz-adv-x="1417" d="M93 133 L586 1534 L824 1534 L1321 133 L1448 109 L1448 0 L899 0 L899 109 L1062 133 L967 425 L379 425 L288 133 L459 109 L459 0 L-33 0 L-34 109 L93 133 Z M926 552 L712 1209 L668 1377 L624 1207 L419 552 L926 552 Z M537 1851 Q484 1851 451 1820.5 Q418 1790 401.5 1764 Q385 1738 381 1732 L285 1795 Q300 1843 339.5 1892.5 Q379 1942 439.5 1975 Q500 2008 572 2008 Q614 2008 648.5 1994.5 Q683 1981 708.5 1962.5 Q734 1944 768 1913 Q809 1876 836 1859 Q863 1842 898 1842 Q951 1842 981 1871 Q1011 1900 1026 1927.5 Q1041 1955 1045 1962 L1143 1898 Q1109 1806 1042 1745 Q975 1684 877 1684 Q818 1684 775 1708 Q732 1732 681 1777 Q636 1815 605.5 1833 Q575 1851 537 1851 Z " />
<glyph glyph-name="AE" unicode="&#xc6;" horiz-adv-x="1887" d="M814 130 L814 434 L297 434 L175 130 L327 106 L327 0 L-176 0 L-176 106 L-28 132 L526 1388 L262 1413 L262 1522 L1689 1522 L1720 1202 L1593 1202 L1527 1397 L1047 1409 L1047 841 L1371 847 L1401 1012 L1528 1012 L1528 544 L1401 544 L1371 715 L1047 720 L1047 123 L1603 146 L1729 398 L1861 360 L1786 0 L644 0 L644 107 L814 130 Z M814 564 L814 1400 L689 1400 L582 1140 L350 564 L814 564 Z " />
<glyph glyph-name="AEacute" unicode="&#x1fc;" horiz-adv-x="1887" d="M1157 2012 L1158 2012 L1311 1885 Q1275 1838 1198 1785.5 Q1121 1733 1038 1690.5 Q955 1648 907 1633 L906 1633 L826 1701 L1157 2012 Z M814 130 L814 434 L297 434 L175 130 L327 106 L327 0 L-176 0 L-176 106 L-28 132 L526 1388 L262 1413 L262 1522 L1689 1522 L1720 1202 L1593 1202 L1527 1397 L1047 1409 L1047 841 L1371 847 L1401 1012 L1528 1012 L1528 544 L1401 544 L1371 715 L1047 720 L1047 123 L1603 146 L1729 398 L1861 360 L1786 0 L644 0 L644 107 L814 130 Z M814 564 L814 1400 L689 1400 L582 1140 L350 564 L814 564 Z " />
<glyph glyph-name="B" unicode="B" horiz-adv-x="1401" d="M264 133 L264 1386 L99 1411 L99 1522 L371 1522 Q439 1522 545 1530 Q627 1537 686 1537 Q967 1537 1093.5 1449.5 Q1220 1362 1220 1192 Q1220 1097 1183.5 1018.5 Q1147 940 1078 887.5 Q1009 835 914 816 Q1039 819 1132.5 775 Q1226 731 1277 648 Q1328 565 1328 454 Q1328 248 1182.5 118 Q1037 -12 701 -12 Q664 -12 623 -10 Q582 -8 565 -7 Q444 0 373 0 L96 0 L96 109 L264 133 Z M498 861 Q549 857 703 857 Q986 857 986 1150 Q986 1244 956 1303.5 Q926 1363 858 1392.5 Q790 1422 674 1422 Q602 1422 554 1416.5 Q506 1411 498 1410 L498 861 Z M497 123 Q521 112 573 108.5 Q625 105 695 105 Q895 105 984.5 186 Q1074 267 1074 421 Q1074 532 1039 600 Q1004 668 928.5 699.5 Q853 731 730 731 L633 731 Q528 731 497 729 L497 123 Z " />
<glyph glyph-name="uni1E02" unicode="&#x1e02;" horiz-adv-x="1401" d="M600 1828 Q600 1895 639 1940.5 Q678 1986 748 1986 L749 1986 Q812 1986 849 1945.5 Q886 1905 886 1849 Q886 1780 846.5 1736.5 Q807 1693 731 1693 L730 1693 Q672 1693 636 1731.5 Q600 1770 600 1828 Z M264 133 L264 1386 L99 1411 L99 1522 L371 1522 Q439 1522 545 1530 Q627 1537 686 1537 Q967 1537 1093.5 1449.5 Q1220 1362 1220 1192 Q1220 1097 1183.5 1018.5 Q1147 940 1078 887.5 Q1009 835 914 816 Q1039 819 1132.5 775 Q1226 731 1277 648 Q1328 565 1328 454 Q1328 248 1182.5 118 Q1037 -12 701 -12 Q664 -12 623 -10 Q582 -8 565 -7 Q444 0 373 0 L96 0 L96 109 L264 133 Z M498 861 Q549 857 703 857 Q986 857 986 1150 Q986 1244 956 1303.5 Q926 1363 858 1392.5 Q790 1422 674 1422 Q602 1422 554 1416.5 Q506 1411 498 1410 L498 861 Z M497 123 Q521 112 573 108.5 Q625 105 695 105 Q895 105 984.5 186 Q1074 267 1074 421 Q1074 532 1039 600 Q1004 668 928.5 699.5 Q853 731 730 731 L633 731 Q528 731 497 729 L497 123 Z " />
<glyph glyph-name="C" unicode="C" horiz-adv-x="1335" d="M66 762 Q66 998 163.5 1174 Q261 1350 430 1444 Q599 1538 808 1538 Q904 1538 993.5 1524 Q1083 1510 1196 1487 L1250 1476 L1231 1102 L1082 1102 L1026 1357 Q1005 1385 941 1401.5 Q877 1418 773 1418 Q645 1418 546.5 1345 Q448 1272 392.5 1129.5 Q337 987 337 786 Q337 600 386.5 443.5 Q436 287 539.5 191.5 Q643 96 798 96 Q959 96 1029 170 L1116 381 L1258 362 L1214 56 Q1187 54 1162 47.5 Q1137 41 1097 27 Q1029 3 967 -10 Q905 -23 814 -23 Q576 -23 408 70.5 Q240 164 153 340 Q66 516 66 762 Z " />
<glyph glyph-name="Cacute" unicode="&#x106;" horiz-adv-x="1335" d="M66 762 Q66 998 163.5 1174 Q261 1350 430 1444 Q599 1538 808 1538 Q904 1538 993.5 1524 Q1083 1510 1196 1487 L1250 1476 L1231 1102 L1082 1102 L1026 1357 Q1005 1385 941 1401.5 Q877 1418 773 1418 Q645 1418 546.5 1345 Q448 1272 392.5 1129.5 Q337 987 337 786 Q337 600 386.5 443.5 Q436 287 539.5 191.5 Q643 96 798 96 Q959 96 1029 170 L1116 381 L1258 362 L1214 56 Q1187 54 1162 47.5 Q1137 41 1097 27 Q1029 3 967 -10 Q905 -23 814 -23 Q576 -23 408 70.5 Q240 164 153 340 Q66 516 66 762 Z M970 2012 L971 2012 L1124 1885 Q1088 1838 1011 1785.5 Q934 1733 851 1690.5 Q768 1648 720 1633 L719 1633 L639 1701 L970 2012 Z " />
<glyph glyph-name="Ccaron" unicode="&#x10c;" horiz-adv-x="1335" d="M66 762 Q66 998 163.5 1174 Q261 1350 430 1444 Q599 1538 808 1538 Q904 1538 993.5 1524 Q1083 1510 1196 1487 L1250 1476 L1231 1102 L1082 1102 L1026 1357 Q1005 1385 941 1401.5 Q877 1418 773 1418 Q645 1418 546.5 1345 Q448 1272 392.5 1129.5 Q337 987 337 786 Q337 600 386.5 443.5 Q436 287 539.5 191.5 Q643 96 798 96 Q959 96 1029 170 L1116 381 L1258 362 L1214 56 Q1187 54 1162 47.5 Q1137 41 1097 27 Q1029 3 967 -10 Q905 -23 814 -23 Q576 -23 408 70.5 Q240 164 153 340 Q66 516 66 762 Z M530 2013 L785 1824 L1049 2013 L1134 1954 L877 1676 L694 1676 L439 1952 L530 2013 Z " />
<glyph glyph-name="Ccedilla" unicode="&#xc7;" horiz-adv-x="1335" d="M1214 56 Q1187 54 1162 47.5 Q1137 41 1097 27 Q1029 3 967 -10 Q905 -23 814 -23 L803 -23 Q845 -73 877.5 -141.5 Q910 -210 910 -280 Q910 -396 844 -445 Q778 -494 646 -494 L645 -494 Q610 -494 568.5 -486.5 Q527 -479 501 -467 L502 -314 Q521 -321 547 -324.5 Q573 -328 588 -328 L589 -328 Q641 -328 670.5 -318.5 Q700 -309 715.5 -278.5 Q731 -248 731 -187 Q731 -145 715 -98 Q699 -51 679 -15 Q482 10 345 109.5 Q208 209 137 374.5 Q66 540 66 762 Q66 998 163.5 1174 Q261 1350 430 1444 Q599 1538 808 1538 Q904 1538 993.5 1524 Q1083 1510 1196 1487 L1250 1476 L1231 1102 L1082 1102 L1026 1357 Q1005 1385 941 1401.5 Q877 1418 773 1418 Q645 1418 546.5 1345 Q448 1272 392.5 1129.5 Q337 987 337 786 Q337 600 386.5 443.5 Q436 287 539.5 191.5 Q643 96 798 96 Q959 96 1029 170 L1116 381 L1258 362 L1214 56 Z " />
<glyph glyph-name="Ccircumflex" unicode="&#x108;" horiz-adv-x="1335" d="M66 762 Q66 998 163.5 1174 Q261 1350 430 1444 Q599 1538 808 1538 Q904 1538 993.5 1524 Q1083 1510 1196 1487 L1250 1476 L1231 1102 L1082 1102 L1026 1357 Q1005 1385 941 1401.5 Q877 1418 773 1418 Q645 1418 546.5 1345 Q448 1272 392.5 1129.5 Q337 987 337 786 Q337 600 386.5 443.5 Q436 287 539.5 191.5 Q643 96 798 96 Q959 96 1029 170 L1116 381 L1258 362 L1214 56 Q1187 54 1162 47.5 Q1137 41 1097 27 Q1029 3 967 -10 Q905 -23 814 -23 Q576 -23 408 70.5 Q240 164 153 340 Q66 516 66 762 Z M691 2013 L874 2013 L1148 1715 L1056 1654 L783 1856 L505 1654 L420 1713 L691 2013 Z " />
<glyph glyph-name="Cdotaccent" unicode="&#x10a;" horiz-adv-x="1335" d="M641 1828 Q641 1895 680 1940.5 Q719 1986 789 1986 L790 1986 Q853 1986 890 1945.5 Q927 1905 927 1849 Q927 1780 887.5 1736.5 Q848 1693 772 1693 L771 1693 Q713 1693 677 1731.5 Q641 1770 641 1828 Z M66 762 Q66 998 163.5 1174 Q261 1350 430 1444 Q599 1538 808 1538 Q904 1538 993.5 1524 Q1083 1510 1196 1487 L1250 1476 L1231 1102 L1082 1102 L1026 1357 Q1005 1385 941 1401.5 Q877 1418 773 1418 Q645 1418 546.5 1345 Q448 1272 392.5 1129.5 Q337 987 337 786 Q337 600 386.5 443.5 Q436 287 539.5 191.5 Q643 96 798 96 Q959 96 1029 170 L1116 381 L1258 362 L1214 56 Q1187 54 1162 47.5 Q1137 41 1097 27 Q1029 3 967 -10 Q905 -23 814 -23 Q576 -23 408 70.5 Q240 164 153 340 Q66 516 66 762 Z " />
<glyph glyph-name="D" unicode="D" horiz-adv-x="1561" d="M264 133 L264 1385 L106 1411 L106 1522 L373 1522 Q423 1522 478.5 1525 Q534 1528 551 1529 Q669 1537 733 1537 Q1116 1537 1302.5 1346 Q1489 1155 1489 809 Q1489 566 1394 379 Q1299 192 1127.5 88 Q956 -16 733 -16 Q682 -16 562 -8 Q438 0 383 0 L95 0 L95 109 L264 133 Z M498 123 Q540 112 585.5 108 Q631 104 688 104 L734 104 Q882 107 994.5 182.5 Q1107 258 1170.5 405.5 Q1234 553 1234 766 Q1234 1089 1096 1254 Q958 1419 680 1419 Q619 1419 529 1409 L498 1406 L498 123 Z " />
<glyph glyph-name="uni01F1" unicode="&#x1f1;" horiz-adv-x="2907" d="M264 133 L264 1385 L106 1411 L106 1522 L373 1522 Q423 1522 478.5 1525 Q534 1528 551 1529 Q669 1537 733 1537 Q1116 1537 1302.5 1346 Q1489 1155 1489 809 Q1489 566 1394 379 Q1299 192 1127.5 88 Q956 -16 733 -16 Q682 -16 562 -8 Q438 0 383 0 L95 0 L95 109 L264 133 Z M498 123 Q540 112 585.5 108 Q631 104 688 104 L734 104 Q882 107 994.5 182.5 Q1107 258 1170.5 405.5 Q1234 553 1234 766 Q1234 1089 1096 1254 Q958 1419 680 1419 Q619 1419 529 1409 L498 1406 L498 123 Z M2419 1278 L2531 1414 L1958 1392 L1846 1127 L1721 1144 L1765 1528 L2758 1528 L2809 1432 L2029 255 L1901 117 L2574 156 L2687 466 L2817 440 L2769 0 L1685 0 L1626 98 L2419 1278 Z " />
<glyph glyph-name="uni01C4" unicode="&#x1c4;" horiz-adv-x="2911" d="M2017 2013 L2272 1824 L2536 2013 L2621 1954 L2364 1676 L2181 1676 L1926 1952 L2017 2013 Z M2423 1278 L2535 1414 L1962 1392 L1850 1127 L1725 1144 L1769 1528 L2762 1528 L2813 1432 L2033 255 L1905 117 L2578 156 L2691 466 L2821 440 L2773 0 L1689 0 L1630 98 L2423 1278 Z M264 133 L264 1385 L106 1411 L106 1522 L373 1522 Q423 1522 478.5 1525 Q534 1528 551 1529 Q669 1537 733 1537 Q1116 1537 1302.5 1346 Q1489 1155 1489 809 Q1489 566 1394 379 Q1299 192 1127.5 88 Q956 -16 733 -16 Q682 -16 562 -8 Q438 0 383 0 L95 0 L95 109 L264 133 Z M498 123 Q540 112 585.5 108 Q631 104 688 104 L734 104 Q882 107 994.5 182.5 Q1107 258 1170.5 405.5 Q1234 553 1234 766 Q1234 1089 1096 1254 Q958 1419 680 1419 Q619 1419 529 1409 L498 1406 L498 123 Z " />
<glyph glyph-name="Eth" unicode="&#xd0;" horiz-adv-x="1561" d="M264 851 L264 1385 L106 1411 L106 1522 L373 1522 Q423 1522 478.5 1525 Q534 1528 551 1529 Q669 1537 733 1537 Q1116 1537 1302.5 1346 Q1489 1155 1489 809 Q1489 566 1394 379 Q1299 192 1127.5 88 Q956 -16 733 -16 Q682 -16 562 -8 Q438 0 383 0 L95 0 L95 109 L264 133 L264 735 L112 735 L112 851 L264 851 Z M839 851 L839 735 L498 735 L498 123 Q540 112 585.5 108 Q631 104 688 104 L734 104 Q882 107 994.5 182.5 Q1107 258 1170.5 405.5 Q1234 553 1234 766 Q1234 1089 1096 1254 Q958 1419 680 1419 Q619 1419 529 1409 L498 1406 L498 851 L839 851 Z " />
<glyph glyph-name="Dcaron" unicode="&#x10e;" horiz-adv-x="1561" d="M549 2013 L804 1824 L1068 2013 L1153 1954 L896 1676 L713 1676 L458 1952 L549 2013 Z M264 133 L264 1385 L106 1411 L106 1522 L373 1522 Q423 1522 478.5 1525 Q534 1528 551 1529 Q669 1537 733 1537 Q1116 1537 1302.5 1346 Q1489 1155 1489 809 Q1489 566 1394 379 Q1299 192 1127.5 88 Q956 -16 733 -16 Q682 -16 562 -8 Q438 0 383 0 L95 0 L95 109 L264 133 Z M498 123 Q540 112 585.5 108 Q631 104 688 104 L734 104 Q882 107 994.5 182.5 Q1107 258 1170.5 405.5 Q1234 553 1234 766 Q1234 1089 1096 1254 Q958 1419 680 1419 Q619 1419 529 1409 L498 1406 L498 123 Z " />
<glyph glyph-name="Dcroat" unicode="&#x110;" horiz-adv-x="1561" d="M264 845 L264 1385 L106 1411 L106 1522 L373 1522 Q423 1522 478.5 1525 Q534 1528 551 1529 Q669 1537 733 1537 Q1116 1537 1302.5 1346 Q1489 1155 1489 809 Q1489 566 1394 379 Q1299 192 1127.5 88 Q956 -16 733 -16 Q682 -16 562 -8 Q438 0 383 0 L95 0 L95 109 L264 133 L264 716 L108 716 L108 845 L264 845 Z M836 845 L836 716 L498 716 L498 123 Q540 112 585.5 108 Q631 104 688 104 L734 104 Q882 107 994.5 182.5 Q1107 258 1170.5 405.5 Q1234 553 1234 766 Q1234 1089 1096 1254 Q958 1419 680 1419 Q619 1419 529 1409 L498 1406 L498 845 L836 845 Z " />
<glyph glyph-name="uni1E0A" unicode="&#x1e0a;" horiz-adv-x="1561" d="M660 1828 Q660 1895 699 1940.5 Q738 1986 808 1986 L809 1986 Q872 1986 909 1945.5 Q946 1905 946 1849 Q946 1780 906.5 1736.5 Q867 1693 791 1693 L790 1693 Q732 1693 696 1731.5 Q660 1770 660 1828 Z M264 133 L264 1385 L106 1411 L106 1522 L373 1522 Q423 1522 478.5 1525 Q534 1528 551 1529 Q669 1537 733 1537 Q1116 1537 1302.5 1346 Q1489 1155 1489 809 Q1489 566 1394 379 Q1299 192 1127.5 88 Q956 -16 733 -16 Q682 -16 562 -8 Q438 0 383 0 L95 0 L95 109 L264 133 Z M498 123 Q540 112 585.5 108 Q631 104 688 104 L734 104 Q882 107 994.5 182.5 Q1107 258 1170.5 405.5 Q1234 553 1234 766 Q1234 1089 1096 1254 Q958 1419 680 1419 Q619 1419 529 1409 L498 1406 L498 123 Z " />
<glyph glyph-name="uni01F2" unicode="&#x1f2;" horiz-adv-x="2699" d="M264 133 L264 1385 L106 1411 L106 1522 L373 1522 Q423 1522 478.5 1525 Q534 1528 551 1529 Q669 1537 733 1537 Q1116 1537 1302.5 1346 Q1489 1155 1489 809 Q1489 566 1394 379 Q1299 192 1127.5 88 Q956 -16 733 -16 Q682 -16 562 -8 Q438 0 383 0 L95 0 L95 109 L264 133 Z M498 123 Q540 112 585.5 108 Q631 104 688 104 L734 104 Q882 107 994.5 182.5 Q1107 258 1170.5 405.5 Q1234 553 1234 766 Q1234 1089 1096 1254 Q958 1419 680 1419 Q619 1419 529 1409 L498 1406 L498 123 Z M2348 1015 L1883 1000 L1844 810 L1707 810 L1707 1137 L2570 1137 L2612 1045 L2027 249 L1896 121 L2412 143 L2488 360 L2618 345 L2588 0 L1668 0 L1623 94 L2217 883 L2348 1015 Z " />
<glyph glyph-name="uni01C5" unicode="&#x1c5;" horiz-adv-x="2706" d="M1883 1799 L2167 1517 L2456 1800 L2539 1740 L2256 1342 L2076 1342 L1794 1739 L1883 1799 Z M2352 1015 L1887 1000 L1848 810 L1711 810 L1711 1137 L2574 1137 L2616 1045 L2031 249 L1900 121 L2416 143 L2492 360 L2622 345 L2592 0 L1672 0 L1627 94 L2221 883 L2352 1015 Z M264 133 L264 1385 L106 1411 L106 1522 L373 1522 Q423 1522 478.5 1525 Q534 1528 551 1529 Q669 1537 733 1537 Q1116 1537 1302.5 1346 Q1489 1155 1489 809 Q1489 566 1394 379 Q1299 192 1127.5 88 Q956 -16 733 -16 Q682 -16 562 -8 Q438 0 383 0 L95 0 L95 109 L264 133 Z M498 123 Q540 112 585.5 108 Q631 104 688 104 L734 104 Q882 107 994.5 182.5 Q1107 258 1170.5 405.5 Q1234 553 1234 766 Q1234 1089 1096 1254 Q958 1419 680 1419 Q619 1419 529 1409 L498 1406 L498 123 Z " />
<glyph glyph-name="E" unicode="E" horiz-adv-x="1339" d="M264 133 L264 1386 L99 1411 L99 1522 L1141 1522 L1169 1205 L1040 1205 L978 1395 L499 1408 L499 843 L824 849 L854 1015 L983 1015 L983 541 L854 541 L825 717 L499 722 L499 124 L1049 146 L1162 397 L1290 359 L1231 0 L96 0 L96 109 L264 133 Z " />
<glyph glyph-name="Eacute" unicode="&#xc9;" horiz-adv-x="1339" d="M880 2012 L881 2012 L1034 1885 Q998 1838 921 1785.5 Q844 1733 761 1690.5 Q678 1648 630 1633 L629 1633 L549 1701 L880 2012 Z M264 133 L264 1386 L99 1411 L99 1522 L1141 1522 L1169 1205 L1040 1205 L978 1395 L499 1408 L499 843 L824 849 L854 1015 L983 1015 L983 541 L854 541 L825 717 L499 722 L499 124 L1049 146 L1162 397 L1290 359 L1231 0 L96 0 L96 109 L264 133 Z " />
<glyph glyph-name="Ebreve" unicode="&#x114;" horiz-adv-x="1339" d="M354 1956 Q354 1984 356 1998 L477 1998 Q477 1983 480 1971 Q489 1911 540 1861.5 Q591 1812 701 1812 Q810 1812 859 1861.5 Q908 1911 915 1972 Q917 1984 917 1998 L1036 1998 Q1038 1984 1038 1957 Q1038 1869 997.5 1797.5 Q957 1726 880.5 1684.5 Q804 1643 699 1643 Q590 1643 512 1684 Q434 1725 394 1796.5 Q354 1868 354 1956 Z M264 133 L264 1386 L99 1411 L99 1522 L1141 1522 L1169 1205 L1040 1205 L978 1395 L499 1408 L499 843 L824 849 L854 1015 L983 1015 L983 541 L854 541 L825 717 L499 722 L499 124 L1049 146 L1162 397 L1290 359 L1231 0 L96 0 L96 109 L264 133 Z " />
<glyph glyph-name="Ecaron" unicode="&#x11a;" horiz-adv-x="1339" d="M444 2013 L699 1824 L963 2013 L1048 1954 L791 1676 L608 1676 L353 1952 L444 2013 Z M264 133 L264 1386 L99 1411 L99 1522 L1141 1522 L1169 1205 L1040 1205 L978 1395 L499 1408 L499 843 L824 849 L854 1015 L983 1015 L983 541 L854 541 L825 717 L499 722 L499 124 L1049 146 L1162 397 L1290 359 L1231 0 L96 0 L96 109 L264 133 Z " />
<glyph glyph-name="Ecircumflex" unicode="&#xca;" horiz-adv-x="1339" d="M264 133 L264 1386 L99 1411 L99 1522 L1141 1522 L1169 1205 L1040 1205 L978 1395 L499 1408 L499 843 L824 849 L854 1015 L983 1015 L983 541 L854 541 L825 717 L499 722 L499 124 L1049 146 L1162 397 L1290 359 L1231 0 L96 0 L96 109 L264 133 Z M605 2013 L788 2013 L1062 1715 L970 1654 L697 1856 L419 1654 L334 1713 L605 2013 Z " />
<glyph glyph-name="Edieresis" unicode="&#xcb;" horiz-adv-x="1339" d="M307 1823 Q307 1891 345.5 1937 Q384 1983 454 1983 L455 1983 Q496 1983 526 1963.5 Q556 1944 571.5 1912.5 Q587 1881 587 1846 Q587 1776 547.5 1731.5 Q508 1687 433 1687 L432 1687 Q377 1687 342 1726.5 Q307 1766 307 1823 Z M807 1823 Q807 1891 845.5 1937 Q884 1983 953 1983 L954 1983 Q996 1983 1026 1963.5 Q1056 1944 1071.5 1912.5 Q1087 1881 1087 1846 Q1087 1776 1048 1731.5 Q1009 1687 934 1687 L933 1687 Q877 1687 842 1726.5 Q807 1766 807 1823 Z M264 133 L264 1386 L99 1411 L99 1522 L1141 1522 L1169 1205 L1040 1205 L978 1395 L499 1408 L499 843 L824 849 L854 1015 L983 1015 L983 541 L854 541 L825 717 L499 722 L499 124 L1049 146 L1162 397 L1290 359 L1231 0 L96 0 L96 109 L264 133 Z " />
<glyph glyph-name="Edotaccent" unicode="&#x116;" horiz-adv-x="1339" d="M554 1828 Q554 1895 593 1940.5 Q632 1986 702 1986 L703 1986 Q766 1986 803 1945.5 Q840 1905 840 1849 Q840 1780 800.5 1736.5 Q761 1693 685 1693 L684 1693 Q626 1693 590 1731.5 Q554 1770 554 1828 Z M264 133 L264 1386 L99 1411 L99 1522 L1141 1522 L1169 1205 L1040 1205 L978 1395 L499 1408 L499 843 L824 849 L854 1015 L983 1015 L983 541 L854 541 L825 717 L499 722 L499 124 L1049 146 L1162 397 L1290 359 L1231 0 L96 0 L96 109 L264 133 Z " />
<glyph glyph-name="Egrave" unicode="&#xc8;" horiz-adv-x="1339" d="M508 2012 L509 2012 L840 1701 L760 1633 L759 1633 Q710 1649 625.5 1692 Q541 1735 464.5 1787.5 Q388 1840 356 1885 L508 2012 Z M264 133 L264 1386 L99 1411 L99 1522 L1141 1522 L1169 1205 L1040 1205 L978 1395 L499 1408 L499 843 L824 849 L854 1015 L983 1015 L983 541 L854 541 L825 717 L499 722 L499 124 L1049 146 L1162 397 L1290 359 L1231 0 L96 0 L96 109 L264 133 Z " />
<glyph glyph-name="Emacron" unicode="&#x112;" horiz-adv-x="1339" d="M986 1904 L986 1746 L416 1746 L416 1904 L986 1904 Z M264 133 L264 1386 L99 1411 L99 1522 L1141 1522 L1169 1205 L1040 1205 L978 1395 L499 1408 L499 843 L824 849 L854 1015 L983 1015 L983 541 L854 541 L825 717 L499 722 L499 124 L1049 146 L1162 397 L1290 359 L1231 0 L96 0 L96 109 L264 133 Z " />
<glyph glyph-name="Eogonek" unicode="&#x118;" horiz-adv-x="1339" d="M264 133 L264 1386 L99 1411 L99 1522 L1141 1522 L1169 1205 L1040 1205 L978 1395 L499 1408 L499 843 L824 849 L854 1015 L983 1015 L983 541 L854 541 L825 717 L499 722 L499 124 L1049 146 L1162 397 L1290 359 L1231 0 L1216 0 Q1152 -10 1087 -52.5 Q1022 -95 980 -148.5 Q938 -202 938 -244 Q938 -305 978.5 -335 Q1019 -365 1086 -365 Q1153 -365 1227 -332 L1227 -442 Q1185 -474 1119.5 -492.5 Q1054 -511 990 -511 Q878 -511 804 -463 Q730 -415 730 -315 Q730 -259 768 -197.5 Q806 -136 872 -83 Q938 -30 1017 0 L96 0 L96 109 L264 133 Z " />
<glyph glyph-name="F" unicode="F" horiz-adv-x="1270" d="M264 133 L264 1386 L96 1411 L96 1522 L1188 1522 L1209 1172 L1064 1172 L998 1394 L499 1408 L499 825 L847 829 L887 997 L1010 997 L1010 520 L887 520 L847 691 L499 700 L499 133 L803 109 L803 0 L99 0 L99 109 L264 133 Z " />
<glyph glyph-name="uni1E1E" unicode="&#x1e1e;" horiz-adv-x="1270" d="M507 1828 Q507 1895 546 1940.5 Q585 1986 655 1986 L656 1986 Q719 1986 756 1945.5 Q793 1905 793 1849 Q793 1780 753.5 1736.5 Q714 1693 638 1693 L637 1693 Q579 1693 543 1731.5 Q507 1770 507 1828 Z M264 133 L264 1386 L96 1411 L96 1522 L1188 1522 L1209 1172 L1064 1172 L998 1394 L499 1408 L499 825 L847 829 L887 997 L1010 997 L1010 520 L887 520 L847 691 L499 700 L499 133 L803 109 L803 0 L99 0 L99 109 L264 133 Z " />
<glyph glyph-name="G" unicode="G" horiz-adv-x="1522" d="M87 738 Q87 985 189 1166 Q291 1347 468 1443 Q645 1539 866 1539 Q1004 1539 1123.5 1519.5 Q1243 1500 1346 1475 L1326 1120 L1172 1120 L1118 1357 Q1093 1382 1029 1402 Q965 1422 850 1422 Q704 1422 593 1350.5 Q482 1279 419.5 1137.5 Q357 996 357 792 Q357 605 409.5 447 Q462 289 570.5 192.5 Q679 96 837 96 Q927 96 1006 117.5 Q1085 139 1128 181 L1128 619 L883 642 L883 771 L1480 771 L1480 642 L1363 621 L1363 82 Q1337 81 1303.5 72.5 Q1270 64 1220 48 Q1114 15 1022 -4 Q930 -23 817 -23 Q592 -23 427 75.5 Q262 174 174.5 347 Q87 520 87 738 Z " />
<glyph glyph-name="uni01F4" unicode="&#x1f4;" horiz-adv-x="1522" d="M87 738 Q87 985 189 1166 Q291 1347 468 1443 Q645 1539 866 1539 Q1004 1539 1123.5 1519.5 Q1243 1500 1346 1475 L1326 1120 L1172 1120 L1118 1357 Q1093 1382 1029 1402 Q965 1422 850 1422 Q704 1422 593 1350.5 Q482 1279 419.5 1137.5 Q357 996 357 792 Q357 605 409.5 447 Q462 289 570.5 192.5 Q679 96 837 96 Q927 96 1006 117.5 Q1085 139 1128 181 L1128 619 L883 642 L883 771 L1480 771 L1480 642 L1363 621 L1363 82 Q1337 81 1303.5 72.5 Q1270 64 1220 48 Q1114 15 1022 -4 Q930 -23 817 -23 Q592 -23 427 75.5 Q262 174 174.5 347 Q87 520 87 738 Z M1021 2012 L1022 2012 L1175 1885 Q1139 1838 1062 1785.5 Q985 1733 902 1690.5 Q819 1648 771 1633 L770 1633 L690 1701 L1021 2012 Z " />
<glyph glyph-name="Gbreve" unicode="&#x11e;" horiz-adv-x="1527" d="M497 1956 Q497 1984 499 1998 L620 1998 Q620 1983 623 1971 Q632 1911 683 1861.5 Q734 1812 844 1812 Q953 1812 1002 1861.5 Q1051 1911 1058 1972 Q1060 1984 1060 1998 L1179 1998 Q1181 1984 1181 1957 Q1181 1869 1140.5 1797.5 Q1100 1726 1023.5 1684.5 Q947 1643 842 1643 Q733 1643 655 1684 Q577 1725 537 1796.5 Q497 1868 497 1956 Z M93 738 Q93 985 195 1166 Q297 1347 474 1443 Q651 1539 872 1539 Q1010 1539 1129.5 1519.5 Q1249 1500 1352 1475 L1332 1120 L1178 1120 L1124 1357 Q1099 1382 1035 1402 Q971 1422 856 1422 Q710 1422 599 1350.5 Q488 1279 425.5 1137.5 Q363 996 363 792 Q363 605 415.5 447 Q468 289 576.5 192.5 Q685 96 843 96 Q933 96 1012 117.5 Q1091 139 1134 181 L1134 619 L889 642 L889 771 L1486 771 L1486 642 L1369 621 L1369 82 Q1343 81 1309.5 72.5 Q1276 64 1226 48 Q1120 15 1028 -4 Q936 -23 823 -23 Q598 -23 433 75.5 Q268 174 180.5 347 Q93 520 93 738 Z " />
<glyph glyph-name="Gcaron" unicode="&#x1e6;" horiz-adv-x="1522" d="M87 738 Q87 985 189 1166 Q291 1347 468 1443 Q645 1539 866 1539 Q1004 1539 1123.5 1519.5 Q1243 1500 1346 1475 L1326 1120 L1172 1120 L1118 1357 Q1093 1382 1029 1402 Q965 1422 850 1422 Q704 1422 593 1350.5 Q482 1279 419.5 1137.5 Q357 996 357 792 Q357 605 409.5 447 Q462 289 570.5 192.5 Q679 96 837 96 Q927 96 1006 117.5 Q1085 139 1128 181 L1128 619 L883 642 L883 771 L1480 771 L1480 642 L1363 621 L1363 82 Q1337 81 1303.5 72.5 Q1270 64 1220 48 Q1114 15 1022 -4 Q930 -23 817 -23 Q592 -23 427 75.5 Q262 174 174.5 347 Q87 520 87 738 Z M581 2013 L836 1824 L1100 2013 L1185 1954 L928 1676 L745 1676 L490 1952 L581 2013 Z " />
<glyph glyph-name="Gcircumflex" unicode="&#x11c;" horiz-adv-x="1522" d="M87 738 Q87 985 189 1166 Q291 1347 468 1443 Q645 1539 866 1539 Q1004 1539 1123.5 1519.5 Q1243 1500 1346 1475 L1326 1120 L1172 1120 L1118 1357 Q1093 1382 1029 1402 Q965 1422 850 1422 Q704 1422 593 1350.5 Q482 1279 419.5 1137.5 Q357 996 357 792 Q357 605 409.5 447 Q462 289 570.5 192.5 Q679 96 837 96 Q927 96 1006 117.5 Q1085 139 1128 181 L1128 619 L883 642 L883 771 L1480 771 L1480 642 L1363 621 L1363 82 Q1337 81 1303.5 72.5 Q1270 64 1220 48 Q1114 15 1022 -4 Q930 -23 817 -23 Q592 -23 427 75.5 Q262 174 174.5 347 Q87 520 87 738 Z M742 2013 L925 2013 L1199 1715 L1107 1654 L834 1856 L556 1654 L471 1713 L742 2013 Z " />
<glyph glyph-name="Gcommaaccent" unicode="&#x122;" horiz-adv-x="1529" d="M783 -560 L705 -521 L704 -503 Q731 -491 747 -453.5 Q763 -416 763 -375 Q763 -350 751 -334.5 Q739 -319 718 -305 Q699 -293 688.5 -273 Q678 -253 678 -218 Q678 -177 699 -153 Q720 -129 748 -119.5 Q776 -110 800 -110 L810 -110 Q875 -110 912.5 -152.5 Q950 -195 950 -272 Q950 -345 917.5 -409.5 Q885 -474 844.5 -515.5 Q804 -557 786 -560 L783 -560 Z M94 738 Q94 985 196 1166 Q298 1347 475 1443 Q652 1539 873 1539 Q1011 1539 1130.5 1519.5 Q1250 1500 1353 1475 L1333 1120 L1179 1120 L1125 1357 Q1100 1382 1036 1402 Q972 1422 857 1422 Q711 1422 600 1350.5 Q489 1279 426.5 1137.5 Q364 996 364 792 Q364 605 416.5 447 Q469 289 577.5 192.5 Q686 96 844 96 Q934 96 1013 117.5 Q1092 139 1135 181 L1135 619 L890 642 L890 771 L1487 771 L1487 642 L1370 621 L1370 82 Q1344 81 1310.5 72.5 Q1277 64 1227 48 Q1121 15 1029 -4 Q937 -23 824 -23 Q599 -23 434 75.5 Q269 174 181.5 347 Q94 520 94 738 Z " />
<glyph glyph-name="Gdotaccent" unicode="&#x120;" horiz-adv-x="1527" d="M698 1828 Q698 1895 737 1940.5 Q776 1986 846 1986 L847 1986 Q910 1986 947 1945.5 Q984 1905 984 1849 Q984 1780 944.5 1736.5 Q905 1693 829 1693 L828 1693 Q770 1693 734 1731.5 Q698 1770 698 1828 Z M93 738 Q93 985 195 1166 Q297 1347 474 1443 Q651 1539 872 1539 Q1010 1539 1129.5 1519.5 Q1249 1500 1352 1475 L1332 1120 L1178 1120 L1124 1357 Q1099 1382 1035 1402 Q971 1422 856 1422 Q710 1422 599 1350.5 Q488 1279 425.5 1137.5 Q363 996 363 792 Q363 605 415.5 447 Q468 289 576.5 192.5 Q685 96 843 96 Q933 96 1012 117.5 Q1091 139 1134 181 L1134 619 L889 642 L889 771 L1486 771 L1486 642 L1369 621 L1369 82 Q1343 81 1309.5 72.5 Q1276 64 1226 48 Q1120 15 1028 -4 Q936 -23 823 -23 Q598 -23 433 75.5 Q268 174 180.5 347 Q93 520 93 738 Z " />
<glyph glyph-name="uni1E20" unicode="&#x1e20;" horiz-adv-x="1522" d="M87 738 Q87 985 189 1166 Q291 1347 468 1443 Q645 1539 866 1539 Q1004 1539 1123.5 1519.5 Q1243 1500 1346 1475 L1326 1120 L1172 1120 L1118 1357 Q1093 1382 1029 1402 Q965 1422 850 1422 Q704 1422 593 1350.5 Q482 1279 419.5 1137.5 Q357 996 357 792 Q357 605 409.5 447 Q462 289 570.5 192.5 Q679 96 837 96 Q927 96 1006 117.5 Q1085 139 1128 181 L1128 619 L883 642 L883 771 L1480 771 L1480 642 L1363 621 L1363 82 Q1337 81 1303.5 72.5 Q1270 64 1220 48 Q1114 15 1022 -4 Q930 -23 817 -23 Q592 -23 427 75.5 Q262 174 174.5 347 Q87 520 87 738 Z M1124 1904 L1124 1746 L554 1746 L554 1904 L1124 1904 Z " />
<glyph glyph-name="H" unicode="H" horiz-adv-x="1700" d="M265 133 L265 1385 L106 1411 L106 1522 L672 1522 L672 1411 L500 1386 L500 846 L1200 846 L1200 1386 L1036 1411 L1036 1522 L1595 1522 L1595 1411 L1435 1386 L1435 132 L1595 109 L1595 0 L1037 0 L1037 109 L1200 132 L1200 714 L500 714 L500 133 L672 109 L672 0 L100 0 L100 109 L265 133 Z " />
<glyph glyph-name="Hbar" unicode="&#x126;" horiz-adv-x="1699" d="M265 1135 L265 1385 L103 1411 L103 1522 L670 1522 L670 1411 L498 1386 L498 1135 L1201 1135 L1201 1386 L1038 1411 L1038 1522 L1597 1522 L1597 1411 L1435 1386 L1435 1135 L1652 1135 L1652 1023 L1435 1023 L1435 134 L1596 108 L1596 0 L1039 0 L1039 108 L1201 133 L1201 612 L498 612 L498 133 L671 109 L671 0 L97 0 L97 109 L265 133 L265 1023 L52 1023 L52 1135 L265 1135 Z M1201 1023 L498 1023 L498 743 L1201 743 L1201 1023 Z " />
<glyph glyph-name="Hcircumflex" unicode="&#x124;" horiz-adv-x="1700" d="M265 133 L265 1385 L106 1411 L106 1522 L672 1522 L672 1411 L500 1386 L500 846 L1200 846 L1200 1386 L1036 1411 L1036 1522 L1595 1522 L1595 1411 L1435 1386 L1435 132 L1595 109 L1595 0 L1037 0 L1037 109 L1200 132 L1200 714 L500 714 L500 133 L672 109 L672 0 L100 0 L100 109 L265 133 Z M757 2013 L940 2013 L1214 1715 L1122 1654 L849 1856 L571 1654 L486 1713 L757 2013 Z " />
<glyph glyph-name="I" unicode="I" horiz-adv-x="827" d="M295 133 L295 1385 L112 1411 L112 1522 L714 1522 L714 1411 L531 1386 L531 133 L717 106 L717 0 L112 0 L112 109 L295 133 Z " />
<glyph glyph-name="IJ" unicode="&#x132;" horiz-adv-x="1607" d="M295 133 L295 1385 L112 1411 L112 1522 L714 1522 L714 1411 L531 1386 L531 133 L717 106 L717 0 L112 0 L112 109 L295 133 Z M815 -276 Q864 -263 915.5 -225.5 Q967 -188 1009.5 -130.5 Q1052 -73 1074 -5 Q1098 77 1107 178 Q1116 279 1116 485 L1116 1385 L928 1411 L928 1522 L1530 1522 L1530 1411 L1349 1385 L1349 565 L1349 450 Q1349 301 1344.5 207.5 Q1340 114 1325 46 Q1300 -70 1230 -156 Q1160 -242 1066.5 -294.5 Q973 -347 872 -368 L815 -276 Z " />
<glyph glyph-name="Iacute" unicode="&#xcd;" horiz-adv-x="827" d="M295 133 L295 1385 L112 1411 L112 1522 L714 1522 L714 1411 L531 1386 L531 133 L717 106 L717 0 L112 0 L112 109 L295 133 Z M602 2012 L603 2012 L756 1885 Q720 1838 643 1785.5 Q566 1733 483 1690.5 Q400 1648 352 1633 L351 1633 L271 1701 L602 2012 Z " />
<glyph glyph-name="Ibreve" unicode="&#x12c;" horiz-adv-x="827" d="M295 133 L295 1385 L112 1411 L112 1522 L714 1522 L714 1411 L531 1386 L531 133 L717 106 L717 0 L112 0 L112 109 L295 133 Z M73 1956 Q73 1984 75 1998 L196 1998 Q196 1983 199 1971 Q208 1911 259 1861.5 Q310 1812 420 1812 Q529 1812 578 1861.5 Q627 1911 634 1972 Q636 1984 636 1998 L755 1998 Q757 1984 757 1957 Q757 1869 716.5 1797.5 Q676 1726 599.5 1684.5 Q523 1643 418 1643 Q309 1643 231 1684 Q153 1725 113 1796.5 Q73 1868 73 1956 Z " />
<glyph glyph-name="uni01CF" unicode="&#x1cf;" horiz-adv-x="827" d="M295 133 L295 1385 L112 1411 L112 1522 L714 1522 L714 1411 L531 1386 L531 133 L717 106 L717 0 L112 0 L112 109 L295 133 Z M162 2013 L417 1824 L681 2013 L766 1954 L509 1676 L326 1676 L71 1952 L162 2013 Z " />
<glyph glyph-name="Icircumflex" unicode="&#xce;" horiz-adv-x="827" d="M295 133 L295 1385 L112 1411 L112 1522 L714 1522 L714 1411 L531 1386 L531 133 L717 106 L717 0 L112 0 L112 109 L295 133 Z M323 2013 L506 2013 L780 1715 L688 1654 L415 1856 L137 1654 L52 1713 L323 2013 Z " />
<glyph glyph-name="Idieresis" unicode="&#xcf;" horiz-adv-x="827" d="M295 133 L295 1385 L112 1411 L112 1522 L714 1522 L714 1411 L531 1386 L531 133 L717 106 L717 0 L112 0 L112 109 L295 133 Z M26 1823 Q26 1891 64.5 1937 Q103 1983 173 1983 L174 1983 Q215 1983 245 1963.5 Q275 1944 290.5 1912.5 Q306 1881 306 1846 Q306 1776 266.5 1731.5 Q227 1687 152 1687 L151 1687 Q96 1687 61 1726.5 Q26 1766 26 1823 Z M526 1823 Q526 1891 564.5 1937 Q603 1983 672 1983 L673 1983 Q715 1983 745 1963.5 Q775 1944 790.5 1912.5 Q806 1881 806 1846 Q806 1776 767 1731.5 Q728 1687 653 1687 L652 1687 Q596 1687 561 1726.5 Q526 1766 526 1823 Z " />
<glyph glyph-name="Idot" unicode="&#x130;" horiz-adv-x="827" d="M295 133 L295 1385 L112 1411 L112 1522 L714 1522 L714 1411 L531 1386 L531 133 L717 106 L717 0 L112 0 L112 109 L295 133 Z M274 1828 Q274 1895 313 1940.5 Q352 1986 422 1986 L423 1986 Q486 1986 523 1945.5 Q560 1905 560 1849 Q560 1780 520.5 1736.5 Q481 1693 405 1693 L404 1693 Q346 1693 310 1731.5 Q274 1770 274 1828 Z " />
<glyph glyph-name="Igrave" unicode="&#xcc;" horiz-adv-x="827" d="M295 133 L295 1385 L112 1411 L112 1522 L714 1522 L714 1411 L531 1386 L531 133 L717 106 L717 0 L112 0 L112 109 L295 133 Z M250 2012 L251 2012 L582 1701 L502 1633 L501 1633 Q452 1649 367.5 1692 Q283 1735 206.5 1787.5 Q130 1840 98 1885 L250 2012 Z " />
<glyph glyph-name="Imacron" unicode="&#x12a;" horiz-adv-x="827" d="M295 133 L295 1385 L112 1411 L112 1522 L714 1522 L714 1411 L531 1386 L531 133 L717 106 L717 0 L112 0 L112 109 L295 133 Z M705 1904 L705 1746 L135 1746 L135 1904 L705 1904 Z " />
<glyph glyph-name="Iogonek" unicode="&#x12e;" horiz-adv-x="827" d="M295 133 L295 1385 L112 1411 L112 1522 L714 1522 L714 1411 L531 1386 L531 133 L717 106 L717 0 L527 0 Q472 -27 425.5 -70 Q379 -113 352 -159.5 Q325 -206 325 -244 Q325 -305 366.5 -335 Q408 -365 477 -365 Q542 -365 618 -332 L618 -442 Q575 -474 509.5 -492.5 Q444 -511 380 -511 Q269 -511 193.5 -462.5 Q118 -414 118 -315 Q118 -260 152.5 -198.5 Q187 -137 244 -84 Q301 -31 365 0 L112 0 L112 109 L295 133 Z " />
<glyph glyph-name="Itilde" unicode="&#x128;" horiz-adv-x="827" d="M295 133 L295 1385 L112 1411 L112 1522 L714 1522 L714 1411 L531 1386 L531 133 L717 106 L717 0 L112 0 L112 109 L295 133 Z M240 1851 Q187 1851 154 1820.5 Q121 1790 104.5 1764 Q88 1738 84 1732 L-12 1795 Q3 1843 42.5 1892.5 Q82 1942 142.5 1975 Q203 2008 275 2008 Q317 2008 351.5 1994.5 Q386 1981 411.5 1962.5 Q437 1944 471 1913 Q512 1876 539 1859 Q566 1842 601 1842 Q654 1842 684 1871 Q714 1900 729 1927.5 Q744 1955 748 1962 L846 1898 Q812 1806 745 1745 Q678 1684 580 1684 Q521 1684 478 1708 Q435 1732 384 1777 Q339 1815 308.5 1833 Q278 1851 240 1851 Z " />
<glyph glyph-name="J" unicode="J" horiz-adv-x="780" d="M-12 -276 Q37 -263 88.5 -225.5 Q140 -188 182.5 -130.5 Q225 -73 247 -5 Q271 77 280 178 Q289 279 289 485 L289 1385 L101 1411 L101 1522 L703 1522 L703 1411 L522 1385 L522 565 L522 450 Q522 301 517.5 207.5 Q513 114 498 46 Q473 -70 403 -156 Q333 -242 239.5 -294.5 Q146 -347 45 -368 L-12 -276 Z " />
<glyph glyph-name="Jcircumflex" unicode="&#x134;" horiz-adv-x="780" d="M-12 -276 Q37 -263 88.5 -225.5 Q140 -188 182.5 -130.5 Q225 -73 247 -5 Q271 77 280 178 Q289 279 289 485 L289 1385 L101 1411 L101 1522 L703 1522 L703 1411 L522 1385 L522 565 L522 450 Q522 301 517.5 207.5 Q513 114 498 46 Q473 -70 403 -156 Q333 -242 239.5 -294.5 Q146 -347 45 -368 L-12 -276 Z M307 2013 L490 2013 L764 1715 L672 1654 L399 1856 L121 1654 L36 1713 L307 2013 Z " />
<glyph glyph-name="K" unicode="K" horiz-adv-x="1489" d="M1183 0 Q1147 0 1092 85 Q1037 170 943 346 Q863 496 807 590 Q751 684 700 741 L501 512 L501 132 L689 108 L689 0 L97 0 L97 109 L266 133 L266 1386 L101 1411 L101 1522 L663 1522 L663 1411 L501 1385 L501 685 L1079 1386 L914 1411 L913 1522 L1423 1522 L1423 1412 L1267 1386 L838 900 Q906 840 987.5 723.5 Q1069 607 1179 431 Q1274 280 1324 209 Q1374 138 1400 133 L1490 108 L1490 0 L1183 0 Z " />
<glyph glyph-name="Kcommaaccent" unicode="&#x136;" horiz-adv-x="1489" d="M783 -560 L705 -521 L704 -503 Q731 -491 747 -453.5 Q763 -416 763 -375 Q763 -350 751 -334.5 Q739 -319 718 -305 Q699 -293 688.5 -273 Q678 -253 678 -218 Q678 -177 699 -153 Q720 -129 748 -119.5 Q776 -110 800 -110 L810 -110 Q875 -110 912.5 -152.5 Q950 -195 950 -272 Q950 -345 917.5 -409.5 Q885 -474 844.5 -515.5 Q804 -557 786 -560 L783 -560 Z M1183 0 Q1147 0 1092 85 Q1037 170 943 346 Q863 496 807 590 Q751 684 700 741 L501 512 L501 132 L689 108 L689 0 L97 0 L97 109 L266 133 L266 1386 L101 1411 L101 1522 L663 1522 L663 1411 L501 1385 L501 685 L1079 1386 L914 1411 L913 1522 L1423 1522 L1423 1412 L1267 1386 L838 900 Q906 840 987.5 723.5 Q1069 607 1179 431 Q1274 280 1324 209 Q1374 138 1400 133 L1490 108 L1490 0 L1183 0 Z " />
<glyph glyph-name="L" unicode="L" horiz-adv-x="1301" d="M266 133 L266 1386 L101 1411 L101 1522 L696 1522 L696 1411 L503 1385 L503 132 L1008 152 L1130 486 L1264 463 L1196 0 L98 0 L98 109 L266 133 Z " />
<glyph glyph-name="uni01C7" unicode="&#x1c7;" horiz-adv-x="2081" d="M266 133 L266 1386 L101 1411 L101 1522 L696 1522 L696 1411 L503 1385 L503 132 L1008 152 L1130 486 L1264 463 L1196 0 L98 0 L98 109 L266 133 Z M1289 -276 Q1338 -263 1389.5 -225.5 Q1441 -188 1483.5 -130.5 Q1526 -73 1548 -5 Q1572 77 1581 178 Q1590 279 1590 485 L1590 1385 L1402 1411 L1402 1522 L2004 1522 L2004 1411 L1823 1385 L1823 565 L1823 450 Q1823 301 1818.5 207.5 Q1814 114 1799 46 Q1774 -70 1704 -156 Q1634 -242 1540.5 -294.5 Q1447 -347 1346 -368 L1289 -276 Z " />
<glyph glyph-name="Lacute" unicode="&#x139;" horiz-adv-x="1301" d="M685 2012 L686 2012 L839 1885 Q803 1838 726 1785.5 Q649 1733 566 1690.5 Q483 1648 435 1633 L434 1633 L354 1701 L685 2012 Z M266 133 L266 1386 L101 1411 L101 1522 L696 1522 L696 1411 L503 1385 L503 132 L1008 152 L1130 486 L1264 463 L1196 0 L98 0 L98 109 L266 133 Z " />
<glyph glyph-name="Lcaron" unicode="&#x13d;" horiz-adv-x="1301" d="M266 133 L266 1386 L101 1411 L101 1522 L696 1522 L696 1411 L503 1385 L503 132 L1008 152 L1130 486 L1264 463 L1196 0 L98 0 L98 109 L266 133 Z M923 1085 Q956 1201 956 1347 Q956 1433 939 1506.5 Q922 1580 903 1605 L917 1645 L1085 1685 Q1113 1657 1130.5 1588 Q1148 1519 1148 1440 Q1148 1356 1130 1271 Q1112 1186 1083 1121 Q1054 1056 1023 1027 L927 1061 L923 1085 Z " />
<glyph glyph-name="Lcommaaccent" unicode="&#x13b;" horiz-adv-x="1300" d="M683 -560 L605 -521 L604 -503 Q631 -491 647 -453.5 Q663 -416 663 -375 Q663 -350 651 -334.5 Q639 -319 618 -305 Q599 -293 588.5 -273 Q578 -253 578 -218 Q578 -177 599 -153 Q620 -129 648 -119.5 Q676 -110 700 -110 L710 -110 Q775 -110 812.5 -152.5 Q850 -195 850 -272 Q850 -345 817.5 -409.5 Q785 -474 744.5 -515.5 Q704 -557 686 -560 L683 -560 Z M266 133 L266 1386 L101 1411 L101 1522 L696 1522 L696 1411 L503 1385 L503 132 L1008 152 L1130 486 L1264 463 L1196 0 L98 0 L98 109 L266 133 Z " />
<glyph glyph-name="Ldot" unicode="&#x13f;" horiz-adv-x="1313" d="M266 133 L266 1386 L101 1411 L101 1522 L696 1522 L696 1411 L503 1385 L503 132 L1008 152 L1130 486 L1264 463 L1196 0 L98 0 L98 109 L266 133 Z M827 851 Q827 895 850.5 931.5 Q874 968 912 989 Q950 1010 992 1010 Q1061 1010 1097.5 971 Q1134 932 1134 874 Q1134 827 1111.5 790.5 Q1089 754 1050.5 734.5 Q1012 715 967 715 Q930 715 898 732 Q866 749 846.5 780 Q827 811 827 851 Z " />
<glyph glyph-name="uni01C8" unicode="&#x1c8;" horiz-adv-x="1957" d="M266 133 L266 1386 L101 1411 L101 1522 L696 1522 L696 1411 L503 1385 L503 132 L1008 152 L1130 486 L1264 463 L1196 0 L98 0 L98 109 L266 133 Z M1391 998 L1393 1123 L1710 1164 L1715 1164 L1765 1125 L1765 18 Q1765 -144 1717 -256.5 Q1669 -369 1589.5 -428 Q1510 -487 1414 -498 Q1409 -499 1391 -499 Q1364 -499 1334 -496.5 Q1304 -494 1296 -490 L1285 -382 Q1300 -384 1332.5 -378 Q1365 -372 1394 -361 Q1475 -331 1507 -223 Q1539 -115 1539 60 L1537 957 L1391 998 Z M1495 1489 Q1495 1557 1534.5 1604 Q1574 1651 1645 1651 L1646 1651 Q1688 1651 1719 1631.5 Q1750 1612 1766.5 1580 Q1783 1548 1783 1512 Q1783 1442 1743 1397 Q1703 1352 1627 1352 L1626 1352 Q1568 1352 1531.5 1391 Q1495 1430 1495 1489 Z " />
<glyph glyph-name="Lslash" unicode="&#x141;" horiz-adv-x="1300" d="M266 742 L266 1386 L101 1411 L101 1522 L696 1522 L696 1411 L503 1385 L503 839 L886 1007 L886 876 L503 712 L503 132 L1008 152 L1130 486 L1264 463 L1196 0 L98 0 L98 109 L266 133 L266 617 L47 524 L47 647 L266 742 Z " />
<glyph glyph-name="M" unicode="M" horiz-adv-x="2046" d="M179 132 L329 1386 L115 1411 L115 1522 L661 1522 L975 605 L1027 375 L1072 605 L1349 1522 L1895 1522 L1895 1411 L1673 1385 L1867 133 L2046 109 L2046 0 L1452 0 L1452 109 L1629 132 L1503 1040 L1459 1439 L1390 1165 L1064 68 L935 68 L574 1053 L463 1438 L431 1041 L350 133 L547 109 L547 0 L1 0 L1 109 L179 132 Z " />
<glyph glyph-name="uni1E40" unicode="&#x1e40;" horiz-adv-x="2056" d="M873 1828 Q873 1895 912 1940.5 Q951 1986 1021 1986 L1022 1986 Q1085 1986 1122 1945.5 Q1159 1905 1159 1849 Q1159 1780 1119.5 1736.5 Q1080 1693 1004 1693 L1003 1693 Q945 1693 909 1731.5 Q873 1770 873 1828 Z M179 132 L329 1386 L115 1411 L115 1522 L661 1522 L975 605 L1027 375 L1072 605 L1349 1522 L1895 1522 L1895 1411 L1673 1385 L1867 133 L2046 109 L2046 0 L1452 0 L1452 109 L1629 132 L1503 1040 L1459 1439 L1390 1165 L1064 68 L935 68 L574 1053 L463 1438 L431 1041 L350 133 L547 109 L547 0 L1 0 L1 109 L179 132 Z " />
<glyph glyph-name="N" unicode="N" horiz-adv-x="1638" d="M263 132 L263 1385 L98 1411 L98 1522 L493 1522 L1166 539 L1272 341 L1272 1386 L1093 1411 L1093 1522 L1589 1522 L1589 1411 L1423 1385 L1423 0 L1259 0 L570 1003 L414 1275 L414 133 L605 109 L605 0 L98 0 L98 109 L263 132 Z " />
<glyph glyph-name="uni01CA" unicode="&#x1ca;" horiz-adv-x="2418" d="M263 132 L263 1385 L98 1411 L98 1522 L493 1522 L1166 539 L1272 341 L1272 1386 L1093 1411 L1093 1522 L1589 1522 L1589 1411 L1423 1385 L1423 0 L1259 0 L570 1003 L414 1275 L414 133 L605 109 L605 0 L98 0 L98 109 L263 132 Z M1626 -276 Q1675 -263 1726.5 -225.5 Q1778 -188 1820.5 -130.5 Q1863 -73 1885 -5 Q1909 77 1918 178 Q1927 279 1927 485 L1927 1385 L1739 1411 L1739 1522 L2341 1522 L2341 1411 L2160 1385 L2160 565 L2160 450 Q2160 301 2155.5 207.5 Q2151 114 2136 46 Q2111 -70 2041 -156 Q1971 -242 1877.5 -294.5 Q1784 -347 1683 -368 L1626 -276 Z " />
<glyph glyph-name="Nacute" unicode="&#x143;" horiz-adv-x="1640" d="M1050 2012 L1051 2012 L1204 1885 Q1168 1838 1091 1785.5 Q1014 1733 931 1690.5 Q848 1648 800 1633 L799 1633 L719 1701 L1050 2012 Z M263 132 L263 1385 L98 1411 L98 1522 L493 1522 L1166 539 L1272 341 L1272 1386 L1093 1411 L1093 1522 L1589 1522 L1589 1411 L1423 1385 L1423 0 L1259 0 L570 1003 L414 1275 L414 133 L605 109 L605 0 L98 0 L98 109 L263 132 Z " />
<glyph glyph-name="Ncaron" unicode="&#x147;" horiz-adv-x="1640" d="M600 2013 L855 1824 L1119 2013 L1204 1954 L947 1676 L764 1676 L509 1952 L600 2013 Z M263 132 L263 1385 L98 1411 L98 1522 L493 1522 L1166 539 L1272 341 L1272 1386 L1093 1411 L1093 1522 L1589 1522 L1589 1411 L1423 1385 L1423 0 L1259 0 L570 1003 L414 1275 L414 133 L605 109 L605 0 L98 0 L98 109 L263 132 Z " />
<glyph glyph-name="Ncommaaccent" unicode="&#x145;" horiz-adv-x="1640" d="M842 -560 L764 -521 L763 -503 Q790 -491 806 -453.5 Q822 -416 822 -375 Q822 -350 810 -334.5 Q798 -319 777 -305 Q758 -293 747.5 -273 Q737 -253 737 -218 Q737 -177 758 -153 Q779 -129 807 -119.5 Q835 -110 859 -110 L869 -110 Q934 -110 971.5 -152.5 Q1009 -195 1009 -272 Q1009 -345 976.5 -409.5 Q944 -474 903.5 -515.5 Q863 -557 845 -560 L842 -560 Z M263 132 L263 1385 L98 1411 L98 1522 L493 1522 L1166 539 L1272 341 L1272 1386 L1093 1411 L1093 1522 L1589 1522 L1589 1411 L1423 1385 L1423 0 L1259 0 L570 1003 L414 1275 L414 133 L605 109 L605 0 L98 0 L98 109 L263 132 Z " />
<glyph glyph-name="uni1E44" unicode="&#x1e44;" horiz-adv-x="1638" d="M263 132 L263 1385 L98 1411 L98 1522 L493 1522 L1166 539 L1272 341 L1272 1386 L1093 1411 L1093 1522 L1589 1522 L1589 1411 L1423 1385 L1423 0 L1259 0 L570 1003 L414 1275 L414 133 L605 109 L605 0 L98 0 L98 109 L263 132 Z M703 1828 Q703 1895 742 1940.5 Q781 1986 851 1986 L852 1986 Q915 1986 952 1945.5 Q989 1905 989 1849 Q989 1780 949.5 1736.5 Q910 1693 834 1693 L833 1693 Q775 1693 739 1731.5 Q703 1770 703 1828 Z " />
<glyph glyph-name="Eng" unicode="&#x14a;" horiz-adv-x="1613" d="M266 131 L266 1390 L99 1418 L99 1522 L500 1522 L1130 539 L1274 265 L1274 1388 L1100 1414 L1100 1522 L1593 1522 L1593 1414 L1425 1388 L1425 403 Q1425 228 1404.5 116 Q1384 4 1352.5 -58 Q1321 -120 1275 -173 Q1192 -264 1104 -307 Q1016 -350 904 -363 L850 -275 Q944 -250 1019.5 -200.5 Q1095 -151 1144 -78 Q1175 -31 1195 25 L558 1008 L418 1280 L418 131 L606 107 L606 0 L99 0 L99 107 L266 131 Z " />
<glyph glyph-name="uni01CB" unicode="&#x1cb;" horiz-adv-x="2294" d="M263 132 L263 1385 L98 1411 L98 1522 L493 1522 L1166 539 L1272 341 L1272 1386 L1093 1411 L1093 1522 L1589 1522 L1589 1411 L1423 1385 L1423 0 L1259 0 L570 1003 L414 1275 L414 133 L605 109 L605 0 L98 0 L98 109 L263 132 Z M1728 998 L1730 1123 L2047 1164 L2052 1164 L2102 1125 L2102 18 Q2102 -144 2054 -256.5 Q2006 -369 1926.5 -428 Q1847 -487 1751 -498 Q1746 -499 1728 -499 Q1701 -499 1671 -496.5 Q1641 -494 1633 -490 L1622 -382 Q1637 -384 1669.5 -378 Q1702 -372 1731 -361 Q1812 -331 1844 -223 Q1876 -115 1876 60 L1874 957 L1728 998 Z M1832 1489 Q1832 1557 1871.5 1604 Q1911 1651 1982 1651 L1983 1651 Q2025 1651 2056 1631.5 Q2087 1612 2103.5 1580 Q2120 1548 2120 1512 Q2120 1442 2080 1397 Q2040 1352 1964 1352 L1963 1352 Q1905 1352 1868.5 1391 Q1832 1430 1832 1489 Z " />
<glyph glyph-name="Ntilde" unicode="&#xd1;" horiz-adv-x="1640" d="M653 1851 Q600 1851 567 1820.5 Q534 1790 517.5 1764 Q501 1738 497 1732 L401 1795 Q416 1843 455.5 1892.5 Q495 1942 555.5 1975 Q616 2008 688 2008 Q730 2008 764.5 1994.5 Q799 1981 824.5 1962.5 Q850 1944 884 1913 Q925 1876 952 1859 Q979 1842 1014 1842 Q1067 1842 1097 1871 Q1127 1900 1142 1927.5 Q1157 1955 1161 1962 L1259 1898 Q1225 1806 1158 1745 Q1091 1684 993 1684 Q934 1684 891 1708 Q848 1732 797 1777 Q752 1815 721.5 1833 Q691 1851 653 1851 Z M263 132 L263 1385 L98 1411 L98 1522 L493 1522 L1166 539 L1272 341 L1272 1386 L1093 1411 L1093 1522 L1589 1522 L1589 1411 L1423 1385 L1423 0 L1259 0 L570 1003 L414 1275 L414 133 L605 109 L605 0 L98 0 L98 109 L263 132 Z " />
<glyph glyph-name="O" unicode="O" horiz-adv-x="1480" d="M66 750 Q66 986 156 1165 Q246 1344 403.5 1441.5 Q561 1539 758 1539 Q972 1539 1119 1445.5 Q1266 1352 1339.5 1181 Q1413 1010 1413 777 Q1413 538 1322.5 356.5 Q1232 175 1072.5 76 Q913 -23 713 -23 Q505 -23 359.5 73.5 Q214 170 140 344.5 Q66 519 66 750 Z M326 751 Q326 551 375 403 Q424 255 517 175 Q610 95 740 95 Q867 95 959.5 171 Q1052 247 1103 399.5 Q1154 552 1154 776 Q1154 976 1105.5 1121.5 Q1057 1267 964 1344.5 Q871 1422 741 1422 Q613 1422 520 1348.5 Q427 1275 376.5 1125 Q326 975 326 751 Z " />
<glyph glyph-name="Oacute" unicode="&#xd3;" horiz-adv-x="1480" d="M931 2012 L932 2012 L1085 1885 Q1049 1838 972 1785.5 Q895 1733 812 1690.5 Q729 1648 681 1633 L680 1633 L600 1701 L931 2012 Z M66 750 Q66 986 156 1165 Q246 1344 403.5 1441.5 Q561 1539 758 1539 Q972 1539 1119 1445.5 Q1266 1352 1339.5 1181 Q1413 1010 1413 777 Q1413 538 1322.5 356.5 Q1232 175 1072.5 76 Q913 -23 713 -23 Q505 -23 359.5 73.5 Q214 170 140 344.5 Q66 519 66 750 Z M326 751 Q326 551 375 403 Q424 255 517 175 Q610 95 740 95 Q867 95 959.5 171 Q1052 247 1103 399.5 Q1154 552 1154 776 Q1154 976 1105.5 1121.5 Q1057 1267 964 1344.5 Q871 1422 741 1422 Q613 1422 520 1348.5 Q427 1275 376.5 1125 Q326 975 326 751 Z " />
<glyph glyph-name="Obreve" unicode="&#x14e;" horiz-adv-x="1480" d="M402 1956 Q402 1984 404 1998 L525 1998 Q525 1983 528 1971 Q537 1911 588 1861.5 Q639 1812 749 1812 Q858 1812 907 1861.5 Q956 1911 963 1972 Q965 1984 965 1998 L1084 1998 Q1086 1984 1086 1957 Q1086 1869 1045.5 1797.5 Q1005 1726 928.5 1684.5 Q852 1643 747 1643 Q638 1643 560 1684 Q482 1725 442 1796.5 Q402 1868 402 1956 Z M66 750 Q66 986 156 1165 Q246 1344 403.5 1441.5 Q561 1539 758 1539 Q972 1539 1119 1445.5 Q1266 1352 1339.5 1181 Q1413 1010 1413 777 Q1413 538 1322.5 356.5 Q1232 175 1072.5 76 Q913 -23 713 -23 Q505 -23 359.5 73.5 Q214 170 140 344.5 Q66 519 66 750 Z M326 751 Q326 551 375 403 Q424 255 517 175 Q610 95 740 95 Q867 95 959.5 171 Q1052 247 1103 399.5 Q1154 552 1154 776 Q1154 976 1105.5 1121.5 Q1057 1267 964 1344.5 Q871 1422 741 1422 Q613 1422 520 1348.5 Q427 1275 376.5 1125 Q326 975 326 751 Z " />
<glyph glyph-name="uni01D1" unicode="&#x1d1;" horiz-adv-x="1480" d="M66 750 Q66 986 156 1165 Q246 1344 403.5 1441.5 Q561 1539 758 1539 Q972 1539 1119 1445.5 Q1266 1352 1339.5 1181 Q1413 1010 1413 777 Q1413 538 1322.5 356.5 Q1232 175 1072.5 76 Q913 -23 713 -23 Q505 -23 359.5 73.5 Q214 170 140 344.5 Q66 519 66 750 Z M326 751 Q326 551 375 403 Q424 255 517 175 Q610 95 740 95 Q867 95 959.5 171 Q1052 247 1103 399.5 Q1154 552 1154 776 Q1154 976 1105.5 1121.5 Q1057 1267 964 1344.5 Q871 1422 741 1422 Q613 1422 520 1348.5 Q427 1275 376.5 1125 Q326 975 326 751 Z M491 2013 L746 1824 L1010 2013 L1095 1954 L838 1676 L655 1676 L400 1952 L491 2013 Z " />
<glyph glyph-name="Ocircumflex" unicode="&#xd4;" horiz-adv-x="1480" d="M66 750 Q66 986 156 1165 Q246 1344 403.5 1441.5 Q561 1539 758 1539 Q972 1539 1119 1445.5 Q1266 1352 1339.5 1181 Q1413 1010 1413 777 Q1413 538 1322.5 356.5 Q1232 175 1072.5 76 Q913 -23 713 -23 Q505 -23 359.5 73.5 Q214 170 140 344.5 Q66 519 66 750 Z M326 751 Q326 551 375 403 Q424 255 517 175 Q610 95 740 95 Q867 95 959.5 171 Q1052 247 1103 399.5 Q1154 552 1154 776 Q1154 976 1105.5 1121.5 Q1057 1267 964 1344.5 Q871 1422 741 1422 Q613 1422 520 1348.5 Q427 1275 376.5 1125 Q326 975 326 751 Z M652 2013 L835 2013 L1109 1715 L1017 1654 L744 1856 L466 1654 L381 1713 L652 2013 Z " />
<glyph glyph-name="Odieresis" unicode="&#xd6;" horiz-adv-x="1480" d="M355 1823 Q355 1891 393.5 1937 Q432 1983 502 1983 L503 1983 Q544 1983 574 1963.5 Q604 1944 619.5 1912.5 Q635 1881 635 1846 Q635 1776 595.5 1731.5 Q556 1687 481 1687 L480 1687 Q425 1687 390 1726.5 Q355 1766 355 1823 Z M855 1823 Q855 1891 893.5 1937 Q932 1983 1001 1983 L1002 1983 Q1044 1983 1074 1963.5 Q1104 1944 1119.5 1912.5 Q1135 1881 1135 1846 Q1135 1776 1096 1731.5 Q1057 1687 982 1687 L981 1687 Q925 1687 890 1726.5 Q855 1766 855 1823 Z M66 750 Q66 986 156 1165 Q246 1344 403.5 1441.5 Q561 1539 758 1539 Q972 1539 1119 1445.5 Q1266 1352 1339.5 1181 Q1413 1010 1413 777 Q1413 538 1322.5 356.5 Q1232 175 1072.5 76 Q913 -23 713 -23 Q505 -23 359.5 73.5 Q214 170 140 344.5 Q66 519 66 750 Z M326 751 Q326 551 375 403 Q424 255 517 175 Q610 95 740 95 Q867 95 959.5 171 Q1052 247 1103 399.5 Q1154 552 1154 776 Q1154 976 1105.5 1121.5 Q1057 1267 964 1344.5 Q871 1422 741 1422 Q613 1422 520 1348.5 Q427 1275 376.5 1125 Q326 975 326 751 Z " />
<glyph glyph-name="Ograve" unicode="&#xd2;" horiz-adv-x="1480" d="M578 2012 L579 2012 L910 1701 L830 1633 L829 1633 Q780 1649 695.5 1692 Q611 1735 534.5 1787.5 Q458 1840 426 1885 L578 2012 Z M66 750 Q66 986 156 1165 Q246 1344 403.5 1441.5 Q561 1539 758 1539 Q972 1539 1119 1445.5 Q1266 1352 1339.5 1181 Q1413 1010 1413 777 Q1413 538 1322.5 356.5 Q1232 175 1072.5 76 Q913 -23 713 -23 Q505 -23 359.5 73.5 Q214 170 140 344.5 Q66 519 66 750 Z M326 751 Q326 551 375 403 Q424 255 517 175 Q610 95 740 95 Q867 95 959.5 171 Q1052 247 1103 399.5 Q1154 552 1154 776 Q1154 976 1105.5 1121.5 Q1057 1267 964 1344.5 Q871 1422 741 1422 Q613 1422 520 1348.5 Q427 1275 376.5 1125 Q326 975 326 751 Z " />
<glyph glyph-name="Ohungarumlaut" unicode="&#x150;" horiz-adv-x="1480" d="M66 750 Q66 986 156 1165 Q246 1344 403.5 1441.5 Q561 1539 758 1539 Q972 1539 1119 1445.5 Q1266 1352 1339.5 1181 Q1413 1010 1413 777 Q1413 538 1322.5 356.5 Q1232 175 1072.5 76 Q913 -23 713 -23 Q505 -23 359.5 73.5 Q214 170 140 344.5 Q66 519 66 750 Z M326 751 Q326 551 375 403 Q424 255 517 175 Q610 95 740 95 Q867 95 959.5 171 Q1052 247 1103 399.5 Q1154 552 1154 776 Q1154 976 1105.5 1121.5 Q1057 1267 964 1344.5 Q871 1422 741 1422 Q613 1422 520 1348.5 Q427 1275 376.5 1125 Q326 975 326 751 Z M643 2014 L788 1894 Q724 1821 632.5 1751.5 Q541 1682 460 1637 L365 1719 L643 2014 Z M1165 2012 L1299 1892 Q1242 1825 1145.5 1753 Q1049 1681 966 1637 L871 1719 L1165 2012 Z " />
<glyph glyph-name="Omacron" unicode="&#x14c;" horiz-adv-x="1480" d="M1034 1904 L1034 1746 L464 1746 L464 1904 L1034 1904 Z M66 750 Q66 986 156 1165 Q246 1344 403.5 1441.5 Q561 1539 758 1539 Q972 1539 1119 1445.5 Q1266 1352 1339.5 1181 Q1413 1010 1413 777 Q1413 538 1322.5 356.5 Q1232 175 1072.5 76 Q913 -23 713 -23 Q505 -23 359.5 73.5 Q214 170 140 344.5 Q66 519 66 750 Z M326 751 Q326 551 375 403 Q424 255 517 175 Q610 95 740 95 Q867 95 959.5 171 Q1052 247 1103 399.5 Q1154 552 1154 776 Q1154 976 1105.5 1121.5 Q1057 1267 964 1344.5 Q871 1422 741 1422 Q613 1422 520 1348.5 Q427 1275 376.5 1125 Q326 975 326 751 Z " />
<glyph glyph-name="Oslash" unicode="&#xd8;" horiz-adv-x="1480" d="M411 43 Q242 129 154 313 Q66 497 66 750 Q66 986 156 1165 Q246 1344 403.5 1441.5 Q561 1539 758 1539 Q870 1539 970 1511 L1050 1719 L1156 1683 L1071 1472 Q1240 1388 1326.5 1208.5 Q1413 1029 1413 777 Q1413 541 1324.5 360.5 Q1236 180 1080 80 Q924 -20 727 -23 Q615 -24 515 2 L425 -216 L317 -183 L411 43 Z M326 751 Q326 565 368 424.5 Q410 284 490 201 L918 1376 Q840 1422 741 1422 Q613 1422 520 1348.5 Q427 1275 376.5 1125 Q326 975 326 751 Z M568 139 Q644 95 740 95 Q867 95 959.5 171 Q1052 247 1103 399.5 Q1154 552 1154 776 Q1154 957 1113.5 1094.5 Q1073 1232 996 1313 L568 139 Z " />
<glyph glyph-name="Oslashacute" unicode="&#x1fe;" horiz-adv-x="1480" d="M411 43 Q242 129 154 313 Q66 497 66 750 Q66 986 156 1165 Q246 1344 403.5 1441.5 Q561 1539 758 1539 Q870 1539 970 1511 L1050 1719 L1156 1683 L1071 1472 Q1240 1388 1326.5 1208.5 Q1413 1029 1413 777 Q1413 541 1324.5 360.5 Q1236 180 1080 80 Q924 -20 727 -23 Q615 -24 515 2 L425 -216 L317 -183 L411 43 Z M326 751 Q326 565 368 424.5 Q410 284 490 201 L918 1376 Q840 1422 741 1422 Q613 1422 520 1348.5 Q427 1275 376.5 1125 Q326 975 326 751 Z M568 139 Q644 95 740 95 Q867 95 959.5 171 Q1052 247 1103 399.5 Q1154 552 1154 776 Q1154 957 1113.5 1094.5 Q1073 1232 996 1313 L568 139 Z M889 2012 L890 2012 L1043 1885 Q1007 1838 930 1785.5 Q853 1733 770 1690.5 Q687 1648 639 1633 L638 1633 L558 1701 L889 2012 Z " />
<glyph glyph-name="Otilde" unicode="&#xd5;" horiz-adv-x="1480" d="M569 1851 Q516 1851 483 1820.5 Q450 1790 433.5 1764 Q417 1738 413 1732 L317 1795 Q332 1843 371.5 1892.5 Q411 1942 471.5 1975 Q532 2008 604 2008 Q646 2008 680.5 1994.5 Q715 1981 740.5 1962.5 Q766 1944 800 1913 Q841 1876 868 1859 Q895 1842 930 1842 Q983 1842 1013 1871 Q1043 1900 1058 1927.5 Q1073 1955 1077 1962 L1175 1898 Q1141 1806 1074 1745 Q1007 1684 909 1684 Q850 1684 807 1708 Q764 1732 713 1777 Q668 1815 637.5 1833 Q607 1851 569 1851 Z M66 750 Q66 986 156 1165 Q246 1344 403.5 1441.5 Q561 1539 758 1539 Q972 1539 1119 1445.5 Q1266 1352 1339.5 1181 Q1413 1010 1413 777 Q1413 538 1322.5 356.5 Q1232 175 1072.5 76 Q913 -23 713 -23 Q505 -23 359.5 73.5 Q214 170 140 344.5 Q66 519 66 750 Z M326 751 Q326 551 375 403 Q424 255 517 175 Q610 95 740 95 Q867 95 959.5 171 Q1052 247 1103 399.5 Q1154 552 1154 776 Q1154 976 1105.5 1121.5 Q1057 1267 964 1344.5 Q871 1422 741 1422 Q613 1422 520 1348.5 Q427 1275 376.5 1125 Q326 975 326 751 Z " />
<glyph glyph-name="OE" unicode="&#x152;" horiz-adv-x="2112" d="M1027 59 Q892 -16 728 -16 Q522 -16 375.5 80.5 Q229 177 153.5 350.5 Q78 524 78 752 Q78 988 167.5 1166.5 Q257 1345 414.5 1443 Q572 1541 769 1542 Q919 1542 1027 1495 L1027 1522 L1906 1522 L1933 1203 L1806 1203 L1744 1394 L1261 1407 L1261 841 L1589 848 L1619 1012 L1749 1012 L1749 544 L1619 544 L1589 715 L1261 721 L1261 123 L1821 145 L1951 396 L2078 359 L2002 0 L1027 0 L1027 59 Z M1027 1317 Q932 1431 753 1431 Q622 1431 528 1353.5 Q434 1276 384 1124 Q334 972 334 753 Q334 566 384 417.5 Q434 269 529.5 184 Q625 99 755 99 Q926 99 1027 233 L1027 1317 Z " />
<glyph glyph-name="P" unicode="P" horiz-adv-x="1328" d="M266 132 L266 1385 L109 1411 L109 1522 L356 1522 Q410 1522 502 1528 Q610 1536 709 1536 Q921 1536 1046 1485.5 Q1171 1435 1224 1339 Q1277 1243 1277 1098 Q1277 933 1201 812 Q1125 691 990.5 627.5 Q856 564 683 564 Q629 564 572 567 Q515 570 501 573 L501 132 L771 109 L771 0 L98 0 L98 109 L266 132 Z M683 682 Q834 682 929.5 777.5 Q1025 873 1025 1096 Q1025 1269 941 1345 Q857 1421 679 1421 Q618 1421 556 1413 Q523 1408 500 1408 L500 691 Q548 682 683 682 Z " />
<glyph glyph-name="uni1E56" unicode="&#x1e56;" horiz-adv-x="1328" d="M535 1828 Q535 1895 574 1940.5 Q613 1986 683 1986 L684 1986 Q747 1986 784 1945.5 Q821 1905 821 1849 Q821 1780 781.5 1736.5 Q742 1693 666 1693 L665 1693 Q607 1693 571 1731.5 Q535 1770 535 1828 Z M266 132 L266 1385 L109 1411 L109 1522 L356 1522 Q410 1522 502 1528 Q610 1536 709 1536 Q921 1536 1046 1485.5 Q1171 1435 1224 1339 Q1277 1243 1277 1098 Q1277 933 1201 812 Q1125 691 990.5 627.5 Q856 564 683 564 Q629 564 572 567 Q515 570 501 573 L501 132 L771 109 L771 0 L98 0 L98 109 L266 132 Z M683 682 Q834 682 929.5 777.5 Q1025 873 1025 1096 Q1025 1269 941 1345 Q857 1421 679 1421 Q618 1421 556 1413 Q523 1408 500 1408 L500 691 Q548 682 683 682 Z " />
<glyph glyph-name="Thorn" unicode="&#xde;" horiz-adv-x="1327" d="M263 131 L263 1387 L98 1415 L98 1522 L670 1522 L670 1415 L496 1387 L496 1164 L564 1170 Q639 1177 693 1180.5 Q747 1184 806 1184 Q1030 1184 1149.5 1083 Q1269 982 1269 784 Q1269 557 1131 446 Q993 335 740 335 Q589 335 496 343 L496 131 L712 107 L712 0 L95 0 L95 107 L263 131 Z M1015 772 Q1015 1063 707 1063 Q615 1063 496 1045 L496 457 Q573 448 684 448 L718 448 Q855 448 935 524.5 Q1015 601 1015 772 Z " />
<glyph glyph-name="Q" unicode="Q" horiz-adv-x="1502" d="M76 750 Q76 986 166 1165 Q256 1344 413.5 1441.5 Q571 1539 768 1539 Q982 1539 1129 1445.5 Q1276 1352 1349.5 1181 Q1423 1010 1423 777 Q1423 604 1374.5 459.5 Q1326 315 1237 209.5 Q1148 104 1028 45 Q1090 43 1156 20.5 Q1222 -2 1281 -31.5 Q1340 -61 1433 -113 Q1553 -182 1632 -216.5 Q1711 -251 1780 -251 L1782 -251 Q1824 -251 1837 -250 L1870 -360 Q1838 -385 1789.5 -405 Q1741 -425 1658 -425 L1647 -425 Q1555 -425 1475.5 -393.5 Q1396 -362 1333.5 -316 Q1271 -270 1185 -196 Q1117 -137 1072 -102.5 Q1027 -68 974.5 -42 Q922 -16 867 -9 Q795 -23 723 -23 Q515 -23 369.5 73.5 Q224 170 150 344.5 Q76 519 76 750 Z M336 751 Q336 551 385 403 Q434 255 527 175 Q620 95 750 95 Q877 95 969.5 171 Q1062 247 1113 399.5 Q1164 552 1164 776 Q1164 976 1115.5 1121.5 Q1067 1267 974 1344.5 Q881 1422 751 1422 Q623 1422 530 1348.5 Q437 1275 386.5 1125 Q336 975 336 751 Z " />
<glyph glyph-name="R" unicode="R" horiz-adv-x="1440" d="M264 131 L264 1387 L106 1413 L106 1522 L381 1522 Q425 1522 473 1525 Q521 1528 535 1529 Q637 1537 696 1537 Q898 1537 1020 1493 Q1142 1449 1196.5 1361 Q1251 1273 1251 1135 Q1251 1042 1215.5 954.5 Q1180 867 1112.5 801.5 Q1045 736 952 707 Q995 682 1037 629.5 Q1079 577 1114 517.5 Q1149 458 1200 364 Q1260 251 1296.5 195.5 Q1333 140 1365 132 L1443 108 L1443 0 L1147 0 Q1113 0 1072.5 71 Q1032 142 964 292 Q893 451 842 543 Q791 635 740 666 Q541 666 498 669 L498 131 L695 109 L695 0 L96 0 L96 109 L264 131 Z M724 784 Q853 784 924.5 868 Q996 952 996 1119 Q996 1262 922.5 1341 Q849 1420 670 1420 Q594 1420 529 1411 L498 1408 L498 786 Q530 783 599 783 L724 784 Z " />
<glyph glyph-name="Racute" unicode="&#x154;" horiz-adv-x="1440" d="M264 131 L264 1387 L106 1413 L106 1522 L381 1522 Q425 1522 473 1525 Q521 1528 535 1529 Q637 1537 696 1537 Q898 1537 1020 1493 Q1142 1449 1196.5 1361 Q1251 1273 1251 1135 Q1251 1042 1215.5 954.5 Q1180 867 1112.5 801.5 Q1045 736 952 707 Q995 682 1037 629.5 Q1079 577 1114 517.5 Q1149 458 1200 364 Q1260 251 1296.5 195.5 Q1333 140 1365 132 L1443 108 L1443 0 L1147 0 Q1113 0 1072.5 71 Q1032 142 964 292 Q893 451 842 543 Q791 635 740 666 Q541 666 498 669 L498 131 L695 109 L695 0 L96 0 L96 109 L264 131 Z M724 784 Q853 784 924.5 868 Q996 952 996 1119 Q996 1262 922.5 1341 Q849 1420 670 1420 Q594 1420 529 1411 L498 1408 L498 786 Q530 783 599 783 L724 784 Z M908 2012 L909 2012 L1062 1885 Q1026 1838 949 1785.5 Q872 1733 789 1690.5 Q706 1648 658 1633 L657 1633 L577 1701 L908 2012 Z " />
<glyph glyph-name="Rcaron" unicode="&#x158;" horiz-adv-x="1440" d="M468 2013 L723 1824 L987 2013 L1072 1954 L815 1676 L632 1676 L377 1952 L468 2013 Z M264 131 L264 1387 L106 1413 L106 1522 L381 1522 Q425 1522 473 1525 Q521 1528 535 1529 Q637 1537 696 1537 Q898 1537 1020 1493 Q1142 1449 1196.5 1361 Q1251 1273 1251 1135 Q1251 1042 1215.5 954.5 Q1180 867 1112.5 801.5 Q1045 736 952 707 Q995 682 1037 629.5 Q1079 577 1114 517.5 Q1149 458 1200 364 Q1260 251 1296.5 195.5 Q1333 140 1365 132 L1443 108 L1443 0 L1147 0 Q1113 0 1072.5 71 Q1032 142 964 292 Q893 451 842 543 Q791 635 740 666 Q541 666 498 669 L498 131 L695 109 L695 0 L96 0 L96 109 L264 131 Z M724 784 Q853 784 924.5 868 Q996 952 996 1119 Q996 1262 922.5 1341 Q849 1420 670 1420 Q594 1420 529 1411 L498 1408 L498 786 Q530 783 599 783 L724 784 Z " />
<glyph glyph-name="Rcommaaccent" unicode="&#x156;" horiz-adv-x="1440" d="M758 -560 L680 -521 L679 -503 Q706 -491 722 -453.5 Q738 -416 738 -375 Q738 -350 726 -334.5 Q714 -319 693 -305 Q674 -293 663.5 -273 Q653 -253 653 -218 Q653 -177 674 -153 Q695 -129 723 -119.5 Q751 -110 775 -110 L785 -110 Q850 -110 887.5 -152.5 Q925 -195 925 -272 Q925 -345 892.5 -409.5 Q860 -474 819.5 -515.5 Q779 -557 761 -560 L758 -560 Z M264 131 L264 1387 L106 1413 L106 1522 L381 1522 Q425 1522 473 1525 Q521 1528 535 1529 Q637 1537 696 1537 Q898 1537 1020 1493 Q1142 1449 1196.5 1361 Q1251 1273 1251 1135 Q1251 1042 1215.5 954.5 Q1180 867 1112.5 801.5 Q1045 736 952 707 Q995 682 1037 629.5 Q1079 577 1114 517.5 Q1149 458 1200 364 Q1260 251 1296.5 195.5 Q1333 140 1365 132 L1443 108 L1443 0 L1147 0 Q1113 0 1072.5 71 Q1032 142 964 292 Q893 451 842 543 Q791 635 740 666 Q541 666 498 669 L498 131 L695 109 L695 0 L96 0 L96 109 L264 131 Z M724 784 Q853 784 924.5 868 Q996 952 996 1119 Q996 1262 922.5 1341 Q849 1420 670 1420 Q594 1420 529 1411 L498 1408 L498 786 Q530 783 599 783 L724 784 Z " />
<glyph glyph-name="S" unicode="S" horiz-adv-x="1215" d="M134 440 L273 440 L313 184 Q347 148 423 122.5 Q499 97 588 97 Q737 97 812.5 163.5 Q888 230 888 348 Q888 425 846.5 480.5 Q805 536 734 578 Q663 620 539 676 Q431 725 345 782 Q259 839 197 930 Q135 1021 135 1145 Q135 1259 196 1348.5 Q257 1438 370 1488.5 Q483 1539 633 1539 Q725 1539 803 1523.5 Q881 1508 965 1484 Q1009 1471 1036 1466 L1023 1123 L889 1123 L843 1366 Q824 1387 763 1404.5 Q702 1422 631 1422 Q361 1422 361 1204 Q361 1128 402 1074 Q443 1020 511 978.5 Q579 937 712 872 Q844 807 928 753 Q1012 699 1072 615.5 Q1132 532 1132 418 Q1132 308 1070.5 206.5 Q1009 105 885.5 41 Q762 -23 586 -23 Q478 -23 389 -3.5 Q300 16 204 47 Q138 68 117 70 L134 440 Z " />
<glyph glyph-name="Sacute" unicode="&#x15a;" horiz-adv-x="1215" d="M134 440 L273 440 L313 184 Q347 148 423 122.5 Q499 97 588 97 Q737 97 812.5 163.5 Q888 230 888 348 Q888 425 846.5 480.5 Q805 536 734 578 Q663 620 539 676 Q431 725 345 782 Q259 839 197 930 Q135 1021 135 1145 Q135 1259 196 1348.5 Q257 1438 370 1488.5 Q483 1539 633 1539 Q725 1539 803 1523.5 Q881 1508 965 1484 Q1009 1471 1036 1466 L1023 1123 L889 1123 L843 1366 Q824 1387 763 1404.5 Q702 1422 631 1422 Q361 1422 361 1204 Q361 1128 402 1074 Q443 1020 511 978.5 Q579 937 712 872 Q844 807 928 753 Q1012 699 1072 615.5 Q1132 532 1132 418 Q1132 308 1070.5 206.5 Q1009 105 885.5 41 Q762 -23 586 -23 Q478 -23 389 -3.5 Q300 16 204 47 Q138 68 117 70 L134 440 Z M823 2012 L824 2012 L977 1885 Q941 1838 864 1785.5 Q787 1733 704 1690.5 Q621 1648 573 1633 L572 1633 L492 1701 L823 2012 Z " />
<glyph glyph-name="Scaron" unicode="&#x160;" horiz-adv-x="1215" d="M134 440 L273 440 L313 184 Q347 148 423 122.5 Q499 97 588 97 Q737 97 812.5 163.5 Q888 230 888 348 Q888 425 846.5 480.5 Q805 536 734 578 Q663 620 539 676 Q431 725 345 782 Q259 839 197 930 Q135 1021 135 1145 Q135 1259 196 1348.5 Q257 1438 370 1488.5 Q483 1539 633 1539 Q725 1539 803 1523.5 Q881 1508 965 1484 Q1009 1471 1036 1466 L1023 1123 L889 1123 L843 1366 Q824 1387 763 1404.5 Q702 1422 631 1422 Q361 1422 361 1204 Q361 1128 402 1074 Q443 1020 511 978.5 Q579 937 712 872 Q844 807 928 753 Q1012 699 1072 615.5 Q1132 532 1132 418 Q1132 308 1070.5 206.5 Q1009 105 885.5 41 Q762 -23 586 -23 Q478 -23 389 -3.5 Q300 16 204 47 Q138 68 117 70 L134 440 Z M383 2013 L638 1824 L902 2013 L987 1954 L730 1676 L547 1676 L292 1952 L383 2013 Z " />
<glyph glyph-name="Scedilla" unicode="&#x15e;" horiz-adv-x="1215" d="M1132 418 Q1132 315 1077.5 218.5 Q1023 122 913.5 56.5 Q804 -9 648 -21 Q690 -70 723.5 -139.5 Q757 -209 757 -280 Q757 -396 691 -445 Q625 -494 493 -494 L492 -494 Q457 -494 415.5 -486.5 Q374 -479 348 -467 L349 -314 Q368 -321 394 -324.5 Q420 -328 435 -328 L436 -328 Q488 -328 517.5 -318.5 Q547 -309 562.5 -278.5 Q578 -248 578 -187 Q578 -147 563.5 -102.5 Q549 -58 530 -21 Q438 -16 362 2 Q286 20 203 47 Q136 68 117 70 L134 440 L273 440 L313 184 Q347 148 423 122.5 Q499 97 588 97 Q737 97 812.5 163.5 Q888 230 888 348 Q888 425 846.5 480.5 Q805 536 734 578 Q663 620 539 676 Q431 725 345 782 Q259 839 197 930 Q135 1021 135 1145 Q135 1259 196 1348.5 Q257 1438 370 1488.5 Q483 1539 633 1539 Q725 1539 803 1523.5 Q881 1508 965 1484 Q1009 1471 1036 1466 L1023 1123 L889 1123 L843 1366 Q824 1387 763 1404.5 Q702 1422 631 1422 Q361 1422 361 1204 Q361 1128 402 1074 Q443 1020 511 978.5 Q579 937 712 872 Q844 807 928 753 Q1012 699 1072 615.5 Q1132 532 1132 418 Z " />
<glyph glyph-name="Scircumflex" unicode="&#x15c;" horiz-adv-x="1215" d="M134 440 L273 440 L313 184 Q347 148 423 122.5 Q499 97 588 97 Q737 97 812.5 163.5 Q888 230 888 348 Q888 425 846.5 480.5 Q805 536 734 578 Q663 620 539 676 Q431 725 345 782 Q259 839 197 930 Q135 1021 135 1145 Q135 1259 196 1348.5 Q257 1438 370 1488.5 Q483 1539 633 1539 Q725 1539 803 1523.5 Q881 1508 965 1484 Q1009 1471 1036 1466 L1023 1123 L889 1123 L843 1366 Q824 1387 763 1404.5 Q702 1422 631 1422 Q361 1422 361 1204 Q361 1128 402 1074 Q443 1020 511 978.5 Q579 937 712 872 Q844 807 928 753 Q1012 699 1072 615.5 Q1132 532 1132 418 Q1132 308 1070.5 206.5 Q1009 105 885.5 41 Q762 -23 586 -23 Q478 -23 389 -3.5 Q300 16 204 47 Q138 68 117 70 L134 440 Z M544 2013 L727 2013 L1001 1715 L909 1654 L636 1856 L358 1654 L273 1713 L544 2013 Z " />
<glyph glyph-name="Scommaaccent" unicode="&#x218;" horiz-adv-x="1215" d="M602 -560 L524 -521 L523 -503 Q550 -491 566 -453.5 Q582 -416 582 -375 Q582 -350 570 -334.5 Q558 -319 537 -305 Q518 -293 507.5 -273 Q497 -253 497 -218 Q497 -177 518 -153 Q539 -129 567 -119.5 Q595 -110 619 -110 L629 -110 Q694 -110 731.5 -152.5 Q769 -195 769 -272 Q769 -345 736.5 -409.5 Q704 -474 663.5 -515.5 Q623 -557 605 -560 L602 -560 Z M134 440 L273 440 L313 184 Q347 148 423 122.5 Q499 97 588 97 Q737 97 812.5 163.5 Q888 230 888 348 Q888 425 846.5 480.5 Q805 536 734 578 Q663 620 539 676 Q431 725 345 782 Q259 839 197 930 Q135 1021 135 1145 Q135 1259 196 1348.5 Q257 1438 370 1488.5 Q483 1539 633 1539 Q725 1539 803 1523.5 Q881 1508 965 1484 Q1009 1471 1036 1466 L1023 1123 L889 1123 L843 1366 Q824 1387 763 1404.5 Q702 1422 631 1422 Q361 1422 361 1204 Q361 1128 402 1074 Q443 1020 511 978.5 Q579 937 712 872 Q844 807 928 753 Q1012 699 1072 615.5 Q1132 532 1132 418 Q1132 308 1070.5 206.5 Q1009 105 885.5 41 Q762 -23 586 -23 Q478 -23 389 -3.5 Q300 16 204 47 Q138 68 117 70 L134 440 Z " />
<glyph glyph-name="uni1E60" unicode="&#x1e60;" horiz-adv-x="1215" d="M493 1828 Q493 1895 532 1940.5 Q571 1986 641 1986 L642 1986 Q705 1986 742 1945.5 Q779 1905 779 1849 Q779 1780 739.5 1736.5 Q700 1693 624 1693 L623 1693 Q565 1693 529 1731.5 Q493 1770 493 1828 Z M134 440 L273 440 L313 184 Q347 148 423 122.5 Q499 97 588 97 Q737 97 812.5 163.5 Q888 230 888 348 Q888 425 846.5 480.5 Q805 536 734 578 Q663 620 539 676 Q431 725 345 782 Q259 839 197 930 Q135 1021 135 1145 Q135 1259 196 1348.5 Q257 1438 370 1488.5 Q483 1539 633 1539 Q725 1539 803 1523.5 Q881 1508 965 1484 Q1009 1471 1036 1466 L1023 1123 L889 1123 L843 1366 Q824 1387 763 1404.5 Q702 1422 631 1422 Q361 1422 361 1204 Q361 1128 402 1074 Q443 1020 511 978.5 Q579 937 712 872 Q844 807 928 753 Q1012 699 1072 615.5 Q1132 532 1132 418 Q1132 308 1070.5 206.5 Q1009 105 885.5 41 Q762 -23 586 -23 Q478 -23 389 -3.5 Q300 16 204 47 Q138 68 117 70 L134 440 Z " />
<glyph glyph-name="uni1E9E" unicode="&#x1e9e;" horiz-adv-x="1500" d="M395 945 Q395 1095 446.5 1203 Q498 1311 586 1367 Q674 1423 782 1423 Q890 1423 958 1395 Q1026 1367 1064 1326 L793 879 L793 826 Q885 793 986.5 731 Q1088 669 1160 580.5 Q1232 492 1232 391 Q1232 232 1169 162.5 Q1106 93 1009 93 Q946 93 890 113 Q834 133 812 166 L771 423 L639 423 L626 61 Q647 59 704 38 Q780 10 849 -6.5 Q918 -23 1004 -23 Q1142 -23 1246.5 35.5 Q1351 94 1408 198 Q1465 302 1465 435 Q1465 574 1397 670.5 Q1329 767 1237.5 823.5 Q1146 880 1003 946 L1271 1334 L1272 1432 Q1174 1482 1074 1510.5 Q974 1539 836 1539 Q646 1539 491.5 1456 Q337 1373 248.5 1227.5 Q160 1082 160 902 L159 133 L41 108 L41 0 L395 0 L395 945 Z " />
<glyph glyph-name="uni018F" unicode="&#x18f;" horiz-adv-x="1374" d="M106 579 Q106 733 119 791 L1070 790 L1070 798 Q1064 994 1006 1135 Q948 1276 854.5 1348 Q761 1420 649 1420 Q528 1420 456.5 1387 Q385 1354 338 1299 L297 1152 L149 1155 L158 1459 Q186 1460 216 1466 Q246 1472 296 1485 Q394 1510 480.5 1524 Q567 1538 686 1538 Q873 1538 1014 1443.5 Q1155 1349 1232 1175.5 Q1309 1002 1309 771 Q1309 536 1221.5 355.5 Q1134 175 981.5 76 Q829 -23 639 -23 Q484 -23 364.5 46.5 Q245 116 177 251.5 Q109 387 106 579 Z M352 666 Q345 601 345 558 Q345 449 381.5 345.5 Q418 242 495.5 175 Q573 108 689 108 Q862 108 964 241.5 Q1066 375 1072 666 L352 666 Z " />
<glyph glyph-name="T" unicode="T" horiz-adv-x="1411" d="M585 133 L585 1403 L252 1393 L177 975 L32 975 L67 1522 L1333 1522 L1365 975 L1222 975 L1146 1393 L826 1403 L826 133 L1109 109 L1109 0 L324 0 L324 109 L585 133 Z " />
<glyph glyph-name="Tbar" unicode="&#x166;" horiz-adv-x="1448" d="M604 781 L604 1403 L271 1393 L196 975 L51 975 L86 1522 L1352 1522 L1384 975 L1241 975 L1165 1393 L845 1403 L845 781 L1081 781 L1081 654 L845 654 L845 133 L1128 109 L1128 0 L343 0 L343 109 L604 133 L604 654 L365 654 L365 781 L604 781 Z " />
<glyph glyph-name="Tcaron" unicode="&#x164;" horiz-adv-x="1411" d="M468 2013 L723 1824 L987 2013 L1072 1954 L815 1676 L632 1676 L377 1952 L468 2013 Z M585 133 L585 1403 L252 1393 L177 975 L32 975 L67 1522 L1333 1522 L1365 975 L1222 975 L1146 1393 L826 1403 L826 133 L1109 109 L1109 0 L324 0 L324 109 L585 133 Z " />
<glyph glyph-name="uni0162" unicode="&#x162;" horiz-adv-x="1411" d="M1365 975 L1222 975 L1146 1393 L826 1403 L826 133 L1109 109 L1109 0 L744 0 Q769 -24 799 -67.5 Q829 -111 850.5 -167 Q872 -223 872 -280 Q872 -396 806 -445 Q740 -494 608 -494 L607 -494 Q572 -494 530.5 -486.5 Q489 -479 463 -467 L464 -314 Q483 -321 509 -324.5 Q535 -328 550 -328 L551 -328 Q603 -328 632.5 -318.5 Q662 -309 677.5 -278.5 Q693 -248 693 -187 Q693 -139 673.5 -86 Q654 -33 633 0 L324 0 L324 109 L585 133 L585 1403 L252 1393 L177 975 L32 975 L67 1522 L1333 1522 L1365 975 Z " />
<glyph glyph-name="uni021A" unicode="&#x21a;" horiz-adv-x="1411" d="M713 -560 L635 -521 L634 -503 Q661 -491 677 -453.5 Q693 -416 693 -375 Q693 -350 681 -334.5 Q669 -319 648 -305 Q629 -293 618.5 -273 Q608 -253 608 -218 Q608 -177 629 -153 Q650 -129 678 -119.5 Q706 -110 730 -110 L740 -110 Q805 -110 842.5 -152.5 Q880 -195 880 -272 Q880 -345 847.5 -409.5 Q815 -474 774.5 -515.5 Q734 -557 716 -560 L713 -560 Z M585 133 L585 1403 L252 1393 L177 975 L32 975 L67 1522 L1333 1522 L1365 975 L1222 975 L1146 1393 L826 1403 L826 133 L1109 109 L1109 0 L324 0 L324 109 L585 133 Z " />
<glyph glyph-name="uni1E6A" unicode="&#x1e6a;" horiz-adv-x="1411" d="M576 1828 Q576 1895 615 1940.5 Q654 1986 724 1986 L725 1986 Q788 1986 825 1945.5 Q862 1905 862 1849 Q862 1780 822.5 1736.5 Q783 1693 707 1693 L706 1693 Q648 1693 612 1731.5 Q576 1770 576 1828 Z M585 133 L585 1403 L252 1393 L177 975 L32 975 L67 1522 L1333 1522 L1365 975 L1222 975 L1146 1393 L826 1403 L826 133 L1109 109 L1109 0 L324 0 L324 109 L585 133 Z " />
<glyph glyph-name="U" unicode="U" horiz-adv-x="1508" d="M184 1385 L40 1411 L40 1522 L598 1522 L598 1411 L428 1385 L428 620 Q428 344 526 223.5 Q624 103 803 103 Q980 103 1071 234.5 Q1162 366 1162 609 L1162 1385 L997 1411 L997 1522 L1476 1522 L1476 1411 L1328 1385 L1328 619 Q1328 406 1257 263.5 Q1186 121 1062 52.5 Q938 -16 776 -16 Q568 -16 438 53.5 Q308 123 246 268 Q184 413 184 643 L184 1385 Z " />
<glyph glyph-name="Uacute" unicode="&#xda;" horiz-adv-x="1508" d="M979 2012 L980 2012 L1133 1885 Q1097 1838 1020 1785.5 Q943 1733 860 1690.5 Q777 1648 729 1633 L728 1633 L648 1701 L979 2012 Z M184 1385 L40 1411 L40 1522 L598 1522 L598 1411 L428 1385 L428 620 Q428 344 526 223.5 Q624 103 803 103 Q980 103 1071 234.5 Q1162 366 1162 609 L1162 1385 L997 1411 L997 1522 L1476 1522 L1476 1411 L1328 1385 L1328 619 Q1328 406 1257 263.5 Q1186 121 1062 52.5 Q938 -16 776 -16 Q568 -16 438 53.5 Q308 123 246 268 Q184 413 184 643 L184 1385 Z " />
<glyph glyph-name="Ubreve" unicode="&#x16c;" horiz-adv-x="1508" d="M449 1956 Q449 1984 451 1998 L572 1998 Q572 1983 575 1971 Q584 1911 635 1861.5 Q686 1812 796 1812 Q905 1812 954 1861.5 Q1003 1911 1010 1972 Q1012 1984 1012 1998 L1131 1998 Q1133 1984 1133 1957 Q1133 1869 1092.5 1797.5 Q1052 1726 975.5 1684.5 Q899 1643 794 1643 Q685 1643 607 1684 Q529 1725 489 1796.5 Q449 1868 449 1956 Z M184 1385 L40 1411 L40 1522 L598 1522 L598 1411 L428 1385 L428 620 Q428 344 526 223.5 Q624 103 803 103 Q980 103 1071 234.5 Q1162 366 1162 609 L1162 1385 L997 1411 L997 1522 L1476 1522 L1476 1411 L1328 1385 L1328 619 Q1328 406 1257 263.5 Q1186 121 1062 52.5 Q938 -16 776 -16 Q568 -16 438 53.5 Q308 123 246 268 Q184 413 184 643 L184 1385 Z " />
<glyph glyph-name="uni01D3" unicode="&#x1d3;" horiz-adv-x="1508" d="M184 1385 L40 1411 L40 1522 L598 1522 L598 1411 L428 1385 L428 620 Q428 344 526 223.5 Q624 103 803 103 Q980 103 1071 234.5 Q1162 366 1162 609 L1162 1385 L997 1411 L997 1522 L1476 1522 L1476 1411 L1328 1385 L1328 619 Q1328 406 1257 263.5 Q1186 121 1062 52.5 Q938 -16 776 -16 Q568 -16 438 53.5 Q308 123 246 268 Q184 413 184 643 L184 1385 Z M538 2013 L793 1824 L1057 2013 L1142 1954 L885 1676 L702 1676 L447 1952 L538 2013 Z " />
<glyph glyph-name="Ucircumflex" unicode="&#xdb;" horiz-adv-x="1508" d="M184 1385 L40 1411 L40 1522 L598 1522 L598 1411 L428 1385 L428 620 Q428 344 526 223.5 Q624 103 803 103 Q980 103 1071 234.5 Q1162 366 1162 609 L1162 1385 L997 1411 L997 1522 L1476 1522 L1476 1411 L1328 1385 L1328 619 Q1328 406 1257 263.5 Q1186 121 1062 52.5 Q938 -16 776 -16 Q568 -16 438 53.5 Q308 123 246 268 Q184 413 184 643 L184 1385 Z M699 2013 L882 2013 L1156 1715 L1064 1654 L791 1856 L513 1654 L428 1713 L699 2013 Z " />
<glyph glyph-name="Udieresis" unicode="&#xdc;" horiz-adv-x="1508" d="M403 1823 Q403 1891 441.5 1937 Q480 1983 550 1983 L551 1983 Q592 1983 622 1963.5 Q652 1944 667.5 1912.5 Q683 1881 683 1846 Q683 1776 643.5 1731.5 Q604 1687 529 1687 L528 1687 Q473 1687 438 1726.5 Q403 1766 403 1823 Z M903 1823 Q903 1891 941.5 1937 Q980 1983 1049 1983 L1050 1983 Q1092 1983 1122 1963.5 Q1152 1944 1167.5 1912.5 Q1183 1881 1183 1846 Q1183 1776 1144 1731.5 Q1105 1687 1030 1687 L1029 1687 Q973 1687 938 1726.5 Q903 1766 903 1823 Z M184 1385 L40 1411 L40 1522 L598 1522 L598 1411 L428 1385 L428 620 Q428 344 526 223.5 Q624 103 803 103 Q980 103 1071 234.5 Q1162 366 1162 609 L1162 1385 L997 1411 L997 1522 L1476 1522 L1476 1411 L1328 1385 L1328 619 Q1328 406 1257 263.5 Q1186 121 1062 52.5 Q938 -16 776 -16 Q568 -16 438 53.5 Q308 123 246 268 Q184 413 184 643 L184 1385 Z " />
<glyph glyph-name="Ugrave" unicode="&#xd9;" horiz-adv-x="1508" d="M629 2012 L630 2012 L961 1701 L881 1633 L880 1633 Q831 1649 746.5 1692 Q662 1735 585.5 1787.5 Q509 1840 477 1885 L629 2012 Z M184 1385 L40 1411 L40 1522 L598 1522 L598 1411 L428 1385 L428 620 Q428 344 526 223.5 Q624 103 803 103 Q980 103 1071 234.5 Q1162 366 1162 609 L1162 1385 L997 1411 L997 1522 L1476 1522 L1476 1411 L1328 1385 L1328 619 Q1328 406 1257 263.5 Q1186 121 1062 52.5 Q938 -16 776 -16 Q568 -16 438 53.5 Q308 123 246 268 Q184 413 184 643 L184 1385 Z " />
<glyph glyph-name="Uhungarumlaut" unicode="&#x170;" horiz-adv-x="1508" d="M184 1385 L40 1411 L40 1522 L598 1522 L598 1411 L428 1385 L428 620 Q428 344 526 223.5 Q624 103 803 103 Q980 103 1071 234.5 Q1162 366 1162 609 L1162 1385 L997 1411 L997 1522 L1476 1522 L1476 1411 L1328 1385 L1328 619 Q1328 406 1257 263.5 Q1186 121 1062 52.5 Q938 -16 776 -16 Q568 -16 438 53.5 Q308 123 246 268 Q184 413 184 643 L184 1385 Z M690 2014 L835 1894 Q771 1821 679.5 1751.5 Q588 1682 507 1637 L412 1719 L690 2014 Z M1212 2012 L1346 1892 Q1289 1825 1192.5 1753 Q1096 1681 1013 1637 L918 1719 L1212 2012 Z " />
<glyph glyph-name="Umacron" unicode="&#x16a;" horiz-adv-x="1508" d="M1081 1904 L1081 1746 L511 1746 L511 1904 L1081 1904 Z M184 1385 L40 1411 L40 1522 L598 1522 L598 1411 L428 1385 L428 620 Q428 344 526 223.5 Q624 103 803 103 Q980 103 1071 234.5 Q1162 366 1162 609 L1162 1385 L997 1411 L997 1522 L1476 1522 L1476 1411 L1328 1385 L1328 619 Q1328 406 1257 263.5 Q1186 121 1062 52.5 Q938 -16 776 -16 Q568 -16 438 53.5 Q308 123 246 268 Q184 413 184 643 L184 1385 Z " />
<glyph glyph-name="Uogonek" unicode="&#x172;" horiz-adv-x="1508" d="M184 1385 L40 1411 L40 1522 L598 1522 L598 1411 L428 1385 L428 620 Q428 344 526 223.5 Q624 103 803 103 Q980 103 1071 234.5 Q1162 366 1162 609 L1162 1385 L997 1411 L997 1522 L1476 1522 L1476 1411 L1328 1385 L1328 619 Q1328 373 1234.5 222 Q1141 71 978 15 Q884 -42 824 -112 Q764 -182 764 -240 Q764 -302 805 -333.5 Q846 -365 911 -365 Q976 -365 1052 -332 L1052 -441 Q1010 -473 944.5 -492 Q879 -511 815 -511 Q705 -511 630.5 -464 Q556 -417 556 -315 Q556 -262 590 -205 Q624 -148 680 -98 Q736 -48 802 -15 Q793 -16 776 -16 Q568 -16 438 53.5 Q308 123 246 268 Q184 413 184 643 L184 1385 Z " />
<glyph glyph-name="Uring" unicode="&#x16e;" horiz-adv-x="1508" d="M184 1385 L40 1411 L40 1522 L598 1522 L598 1411 L428 1385 L428 620 Q428 344 526 223.5 Q624 103 803 103 Q980 103 1071 234.5 Q1162 366 1162 609 L1162 1385 L997 1411 L997 1522 L1476 1522 L1476 1411 L1328 1385 L1328 619 Q1328 406 1257 263.5 Q1186 121 1062 52.5 Q938 -16 776 -16 Q568 -16 438 53.5 Q308 123 246 268 Q184 413 184 643 L184 1385 Z M460 1857 Q460 1938 508 1996 Q556 2054 634.5 2084 Q713 2114 804 2114 L805 2114 Q909 2114 981.5 2081.5 Q1054 2049 1090 1991.5 Q1126 1934 1126 1859 Q1126 1780 1081 1722.5 Q1036 1665 959.5 1635 Q883 1605 791 1605 L790 1605 Q680 1605 605.5 1638 Q531 1671 495.5 1728 Q460 1785 460 1857 Z M796 1704 Q886 1704 926.5 1741 Q967 1778 967 1850 Q967 1923 925.5 1968.5 Q884 2014 797 2014 L796 2014 Q621 2014 621 1863 Q621 1796 664.5 1750 Q708 1704 795 1704 L796 1704 Z " />
<glyph glyph-name="Utilde" unicode="&#x168;" horiz-adv-x="1508" d="M616 1851 Q563 1851 530 1820.5 Q497 1790 480.5 1764 Q464 1738 460 1732 L364 1795 Q379 1843 418.5 1892.5 Q458 1942 518.5 1975 Q579 2008 651 2008 Q693 2008 727.5 1994.5 Q762 1981 787.5 1962.5 Q813 1944 847 1913 Q888 1876 915 1859 Q942 1842 977 1842 Q1030 1842 1060 1871 Q1090 1900 1105 1927.5 Q1120 1955 1124 1962 L1222 1898 Q1188 1806 1121 1745 Q1054 1684 956 1684 Q897 1684 854 1708 Q811 1732 760 1777 Q715 1815 684.5 1833 Q654 1851 616 1851 Z M184 1385 L40 1411 L40 1522 L598 1522 L598 1411 L428 1385 L428 620 Q428 344 526 223.5 Q624 103 803 103 Q980 103 1071 234.5 Q1162 366 1162 609 L1162 1385 L997 1411 L997 1522 L1476 1522 L1476 1411 L1328 1385 L1328 619 Q1328 406 1257 263.5 Q1186 121 1062 52.5 Q938 -16 776 -16 Q568 -16 438 53.5 Q308 123 246 268 Q184 413 184 643 L184 1385 Z " />
<glyph glyph-name="V" unicode="V" horiz-adv-x="1367" d="M-34 1411 L-34 1522 L527 1522 L527 1411 L343 1386 L672 433 L740 200 L799 436 L1102 1385 L946 1411 L946 1522 L1408 1522 L1408 1411 L1276 1385 L794 -15 L606 -15 L93 1385 L-34 1411 Z " />
<glyph glyph-name="W" unicode="W" horiz-adv-x="2046" d="M-44 1411 L-44 1522 L515 1522 L515 1411 L332 1384 L611 438 L663 167 L724 438 L953 1209 L897 1385 L756 1411 L756 1522 L1334 1522 L1334 1411 L1142 1385 L1416 438 L1477 144 L1530 438 L1791 1384 L1589 1411 L1589 1522 L2087 1522 L2087 1411 L1954 1384 L1541 -10 L1325 -10 L1023 986 L728 -10 L522 -10 L90 1384 L-44 1411 Z " />
<glyph glyph-name="Wacute" unicode="&#x1e82;" horiz-adv-x="2046" d="M1211 2012 L1212 2012 L1365 1885 Q1329 1838 1252 1785.5 Q1175 1733 1092 1690.5 Q1009 1648 961 1633 L960 1633 L880 1701 L1211 2012 Z M-44 1411 L-44 1522 L515 1522 L515 1411 L332 1384 L611 438 L663 167 L724 438 L953 1209 L897 1385 L756 1411 L756 1522 L1334 1522 L1334 1411 L1142 1385 L1416 438 L1477 144 L1530 438 L1791 1384 L1589 1411 L1589 1522 L2087 1522 L2087 1411 L1954 1384 L1541 -10 L1325 -10 L1023 986 L728 -10 L522 -10 L90 1384 L-44 1411 Z " />
<glyph glyph-name="Wcircumflex" unicode="&#x174;" horiz-adv-x="2046" d="M-44 1411 L-44 1522 L515 1522 L515 1411 L332 1384 L611 438 L663 167 L724 438 L953 1209 L897 1385 L756 1411 L756 1522 L1334 1522 L1334 1411 L1142 1385 L1416 438 L1477 144 L1530 438 L1791 1384 L1589 1411 L1589 1522 L2087 1522 L2087 1411 L1954 1384 L1541 -10 L1325 -10 L1023 986 L728 -10 L522 -10 L90 1384 L-44 1411 Z M932 2013 L1115 2013 L1389 1715 L1297 1654 L1024 1856 L746 1654 L661 1713 L932 2013 Z " />
<glyph glyph-name="Wdieresis" unicode="&#x1e84;" horiz-adv-x="2046" d="M635 1823 Q635 1891 673.5 1937 Q712 1983 782 1983 L783 1983 Q824 1983 854 1963.5 Q884 1944 899.5 1912.5 Q915 1881 915 1846 Q915 1776 875.5 1731.5 Q836 1687 761 1687 L760 1687 Q705 1687 670 1726.5 Q635 1766 635 1823 Z M1135 1823 Q1135 1891 1173.5 1937 Q1212 1983 1281 1983 L1282 1983 Q1324 1983 1354 1963.5 Q1384 1944 1399.5 1912.5 Q1415 1881 1415 1846 Q1415 1776 1376 1731.5 Q1337 1687 1262 1687 L1261 1687 Q1205 1687 1170 1726.5 Q1135 1766 1135 1823 Z M-44 1411 L-44 1522 L515 1522 L515 1411 L332 1384 L611 438 L663 167 L724 438 L953 1209 L897 1385 L756 1411 L756 1522 L1334 1522 L1334 1411 L1142 1385 L1416 438 L1477 144 L1530 438 L1791 1384 L1589 1411 L1589 1522 L2087 1522 L2087 1411 L1954 1384 L1541 -10 L1325 -10 L1023 986 L728 -10 L522 -10 L90 1384 L-44 1411 Z " />
<glyph glyph-name="Wgrave" unicode="&#x1e80;" horiz-adv-x="2046" d="M858 2012 L859 2012 L1190 1701 L1110 1633 L1109 1633 Q1060 1649 975.5 1692 Q891 1735 814.5 1787.5 Q738 1840 706 1885 L858 2012 Z M-44 1411 L-44 1522 L515 1522 L515 1411 L332 1384 L611 438 L663 167 L724 438 L953 1209 L897 1385 L756 1411 L756 1522 L1334 1522 L1334 1411 L1142 1385 L1416 438 L1477 144 L1530 438 L1791 1384 L1589 1411 L1589 1522 L2087 1522 L2087 1411 L1954 1384 L1541 -10 L1325 -10 L1023 986 L728 -10 L522 -10 L90 1384 L-44 1411 Z " />
<glyph glyph-name="X" unicode="X" horiz-adv-x="1462" d="M187 132 L611 760 L192 1385 L42 1411 L42 1522 L655 1522 L655 1411 L474 1385 L783 885 L1089 1385 L916 1411 L916 1522 L1424 1522 L1424 1411 L1264 1385 L854 800 L1307 132 L1463 109 L1463 0 L850 0 L850 109 L1024 133 L685 673 L368 132 L564 109 L564 0 L12 0 L12 109 L187 132 Z " />
<glyph glyph-name="Y" unicode="Y" horiz-adv-x="1317" d="M552 133 L552 592 L100 1384 L-28 1411 L-28 1522 L520 1522 L520 1411 L365 1385 L647 842 L704 697 L769 840 L1037 1386 L875 1411 L875 1522 L1348 1522 L1348 1411 L1215 1386 L795 597 L795 132 L1019 109 L1019 0 L333 0 L333 109 L552 133 Z " />
<glyph glyph-name="Yacute" unicode="&#xdd;" horiz-adv-x="1317" d="M552 133 L552 592 L100 1384 L-28 1411 L-28 1522 L520 1522 L520 1411 L365 1385 L647 842 L704 697 L769 840 L1037 1386 L875 1411 L875 1522 L1348 1522 L1348 1411 L1215 1386 L795 597 L795 132 L1019 109 L1019 0 L333 0 L333 109 L552 133 Z M871 2012 L872 2012 L1025 1885 Q989 1838 912 1785.5 Q835 1733 752 1690.5 Q669 1648 621 1633 L620 1633 L540 1701 L871 2012 Z " />
<glyph glyph-name="Ycircumflex" unicode="&#x176;" horiz-adv-x="1317" d="M552 133 L552 592 L100 1384 L-28 1411 L-28 1522 L520 1522 L520 1411 L365 1385 L647 842 L704 697 L769 840 L1037 1386 L875 1411 L875 1522 L1348 1522 L1348 1411 L1215 1386 L795 597 L795 132 L1019 109 L1019 0 L333 0 L333 109 L552 133 Z M592 2013 L775 2013 L1049 1715 L957 1654 L684 1856 L406 1654 L321 1713 L592 2013 Z " />
<glyph glyph-name="Ydieresis" unicode="&#x178;" horiz-adv-x="1317" d="M552 133 L552 592 L100 1384 L-28 1411 L-28 1522 L520 1522 L520 1411 L365 1385 L647 842 L704 697 L769 840 L1037 1386 L875 1411 L875 1522 L1348 1522 L1348 1411 L1215 1386 L795 597 L795 132 L1019 109 L1019 0 L333 0 L333 109 L552 133 Z M295 1823 Q295 1891 333.5 1937 Q372 1983 442 1983 L443 1983 Q484 1983 514 1963.5 Q544 1944 559.5 1912.5 Q575 1881 575 1846 Q575 1776 535.5 1731.5 Q496 1687 421 1687 L420 1687 Q365 1687 330 1726.5 Q295 1766 295 1823 Z M795 1823 Q795 1891 833.5 1937 Q872 1983 941 1983 L942 1983 Q984 1983 1014 1963.5 Q1044 1944 1059.5 1912.5 Q1075 1881 1075 1846 Q1075 1776 1036 1731.5 Q997 1687 922 1687 L921 1687 Q865 1687 830 1726.5 Q795 1766 795 1823 Z " />
<glyph glyph-name="uni1E8E" unicode="&#x1e8e;" horiz-adv-x="1317" d="M552 133 L552 592 L100 1384 L-28 1411 L-28 1522 L520 1522 L520 1411 L365 1385 L647 842 L704 697 L769 840 L1037 1386 L875 1411 L875 1522 L1348 1522 L1348 1411 L1215 1386 L795 597 L795 132 L1019 109 L1019 0 L333 0 L333 109 L552 133 Z M543 1828 Q543 1895 582 1940.5 Q621 1986 691 1986 L692 1986 Q755 1986 792 1945.5 Q829 1905 829 1849 Q829 1780 789.5 1736.5 Q750 1693 674 1693 L673 1693 Q615 1693 579 1731.5 Q543 1770 543 1828 Z " />
<glyph glyph-name="Ygrave" unicode="&#x1ef2;" horiz-adv-x="1317" d="M552 133 L552 592 L100 1384 L-28 1411 L-28 1522 L520 1522 L520 1411 L365 1385 L647 842 L704 697 L769 840 L1037 1386 L875 1411 L875 1522 L1348 1522 L1348 1411 L1215 1386 L795 597 L795 132 L1019 109 L1019 0 L333 0 L333 109 L552 133 Z M519 2012 L520 2012 L851 1701 L771 1633 L770 1633 Q721 1649 636.5 1692 Q552 1735 475.5 1787.5 Q399 1840 367 1885 L519 2012 Z " />
<glyph glyph-name="Z" unicode="Z" horiz-adv-x="1346" d="M858 1278 L970 1414 L397 1392 L285 1127 L160 1144 L204 1528 L1197 1528 L1248 1432 L468 255 L340 117 L1013 156 L1126 466 L1256 440 L1208 0 L124 0 L65 98 L858 1278 Z " />
<glyph glyph-name="Zacute" unicode="&#x179;" horiz-adv-x="1346" d="M858 1278 L970 1414 L397 1392 L285 1127 L160 1144 L204 1528 L1197 1528 L1248 1432 L468 255 L340 117 L1013 156 L1126 466 L1256 440 L1208 0 L124 0 L65 98 L858 1278 Z M897 2012 L898 2012 L1051 1885 Q1015 1838 938 1785.5 Q861 1733 778 1690.5 Q695 1648 647 1633 L646 1633 L566 1701 L897 2012 Z " />
<glyph glyph-name="Zcaron" unicode="&#x17d;" horiz-adv-x="1346" d="M457 2013 L712 1824 L976 2013 L1061 1954 L804 1676 L621 1676 L366 1952 L457 2013 Z M858 1278 L970 1414 L397 1392 L285 1127 L160 1144 L204 1528 L1197 1528 L1248 1432 L468 255 L340 117 L1013 156 L1126 466 L1256 440 L1208 0 L124 0 L65 98 L858 1278 Z " />
<glyph glyph-name="Zdotaccent" unicode="&#x17b;" horiz-adv-x="1346" d="M568 1828 Q568 1895 607 1940.5 Q646 1986 716 1986 L717 1986 Q780 1986 817 1945.5 Q854 1905 854 1849 Q854 1780 814.5 1736.5 Q775 1693 699 1693 L698 1693 Q640 1693 604 1731.5 Q568 1770 568 1828 Z M858 1278 L970 1414 L397 1392 L285 1127 L160 1144 L204 1528 L1197 1528 L1248 1432 L468 255 L340 117 L1013 156 L1126 466 L1256 440 L1208 0 L124 0 L65 98 L858 1278 Z " />
<glyph glyph-name="a" unicode="a" horiz-adv-x="1148" d="M755 743 Q755 837 735.5 891 Q716 945 668 970 Q620 995 532 995 Q363 995 176 900 L175 900 L125 1004 Q152 1028 228.5 1066 Q305 1104 402.5 1132.5 Q500 1161 588 1161 Q734 1161 817.5 1121.5 Q901 1082 938 995 Q975 908 975 760 L975 110 L1097 110 L1097 12 Q951 -23 877 -23 Q835 -23 813 -16 Q791 -9 780.5 12.5 Q770 34 770 79 L770 127 Q716 74 628 25.5 Q540 -23 431 -23 Q335 -23 256.5 12 Q178 47 131.5 120 Q85 193 85 302 Q85 435 177.5 521 Q270 607 420.5 647.5 Q571 688 755 691 L755 743 Z M755 578 Q608 578 513.5 544.5 Q419 511 376.5 456 Q334 401 334 331 Q334 226 386 177 Q438 128 526 128 Q573 128 639.5 154.5 Q706 181 755 219 L755 578 Z " />
<glyph glyph-name="aacute" unicode="&#xe1;" horiz-adv-x="1148" d="M755 743 Q755 837 735.5 891 Q716 945 668 970 Q620 995 532 995 Q363 995 176 900 L175 900 L125 1004 Q152 1028 228.5 1066 Q305 1104 402.5 1132.5 Q500 1161 588 1161 Q734 1161 817.5 1121.5 Q901 1082 938 995 Q975 908 975 760 L975 110 L1097 110 L1097 12 Q951 -23 877 -23 Q835 -23 813 -16 Q791 -9 780.5 12.5 Q770 34 770 79 L770 127 Q716 74 628 25.5 Q540 -23 431 -23 Q335 -23 256.5 12 Q178 47 131.5 120 Q85 193 85 302 Q85 435 177.5 521 Q270 607 420.5 647.5 Q571 688 755 691 L755 743 Z M755 578 Q608 578 513.5 544.5 Q419 511 376.5 456 Q334 401 334 331 Q334 226 386 177 Q438 128 526 128 Q573 128 639.5 154.5 Q706 181 755 219 L755 578 Z M757 1814 L758 1814 L917 1675 Q891 1631 811 1556.5 Q731 1482 643 1417 Q555 1352 510 1334 L508 1334 L427 1408 L757 1814 Z " />
<glyph glyph-name="abreve" unicode="&#x103;" horiz-adv-x="1148" d="M755 743 Q755 837 735.5 891 Q716 945 668 970 Q620 995 532 995 Q363 995 176 900 L175 900 L125 1004 Q152 1028 228.5 1066 Q305 1104 402.5 1132.5 Q500 1161 588 1161 Q734 1161 817.5 1121.5 Q901 1082 938 995 Q975 908 975 760 L975 110 L1097 110 L1097 12 Q951 -23 877 -23 Q835 -23 813 -16 Q791 -9 780.5 12.5 Q770 34 770 79 L770 127 Q716 74 628 25.5 Q540 -23 431 -23 Q335 -23 256.5 12 Q178 47 131.5 120 Q85 193 85 302 Q85 435 177.5 521 Q270 607 420.5 647.5 Q571 688 755 691 L755 743 Z M755 578 Q608 578 513.5 544.5 Q419 511 376.5 456 Q334 401 334 331 Q334 226 386 177 Q438 128 526 128 Q573 128 639.5 154.5 Q706 181 755 219 L755 578 Z M221 1693 Q221 1737 225 1753 L343 1753 Q343 1732 346 1716 Q356 1644 407.5 1587.5 Q459 1531 566 1531 Q672 1531 721 1587 Q770 1643 780 1716 Q783 1740 783 1753 L897 1753 Q898 1744 899.5 1725.5 Q901 1707 901 1694 Q901 1603 859 1524 Q817 1445 740 1398 Q663 1351 564 1351 Q461 1351 383 1398 Q305 1445 263 1523 Q221 1601 221 1693 Z " />
<glyph glyph-name="uni01CE" unicode="&#x1ce;" horiz-adv-x="1148" d="M755 743 Q755 837 735.5 891 Q716 945 668 970 Q620 995 532 995 Q363 995 176 900 L175 900 L125 1004 Q152 1028 228.5 1066 Q305 1104 402.5 1132.5 Q500 1161 588 1161 Q734 1161 817.5 1121.5 Q901 1082 938 995 Q975 908 975 760 L975 110 L1097 110 L1097 12 Q951 -23 877 -23 Q835 -23 813 -16 Q791 -9 780.5 12.5 Q770 34 770 79 L770 127 Q716 74 628 25.5 Q540 -23 431 -23 Q335 -23 256.5 12 Q178 47 131.5 120 Q85 193 85 302 Q85 435 177.5 521 Q270 607 420.5 647.5 Q571 688 755 691 L755 743 Z M755 578 Q608 578 513.5 544.5 Q419 511 376.5 456 Q334 401 334 331 Q334 226 386 177 Q438 128 526 128 Q573 128 639.5 154.5 Q706 181 755 219 L755 578 Z M281 1799 L565 1517 L854 1800 L937 1740 L654 1342 L474 1342 L192 1739 L281 1799 Z " />
<glyph glyph-name="acircumflex" unicode="&#xe2;" horiz-adv-x="1148" d="M755 743 Q755 837 735.5 891 Q716 945 668 970 Q620 995 532 995 Q363 995 176 900 L175 900 L125 1004 Q152 1028 228.5 1066 Q305 1104 402.5 1132.5 Q500 1161 588 1161 Q734 1161 817.5 1121.5 Q901 1082 938 995 Q975 908 975 760 L975 110 L1097 110 L1097 12 Q951 -23 877 -23 Q835 -23 813 -16 Q791 -9 780.5 12.5 Q770 34 770 79 L770 127 Q716 74 628 25.5 Q540 -23 431 -23 Q335 -23 256.5 12 Q178 47 131.5 120 Q85 193 85 302 Q85 435 177.5 521 Q270 607 420.5 647.5 Q571 688 755 691 L755 743 Z M755 578 Q608 578 513.5 544.5 Q419 511 376.5 456 Q334 401 334 331 Q334 226 386 177 Q438 128 526 128 Q573 128 639.5 154.5 Q706 181 755 219 L755 578 Z M473 1781 L653 1781 L934 1383 L844 1325 L563 1606 L267 1324 L185 1382 L473 1781 Z " />
<glyph glyph-name="adieresis" unicode="&#xe4;" horiz-adv-x="1148" d="M755 743 Q755 837 735.5 891 Q716 945 668 970 Q620 995 532 995 Q363 995 176 900 L175 900 L125 1004 Q152 1028 228.5 1066 Q305 1104 402.5 1132.5 Q500 1161 588 1161 Q734 1161 817.5 1121.5 Q901 1082 938 995 Q975 908 975 760 L975 110 L1097 110 L1097 12 Q951 -23 877 -23 Q835 -23 813 -16 Q791 -9 780.5 12.5 Q770 34 770 79 L770 127 Q716 74 628 25.5 Q540 -23 431 -23 Q335 -23 256.5 12 Q178 47 131.5 120 Q85 193 85 302 Q85 435 177.5 521 Q270 607 420.5 647.5 Q571 688 755 691 L755 743 Z M755 578 Q608 578 513.5 544.5 Q419 511 376.5 456 Q334 401 334 331 Q334 226 386 177 Q438 128 526 128 Q573 128 639.5 154.5 Q706 181 755 219 L755 578 Z M192 1492 Q192 1559 230 1605.5 Q268 1652 339 1652 L340 1652 Q401 1652 436.5 1611 Q472 1570 472 1514 Q472 1444 432.5 1399.5 Q393 1355 319 1355 L318 1355 Q261 1355 226.5 1394 Q192 1433 192 1492 Z M660 1492 Q660 1559 698.5 1605.5 Q737 1652 807 1652 L808 1652 Q870 1652 905.5 1611 Q941 1570 941 1514 Q941 1444 901.5 1399.5 Q862 1355 786 1355 L785 1355 Q730 1355 695 1395 Q660 1435 660 1492 Z " />
<glyph glyph-name="agrave" unicode="&#xe0;" horiz-adv-x="1148" d="M755 743 Q755 837 735.5 891 Q716 945 668 970 Q620 995 532 995 Q363 995 176 900 L175 900 L125 1004 Q152 1028 228.5 1066 Q305 1104 402.5 1132.5 Q500 1161 588 1161 Q734 1161 817.5 1121.5 Q901 1082 938 995 Q975 908 975 760 L975 110 L1097 110 L1097 12 Q951 -23 877 -23 Q835 -23 813 -16 Q791 -9 780.5 12.5 Q770 34 770 79 L770 127 Q716 74 628 25.5 Q540 -23 431 -23 Q335 -23 256.5 12 Q178 47 131.5 120 Q85 193 85 302 Q85 435 177.5 521 Q270 607 420.5 647.5 Q571 688 755 691 L755 743 Z M755 578 Q608 578 513.5 544.5 Q419 511 376.5 456 Q334 401 334 331 Q334 226 386 177 Q438 128 526 128 Q573 128 639.5 154.5 Q706 181 755 219 L755 578 Z M368 1814 L369 1814 L699 1408 L617 1334 L616 1334 Q572 1350 484.5 1415 Q397 1480 316 1555 Q235 1630 209 1675 L368 1814 Z " />
<glyph glyph-name="amacron" unicode="&#x101;" horiz-adv-x="1148" d="M755 743 Q755 837 735.5 891 Q716 945 668 970 Q620 995 532 995 Q363 995 176 900 L175 900 L125 1004 Q152 1028 228.5 1066 Q305 1104 402.5 1132.5 Q500 1161 588 1161 Q734 1161 817.5 1121.5 Q901 1082 938 995 Q975 908 975 760 L975 110 L1097 110 L1097 12 Q951 -23 877 -23 Q835 -23 813 -16 Q791 -9 780.5 12.5 Q770 34 770 79 L770 127 Q716 74 628 25.5 Q540 -23 431 -23 Q335 -23 256.5 12 Q178 47 131.5 120 Q85 193 85 302 Q85 435 177.5 521 Q270 607 420.5 647.5 Q571 688 755 691 L755 743 Z M755 578 Q608 578 513.5 544.5 Q419 511 376.5 456 Q334 401 334 331 Q334 226 386 177 Q438 128 526 128 Q573 128 639.5 154.5 Q706 181 755 219 L755 578 Z M842 1586 L842 1428 L284 1428 L284 1586 L842 1586 Z " />
<glyph glyph-name="aogonek" unicode="&#x105;" horiz-adv-x="1148" d="M755 743 Q755 837 735.5 891 Q716 945 668 970 Q620 995 532 995 Q363 995 176 900 L175 900 L125 1004 Q152 1028 228.5 1066 Q305 1104 402.5 1132.5 Q500 1161 588 1161 Q734 1161 817.5 1121.5 Q901 1082 938 995 Q975 908 975 760 L975 110 L1097 110 L1097 12 Q1076 6 1046 0 Q975 -25 915 -67.5 Q855 -110 819.5 -157.5 Q784 -205 784 -244 Q784 -305 824.5 -335 Q865 -365 931 -365 Q996 -365 1072 -332 L1072 -442 Q1030 -474 964.5 -492.5 Q899 -511 835 -511 Q724 -511 650 -463 Q576 -415 576 -315 Q576 -266 612 -211 Q648 -156 708.5 -106 Q769 -56 841 -21 Q802 -17 786 4 Q770 25 770 79 L770 127 Q716 74 628 25.5 Q540 -23 431 -23 Q335 -23 256.5 12 Q178 47 131.5 120 Q85 193 85 302 Q85 435 177.5 521 Q270 607 420.5 647.5 Q571 688 755 691 L755 743 Z M755 578 Q608 578 513.5 544.5 Q419 511 376.5 456 Q334 401 334 331 Q334 226 386 177 Q438 128 526 128 Q573 128 639.5 154.5 Q706 181 755 219 L755 578 Z " />
<glyph glyph-name="aring" unicode="&#xe5;" horiz-adv-x="1148" d="M755 743 Q755 837 735.5 891 Q716 945 668 970 Q620 995 532 995 Q363 995 176 900 L175 900 L125 1004 Q152 1028 228.5 1066 Q305 1104 402.5 1132.5 Q500 1161 588 1161 Q734 1161 817.5 1121.5 Q901 1082 938 995 Q975 908 975 760 L975 110 L1097 110 L1097 12 Q951 -23 877 -23 Q835 -23 813 -16 Q791 -9 780.5 12.5 Q770 34 770 79 L770 127 Q716 74 628 25.5 Q540 -23 431 -23 Q335 -23 256.5 12 Q178 47 131.5 120 Q85 193 85 302 Q85 435 177.5 521 Q270 607 420.5 647.5 Q571 688 755 691 L755 743 Z M755 578 Q608 578 513.5 544.5 Q419 511 376.5 456 Q334 401 334 331 Q334 226 386 177 Q438 128 526 128 Q573 128 639.5 154.5 Q706 181 755 219 L755 578 Z M228 1593 Q228 1679 277 1742.5 Q326 1806 405.5 1839 Q485 1872 573 1872 L574 1872 Q676 1872 748 1836 Q820 1800 857 1737 Q894 1674 894 1594 Q894 1506 848.5 1441.5 Q803 1377 726.5 1343 Q650 1309 559 1309 L558 1309 Q448 1309 374 1346 Q300 1383 264 1447.5 Q228 1512 228 1593 Z M565 1415 Q656 1415 696.5 1457 Q737 1499 737 1585 Q737 1663 695 1713 Q653 1763 566 1763 L565 1763 Q476 1763 431.5 1719.5 Q387 1676 387 1598 Q387 1520 432 1467.5 Q477 1415 564 1415 L565 1415 Z " />
<glyph glyph-name="atilde" unicode="&#xe3;" horiz-adv-x="1148" d="M755 743 Q755 837 735.5 891 Q716 945 668 970 Q620 995 532 995 Q363 995 176 900 L175 900 L125 1004 Q152 1028 228.5 1066 Q305 1104 402.5 1132.5 Q500 1161 588 1161 Q734 1161 817.5 1121.5 Q901 1082 938 995 Q975 908 975 760 L975 110 L1097 110 L1097 12 Q951 -23 877 -23 Q835 -23 813 -16 Q791 -9 780.5 12.5 Q770 34 770 79 L770 127 Q716 74 628 25.5 Q540 -23 431 -23 Q335 -23 256.5 12 Q178 47 131.5 120 Q85 193 85 302 Q85 435 177.5 521 Q270 607 420.5 647.5 Q571 688 755 691 L755 743 Z M755 578 Q608 578 513.5 544.5 Q419 511 376.5 456 Q334 401 334 331 Q334 226 386 177 Q438 128 526 128 Q573 128 639.5 154.5 Q706 181 755 219 L755 578 Z M137 1448 Q152 1496 192 1545.5 Q232 1595 292 1628.5 Q352 1662 424 1662 Q466 1662 500.5 1648.5 Q535 1635 559.5 1616.5 Q584 1598 618 1567 Q659 1530 686 1513 Q713 1496 747 1496 Q789 1496 818.5 1516 Q848 1536 862 1557 Q876 1578 895 1613 L993 1551 Q958 1459 891 1397.5 Q824 1336 725 1336 Q684 1336 650 1349 Q616 1362 591 1380 Q566 1398 531 1428 Q488 1466 457.5 1484.5 Q427 1503 389 1503 Q348 1503 317.5 1483 Q287 1463 271.5 1442.5 Q256 1422 234 1386 L137 1448 Z " />
<glyph glyph-name="ae" unicode="&#xe6;" horiz-adv-x="1781" d="M844 195 Q807 143 748.5 93.5 Q690 44 607.5 10.5 Q525 -23 428 -23 Q334 -23 255.5 12 Q177 47 130 120 Q83 193 83 301 Q83 435 174.5 520.5 Q266 606 415.5 646 Q565 686 747 689 L747 750 Q747 844 728.5 896.5 Q710 949 663.5 973 Q617 997 529 997 Q429 997 342 970 Q255 943 162 900 L112 1002 Q143 1029 221.5 1067 Q300 1105 398 1133 Q496 1161 585 1161 Q720 1161 799.5 1126.5 Q879 1092 918 1017 Q989 1090 1084.5 1129 Q1180 1168 1291 1168 Q1482 1168 1588 1063.5 Q1694 959 1701 760 Q1701 690 1698.5 644 Q1696 598 1689 564 L995 564 Q999 417 1045 320 Q1091 223 1166 177 Q1241 131 1335 131 Q1417 131 1504 159.5 Q1591 188 1639 225 L1681 129 Q1643 90 1576.5 55 Q1510 20 1428.5 -1.5 Q1347 -23 1267 -23 Q1121 -23 1014.5 33.5 Q908 90 844 195 Z M1461 680 Q1464 721 1464 766 Q1463 893 1411 970 Q1359 1047 1247 1047 Q1136 1047 1070 963.5 Q1004 880 995 680 L1461 680 Z M800 287 Q754 410 754 571 L754 574 L747 579 L747 581 Q604 581 511 547 Q418 513 374.5 457 Q331 401 331 332 Q331 225 382.5 176.5 Q434 128 521 128 Q579 128 635 152.5 Q691 177 734.5 214 Q778 251 800 287 Z " />
<glyph glyph-name="aeacute" unicode="&#x1fd;" horiz-adv-x="1764" d="M1108 1814 L1109 1814 L1268 1675 Q1242 1631 1162 1556.5 Q1082 1482 994 1417 Q906 1352 861 1334 L859 1334 L778 1408 L1108 1814 Z M847 195 Q810 143 751.5 93.5 Q693 44 610.5 10.5 Q528 -23 431 -23 Q337 -23 258.5 12 Q180 47 133 120 Q86 193 86 301 Q86 435 177.5 520.5 Q269 606 418.5 646 Q568 686 750 689 L750 750 Q750 844 731.5 896.5 Q713 949 666.5 973 Q620 997 532 997 Q432 997 345 970 Q258 943 165 900 L115 1002 Q146 1029 224.5 1067 Q303 1105 401 1133 Q499 1161 588 1161 Q723 1161 802.5 1126.5 Q882 1092 921 1017 Q992 1090 1087.5 1129 Q1183 1168 1294 1168 Q1485 1168 1591 1063.5 Q1697 959 1704 760 Q1704 690 1701.5 644 Q1699 598 1692 564 L998 564 Q1002 417 1048 320 Q1094 223 1169 177 Q1244 131 1338 131 Q1420 131 1507 159.5 Q1594 188 1642 225 L1684 129 Q1646 90 1579.5 55 Q1513 20 1431.5 -1.5 Q1350 -23 1270 -23 Q1124 -23 1017.5 33.5 Q911 90 847 195 Z M1464 680 Q1467 721 1467 766 Q1466 893 1414 970 Q1362 1047 1250 1047 Q1139 1047 1073 963.5 Q1007 880 998 680 L1464 680 Z M803 287 Q757 410 757 571 L757 574 L750 579 L750 581 Q607 581 514 547 Q421 513 377.5 457 Q334 401 334 332 Q334 225 385.5 176.5 Q437 128 524 128 Q582 128 638 152.5 Q694 177 737.5 214 Q781 251 803 287 Z " />
<glyph glyph-name="b" unicode="b" horiz-adv-x="1241" d="M-5 1542 L-5 1636 L332 1679 L337 1679 L387 1645 L387 1034 Q446 1092 528 1130 Q610 1168 710 1168 Q832 1168 933 1109 Q1034 1050 1095 924.5 Q1156 799 1156 609 Q1156 433 1084 288.5 Q1012 144 877.5 60.5 Q743 -23 564 -23 Q467 -23 379.5 -9.5 Q292 4 233 23 Q174 42 160 56 L160 1522 L-5 1542 Z M387 157 Q400 127 454 109.5 Q508 92 579 92 Q677 92 751.5 147 Q826 202 868 312.5 Q910 423 910 585 Q910 729 872.5 825 Q835 921 769 967 Q703 1013 618 1013 Q546 1013 485 980.5 Q424 948 387 907 L387 157 Z " />
<glyph glyph-name="uni1E03" unicode="&#x1e03;" horiz-adv-x="1241" d="M-5 1542 L-5 1636 L332 1679 L337 1679 L387 1645 L387 1034 Q446 1092 528 1130 Q610 1168 710 1168 Q832 1168 933 1109 Q1034 1050 1095 924.5 Q1156 799 1156 609 Q1156 433 1084 288.5 Q1012 144 877.5 60.5 Q743 -23 564 -23 Q467 -23 379.5 -9.5 Q292 4 233 23 Q174 42 160 56 L160 1522 L-5 1542 Z M387 157 Q400 127 454 109.5 Q508 92 579 92 Q677 92 751.5 147 Q826 202 868 312.5 Q910 423 910 585 Q910 729 872.5 825 Q835 921 769 967 Q703 1013 618 1013 Q546 1013 485 980.5 Q424 948 387 907 L387 157 Z M625 1489 Q625 1557 664.5 1604 Q704 1651 775 1651 L776 1651 Q818 1651 849 1631.5 Q880 1612 896.5 1580 Q913 1548 913 1512 Q913 1442 873 1397 Q833 1352 757 1352 L756 1352 Q698 1352 661.5 1391 Q625 1430 625 1489 Z " />
<glyph glyph-name="c" unicode="c" horiz-adv-x="1047" d="M653 1168 Q797 1168 961 1106 L951 798 L812 798 L766 985 Q752 1018 710.5 1034 Q669 1050 611 1050 Q523 1050 458 1001.5 Q393 953 357 856.5 Q321 760 321 618 Q321 453 364 344 Q407 235 481 183 Q555 131 648 131 Q735 131 808.5 156.5 Q882 182 934 219 L977 127 Q941 90 881 55.5 Q821 21 746.5 -1 Q672 -23 597 -23 Q428 -23 311 52 Q194 127 135.5 257.5 Q77 388 77 554 Q77 725 143 864.5 Q209 1004 339 1086 Q469 1168 653 1168 Z " />
<glyph glyph-name="cacute" unicode="&#x107;" horiz-adv-x="1047" d="M785 1814 L786 1814 L945 1675 Q919 1631 839 1556.5 Q759 1482 671 1417 Q583 1352 538 1334 L536 1334 L455 1408 L785 1814 Z M653 1168 Q797 1168 961 1106 L951 798 L812 798 L766 985 Q752 1018 710.5 1034 Q669 1050 611 1050 Q523 1050 458 1001.5 Q393 953 357 856.5 Q321 760 321 618 Q321 453 364 344 Q407 235 481 183 Q555 131 648 131 Q735 131 808.5 156.5 Q882 182 934 219 L977 127 Q941 90 881 55.5 Q821 21 746.5 -1 Q672 -23 597 -23 Q428 -23 311 52 Q194 127 135.5 257.5 Q77 388 77 554 Q77 725 143 864.5 Q209 1004 339 1086 Q469 1168 653 1168 Z " />
<glyph glyph-name="ccaron" unicode="&#x10d;" horiz-adv-x="1047" d="M313 1799 L597 1517 L886 1800 L969 1740 L686 1342 L506 1342 L224 1739 L313 1799 Z M653 1168 Q797 1168 961 1106 L951 798 L812 798 L766 985 Q752 1018 710.5 1034 Q669 1050 611 1050 Q523 1050 458 1001.5 Q393 953 357 856.5 Q321 760 321 618 Q321 453 364 344 Q407 235 481 183 Q555 131 648 131 Q735 131 808.5 156.5 Q882 182 934 219 L977 127 Q941 90 881 55.5 Q821 21 746.5 -1 Q672 -23 597 -23 Q428 -23 311 52 Q194 127 135.5 257.5 Q77 388 77 554 Q77 725 143 864.5 Q209 1004 339 1086 Q469 1168 653 1168 Z " />
<glyph glyph-name="ccedilla" unicode="&#xe7;" horiz-adv-x="1047" d="M977 127 Q926 73 830.5 29.5 Q735 -14 632 -22 Q674 -71 707 -140 Q740 -209 740 -280 Q740 -396 674 -445 Q608 -494 476 -494 L475 -494 Q440 -494 398.5 -486.5 Q357 -479 331 -467 L332 -314 Q351 -321 377 -324.5 Q403 -328 418 -328 L419 -328 Q471 -328 500.5 -318.5 Q530 -309 545.5 -278.5 Q561 -248 561 -187 Q561 -146 545.5 -99.5 Q530 -53 511 -18 Q369 1 271.5 79.5 Q174 158 125.5 280 Q77 402 77 554 Q77 725 143 864.5 Q209 1004 339 1086 Q469 1168 653 1168 Q797 1168 961 1106 L951 798 L812 798 L766 985 Q752 1018 710.5 1034 Q669 1050 611 1050 Q523 1050 458 1001.5 Q393 953 357 856.5 Q321 760 321 618 Q321 453 364 344 Q407 235 481 183 Q555 131 648 131 Q735 131 808.5 156.5 Q882 182 934 219 L977 127 Z " />
<glyph glyph-name="ccircumflex" unicode="&#x109;" horiz-adv-x="1047" d="M505 1781 L685 1781 L966 1383 L876 1325 L595 1606 L299 1324 L217 1382 L505 1781 Z M653 1168 Q797 1168 961 1106 L951 798 L812 798 L766 985 Q752 1018 710.5 1034 Q669 1050 611 1050 Q523 1050 458 1001.5 Q393 953 357 856.5 Q321 760 321 618 Q321 453 364 344 Q407 235 481 183 Q555 131 648 131 Q735 131 808.5 156.5 Q882 182 934 219 L977 127 Q941 90 881 55.5 Q821 21 746.5 -1 Q672 -23 597 -23 Q428 -23 311 52 Q194 127 135.5 257.5 Q77 388 77 554 Q77 725 143 864.5 Q209 1004 339 1086 Q469 1168 653 1168 Z " />
<glyph glyph-name="cdotaccent" unicode="&#x10b;" horiz-adv-x="1047" d="M653 1168 Q797 1168 961 1106 L951 798 L812 798 L766 985 Q752 1018 710.5 1034 Q669 1050 611 1050 Q523 1050 458 1001.5 Q393 953 357 856.5 Q321 760 321 618 Q321 453 364 344 Q407 235 481 183 Q555 131 648 131 Q735 131 808.5 156.5 Q882 182 934 219 L977 127 Q941 90 881 55.5 Q821 21 746.5 -1 Q672 -23 597 -23 Q428 -23 311 52 Q194 127 135.5 257.5 Q77 388 77 554 Q77 725 143 864.5 Q209 1004 339 1086 Q469 1168 653 1168 Z M444 1489 Q444 1557 483.5 1604 Q523 1651 594 1651 L595 1651 Q637 1651 668 1631.5 Q699 1612 715.5 1580 Q732 1548 732 1512 Q732 1442 692 1397 Q652 1352 576 1352 L575 1352 Q517 1352 480.5 1391 Q444 1430 444 1489 Z " />
<glyph glyph-name="d" unicode="d" horiz-adv-x="1272" d="M85 542 Q85 717 156 859.5 Q227 1002 361 1085 Q495 1168 675 1168 Q763 1168 856 1149 L856 1522 L655 1542 L655 1639 L1028 1679 L1034 1679 L1083 1643 L1083 116 L1201 116 L1201 12 Q1136 -4 1085.5 -13.5 Q1035 -23 981 -23 Q942 -23 919.5 -15.5 Q897 -8 885.5 14.5 Q874 37 874 80 L874 133 Q813 66 725.5 21.5 Q638 -23 531 -23 Q408 -23 307 39.5 Q206 102 145.5 229.5 Q85 357 85 542 Z M856 989 Q841 1014 784 1032 Q727 1050 661 1050 Q511 1050 421 931 Q331 812 331 558 Q331 413 369.5 317.5 Q408 222 473.5 176.5 Q539 131 623 131 Q696 131 757 163 Q818 195 856 237 L856 989 Z " />
<glyph glyph-name="eth" unicode="&#xf0;" horiz-adv-x="1189" d="M380 1592 Q327 1627 266 1656.5 Q205 1686 165 1697 L209 1806 Q282 1786 338 1762 Q394 1738 463 1700 Q506 1754 541 1799 Q576 1844 588 1859 L686 1778 Q675 1765 643 1725 Q611 1685 570 1637 Q732 1527 854.5 1380 Q977 1233 1046 1052 Q1115 871 1115 666 Q1115 490 1062.5 333.5 Q1010 177 893.5 77 Q777 -23 597 -23 Q425 -23 309 48 Q193 119 136 244.5 Q79 370 79 535 Q79 738 152 881 Q225 1024 345.5 1096 Q466 1168 607 1168 Q706 1168 798 1131 Q754 1242 670.5 1345.5 Q587 1449 480 1521 L347 1357 L243 1431 L380 1592 Z M872 644 Q872 746 859.5 828.5 Q847 911 832 962 Q806 998 750.5 1026.5 Q695 1055 614 1055 Q526 1055 461.5 996.5 Q397 938 363 825.5 Q329 713 329 556 Q329 431 357 328 Q385 225 446.5 162 Q508 99 604 99 Q741 99 806.5 235.5 Q872 372 872 644 Z " />
<glyph glyph-name="dcaron" unicode="&#x10f;" horiz-adv-x="1475" d="M85 542 Q85 717 156 859.5 Q227 1002 361 1085 Q495 1168 675 1168 Q763 1168 856 1149 L856 1522 L655 1542 L655 1639 L1028 1679 L1034 1679 L1083 1643 L1083 116 L1201 116 L1201 12 Q1136 -4 1085.5 -13.5 Q1035 -23 981 -23 Q942 -23 919.5 -15.5 Q897 -8 885.5 14.5 Q874 37 874 80 L874 133 Q813 66 725.5 21.5 Q638 -23 531 -23 Q408 -23 307 39.5 Q206 102 145.5 229.5 Q85 357 85 542 Z M856 989 Q841 1014 784 1032 Q727 1050 661 1050 Q511 1050 421 931 Q331 812 331 558 Q331 413 369.5 317.5 Q408 222 473.5 176.5 Q539 131 623 131 Q696 131 757 163 Q818 195 856 237 L856 989 Z M1287 1085 Q1320 1201 1320 1347 Q1320 1433 1303 1506.5 Q1286 1580 1267 1605 L1281 1645 L1449 1685 Q1477 1657 1494.5 1588 Q1512 1519 1512 1440 Q1512 1356 1494 1271 Q1476 1186 1447 1121 Q1418 1056 1387 1027 L1291 1061 L1287 1085 Z " />
<glyph glyph-name="dslash" unicode="&#x111;" horiz-adv-x="1271" d="M854 1407 L854 1522 L653 1542 L653 1639 L1026 1679 L1032 1679 L1081 1643 L1081 1407 L1225 1407 L1225 1290 L1081 1290 L1081 116 L1199 116 L1199 12 Q1134 -4 1083.5 -13.5 Q1033 -23 979 -23 Q940 -23 917.5 -15.5 Q895 -8 883.5 14.5 Q872 37 872 80 L872 133 Q811 66 723.5 21.5 Q636 -23 529 -23 Q406 -23 305 39.5 Q204 102 143.5 229.5 Q83 357 83 542 Q83 717 154 859.5 Q225 1002 359 1085 Q493 1168 673 1168 Q761 1168 854 1149 L854 1290 L602 1290 L602 1407 L854 1407 Z M854 989 Q839 1014 782 1032 Q725 1050 659 1050 Q509 1050 419 931 Q329 812 329 558 Q329 413 367.5 317.5 Q406 222 471.5 176.5 Q537 131 621 131 Q694 131 755 163 Q816 195 854 237 L854 989 Z " />
<glyph glyph-name="uni1E0B" unicode="&#x1e0b;" horiz-adv-x="1272" d="M85 542 Q85 717 156 859.5 Q227 1002 361 1085 Q495 1168 675 1168 Q763 1168 856 1149 L856 1522 L655 1542 L655 1639 L1028 1679 L1034 1679 L1083 1643 L1083 116 L1201 116 L1201 12 Q1136 -4 1085.5 -13.5 Q1035 -23 981 -23 Q942 -23 919.5 -15.5 Q897 -8 885.5 14.5 Q874 37 874 80 L874 133 Q813 66 725.5 21.5 Q638 -23 531 -23 Q408 -23 307 39.5 Q206 102 145.5 229.5 Q85 357 85 542 Z M856 989 Q841 1014 784 1032 Q727 1050 661 1050 Q511 1050 421 931 Q331 812 331 558 Q331 413 369.5 317.5 Q408 222 473.5 176.5 Q539 131 623 131 Q696 131 757 163 Q818 195 856 237 L856 989 Z M195 1489 Q195 1557 234.5 1604 Q274 1651 345 1651 L346 1651 Q388 1651 419 1631.5 Q450 1612 466.5 1580 Q483 1548 483 1512 Q483 1442 443 1397 Q403 1352 327 1352 L326 1352 Q268 1352 231.5 1391 Q195 1430 195 1489 Z " />
<glyph glyph-name="uni01F3" unicode="&#x1f3;" horiz-adv-x="2410" d="M85 542 Q85 717 156 859.5 Q227 1002 361 1085 Q495 1168 675 1168 Q763 1168 856 1149 L856 1522 L655 1542 L655 1639 L1028 1679 L1034 1679 L1083 1643 L1083 116 L1201 116 L1201 12 Q1136 -4 1085.5 -13.5 Q1035 -23 981 -23 Q942 -23 919.5 -15.5 Q897 -8 885.5 14.5 Q874 37 874 80 L874 133 Q813 66 725.5 21.5 Q638 -23 531 -23 Q408 -23 307 39.5 Q206 102 145.5 229.5 Q85 357 85 542 Z M856 989 Q841 1014 784 1032 Q727 1050 661 1050 Q511 1050 421 931 Q331 812 331 558 Q331 413 369.5 317.5 Q408 222 473.5 176.5 Q539 131 623 131 Q696 131 757 163 Q818 195 856 237 L856 989 Z M2059 1015 L1594 1000 L1555 810 L1418 810 L1418 1137 L2281 1137 L2323 1045 L1738 249 L1607 121 L2123 143 L2199 360 L2329 345 L2299 0 L1379 0 L1334 94 L1928 883 L2059 1015 Z " />
<glyph glyph-name="uni01C6" unicode="&#x1c6;" horiz-adv-x="2413" d="M1587 1799 L1871 1517 L2160 1800 L2243 1740 L1960 1342 L1780 1342 L1498 1739 L1587 1799 Z M2060 1015 L1595 1000 L1556 810 L1419 810 L1419 1137 L2282 1137 L2324 1045 L1739 249 L1608 121 L2124 143 L2200 360 L2330 345 L2300 0 L1380 0 L1335 94 L1929 883 L2060 1015 Z M85 542 Q85 717 156 859.5 Q227 1002 361 1085 Q495 1168 675 1168 Q763 1168 856 1149 L856 1522 L655 1542 L655 1639 L1028 1679 L1034 1679 L1083 1643 L1083 116 L1201 116 L1201 12 Q1136 -4 1085.5 -13.5 Q1035 -23 981 -23 Q942 -23 919.5 -15.5 Q897 -8 885.5 14.5 Q874 37 874 80 L874 133 Q813 66 725.5 21.5 Q638 -23 531 -23 Q408 -23 307 39.5 Q206 102 145.5 229.5 Q85 357 85 542 Z M856 989 Q841 1014 784 1032 Q727 1050 661 1050 Q511 1050 421 931 Q331 812 331 558 Q331 413 369.5 317.5 Q408 222 473.5 176.5 Q539 131 623 131 Q696 131 757 163 Q818 195 856 237 L856 989 Z " />
<glyph glyph-name="e" unicode="e" horiz-adv-x="1112" d="M85 571 Q85 747 154 883 Q223 1019 345 1093.5 Q467 1168 622 1168 Q814 1168 919 1063 Q1024 958 1031 760 L1031 724 Q1031 619 1019 564 L326 564 Q330 417 376 320 Q422 223 497 177 Q572 131 666 131 Q748 131 834.5 159.5 Q921 188 970 225 L1012 129 Q974 90 907.5 55 Q841 20 759.5 -1.5 Q678 -23 598 -23 Q430 -23 314.5 51.5 Q199 126 142 259.5 Q85 393 85 571 Z M791 680 Q795 716 795 766 Q794 893 742 970 Q690 1047 578 1047 Q466 1047 400.5 963.5 Q335 880 326 680 L791 680 Z " />
<glyph glyph-name="eacute" unicode="&#xe9;" horiz-adv-x="1112" d="M781 1814 L782 1814 L941 1675 Q915 1631 835 1556.5 Q755 1482 667 1417 Q579 1352 534 1334 L532 1334 L451 1408 L781 1814 Z M85 571 Q85 747 154 883 Q223 1019 345 1093.5 Q467 1168 622 1168 Q814 1168 919 1063 Q1024 958 1031 760 L1031 724 Q1031 619 1019 564 L326 564 Q330 417 376 320 Q422 223 497 177 Q572 131 666 131 Q748 131 834.5 159.5 Q921 188 970 225 L1012 129 Q974 90 907.5 55 Q841 20 759.5 -1.5 Q678 -23 598 -23 Q430 -23 314.5 51.5 Q199 126 142 259.5 Q85 393 85 571 Z M791 680 Q795 716 795 766 Q794 893 742 970 Q690 1047 578 1047 Q466 1047 400.5 963.5 Q335 880 326 680 L791 680 Z " />
<glyph glyph-name="ebreve" unicode="&#x115;" horiz-adv-x="1112" d="M85 571 Q85 747 154 883 Q223 1019 345 1093.5 Q467 1168 622 1168 Q814 1168 919 1063 Q1024 958 1031 760 L1031 724 Q1031 619 1019 564 L326 564 Q330 417 376 320 Q422 223 497 177 Q572 131 666 131 Q748 131 834.5 159.5 Q921 188 970 225 L1012 129 Q974 90 907.5 55 Q841 20 759.5 -1.5 Q678 -23 598 -23 Q430 -23 314.5 51.5 Q199 126 142 259.5 Q85 393 85 571 Z M791 680 Q795 716 795 766 Q794 893 742 970 Q690 1047 578 1047 Q466 1047 400.5 963.5 Q335 880 326 680 L791 680 Z M245 1693 Q245 1737 249 1753 L367 1753 Q367 1732 370 1716 Q380 1644 431.5 1587.5 Q483 1531 590 1531 Q696 1531 745 1587 Q794 1643 804 1716 Q807 1740 807 1753 L921 1753 Q922 1744 923.5 1725.5 Q925 1707 925 1694 Q925 1603 883 1524 Q841 1445 764 1398 Q687 1351 588 1351 Q485 1351 407 1398 Q329 1445 287 1523 Q245 1601 245 1693 Z " />
<glyph glyph-name="ecaron" unicode="&#x11b;" horiz-adv-x="1112" d="M308 1799 L592 1517 L881 1800 L964 1740 L681 1342 L501 1342 L219 1739 L308 1799 Z M86 571 Q86 747 155 883 Q224 1019 346 1093.5 Q468 1168 623 1168 Q815 1168 920 1063 Q1025 958 1032 760 L1032 724 Q1032 619 1020 564 L327 564 Q331 417 377 320 Q423 223 498 177 Q573 131 667 131 Q749 131 835.5 159.5 Q922 188 971 225 L1013 129 Q975 90 908.5 55 Q842 20 760.5 -1.5 Q679 -23 599 -23 Q431 -23 315.5 51.5 Q200 126 143 259.5 Q86 393 86 571 Z M792 680 Q796 716 796 766 Q795 893 743 970 Q691 1047 579 1047 Q467 1047 401.5 963.5 Q336 880 327 680 L792 680 Z " />
<glyph glyph-name="ecircumflex" unicode="&#xea;" horiz-adv-x="1112" d="M496 1781 L676 1781 L957 1383 L867 1325 L586 1606 L290 1324 L208 1382 L496 1781 Z M85 571 Q85 747 154 883 Q223 1019 345 1093.5 Q467 1168 622 1168 Q814 1168 919 1063 Q1024 958 1031 760 L1031 724 Q1031 619 1019 564 L326 564 Q330 417 376 320 Q422 223 497 177 Q572 131 666 131 Q748 131 834.5 159.5 Q921 188 970 225 L1012 129 Q974 90 907.5 55 Q841 20 759.5 -1.5 Q678 -23 598 -23 Q430 -23 314.5 51.5 Q199 126 142 259.5 Q85 393 85 571 Z M791 680 Q795 716 795 766 Q794 893 742 970 Q690 1047 578 1047 Q466 1047 400.5 963.5 Q335 880 326 680 L791 680 Z " />
<glyph glyph-name="edieresis" unicode="&#xeb;" horiz-adv-x="1112" d="M216 1492 Q216 1559 254 1605.5 Q292 1652 363 1652 L364 1652 Q425 1652 460.5 1611 Q496 1570 496 1514 Q496 1444 456.5 1399.5 Q417 1355 343 1355 L342 1355 Q285 1355 250.5 1394 Q216 1433 216 1492 Z M684 1492 Q684 1559 722.5 1605.5 Q761 1652 831 1652 L832 1652 Q894 1652 929.5 1611 Q965 1570 965 1514 Q965 1444 925.5 1399.5 Q886 1355 810 1355 L809 1355 Q754 1355 719 1395 Q684 1435 684 1492 Z M85 571 Q85 747 154 883 Q223 1019 345 1093.5 Q467 1168 622 1168 Q814 1168 919 1063 Q1024 958 1031 760 L1031 724 Q1031 619 1019 564 L326 564 Q330 417 376 320 Q422 223 497 177 Q572 131 666 131 Q748 131 834.5 159.5 Q921 188 970 225 L1012 129 Q974 90 907.5 55 Q841 20 759.5 -1.5 Q678 -23 598 -23 Q430 -23 314.5 51.5 Q199 126 142 259.5 Q85 393 85 571 Z M791 680 Q795 716 795 766 Q794 893 742 970 Q690 1047 578 1047 Q466 1047 400.5 963.5 Q335 880 326 680 L791 680 Z " />
<glyph glyph-name="edotaccent" unicode="&#x117;" horiz-adv-x="1112" d="M85 571 Q85 747 154 883 Q223 1019 345 1093.5 Q467 1168 622 1168 Q814 1168 919 1063 Q1024 958 1031 760 L1031 724 Q1031 619 1019 564 L326 564 Q330 417 376 320 Q422 223 497 177 Q572 131 666 131 Q748 131 834.5 159.5 Q921 188 970 225 L1012 129 Q974 90 907.5 55 Q841 20 759.5 -1.5 Q678 -23 598 -23 Q430 -23 314.5 51.5 Q199 126 142 259.5 Q85 393 85 571 Z M791 680 Q795 716 795 766 Q794 893 742 970 Q690 1047 578 1047 Q466 1047 400.5 963.5 Q335 880 326 680 L791 680 Z M447 1489 Q447 1557 486.5 1604 Q526 1651 597 1651 L598 1651 Q640 1651 671 1631.5 Q702 1612 718.5 1580 Q735 1548 735 1512 Q735 1442 695 1397 Q655 1352 579 1352 L578 1352 Q520 1352 483.5 1391 Q447 1430 447 1489 Z " />
<glyph glyph-name="egrave" unicode="&#xe8;" horiz-adv-x="1112" d="M85 571 Q85 747 154 883 Q223 1019 345 1093.5 Q467 1168 622 1168 Q814 1168 919 1063 Q1024 958 1031 760 L1031 724 Q1031 619 1019 564 L326 564 Q330 417 376 320 Q422 223 497 177 Q572 131 666 131 Q748 131 834.5 159.5 Q921 188 970 225 L1012 129 Q974 90 907.5 55 Q841 20 759.5 -1.5 Q678 -23 598 -23 Q430 -23 314.5 51.5 Q199 126 142 259.5 Q85 393 85 571 Z M791 680 Q795 716 795 766 Q794 893 742 970 Q690 1047 578 1047 Q466 1047 400.5 963.5 Q335 880 326 680 L791 680 Z M392 1814 L393 1814 L723 1408 L641 1334 L640 1334 Q596 1350 508.5 1415 Q421 1480 340 1555 Q259 1630 233 1675 L392 1814 Z " />
<glyph glyph-name="emacron" unicode="&#x113;" horiz-adv-x="1112" d="M85 571 Q85 747 154 883 Q223 1019 345 1093.5 Q467 1168 622 1168 Q814 1168 919 1063 Q1024 958 1031 760 L1031 724 Q1031 619 1019 564 L326 564 Q330 417 376 320 Q422 223 497 177 Q572 131 666 131 Q748 131 834.5 159.5 Q921 188 970 225 L1012 129 Q974 90 907.5 55 Q841 20 759.5 -1.5 Q678 -23 598 -23 Q430 -23 314.5 51.5 Q199 126 142 259.5 Q85 393 85 571 Z M791 680 Q795 716 795 766 Q794 893 742 970 Q690 1047 578 1047 Q466 1047 400.5 963.5 Q335 880 326 680 L791 680 Z M866 1586 L866 1428 L308 1428 L308 1586 L866 1586 Z " />
<glyph glyph-name="eogonek" unicode="&#x119;" horiz-adv-x="1112" d="M86 571 Q86 747 155 883 Q224 1019 346 1093.5 Q468 1168 623 1168 Q815 1168 920 1063 Q1025 958 1032 760 L1032 724 Q1032 619 1020 564 L327 564 Q331 417 377 320 Q423 223 498 177 Q573 131 667 131 Q749 131 835.5 159.5 Q922 188 971 225 L1013 129 Q972 87 903 52 Q779 -47 727 -109.5 Q675 -172 675 -232 Q675 -298 721.5 -331.5 Q768 -365 839 -365 Q905 -365 969 -337 L969 -446 Q929 -476 867.5 -493 Q806 -510 743 -510 Q670 -510 607 -489 Q544 -468 505 -422 Q466 -376 466 -304 Q466 -233 527 -152.5 Q588 -72 685 -16 Q634 -23 599 -23 Q431 -23 315.5 51.5 Q200 126 143 259.5 Q86 393 86 571 Z M792 680 Q796 716 796 766 Q795 893 743 970 Q691 1047 579 1047 Q467 1047 401.5 963.5 Q336 880 327 680 L792 680 Z " />
<glyph glyph-name="f" unicode="f" horiz-adv-x="828" d="M258 127 L258 991 L67 991 L67 1090 L258 1135 L258 1230 Q258 1357 327 1464 Q396 1571 506.5 1633.5 Q617 1696 735 1696 Q779 1696 804.5 1691.5 Q830 1687 855 1680 L855 1456 Q834 1474 780 1491 Q726 1508 661 1508 Q594 1508 556.5 1491 Q519 1474 502.5 1431 Q486 1388 486 1308 L487 1135 L762 1135 L762 991 L487 991 L487 126 L704 108 L704 0 L89 0 L89 108 L258 127 Z " />
<glyph glyph-name="uni1E1F" unicode="&#x1e1f;" horiz-adv-x="828" d="M236 1843 Q236 1911 275.5 1958 Q315 2005 386 2005 L387 2005 Q429 2005 460 1985.5 Q491 1966 507.5 1934 Q524 1902 524 1866 Q524 1796 484 1751 Q444 1706 368 1706 L367 1706 Q309 1706 272.5 1745 Q236 1784 236 1843 Z M258 127 L258 991 L67 991 L67 1090 L258 1135 L258 1230 Q258 1357 327 1464 Q396 1571 506.5 1633.5 Q617 1696 735 1696 Q779 1696 804.5 1691.5 Q830 1687 855 1680 L855 1456 Q834 1474 780 1491 Q726 1508 661 1508 Q594 1508 556.5 1491 Q519 1474 502.5 1431 Q486 1388 486 1308 L487 1135 L762 1135 L762 991 L487 991 L487 126 L704 108 L704 0 L89 0 L89 108 L258 127 Z " />
<glyph glyph-name="g" unicode="g" horiz-adv-x="1253" d="M581 405 Q499 405 428 422 Q400 397 384 364.5 Q368 332 368 298 Q368 248 391.5 221.5 Q415 195 462.5 185 Q510 175 593 175 L811 175 Q1202 175 1202 -125 Q1202 -241 1119.5 -339 Q1037 -437 899 -494.5 Q761 -552 603 -552 L602 -552 Q334 -552 213 -470.5 Q92 -389 92 -240 Q92 -147 146.5 -71.5 Q201 4 278 43 Q181 98 181 211 Q181 286 224 349.5 Q267 413 337 452 Q237 498 183.5 582.5 Q130 667 130 780 Q130 898 197 986 Q264 1074 373 1120.5 Q482 1167 606 1168 L607 1168 Q715 1168 801 1143.5 Q887 1119 946 1071 Q976 1106 1036 1138 Q1096 1170 1177 1170 L1231 1170 L1231 976 L1021 976 Q1056 903 1056 815 Q1056 695 994 601.5 Q932 508 824 456.5 Q716 405 582 405 L581 405 Z M593 1051 Q485 1051 425.5 992.5 Q366 934 366 801 Q366 675 422.5 599.5 Q479 524 603 524 L604 524 Q718 524 769.5 592 Q821 660 821 791 Q821 925 765.5 988 Q710 1051 594 1051 L593 1051 Z M380 8 Q316 -71 316 -181 Q316 -301 387 -363 Q458 -425 620 -425 L622 -425 Q712 -425 794 -397 Q876 -369 927 -314 Q978 -259 978 -183 Q978 -118 958.5 -80.5 Q939 -43 887 -24 Q835 -5 736 -5 L535 -5 Q453 -5 380 8 Z " />
<glyph glyph-name="gbreve" unicode="&#x11f;" horiz-adv-x="1253" d="M581 405 Q499 405 428 422 Q400 397 384 364.5 Q368 332 368 298 Q368 248 391.5 221.5 Q415 195 462.5 185 Q510 175 593 175 L811 175 Q1202 175 1202 -125 Q1202 -241 1119.5 -339 Q1037 -437 899 -494.5 Q761 -552 603 -552 L602 -552 Q334 -552 213 -470.5 Q92 -389 92 -240 Q92 -147 146.5 -71.5 Q201 4 278 43 Q181 98 181 211 Q181 286 224 349.5 Q267 413 337 452 Q237 498 183.5 582.5 Q130 667 130 780 Q130 898 197 986 Q264 1074 373 1120.5 Q482 1167 606 1168 L607 1168 Q715 1168 801 1143.5 Q887 1119 946 1071 Q976 1106 1036 1138 Q1096 1170 1177 1170 L1231 1170 L1231 976 L1021 976 Q1056 903 1056 815 Q1056 695 994 601.5 Q932 508 824 456.5 Q716 405 582 405 L581 405 Z M593 1051 Q485 1051 425.5 992.5 Q366 934 366 801 Q366 675 422.5 599.5 Q479 524 603 524 L604 524 Q718 524 769.5 592 Q821 660 821 791 Q821 925 765.5 988 Q710 1051 594 1051 L593 1051 Z M380 8 Q316 -71 316 -181 Q316 -301 387 -363 Q458 -425 620 -425 L622 -425 Q712 -425 794 -397 Q876 -369 927 -314 Q978 -259 978 -183 Q978 -118 958.5 -80.5 Q939 -43 887 -24 Q835 -5 736 -5 L535 -5 Q453 -5 380 8 Z M264 1693 Q264 1737 268 1753 L386 1753 Q386 1732 389 1716 Q399 1644 450.5 1587.5 Q502 1531 609 1531 Q715 1531 764 1587 Q813 1643 823 1716 Q826 1740 826 1753 L940 1753 Q941 1744 942.5 1725.5 Q944 1707 944 1694 Q944 1603 902 1524 Q860 1445 783 1398 Q706 1351 607 1351 Q504 1351 426 1398 Q348 1445 306 1523 Q264 1601 264 1693 Z " />
<glyph glyph-name="gcircumflex" unicode="&#x11d;" horiz-adv-x="1250" d="M515 1781 L695 1781 L976 1383 L886 1325 L605 1606 L309 1324 L227 1382 L515 1781 Z M578 405 Q496 405 425 422 Q397 397 381 364.5 Q365 332 365 298 Q365 248 388.5 221.5 Q412 195 459.5 185 Q507 175 590 175 L808 175 Q1199 175 1199 -125 Q1199 -241 1116.5 -339 Q1034 -437 896 -494.5 Q758 -552 600 -552 L599 -552 Q331 -552 210 -470.5 Q89 -389 89 -240 Q89 -147 143.5 -71.5 Q198 4 275 43 Q178 98 178 211 Q178 286 221 349.5 Q264 413 334 452 Q234 498 180.5 582.5 Q127 667 127 780 Q127 898 194 986 Q261 1074 370 1120.5 Q479 1167 603 1168 L604 1168 Q712 1168 798 1143.5 Q884 1119 943 1071 Q973 1106 1033 1138 Q1093 1170 1174 1170 L1228 1170 L1228 976 L1018 976 Q1053 903 1053 815 Q1053 695 991 601.5 Q929 508 821 456.5 Q713 405 579 405 L578 405 Z M590 1051 Q482 1051 422.5 992.5 Q363 934 363 801 Q363 675 419.5 599.5 Q476 524 600 524 L601 524 Q715 524 766.5 592 Q818 660 818 791 Q818 925 762.5 988 Q707 1051 591 1051 L590 1051 Z M377 8 Q313 -71 313 -181 Q313 -301 384 -363 Q455 -425 617 -425 L619 -425 Q709 -425 791 -397 Q873 -369 924 -314 Q975 -259 975 -183 Q975 -118 955.5 -80.5 Q936 -43 884 -24 Q832 -5 733 -5 L532 -5 Q450 -5 377 8 Z " />
<glyph glyph-name="gcommaaccent" unicode="&#x123;" horiz-adv-x="1247" d="M609 1773 L687 1734 L688 1716 Q661 1704 645 1666.5 Q629 1629 629 1588 Q629 1563 641 1547.5 Q653 1532 674 1518 Q693 1506 703.5 1486 Q714 1466 714 1431 Q714 1390 693 1366 Q672 1342 644 1332.5 Q616 1323 592 1323 L582 1323 Q517 1323 479.5 1365.5 Q442 1408 442 1485 Q442 1558 474.5 1622.5 Q507 1687 547.5 1728.5 Q588 1770 606 1773 L609 1773 Z M578 405 Q496 405 425 422 Q397 397 381 364.5 Q365 332 365 298 Q365 248 388.5 221.5 Q412 195 459.5 185 Q507 175 590 175 L808 175 Q1199 175 1199 -125 Q1199 -241 1116.5 -339 Q1034 -437 896 -494.5 Q758 -552 600 -552 L599 -552 Q331 -552 210 -470.5 Q89 -389 89 -240 Q89 -147 143.5 -71.5 Q198 4 275 43 Q178 98 178 211 Q178 286 221 349.5 Q264 413 334 452 Q234 498 180.5 582.5 Q127 667 127 780 Q127 898 194 986 Q261 1074 370 1120.5 Q479 1167 603 1168 L604 1168 Q712 1168 798 1143.5 Q884 1119 943 1071 Q973 1106 1033 1138 Q1093 1170 1174 1170 L1228 1170 L1228 976 L1018 976 Q1053 903 1053 815 Q1053 695 991 601.5 Q929 508 821 456.5 Q713 405 579 405 L578 405 Z M590 1051 Q482 1051 422.5 992.5 Q363 934 363 801 Q363 675 419.5 599.5 Q476 524 600 524 L601 524 Q715 524 766.5 592 Q818 660 818 791 Q818 925 762.5 988 Q707 1051 591 1051 L590 1051 Z M377 8 Q313 -71 313 -181 Q313 -301 384 -363 Q455 -425 617 -425 L619 -425 Q709 -425 791 -397 Q873 -369 924 -314 Q975 -259 975 -183 Q975 -118 955.5 -80.5 Q936 -43 884 -24 Q832 -5 733 -5 L532 -5 Q450 -5 377 8 Z " />
<glyph glyph-name="gdotaccent" unicode="&#x121;" horiz-adv-x="1253" d="M581 405 Q499 405 428 422 Q400 397 384 364.5 Q368 332 368 298 Q368 248 391.5 221.5 Q415 195 462.5 185 Q510 175 593 175 L811 175 Q1202 175 1202 -125 Q1202 -241 1119.5 -339 Q1037 -437 899 -494.5 Q761 -552 603 -552 L602 -552 Q334 -552 213 -470.5 Q92 -389 92 -240 Q92 -147 146.5 -71.5 Q201 4 278 43 Q181 98 181 211 Q181 286 224 349.5 Q267 413 337 452 Q237 498 183.5 582.5 Q130 667 130 780 Q130 898 197 986 Q264 1074 373 1120.5 Q482 1167 606 1168 L607 1168 Q715 1168 801 1143.5 Q887 1119 946 1071 Q976 1106 1036 1138 Q1096 1170 1177 1170 L1231 1170 L1231 976 L1021 976 Q1056 903 1056 815 Q1056 695 994 601.5 Q932 508 824 456.5 Q716 405 582 405 L581 405 Z M593 1051 Q485 1051 425.5 992.5 Q366 934 366 801 Q366 675 422.5 599.5 Q479 524 603 524 L604 524 Q718 524 769.5 592 Q821 660 821 791 Q821 925 765.5 988 Q710 1051 594 1051 L593 1051 Z M380 8 Q316 -71 316 -181 Q316 -301 387 -363 Q458 -425 620 -425 L622 -425 Q712 -425 794 -397 Q876 -369 927 -314 Q978 -259 978 -183 Q978 -118 958.5 -80.5 Q939 -43 887 -24 Q835 -5 736 -5 L535 -5 Q453 -5 380 8 Z M466 1489 Q466 1557 505.5 1604 Q545 1651 616 1651 L617 1651 Q659 1651 690 1631.5 Q721 1612 737.5 1580 Q754 1548 754 1512 Q754 1442 714 1397 Q674 1352 598 1352 L597 1352 Q539 1352 502.5 1391 Q466 1430 466 1489 Z " />
<glyph glyph-name="uni1E21" unicode="&#x1e21;" horiz-adv-x="1253" d="M581 405 Q499 405 428 422 Q400 397 384 364.5 Q368 332 368 298 Q368 248 391.5 221.5 Q415 195 462.5 185 Q510 175 593 175 L811 175 Q1202 175 1202 -125 Q1202 -241 1119.5 -339 Q1037 -437 899 -494.5 Q761 -552 603 -552 L602 -552 Q334 -552 213 -470.5 Q92 -389 92 -240 Q92 -147 146.5 -71.5 Q201 4 278 43 Q181 98 181 211 Q181 286 224 349.5 Q267 413 337 452 Q237 498 183.5 582.5 Q130 667 130 780 Q130 898 197 986 Q264 1074 373 1120.5 Q482 1167 606 1168 L607 1168 Q715 1168 801 1143.5 Q887 1119 946 1071 Q976 1106 1036 1138 Q1096 1170 1177 1170 L1231 1170 L1231 976 L1021 976 Q1056 903 1056 815 Q1056 695 994 601.5 Q932 508 824 456.5 Q716 405 582 405 L581 405 Z M593 1051 Q485 1051 425.5 992.5 Q366 934 366 801 Q366 675 422.5 599.5 Q479 524 603 524 L604 524 Q718 524 769.5 592 Q821 660 821 791 Q821 925 765.5 988 Q710 1051 594 1051 L593 1051 Z M380 8 Q316 -71 316 -181 Q316 -301 387 -363 Q458 -425 620 -425 L622 -425 Q712 -425 794 -397 Q876 -369 927 -314 Q978 -259 978 -183 Q978 -118 958.5 -80.5 Q939 -43 887 -24 Q835 -5 736 -5 L535 -5 Q453 -5 380 8 Z M885 1586 L885 1428 L327 1428 L327 1586 L885 1586 Z " />
<glyph glyph-name="h" unicode="h" horiz-adv-x="1356" d="M209 125 L209 1521 L44 1541 L44 1636 L383 1679 L388 1679 L436 1645 L437 1181 L428 1002 Q496 1062 606 1112.5 Q716 1163 832 1163 Q960 1163 1031.5 1114 Q1103 1065 1131.5 963.5 Q1160 862 1160 691 L1160 126 L1304 109 L1304 0 L801 0 L801 108 L932 125 L932 692 Q932 808 916.5 874.5 Q901 941 857 974.5 Q813 1008 728 1008 Q656 1008 577 978.5 Q498 949 438 904 L438 126 L580 109 L580 0 L89 0 L89 109 L209 125 Z " />
<glyph glyph-name="hbar" unicode="&#x127;" horiz-adv-x="1366" d="M207 1396 L207 1521 L42 1541 L42 1636 L381 1679 L386 1679 L434 1645 L434 1396 L687 1396 L687 1278 L435 1278 L435 1181 L426 1002 Q494 1062 604 1112.5 Q714 1163 830 1163 Q958 1163 1029.5 1114 Q1101 1065 1129.5 963.5 Q1158 862 1158 691 L1158 126 L1302 109 L1302 0 L799 0 L799 108 L930 125 L930 692 Q930 808 914.5 874.5 Q899 941 855 974.5 Q811 1008 726 1008 Q654 1008 575 978.5 Q496 949 436 904 L436 126 L578 109 L578 0 L87 0 L87 109 L207 125 L207 1278 L29 1278 L29 1396 L207 1396 Z " />
<glyph glyph-name="hcircumflex" unicode="&#x125;" horiz-adv-x="1356" d="M209 125 L209 1521 L44 1541 L44 1636 L383 1679 L388 1679 L436 1645 L437 1181 L428 1002 Q496 1062 606 1112.5 Q716 1163 832 1163 Q960 1163 1031.5 1114 Q1103 1065 1131.5 963.5 Q1160 862 1160 691 L1160 126 L1304 109 L1304 0 L801 0 L801 108 L932 125 L932 692 Q932 808 916.5 874.5 Q901 941 857 974.5 Q813 1008 728 1008 Q656 1008 577 978.5 Q498 949 438 904 L438 126 L580 109 L580 0 L89 0 L89 109 L209 125 Z M664 2013 L847 2013 L1121 1715 L1029 1654 L756 1856 L478 1654 L393 1713 L664 2013 Z " />
<glyph glyph-name="i" unicode="i" horiz-adv-x="685" d="M240 126 L240 964 L95 1005 L95 1123 L413 1164 L418 1164 L469 1125 L469 126 L629 109 L629 0 L78 0 L78 109 L240 126 Z M199 1489 Q199 1557 238.5 1604 Q278 1651 349 1651 L350 1651 Q392 1651 423 1631.5 Q454 1612 470.5 1580 Q487 1548 487 1512 Q487 1442 447 1397 Q407 1352 331 1352 L330 1352 Q272 1352 235.5 1391 Q199 1430 199 1489 Z " />
<glyph glyph-name="dotlessi" unicode="&#x131;" horiz-adv-x="685" d="M240 126 L240 964 L95 1005 L95 1123 L413 1164 L418 1164 L469 1125 L469 126 L629 109 L629 0 L78 0 L78 109 L240 126 Z " />
<glyph glyph-name="iacute" unicode="&#xed;" horiz-adv-x="685" d="M534 1814 L535 1814 L694 1675 Q668 1631 588 1556.5 Q508 1482 420 1417 Q332 1352 287 1334 L285 1334 L204 1408 L534 1814 Z M240 126 L240 964 L95 1005 L95 1123 L413 1164 L418 1164 L469 1125 L469 126 L629 109 L629 0 L78 0 L78 109 L240 126 Z " />
<glyph glyph-name="ibreve" unicode="&#x12d;" horiz-adv-x="685" d="M240 126 L240 964 L95 1005 L95 1123 L413 1164 L418 1164 L469 1125 L469 126 L629 109 L629 0 L78 0 L78 109 L240 126 Z M-3 1693 Q-3 1737 1 1753 L119 1753 Q119 1732 122 1716 Q132 1644 183.5 1587.5 Q235 1531 342 1531 Q448 1531 497 1587 Q546 1643 556 1716 Q559 1740 559 1753 L673 1753 Q674 1744 675.5 1725.5 Q677 1707 677 1694 Q677 1603 635 1524 Q593 1445 516 1398 Q439 1351 340 1351 Q237 1351 159 1398 Q81 1445 39 1523 Q-3 1601 -3 1693 Z " />
<glyph glyph-name="uni01D0" unicode="&#x1d0;" horiz-adv-x="685" d="M240 126 L240 964 L95 1005 L95 1123 L413 1164 L418 1164 L469 1125 L469 126 L629 109 L629 0 L78 0 L78 109 L240 126 Z M57 1799 L341 1517 L630 1800 L713 1740 L430 1342 L250 1342 L-32 1739 L57 1799 Z " />
<glyph glyph-name="icircumflex" unicode="&#xee;" horiz-adv-x="685" d="M249 1781 L429 1781 L710 1383 L620 1325 L339 1606 L43 1324 L-39 1382 L249 1781 Z M240 126 L240 964 L95 1005 L95 1123 L413 1164 L418 1164 L469 1125 L469 126 L629 109 L629 0 L78 0 L78 109 L240 126 Z " />
<glyph glyph-name="idieresis" unicode="&#xef;" horiz-adv-x="685" d="M-30 1492 Q-30 1559 8 1605.5 Q46 1652 117 1652 L118 1652 Q179 1652 214.5 1611 Q250 1570 250 1514 Q250 1444 210.5 1399.5 Q171 1355 97 1355 L96 1355 Q39 1355 4.5 1394 Q-30 1433 -30 1492 Z M438 1492 Q438 1559 476.5 1605.5 Q515 1652 585 1652 L586 1652 Q648 1652 683.5 1611 Q719 1570 719 1514 Q719 1444 679.5 1399.5 Q640 1355 564 1355 L563 1355 Q508 1355 473 1395 Q438 1435 438 1492 Z M240 126 L240 964 L95 1005 L95 1123 L413 1164 L418 1164 L469 1125 L469 126 L629 109 L629 0 L78 0 L78 109 L240 126 Z " />
<glyph glyph-name="igrave" unicode="&#xec;" horiz-adv-x="685" d="M240 126 L240 964 L95 1005 L95 1123 L413 1164 L418 1164 L469 1125 L469 126 L629 109 L629 0 L78 0 L78 109 L240 126 Z M144 1814 L145 1814 L475 1408 L393 1334 L392 1334 Q348 1350 260.5 1415 Q173 1480 92 1555 Q11 1630 -15 1675 L144 1814 Z " />
<glyph glyph-name="ij" unicode="&#x133;" horiz-adv-x="1341" d="M240 126 L240 964 L95 1005 L95 1123 L413 1164 L418 1164 L469 1125 L469 126 L629 109 L629 0 L78 0 L78 109 L240 126 Z M199 1489 Q199 1557 238.5 1604 Q278 1651 349 1651 L350 1651 Q392 1651 423 1631.5 Q454 1612 470.5 1580 Q487 1548 487 1512 Q487 1442 447 1397 Q407 1352 331 1352 L330 1352 Q272 1352 235.5 1391 Q199 1430 199 1489 Z M775 998 L777 1123 L1094 1164 L1099 1164 L1149 1125 L1149 18 Q1149 -144 1101 -256.5 Q1053 -369 973.5 -428 Q894 -487 798 -498 Q793 -499 775 -499 Q748 -499 718 -496.5 Q688 -494 680 -490 L669 -382 Q684 -384 716.5 -378 Q749 -372 778 -361 Q859 -331 891 -223 Q923 -115 923 60 L921 957 L775 998 Z M879 1489 Q879 1557 918.5 1604 Q958 1651 1029 1651 L1030 1651 Q1072 1651 1103 1631.5 Q1134 1612 1150.5 1580 Q1167 1548 1167 1512 Q1167 1442 1127 1397 Q1087 1352 1011 1352 L1010 1352 Q952 1352 915.5 1391 Q879 1430 879 1489 Z " />
<glyph glyph-name="imacron" unicode="&#x12b;" horiz-adv-x="685" d="M240 126 L240 964 L95 1005 L95 1123 L413 1164 L418 1164 L469 1125 L469 126 L629 109 L629 0 L78 0 L78 109 L240 126 Z M618 1586 L618 1428 L60 1428 L60 1586 L618 1586 Z " />
<glyph glyph-name="iogonek" unicode="&#x12f;" horiz-adv-x="685" d="M197 1489 Q197 1557 236.5 1604 Q276 1651 347 1651 L348 1651 Q390 1651 421 1631.5 Q452 1612 468.5 1580 Q485 1548 485 1512 Q485 1442 445 1397 Q405 1352 329 1352 L328 1352 Q270 1352 233.5 1391 Q197 1430 197 1489 Z M240 126 L240 964 L95 1005 L95 1123 L413 1164 L418 1164 L469 1125 L469 126 L629 109 L629 0 L473 0 Q409 -23 353 -66 Q297 -109 264 -157.5 Q231 -206 231 -247 Q231 -308 271.5 -336.5 Q312 -365 381 -365 Q447 -365 523 -332 L523 -442 Q480 -474 414 -492.5 Q348 -511 284 -511 Q173 -511 97.5 -462.5 Q22 -414 22 -315 Q22 -261 56.5 -199 Q91 -137 148.5 -84 Q206 -31 272 0 L78 0 L78 109 L240 126 Z " />
<glyph glyph-name="itilde" unicode="&#x129;" horiz-adv-x="685" d="M240 126 L240 964 L95 1005 L95 1123 L413 1164 L418 1164 L469 1125 L469 126 L629 109 L629 0 L78 0 L78 109 L240 126 Z M-87 1448 Q-72 1496 -32 1545.5 Q8 1595 68 1628.5 Q128 1662 200 1662 Q242 1662 276.5 1648.5 Q311 1635 335.5 1616.5 Q360 1598 394 1567 Q435 1530 462 1513 Q489 1496 523 1496 Q565 1496 594.5 1516 Q624 1536 638 1557 Q652 1578 671 1613 L769 1551 Q734 1459 667 1397.5 Q600 1336 501 1336 Q460 1336 426 1349 Q392 1362 367 1380 Q342 1398 307 1428 Q264 1466 233.5 1484.5 Q203 1503 165 1503 Q124 1503 93.5 1483 Q63 1463 47.5 1442.5 Q32 1422 10 1386 L-87 1448 Z " />
<glyph glyph-name="j" unicode="j" horiz-adv-x="656" d="M90 998 L92 1123 L409 1164 L414 1164 L464 1125 L464 18 Q464 -144 416 -256.5 Q368 -369 288.5 -428 Q209 -487 113 -498 Q108 -499 90 -499 Q63 -499 33 -496.5 Q3 -494 -5 -490 L-16 -382 Q-1 -384 31.5 -378 Q64 -372 93 -361 Q174 -331 206 -223 Q238 -115 238 60 L236 957 L90 998 Z M194 1489 Q194 1557 233.5 1604 Q273 1651 344 1651 L345 1651 Q387 1651 418 1631.5 Q449 1612 465.5 1580 Q482 1548 482 1512 Q482 1442 442 1397 Q402 1352 326 1352 L325 1352 Q267 1352 230.5 1391 Q194 1430 194 1489 Z " />
<glyph glyph-name="uni0237" unicode="&#x237;" horiz-adv-x="656" d="M90 998 L92 1123 L409 1164 L414 1164 L464 1125 L464 18 Q464 -144 416 -256.5 Q368 -369 288.5 -428 Q209 -487 113 -498 Q108 -499 90 -499 Q63 -499 33 -496.5 Q3 -494 -5 -490 L-16 -382 Q-1 -384 31.5 -378 Q64 -372 93 -361 Q174 -331 206 -223 Q238 -115 238 60 L236 957 L90 998 Z " />
<glyph glyph-name="jcircumflex" unicode="&#x135;" horiz-adv-x="656" d="M90 998 L92 1123 L409 1164 L414 1164 L464 1125 L464 18 Q464 -144 416 -256.5 Q368 -369 288.5 -428 Q209 -487 113 -498 Q108 -499 90 -499 Q63 -499 33 -496.5 Q3 -494 -5 -490 L-16 -382 Q-1 -384 31.5 -378 Q64 -372 93 -361 Q174 -331 206 -223 Q238 -115 238 60 L236 957 L90 998 Z M244 1781 L424 1781 L705 1383 L615 1325 L334 1606 L38 1324 L-44 1382 L244 1781 Z " />
<glyph glyph-name="k" unicode="k" horiz-adv-x="1242" d="M208 126 L208 1521 L52 1541 L52 1636 L385 1679 L388 1679 L436 1645 L436 655 L432 541 L878 1006 L717 1035 L717 1137 L1226 1137 L1226 1035 L1069 1001 L778 717 L1170 126 L1290 109 L1290 0 L789 0 L789 108 L909 127 L627 584 L431 390 L436 284 L436 126 L580 108 L580 0 L77 0 L77 109 L208 126 Z " />
<glyph glyph-name="kcommaaccent" unicode="&#x137;" horiz-adv-x="1242" d="M658 -560 L580 -521 L579 -503 Q606 -491 622 -453.5 Q638 -416 638 -375 Q638 -350 626 -334.5 Q614 -319 593 -305 Q574 -293 563.5 -273 Q553 -253 553 -218 Q553 -177 574 -153 Q595 -129 623 -119.5 Q651 -110 675 -110 L685 -110 Q750 -110 787.5 -152.5 Q825 -195 825 -272 Q825 -345 792.5 -409.5 Q760 -474 719.5 -515.5 Q679 -557 661 -560 L658 -560 Z M208 126 L208 1521 L52 1541 L52 1636 L385 1679 L388 1679 L436 1645 L436 655 L432 541 L878 1006 L717 1035 L717 1137 L1226 1137 L1226 1035 L1069 1001 L778 717 L1170 126 L1290 109 L1290 0 L789 0 L789 108 L909 127 L627 584 L431 390 L436 284 L436 126 L580 108 L580 0 L77 0 L77 109 L208 126 Z " />
<glyph glyph-name="kgreenlandic" unicode="&#x138;" horiz-adv-x="1370" d="M245 125 L245 964 L103 1004 L103 1124 L415 1164 L420 1164 L474 1125 L474 714 L469 541 L926 1001 L765 1027 L765 1135 L1280 1135 L1280 1027 L1138 1008 L823 704 L1217 126 L1345 108 L1345 0 L852 0 L852 107 L953 126 L672 569 L470 383 L474 281 L474 125 L631 107 L631 0 L86 0 L86 108 L245 125 Z " />
<glyph glyph-name="l" unicode="l" horiz-adv-x="688" d="M235 126 L235 1521 L71 1541 L71 1636 L412 1679 L414 1679 L463 1645 L463 126 L633 109 L633 0 L73 0 L73 109 L235 126 Z " />
<glyph glyph-name="lacute" unicode="&#x13a;" horiz-adv-x="689" d="M506 2012 L507 2012 L660 1885 Q624 1838 547 1785.5 Q470 1733 387 1690.5 Q304 1648 256 1633 L255 1633 L175 1701 L506 2012 Z M235 124 L235 1374 L71 1391 L71 1486 L412 1529 L415 1529 L464 1495 L464 124 L634 108 L634 0 L73 0 L73 108 L235 124 Z " />
<glyph glyph-name="lcaron" unicode="&#x13e;" horiz-adv-x="863" d="M235 126 L235 1521 L71 1541 L71 1636 L412 1679 L414 1679 L463 1645 L463 126 L633 109 L633 0 L73 0 L73 109 L235 126 Z M672 1085 Q705 1201 705 1347 Q705 1433 688 1506.5 Q671 1580 652 1605 L666 1645 L834 1685 Q862 1657 879.5 1588 Q897 1519 897 1440 Q897 1356 879 1271 Q861 1186 832 1121 Q803 1056 772 1027 L676 1061 L672 1085 Z " />
<glyph glyph-name="lcommaaccent" unicode="&#x13c;" horiz-adv-x="688" d="M345 -560 L267 -521 L266 -503 Q293 -491 309 -453.5 Q325 -416 325 -375 Q325 -350 313 -334.5 Q301 -319 280 -305 Q261 -293 250.5 -273 Q240 -253 240 -218 Q240 -177 261 -153 Q282 -129 310 -119.5 Q338 -110 362 -110 L372 -110 Q437 -110 474.5 -152.5 Q512 -195 512 -272 Q512 -345 479.5 -409.5 Q447 -474 406.5 -515.5 Q366 -557 348 -560 L345 -560 Z M235 126 L235 1521 L71 1541 L71 1636 L412 1679 L414 1679 L463 1645 L463 126 L633 109 L633 0 L73 0 L73 109 L235 126 Z " />
<glyph glyph-name="ldot" unicode="&#x140;" horiz-adv-x="1050" d="M235 126 L235 1521 L71 1541 L71 1636 L412 1679 L414 1679 L463 1645 L463 126 L633 109 L633 0 L73 0 L73 109 L235 126 Z M713 726 Q713 770 736.5 806.5 Q760 843 798 864 Q836 885 878 885 Q947 885 983.5 846 Q1020 807 1020 749 Q1020 702 997.5 665.5 Q975 629 936.5 609.5 Q898 590 853 590 Q816 590 784 607 Q752 624 732.5 655 Q713 686 713 726 Z " />
<glyph glyph-name="uni01C9" unicode="&#x1c9;" horiz-adv-x="1344" d="M235 126 L235 1521 L71 1541 L71 1636 L412 1679 L414 1679 L463 1645 L463 126 L633 109 L633 0 L73 0 L73 109 L235 126 Z M778 998 L780 1123 L1097 1164 L1102 1164 L1152 1125 L1152 18 Q1152 -144 1104 -256.5 Q1056 -369 976.5 -428 Q897 -487 801 -498 Q796 -499 778 -499 Q751 -499 721 -496.5 Q691 -494 683 -490 L672 -382 Q687 -384 719.5 -378 Q752 -372 781 -361 Q862 -331 894 -223 Q926 -115 926 60 L924 957 L778 998 Z M882 1489 Q882 1557 921.5 1604 Q961 1651 1032 1651 L1033 1651 Q1075 1651 1106 1631.5 Q1137 1612 1153.5 1580 Q1170 1548 1170 1512 Q1170 1442 1130 1397 Q1090 1352 1014 1352 L1013 1352 Q955 1352 918.5 1391 Q882 1430 882 1489 Z " />
<glyph glyph-name="lslash" unicode="&#x142;" horiz-adv-x="713" d="M246 841 L246 1521 L82 1541 L82 1636 L423 1679 L425 1679 L474 1645 L474 940 L693 1044 L693 901 L474 801 L474 126 L644 109 L644 0 L84 0 L84 109 L246 126 L246 704 L37 608 L37 742 L246 841 Z " />
<glyph glyph-name="m" unicode="m" horiz-adv-x="2054" d="M233 125 L233 964 L90 1004 L90 1124 L385 1164 L390 1164 L438 1125 L438 1044 L436 998 Q481 1039 552.5 1077 Q624 1115 703.5 1139 Q783 1163 848 1163 Q958 1163 1025 1126 Q1092 1089 1127 1011 Q1166 1045 1234.5 1080.5 Q1303 1116 1381 1139.5 Q1459 1163 1526 1163 Q1656 1163 1728 1114.5 Q1800 1066 1829 965.5 Q1858 865 1858 694 L1858 125 L2001 108 L2001 0 L1511 0 L1511 108 L1629 126 L1629 687 Q1629 804 1612 872 Q1595 940 1548 974.5 Q1501 1009 1413 1009 Q1352 1009 1280 981 Q1208 953 1156 916 Q1174 830 1174 691 L1174 126 L1320 108 L1320 0 L812 0 L812 108 L945 126 L945 692 Q945 809 930 875 Q915 941 871.5 974.5 Q828 1008 744 1008 Q674 1008 597 978 Q520 948 462 904 L462 126 L596 108 L596 0 L108 0 L108 108 L233 125 Z " />
<glyph glyph-name="uni1E41" unicode="&#x1e41;" horiz-adv-x="2054" d="M233 125 L233 964 L90 1004 L90 1124 L385 1164 L390 1164 L438 1125 L438 1044 L436 998 Q481 1039 552.5 1077 Q624 1115 703.5 1139 Q783 1163 848 1163 Q958 1163 1025 1126 Q1092 1089 1127 1011 Q1166 1045 1234.5 1080.5 Q1303 1116 1381 1139.5 Q1459 1163 1526 1163 Q1656 1163 1728 1114.5 Q1800 1066 1829 965.5 Q1858 865 1858 694 L1858 125 L2001 108 L2001 0 L1511 0 L1511 108 L1629 126 L1629 687 Q1629 804 1612 872 Q1595 940 1548 974.5 Q1501 1009 1413 1009 Q1352 1009 1280 981 Q1208 953 1156 916 Q1174 830 1174 691 L1174 126 L1320 108 L1320 0 L812 0 L812 108 L945 126 L945 692 Q945 809 930 875 Q915 941 871.5 974.5 Q828 1008 744 1008 Q674 1008 597 978 Q520 948 462 904 L462 126 L596 108 L596 0 L108 0 L108 108 L233 125 Z M885 1489 Q885 1557 924.5 1604 Q964 1651 1035 1651 L1036 1651 Q1078 1651 1109 1631.5 Q1140 1612 1156.5 1580 Q1173 1548 1173 1512 Q1173 1442 1133 1397 Q1093 1352 1017 1352 L1016 1352 Q958 1352 921.5 1391 Q885 1430 885 1489 Z " />
<glyph glyph-name="n" unicode="n" horiz-adv-x="1375" d="M233 126 L233 964 L90 1004 L90 1124 L386 1164 L391 1164 L438 1125 L438 1044 L437 998 Q483 1039 552.5 1077 Q622 1115 701.5 1139 Q781 1163 852 1163 Q982 1163 1053 1114.5 Q1124 1066 1152 965 Q1180 864 1180 691 L1180 126 L1324 109 L1324 0 L822 0 L822 109 L950 126 L950 692 Q950 808 934.5 874.5 Q919 941 876 974.5 Q833 1008 749 1008 Q677 1008 599 977 Q521 946 462 902 L462 126 L600 109 L600 0 L102 0 L102 109 L233 126 Z " />
<glyph glyph-name="nacute" unicode="&#x144;" horiz-adv-x="1375" d="M233 126 L233 964 L90 1004 L90 1124 L386 1164 L391 1164 L438 1125 L438 1044 L437 998 Q483 1039 552.5 1077 Q622 1115 701.5 1139 Q781 1163 852 1163 Q982 1163 1053 1114.5 Q1124 1066 1152 965 Q1180 864 1180 691 L1180 126 L1324 109 L1324 0 L822 0 L822 109 L950 126 L950 692 Q950 808 934.5 874.5 Q919 941 876 974.5 Q833 1008 749 1008 Q677 1008 599 977 Q521 946 462 902 L462 126 L600 109 L600 0 L102 0 L102 109 L233 126 Z M892 1814 L893 1814 L1052 1675 Q1026 1631 946 1556.5 Q866 1482 778 1417 Q690 1352 645 1334 L643 1334 L562 1408 L892 1814 Z " />
<glyph glyph-name="napostrophe" unicode="&#x149;" horiz-adv-x="1688" d="M336 1431 Q336 1307 293 1199 Q250 1091 189.5 1017.5 Q129 944 77 916 L75 916 L13 977 L13 1001 Q62 1040 104.5 1123.5 Q147 1207 147 1330 Q147 1375 136 1409.5 Q125 1444 110 1467 Q95 1490 70 1521 Q40 1555 25.5 1582 Q11 1609 11 1647 Q11 1705 44 1738 Q77 1771 129 1771 L130 1771 Q186 1771 233.5 1723 Q281 1675 308.5 1596.5 Q336 1518 336 1431 Z M533 126 L533 964 L390 1004 L390 1124 L686 1164 L691 1164 L738 1125 L738 1044 L737 998 Q783 1039 852.5 1077 Q922 1115 1001.5 1139 Q1081 1163 1152 1163 Q1282 1163 1353 1114.5 Q1424 1066 1452 965 Q1480 864 1480 691 L1480 126 L1624 109 L1624 0 L1122 0 L1122 109 L1250 126 L1250 692 Q1250 808 1234.5 874.5 Q1219 941 1176 974.5 Q1133 1008 1049 1008 Q977 1008 899 977 Q821 946 762 902 L762 126 L900 109 L900 0 L402 0 L402 109 L533 126 Z " />
<glyph glyph-name="ncaron" unicode="&#x148;" horiz-adv-x="1375" d="M233 126 L233 964 L90 1004 L90 1124 L386 1164 L391 1164 L438 1125 L438 1044 L437 998 Q483 1039 552.5 1077 Q622 1115 701.5 1139 Q781 1163 852 1163 Q982 1163 1053 1114.5 Q1124 1066 1152 965 Q1180 864 1180 691 L1180 126 L1324 109 L1324 0 L822 0 L822 109 L950 126 L950 692 Q950 808 934.5 874.5 Q919 941 876 974.5 Q833 1008 749 1008 Q677 1008 599 977 Q521 946 462 902 L462 126 L600 109 L600 0 L102 0 L102 109 L233 126 Z M416 1799 L700 1517 L989 1800 L1072 1740 L789 1342 L609 1342 L327 1739 L416 1799 Z " />
<glyph glyph-name="ncommaaccent" unicode="&#x146;" horiz-adv-x="1375" d="M233 126 L233 964 L90 1004 L90 1124 L386 1164 L391 1164 L438 1125 L438 1044 L437 998 Q483 1039 552.5 1077 Q622 1115 701.5 1139 Q781 1163 852 1163 Q982 1163 1053 1114.5 Q1124 1066 1152 965 Q1180 864 1180 691 L1180 126 L1324 109 L1324 0 L822 0 L822 109 L950 126 L950 692 Q950 808 934.5 874.5 Q919 941 876 974.5 Q833 1008 749 1008 Q677 1008 599 977 Q521 946 462 902 L462 126 L600 109 L600 0 L102 0 L102 109 L233 126 Z M697 -560 L619 -521 L618 -503 Q645 -491 661 -453.5 Q677 -416 677 -375 Q677 -350 665 -334.5 Q653 -319 632 -305 Q613 -293 602.5 -273 Q592 -253 592 -218 Q592 -177 613 -153 Q634 -129 662 -119.5 Q690 -110 714 -110 L724 -110 Q789 -110 826.5 -152.5 Q864 -195 864 -272 Q864 -345 831.5 -409.5 Q799 -474 758.5 -515.5 Q718 -557 700 -560 L697 -560 Z " />
<glyph glyph-name="uni1E45" unicode="&#x1e45;" horiz-adv-x="1375" d="M233 126 L233 964 L90 1004 L90 1124 L386 1164 L391 1164 L438 1125 L438 1044 L437 998 Q483 1039 552.5 1077 Q622 1115 701.5 1139 Q781 1163 852 1163 Q982 1163 1053 1114.5 Q1124 1066 1152 965 Q1180 864 1180 691 L1180 126 L1324 109 L1324 0 L822 0 L822 109 L950 126 L950 692 Q950 808 934.5 874.5 Q919 941 876 974.5 Q833 1008 749 1008 Q677 1008 599 977 Q521 946 462 902 L462 126 L600 109 L600 0 L102 0 L102 109 L233 126 Z M558 1489 Q558 1557 597.5 1604 Q637 1651 708 1651 L709 1651 Q751 1651 782 1631.5 Q813 1612 829.5 1580 Q846 1548 846 1512 Q846 1442 806 1397 Q766 1352 690 1352 L689 1352 Q631 1352 594.5 1391 Q558 1430 558 1489 Z " />
<glyph glyph-name="eng" unicode="&#x14b;" horiz-adv-x="1383" d="M241 126 L241 968 L99 1009 L99 1129 L394 1168 L399 1168 L446 1129 L446 1060 L445 1002 Q491 1044 560.5 1081.5 Q630 1119 709 1142.5 Q788 1166 859 1166 Q989 1166 1060 1119.5 Q1131 1073 1159.5 974.5 Q1188 876 1188 704 L1188 22 Q1188 -231 1095 -365.5 Q1002 -500 826 -510 Q807 -511 765.5 -509 Q724 -507 717 -502 L707 -394 Q722 -396 757 -389.5 Q792 -383 816 -374 Q898 -346 927.5 -238.5 Q957 -131 957 46 L957 704 Q957 819 942 883 Q927 947 884 978.5 Q841 1010 756 1010 Q685 1010 607.5 980 Q530 950 470 904 L470 126 L607 108 L607 0 L110 0 L110 109 L241 126 Z " />
<glyph glyph-name="uni01CC" unicode="&#x1cc;" horiz-adv-x="2031" d="M233 126 L233 964 L90 1004 L90 1124 L386 1164 L391 1164 L438 1125 L438 1044 L437 998 Q483 1039 552.5 1077 Q622 1115 701.5 1139 Q781 1163 852 1163 Q982 1163 1053 1114.5 Q1124 1066 1152 965 Q1180 864 1180 691 L1180 126 L1324 109 L1324 0 L822 0 L822 109 L950 126 L950 692 Q950 808 934.5 874.5 Q919 941 876 974.5 Q833 1008 749 1008 Q677 1008 599 977 Q521 946 462 902 L462 126 L600 109 L600 0 L102 0 L102 109 L233 126 Z M1465 998 L1467 1123 L1784 1164 L1789 1164 L1839 1125 L1839 18 Q1839 -144 1791 -256.5 Q1743 -369 1663.5 -428 Q1584 -487 1488 -498 Q1483 -499 1465 -499 Q1438 -499 1408 -496.5 Q1378 -494 1370 -490 L1359 -382 Q1374 -384 1406.5 -378 Q1439 -372 1468 -361 Q1549 -331 1581 -223 Q1613 -115 1613 60 L1611 957 L1465 998 Z M1569 1489 Q1569 1557 1608.5 1604 Q1648 1651 1719 1651 L1720 1651 Q1762 1651 1793 1631.5 Q1824 1612 1840.5 1580 Q1857 1548 1857 1512 Q1857 1442 1817 1397 Q1777 1352 1701 1352 L1700 1352 Q1642 1352 1605.5 1391 Q1569 1430 1569 1489 Z " />
<glyph glyph-name="ntilde" unicode="&#xf1;" horiz-adv-x="1375" d="M233 126 L233 964 L90 1004 L90 1124 L386 1164 L391 1164 L438 1125 L438 1044 L437 998 Q483 1039 552.5 1077 Q622 1115 701.5 1139 Q781 1163 852 1163 Q982 1163 1053 1114.5 Q1124 1066 1152 965 Q1180 864 1180 691 L1180 126 L1324 109 L1324 0 L822 0 L822 109 L950 126 L950 692 Q950 808 934.5 874.5 Q919 941 876 974.5 Q833 1008 749 1008 Q677 1008 599 977 Q521 946 462 902 L462 126 L600 109 L600 0 L102 0 L102 109 L233 126 Z M272 1448 Q287 1496 327 1545.5 Q367 1595 427 1628.5 Q487 1662 559 1662 Q601 1662 635.5 1648.5 Q670 1635 694.5 1616.5 Q719 1598 753 1567 Q794 1530 821 1513 Q848 1496 882 1496 Q924 1496 953.5 1516 Q983 1536 997 1557 Q1011 1578 1030 1613 L1128 1551 Q1093 1459 1026 1397.5 Q959 1336 860 1336 Q819 1336 785 1349 Q751 1362 726 1380 Q701 1398 666 1428 Q623 1466 592.5 1484.5 Q562 1503 524 1503 Q483 1503 452.5 1483 Q422 1463 406.5 1442.5 Q391 1422 369 1386 L272 1448 Z " />
<glyph glyph-name="o" unicode="o" horiz-adv-x="1218" d="M621 1168 Q795 1168 911 1091 Q1027 1014 1083 879.5 Q1139 745 1139 572 Q1139 387 1062.5 252 Q986 117 861.5 47 Q737 -23 596 -23 Q422 -23 306.5 54 Q191 131 135 265.5 Q79 400 79 573 Q79 756 155.5 891 Q232 1026 356.5 1097 Q481 1168 621 1168 Z M886 554 Q886 779 819.5 911.5 Q753 1044 609 1044 Q471 1044 401 930.5 Q331 817 331 591 Q331 366 398.5 233.5 Q466 101 609 101 Q886 101 886 554 Z " />
<glyph glyph-name="oacute" unicode="&#xf3;" horiz-adv-x="1218" d="M809 1814 L810 1814 L969 1675 Q943 1631 863 1556.5 Q783 1482 695 1417 Q607 1352 562 1334 L560 1334 L479 1408 L809 1814 Z M621 1168 Q795 1168 911 1091 Q1027 1014 1083 879.5 Q1139 745 1139 572 Q1139 387 1062.5 252 Q986 117 861.5 47 Q737 -23 596 -23 Q422 -23 306.5 54 Q191 131 135 265.5 Q79 400 79 573 Q79 756 155.5 891 Q232 1026 356.5 1097 Q481 1168 621 1168 Z M886 554 Q886 779 819.5 911.5 Q753 1044 609 1044 Q471 1044 401 930.5 Q331 817 331 591 Q331 366 398.5 233.5 Q466 101 609 101 Q886 101 886 554 Z " />
<glyph glyph-name="obreve" unicode="&#x14f;" horiz-adv-x="1218" d="M621 1168 Q795 1168 911 1091 Q1027 1014 1083 879.5 Q1139 745 1139 572 Q1139 387 1062.5 252 Q986 117 861.5 47 Q737 -23 596 -23 Q422 -23 306.5 54 Q191 131 135 265.5 Q79 400 79 573 Q79 756 155.5 891 Q232 1026 356.5 1097 Q481 1168 621 1168 Z M886 554 Q886 779 819.5 911.5 Q753 1044 609 1044 Q471 1044 401 930.5 Q331 817 331 591 Q331 366 398.5 233.5 Q466 101 609 101 Q886 101 886 554 Z M273 1693 Q273 1737 277 1753 L395 1753 Q395 1732 398 1716 Q408 1644 459.5 1587.5 Q511 1531 618 1531 Q724 1531 773 1587 Q822 1643 832 1716 Q835 1740 835 1753 L949 1753 Q950 1744 951.5 1725.5 Q953 1707 953 1694 Q953 1603 911 1524 Q869 1445 792 1398 Q715 1351 616 1351 Q513 1351 435 1398 Q357 1445 315 1523 Q273 1601 273 1693 Z " />
<glyph glyph-name="uni01D2" unicode="&#x1d2;" horiz-adv-x="1218" d="M621 1168 Q795 1168 911 1091 Q1027 1014 1083 879.5 Q1139 745 1139 572 Q1139 387 1062.5 252 Q986 117 861.5 47 Q737 -23 596 -23 Q422 -23 306.5 54 Q191 131 135 265.5 Q79 400 79 573 Q79 756 155.5 891 Q232 1026 356.5 1097 Q481 1168 621 1168 Z M886 554 Q886 779 819.5 911.5 Q753 1044 609 1044 Q471 1044 401 930.5 Q331 817 331 591 Q331 366 398.5 233.5 Q466 101 609 101 Q886 101 886 554 Z M333 1799 L617 1517 L906 1800 L989 1740 L706 1342 L526 1342 L244 1739 L333 1799 Z " />
<glyph glyph-name="ocircumflex" unicode="&#xf4;" horiz-adv-x="1218" d="M526 1781 L706 1781 L987 1383 L897 1325 L616 1606 L320 1324 L238 1382 L526 1781 Z M621 1168 Q795 1168 911 1091 Q1027 1014 1083 879.5 Q1139 745 1139 572 Q1139 387 1062.5 252 Q986 117 861.5 47 Q737 -23 596 -23 Q422 -23 306.5 54 Q191 131 135 265.5 Q79 400 79 573 Q79 756 155.5 891 Q232 1026 356.5 1097 Q481 1168 621 1168 Z M886 554 Q886 779 819.5 911.5 Q753 1044 609 1044 Q471 1044 401 930.5 Q331 817 331 591 Q331 366 398.5 233.5 Q466 101 609 101 Q886 101 886 554 Z " />
<glyph glyph-name="odieresis" unicode="&#xf6;" horiz-adv-x="1218" d="M245 1492 Q245 1559 283 1605.5 Q321 1652 392 1652 L393 1652 Q454 1652 489.5 1611 Q525 1570 525 1514 Q525 1444 485.5 1399.5 Q446 1355 372 1355 L371 1355 Q314 1355 279.5 1394 Q245 1433 245 1492 Z M713 1492 Q713 1559 751.5 1605.5 Q790 1652 860 1652 L861 1652 Q923 1652 958.5 1611 Q994 1570 994 1514 Q994 1444 954.5 1399.5 Q915 1355 839 1355 L838 1355 Q783 1355 748 1395 Q713 1435 713 1492 Z M621 1168 Q795 1168 911 1091 Q1027 1014 1083 879.5 Q1139 745 1139 572 Q1139 387 1062.5 252 Q986 117 861.5 47 Q737 -23 596 -23 Q422 -23 306.5 54 Q191 131 135 265.5 Q79 400 79 573 Q79 756 155.5 891 Q232 1026 356.5 1097 Q481 1168 621 1168 Z M886 554 Q886 779 819.5 911.5 Q753 1044 609 1044 Q471 1044 401 930.5 Q331 817 331 591 Q331 366 398.5 233.5 Q466 101 609 101 Q886 101 886 554 Z " />
<glyph glyph-name="ograve" unicode="&#xf2;" horiz-adv-x="1218" d="M621 1168 Q795 1168 911 1091 Q1027 1014 1083 879.5 Q1139 745 1139 572 Q1139 387 1062.5 252 Q986 117 861.5 47 Q737 -23 596 -23 Q422 -23 306.5 54 Q191 131 135 265.5 Q79 400 79 573 Q79 756 155.5 891 Q232 1026 356.5 1097 Q481 1168 621 1168 Z M886 554 Q886 779 819.5 911.5 Q753 1044 609 1044 Q471 1044 401 930.5 Q331 817 331 591 Q331 366 398.5 233.5 Q466 101 609 101 Q886 101 886 554 Z M420 1814 L421 1814 L751 1408 L669 1334 L668 1334 Q624 1350 536.5 1415 Q449 1480 368 1555 Q287 1630 261 1675 L420 1814 Z " />
<glyph glyph-name="ohungarumlaut" unicode="&#x151;" horiz-adv-x="1218" d="M583 1813 L728 1689 Q697 1640 624.5 1571 Q552 1502 471.5 1438.5 Q391 1375 342 1345 L266 1408 L583 1813 Z M1078 1810 L1216 1689 Q1190 1644 1116.5 1574 Q1043 1504 959.5 1438.5 Q876 1373 827 1345 L751 1409 L1078 1810 Z M621 1168 Q795 1168 911 1091 Q1027 1014 1083 879.5 Q1139 745 1139 572 Q1139 387 1062.5 252 Q986 117 861.5 47 Q737 -23 596 -23 Q422 -23 306.5 54 Q191 131 135 265.5 Q79 400 79 573 Q79 756 155.5 891 Q232 1026 356.5 1097 Q481 1168 621 1168 Z M886 554 Q886 779 819.5 911.5 Q753 1044 609 1044 Q471 1044 401 930.5 Q331 817 331 591 Q331 366 398.5 233.5 Q466 101 609 101 Q886 101 886 554 Z " />
<glyph glyph-name="omacron" unicode="&#x14d;" horiz-adv-x="1218" d="M894 1586 L894 1428 L336 1428 L336 1586 L894 1586 Z M621 1168 Q795 1168 911 1091 Q1027 1014 1083 879.5 Q1139 745 1139 572 Q1139 387 1062.5 252 Q986 117 861.5 47 Q737 -23 596 -23 Q422 -23 306.5 54 Q191 131 135 265.5 Q79 400 79 573 Q79 756 155.5 891 Q232 1026 356.5 1097 Q481 1168 621 1168 Z M886 554 Q886 779 819.5 911.5 Q753 1044 609 1044 Q471 1044 401 930.5 Q331 817 331 591 Q331 366 398.5 233.5 Q466 101 609 101 Q886 101 886 554 Z " />
<glyph glyph-name="oslash" unicode="&#xf8;" horiz-adv-x="1218" d="M621 1168 Q699 1168 769 1151 L838 1346 L934 1320 L866 1116 Q1003 1049 1071 906 Q1139 763 1139 572 Q1139 387 1062.5 252 Q986 117 861.5 47 Q737 -23 596 -23 Q522 -23 459 -8 L380 -218 L279 -189 L359 25 Q219 90 149 234 Q79 378 79 573 Q79 756 155.5 891 Q232 1026 356.5 1097 Q481 1168 621 1168 Z M724 1014 Q672 1044 609 1044 Q471 1044 401 930.5 Q331 817 331 591 Q331 456 355.5 351.5 Q380 247 431 184 L724 1014 Z M886 554 Q886 827 794 952 L499 127 Q546 101 609 101 Q886 101 886 554 Z " />
<glyph glyph-name="oslashacute" unicode="&#x1ff;" horiz-adv-x="1218" d="M621 1168 Q699 1168 769 1151 L838 1346 L934 1320 L866 1116 Q1003 1049 1071 906 Q1139 763 1139 572 Q1139 387 1062.5 252 Q986 117 861.5 47 Q737 -23 596 -23 Q522 -23 459 -8 L380 -218 L279 -189 L359 25 Q219 90 149 234 Q79 378 79 573 Q79 756 155.5 891 Q232 1026 356.5 1097 Q481 1168 621 1168 Z M724 1014 Q672 1044 609 1044 Q471 1044 401 930.5 Q331 817 331 591 Q331 456 355.5 351.5 Q380 247 431 184 L724 1014 Z M886 554 Q886 827 794 952 L499 127 Q546 101 609 101 Q886 101 886 554 Z M694 1814 L695 1814 L854 1675 Q828 1631 748 1556.5 Q668 1482 580 1417 Q492 1352 447 1334 L445 1334 L364 1408 L694 1814 Z " />
<glyph glyph-name="otilde" unicode="&#xf5;" horiz-adv-x="1218" d="M621 1168 Q795 1168 911 1091 Q1027 1014 1083 879.5 Q1139 745 1139 572 Q1139 387 1062.5 252 Q986 117 861.5 47 Q737 -23 596 -23 Q422 -23 306.5 54 Q191 131 135 265.5 Q79 400 79 573 Q79 756 155.5 891 Q232 1026 356.5 1097 Q481 1168 621 1168 Z M886 554 Q886 779 819.5 911.5 Q753 1044 609 1044 Q471 1044 401 930.5 Q331 817 331 591 Q331 366 398.5 233.5 Q466 101 609 101 Q886 101 886 554 Z M189 1448 Q204 1496 244 1545.5 Q284 1595 344 1628.5 Q404 1662 476 1662 Q518 1662 552.5 1648.5 Q587 1635 611.5 1616.5 Q636 1598 670 1567 Q711 1530 738 1513 Q765 1496 799 1496 Q841 1496 870.5 1516 Q900 1536 914 1557 Q928 1578 947 1613 L1045 1551 Q1010 1459 943 1397.5 Q876 1336 777 1336 Q736 1336 702 1349 Q668 1362 643 1380 Q618 1398 583 1428 Q540 1466 509.5 1484.5 Q479 1503 441 1503 Q400 1503 369.5 1483 Q339 1463 323.5 1442.5 Q308 1422 286 1386 L189 1448 Z " />
<glyph glyph-name="oe" unicode="&#x153;" horiz-adv-x="1954" d="M1003 189 Q933 87 828.5 32 Q724 -23 599 -23 Q426 -23 310 50.5 Q194 124 136.5 257 Q79 390 79 571 Q79 754 156 889.5 Q233 1025 359 1096.5 Q485 1168 628 1168 Q769 1168 868.5 1115.5 Q968 1063 1027 963 Q1100 1061 1208 1114.5 Q1316 1168 1446 1168 Q1637 1168 1742.5 1063.5 Q1848 959 1855 760 L1855 724 Q1855 619 1843 564 L1150 564 Q1154 417 1199.5 320 Q1245 223 1320 177 Q1395 131 1490 131 Q1572 131 1658.5 159.5 Q1745 188 1794 225 L1836 129 Q1798 90 1731.5 55 Q1665 20 1583.5 -1.5 Q1502 -23 1422 -23 Q1278 -23 1173 32 Q1068 87 1003 189 Z M1615 680 Q1619 734 1619 766 Q1618 892 1565.5 969.5 Q1513 1047 1401 1047 Q1290 1047 1224.5 963.5 Q1159 880 1150 680 L1615 680 Z M888 557 Q888 789 818.5 916.5 Q749 1044 610 1044 Q471 1044 400 929 Q329 814 329 589 Q329 353 400.5 227 Q472 101 609 101 Q888 101 888 557 Z " />
<glyph glyph-name="p" unicode="p" horiz-adv-x="1294" d="M626 -23 Q581 -23 527 -15.5 Q473 -8 436 2 L442 -168 L442 -366 L647 -388 L647 -496 L66 -496 L66 -388 L215 -365 L215 964 L72 1004 L72 1124 L367 1164 L372 1164 L417 1125 L417 1011 Q477 1077 565 1122.5 Q653 1168 764 1168 Q886 1168 987 1108.5 Q1088 1049 1149 923.5 Q1210 798 1210 609 Q1210 434 1138.5 290 Q1067 146 934.5 61.5 Q802 -23 626 -23 Z M442 154 Q456 129 510.5 110 Q565 91 633 91 Q730 91 804.5 142.5 Q879 194 922 305.5 Q965 417 965 589 Q965 734 926.5 829 Q888 924 822 969.5 Q756 1015 671 1015 Q600 1015 539 986 Q478 957 442 918 L442 154 Z " />
<glyph glyph-name="uni1E57" unicode="&#x1e57;" horiz-adv-x="1294" d="M626 -23 Q581 -23 527 -15.5 Q473 -8 436 2 L442 -168 L442 -366 L647 -388 L647 -496 L66 -496 L66 -388 L215 -365 L215 964 L72 1004 L72 1124 L367 1164 L372 1164 L417 1125 L417 1011 Q477 1077 565 1122.5 Q653 1168 764 1168 Q886 1168 987 1108.5 Q1088 1049 1149 923.5 Q1210 798 1210 609 Q1210 434 1138.5 290 Q1067 146 934.5 61.5 Q802 -23 626 -23 Z M442 154 Q456 129 510.5 110 Q565 91 633 91 Q730 91 804.5 142.5 Q879 194 922 305.5 Q965 417 965 589 Q965 734 926.5 829 Q888 924 822 969.5 Q756 1015 671 1015 Q600 1015 539 986 Q478 957 442 918 L442 154 Z M567 1489 Q567 1557 606.5 1604 Q646 1651 717 1651 L718 1651 Q760 1651 791 1631.5 Q822 1612 838.5 1580 Q855 1548 855 1512 Q855 1442 815 1397 Q775 1352 699 1352 L698 1352 Q640 1352 603.5 1391 Q567 1430 567 1489 Z " />
<glyph glyph-name="thorn" unicode="&#xfe;" horiz-adv-x="1242" d="M164 1522 L-1 1542 L-1 1636 L336 1679 L341 1679 L391 1645 L391 1034 Q450 1092 532 1130 Q614 1168 714 1168 Q836 1168 937 1109 Q1038 1050 1099 924.5 Q1160 799 1160 609 Q1160 433 1088 288.5 Q1016 144 881.5 60.5 Q747 -23 568 -23 Q480 -23 384 -9 L390 -155 L390 -371 L601 -394 L601 -496 L14 -496 L14 -394 L163 -371 L163 63 L164 63 L164 1522 Z M391 157 Q404 127 458 109.5 Q512 92 583 92 Q681 92 755.5 147 Q830 202 872 312.5 Q914 423 914 585 Q914 729 876.5 825 Q839 921 773 967 Q707 1013 622 1013 Q550 1013 489 980.5 Q428 948 391 907 L391 157 Z " />
<glyph glyph-name="q" unicode="q" horiz-adv-x="1247" d="M85 546 Q85 721 156 862.5 Q227 1004 361 1086 Q495 1168 675 1168 Q738 1168 804.5 1157.5 Q871 1147 927 1132 L1038 1164 L1040 1164 L1083 1125 L1083 -368 L1222 -391 L1222 -496 L640 -496 L640 -391 L856 -368 L856 -48 L863 120 Q803 58 718.5 17.5 Q634 -23 532 -23 Q411 -23 309.5 39 Q208 101 146.5 229 Q85 357 85 546 Z M856 992 Q844 1016 786.5 1035.5 Q729 1055 661 1055 Q512 1055 421 936.5 Q330 818 330 566 Q330 421 368.5 322 Q407 223 473.5 175 Q540 127 624 127 Q696 127 757 158 Q818 189 856 229 L856 992 Z " />
<glyph glyph-name="r" unicode="r" horiz-adv-x="943" d="M250 124 L250 964 L108 1004 L108 1124 L394 1164 L399 1164 L447 1125 L447 1062 L445 932 L447 932 Q465 965 516.5 1020.5 Q568 1076 649.5 1122 Q731 1168 827 1168 Q866 1168 893 1157 L893 911 Q874 922 842.5 929.5 Q811 937 775 937 Q674 937 600.5 912.5 Q527 888 478 851 L478 125 L741 107 L741 0 L93 0 L93 108 L250 124 Z " />
<glyph glyph-name="racute" unicode="&#x155;" horiz-adv-x="943" d="M651 1814 L652 1814 L811 1675 Q785 1631 705 1556.5 Q625 1482 537 1417 Q449 1352 404 1334 L402 1334 L321 1408 L651 1814 Z M250 124 L250 964 L108 1004 L108 1124 L394 1164 L399 1164 L447 1125 L447 1062 L445 932 L447 932 Q465 965 516.5 1020.5 Q568 1076 649.5 1122 Q731 1168 827 1168 Q866 1168 893 1157 L893 911 Q874 922 842.5 929.5 Q811 937 775 937 Q674 937 600.5 912.5 Q527 888 478 851 L478 125 L741 107 L741 0 L93 0 L93 108 L250 124 Z " />
<glyph glyph-name="rcaron" unicode="&#x159;" horiz-adv-x="943" d="M176 1799 L460 1517 L749 1800 L832 1740 L549 1342 L369 1342 L87 1739 L176 1799 Z M250 124 L250 964 L108 1004 L108 1124 L394 1164 L399 1164 L447 1125 L447 1062 L445 932 L447 932 Q465 965 516.5 1020.5 Q568 1076 649.5 1122 Q731 1168 827 1168 Q866 1168 893 1157 L893 911 Q874 922 842.5 929.5 Q811 937 775 937 Q674 937 600.5 912.5 Q527 888 478 851 L478 125 L741 107 L741 0 L93 0 L93 108 L250 124 Z " />
<glyph glyph-name="rcommaaccent" unicode="&#x157;" horiz-adv-x="943" d="M362 -560 L284 -521 L283 -503 Q310 -491 326 -453.5 Q342 -416 342 -375 Q342 -350 330 -334.5 Q318 -319 297 -305 Q278 -293 267.5 -273 Q257 -253 257 -218 Q257 -177 278 -153 Q299 -129 327 -119.5 Q355 -110 379 -110 L389 -110 Q454 -110 491.5 -152.5 Q529 -195 529 -272 Q529 -345 496.5 -409.5 Q464 -474 423.5 -515.5 Q383 -557 365 -560 L362 -560 Z M250 124 L250 964 L108 1004 L108 1124 L394 1164 L399 1164 L447 1125 L447 1062 L445 932 L447 932 Q465 965 516.5 1020.5 Q568 1076 649.5 1122 Q731 1168 827 1168 Q866 1168 893 1157 L893 911 Q874 922 842.5 929.5 Q811 937 775 937 Q674 937 600.5 912.5 Q527 888 478 851 L478 125 L741 107 L741 0 L93 0 L93 108 L250 124 Z " />
<glyph glyph-name="s" unicode="s" horiz-adv-x="1043" d="M260 325 L300 173 Q312 152 346.5 133 Q381 114 428 102 Q475 90 524 90 Q637 90 685 132.5 Q733 175 733 249 Q733 301 700.5 340.5 Q668 380 604 415 Q540 450 430 494 Q271 556 198 640.5 Q125 725 125 859 Q125 949 179.5 1017.5 Q234 1086 329 1124 Q424 1162 543 1162 Q635 1162 705 1147.5 Q775 1133 846 1110 L882 1099 L882 846 L754 846 L711 986 Q699 1012 646.5 1031 Q594 1050 529 1050 Q437 1050 387 1011 Q337 972 337 909 Q337 853 366.5 815 Q396 777 440 753 Q484 729 563 696 L602 679 Q716 630 787 587 Q858 544 905 477 Q952 410 952 313 Q952 213 899.5 137 Q847 61 747.5 19 Q648 -23 512 -23 Q410 -23 298 5 Q186 33 119 63 L119 325 L260 325 Z " />
<glyph glyph-name="sacute" unicode="&#x15b;" horiz-adv-x="1049" d="M739 1814 L740 1814 L899 1675 Q873 1631 793 1556.5 Q713 1482 625 1417 Q537 1352 492 1334 L490 1334 L409 1408 L739 1814 Z M260 325 L300 173 Q312 152 346.5 133 Q381 114 428 102 Q475 90 524 90 Q637 90 685 132.5 Q733 175 733 249 Q733 301 700.5 340.5 Q668 380 604 415 Q540 450 430 494 Q271 556 198 640.5 Q125 725 125 859 Q125 949 179.5 1017.5 Q234 1086 329 1124 Q424 1162 543 1162 Q635 1162 705 1147.5 Q775 1133 846 1110 L882 1099 L882 846 L754 846 L711 986 Q699 1012 646.5 1031 Q594 1050 529 1050 Q437 1050 387 1011 Q337 972 337 909 Q337 853 366.5 815 Q396 777 440 753 Q484 729 563 696 L602 679 Q716 630 787 587 Q858 544 905 477 Q952 410 952 313 Q952 213 899.5 137 Q847 61 747.5 19 Q648 -23 512 -23 Q410 -23 298 5 Q186 33 119 63 L119 325 L260 325 Z " />
<glyph glyph-name="scaron" unicode="&#x161;" horiz-adv-x="1049" d="M263 1799 L547 1517 L836 1800 L919 1740 L636 1342 L456 1342 L174 1739 L263 1799 Z M260 325 L300 173 Q312 152 346.5 133 Q381 114 428 102 Q475 90 524 90 Q637 90 685 132.5 Q733 175 733 249 Q733 301 700.5 340.5 Q668 380 604 415 Q540 450 430 494 Q271 556 198 640.5 Q125 725 125 859 Q125 949 179.5 1017.5 Q234 1086 329 1124 Q424 1162 543 1162 Q635 1162 705 1147.5 Q775 1133 846 1110 L882 1099 L882 846 L754 846 L711 986 Q699 1012 646.5 1031 Q594 1050 529 1050 Q437 1050 387 1011 Q337 972 337 909 Q337 853 366.5 815 Q396 777 440 753 Q484 729 563 696 L602 679 Q716 630 787 587 Q858 544 905 477 Q952 410 952 313 Q952 213 899.5 137 Q847 61 747.5 19 Q648 -23 512 -23 Q410 -23 298 5 Q186 33 119 63 L119 325 L260 325 Z " />
<glyph glyph-name="scedilla" unicode="&#x15f;" horiz-adv-x="1043" d="M952 313 Q952 220 906.5 147.5 Q861 75 774.5 31 Q688 -13 568 -21 Q610 -71 643 -140 Q676 -209 676 -280 Q676 -396 610 -445 Q544 -494 412 -494 L411 -494 Q376 -494 334.5 -486.5 Q293 -479 267 -467 L268 -314 Q287 -321 313 -324.5 Q339 -328 354 -328 L355 -328 Q407 -328 436.5 -318.5 Q466 -309 481.5 -278.5 Q497 -248 497 -187 Q497 -146 482 -101 Q467 -56 448 -20 Q357 -12 265.5 13 Q174 38 119 63 L119 325 L260 325 L300 173 Q312 152 346.5 133 Q381 114 428 102 Q475 90 524 90 Q637 90 685 132.5 Q733 175 733 249 Q733 301 700.5 340.5 Q668 380 604 415 Q540 450 430 494 Q271 556 198 640.5 Q125 725 125 859 Q125 949 179.5 1017.5 Q234 1086 329 1124 Q424 1162 543 1162 Q635 1162 705 1147.5 Q775 1133 846 1110 L882 1099 L882 846 L754 846 L711 986 Q699 1012 646.5 1031 Q594 1050 529 1050 Q437 1050 387 1011 Q337 972 337 909 Q337 853 366.5 815 Q396 777 440 753 Q484 729 563 696 L602 679 Q716 630 787 587 Q858 544 905 477 Q952 410 952 313 Z " />
<glyph glyph-name="scircumflex" unicode="&#x15d;" horiz-adv-x="1049" d="M455 1781 L635 1781 L916 1383 L826 1325 L545 1606 L249 1324 L167 1382 L455 1781 Z M260 325 L300 173 Q312 152 346.5 133 Q381 114 428 102 Q475 90 524 90 Q637 90 685 132.5 Q733 175 733 249 Q733 301 700.5 340.5 Q668 380 604 415 Q540 450 430 494 Q271 556 198 640.5 Q125 725 125 859 Q125 949 179.5 1017.5 Q234 1086 329 1124 Q424 1162 543 1162 Q635 1162 705 1147.5 Q775 1133 846 1110 L882 1099 L882 846 L754 846 L711 986 Q699 1012 646.5 1031 Q594 1050 529 1050 Q437 1050 387 1011 Q337 972 337 909 Q337 853 366.5 815 Q396 777 440 753 Q484 729 563 696 L602 679 Q716 630 787 587 Q858 544 905 477 Q952 410 952 313 Q952 213 899.5 137 Q847 61 747.5 19 Q648 -23 512 -23 Q410 -23 298 5 Q186 33 119 63 L119 325 L260 325 Z " />
<glyph glyph-name="scommaaccent" unicode="&#x219;" horiz-adv-x="1049" d="M524 -560 L446 -521 L445 -503 Q472 -491 488 -453.5 Q504 -416 504 -375 Q504 -350 492 -334.5 Q480 -319 459 -305 Q440 -293 429.5 -273 Q419 -253 419 -218 Q419 -177 440 -153 Q461 -129 489 -119.5 Q517 -110 541 -110 L551 -110 Q616 -110 653.5 -152.5 Q691 -195 691 -272 Q691 -345 658.5 -409.5 Q626 -474 585.5 -515.5 Q545 -557 527 -560 L524 -560 Z M260 325 L300 173 Q312 152 346.5 133 Q381 114 428 102 Q475 90 524 90 Q637 90 685 132.5 Q733 175 733 249 Q733 301 700.5 340.5 Q668 380 604 415 Q540 450 430 494 Q271 556 198 640.5 Q125 725 125 859 Q125 949 179.5 1017.5 Q234 1086 329 1124 Q424 1162 543 1162 Q635 1162 705 1147.5 Q775 1133 846 1110 L882 1099 L882 846 L754 846 L711 986 Q699 1012 646.5 1031 Q594 1050 529 1050 Q437 1050 387 1011 Q337 972 337 909 Q337 853 366.5 815 Q396 777 440 753 Q484 729 563 696 L602 679 Q716 630 787 587 Q858 544 905 477 Q952 410 952 313 Q952 213 899.5 137 Q847 61 747.5 19 Q648 -23 512 -23 Q410 -23 298 5 Q186 33 119 63 L119 325 L260 325 Z " />
<glyph glyph-name="uni1E61" unicode="&#x1e61;" horiz-adv-x="1043" d="M260 325 L300 173 Q312 152 346.5 133 Q381 114 428 102 Q475 90 524 90 Q637 90 685 132.5 Q733 175 733 249 Q733 301 700.5 340.5 Q668 380 604 415 Q540 450 430 494 Q271 556 198 640.5 Q125 725 125 859 Q125 949 179.5 1017.5 Q234 1086 329 1124 Q424 1162 543 1162 Q635 1162 705 1147.5 Q775 1133 846 1110 L882 1099 L882 846 L754 846 L711 986 Q699 1012 646.5 1031 Q594 1050 529 1050 Q437 1050 387 1011 Q337 972 337 909 Q337 853 366.5 815 Q396 777 440 753 Q484 729 563 696 L602 679 Q716 630 787 587 Q858 544 905 477 Q952 410 952 313 Q952 213 899.5 137 Q847 61 747.5 19 Q648 -23 512 -23 Q410 -23 298 5 Q186 33 119 63 L119 325 L260 325 Z M399 1489 Q399 1557 438.5 1604 Q478 1651 549 1651 L550 1651 Q592 1651 623 1631.5 Q654 1612 670.5 1580 Q687 1548 687 1512 Q687 1442 647 1397 Q607 1352 531 1352 L530 1352 Q472 1352 435.5 1391 Q399 1430 399 1489 Z " />
<glyph glyph-name="germandbls" unicode="&#xdf;" horiz-adv-x="1298" d="M184 128 L184 956 Q184 1157 263 1304 Q342 1451 476 1528.5 Q610 1606 771 1606 Q930 1606 1027.5 1536.5 Q1125 1467 1125 1332 Q1125 1272 1107 1225.5 Q1089 1179 1062.5 1145.5 Q1036 1112 995 1070 Q947 1020 924 985 Q901 950 901 905 Q901 869 919.5 836.5 Q938 804 966 775.5 Q994 747 1044 703 Q1112 643 1155 596.5 Q1198 550 1229 484.5 Q1260 419 1260 338 Q1260 223 1199.5 141.5 Q1139 60 1033.5 18.5 Q928 -23 793 -23 Q756 -23 704.5 -15.5 Q653 -8 621 0 L621 156 Q657 140 707.5 130.5 Q758 121 810 121 Q915 121 965.5 169 Q1016 217 1016 291 Q1016 346 994.5 392 Q973 438 942.5 473 Q912 508 858 561 Q803 613 770.5 650.5 Q738 688 715.5 737 Q693 786 693 846 Q693 893 715 932.5 Q737 972 783 1028 Q819 1072 842 1106 Q865 1140 881 1184 Q897 1228 897 1280 Q897 1378 850 1429 Q803 1480 713 1480 Q563 1480 489.5 1360.5 Q416 1241 416 994 L416 0 L51 0 L51 109 L184 128 Z " />
<glyph glyph-name="uni0259" unicode="&#x259;" horiz-adv-x="1090" d="M1007 571 Q1007 395 940 260 Q873 125 753 51 Q633 -23 480 -23 Q285 -23 181 89.5 Q77 202 77 414 Q77 496 89 580 L769 580 L769 583 Q765 730 720.5 826.5 Q676 923 602 968.5 Q528 1014 435 1014 Q356 1014 271 985.5 Q186 957 139 920 L97 1016 Q134 1055 199 1090 Q264 1125 344 1146.5 Q424 1168 502 1168 Q667 1168 780.5 1093 Q894 1018 950.5 883.5 Q1007 749 1007 571 Z M317 463 Q314 429 314 383 Q314 253 363 173 Q412 93 525 93 Q633 93 696.5 177.5 Q760 262 768 463 L317 463 Z " />
<glyph glyph-name="t" unicode="t" horiz-adv-x="834" d="M67 994 L67 1089 Q95 1096 131.5 1109 Q168 1122 179 1129 Q212 1153 233 1207 Q248 1241 272.5 1315.5 Q297 1390 306 1428 L436 1428 L438 1137 L774 1137 L774 994 L439 994 L439 389 Q439 267 446 219.5 Q453 172 474.5 158.5 Q496 145 553 145 L554 145 Q606 145 671.5 158 Q737 171 773 185 L774 185 L808 88 Q778 63 718 37.5 Q658 12 589 -5 Q520 -22 462 -22 L460 -22 Q336 -22 273 32.5 Q210 87 210 215 L210 994 L67 994 Z " />
<glyph glyph-name="tbar" unicode="&#x167;" horiz-adv-x="834" d="M210 747 L210 994 L67 994 L67 1089 Q95 1096 131.5 1109 Q168 1122 179 1129 Q212 1153 233 1207 Q248 1241 272.5 1315.5 Q297 1390 306 1428 L436 1428 L438 1137 L774 1137 L774 994 L439 994 L439 747 L773 747 L773 615 L439 615 L439 389 Q439 267 446 219.5 Q453 172 474.5 158.5 Q496 145 553 145 L554 145 Q606 145 671.5 158 Q737 171 773 185 L774 185 L808 88 Q778 63 718 37.5 Q658 12 589 -5 Q520 -22 462 -22 L460 -22 Q336 -22 273 32.5 Q210 87 210 215 L210 615 L69 615 L69 747 L210 747 Z " />
<glyph glyph-name="tcaron" unicode="&#x165;" horiz-adv-x="862" d="M67 994 L67 1089 Q95 1096 131.5 1109 Q168 1122 179 1129 Q212 1153 233 1207 Q248 1241 272.5 1315.5 Q297 1390 306 1428 L436 1428 L438 1137 L774 1137 L774 994 L439 994 L439 389 Q439 267 446 219.5 Q453 172 474.5 158.5 Q496 145 553 145 L554 145 Q606 145 671.5 158 Q737 171 773 185 L774 185 L808 88 Q778 63 718 37.5 Q658 12 589 -5 Q520 -22 462 -22 L460 -22 Q336 -22 273 32.5 Q210 87 210 215 L210 994 L67 994 Z M631 1337 Q664 1453 664 1599 Q664 1685 647 1758.5 Q630 1832 611 1857 L625 1897 L793 1937 Q821 1909 838.5 1840 Q856 1771 856 1692 Q856 1608 838 1523 Q820 1438 791 1373 Q762 1308 731 1279 L635 1313 L631 1337 Z " />
<glyph glyph-name="uni0163" unicode="&#x163;" horiz-adv-x="834" d="M808 88 Q769 55 684.5 23.5 Q600 -8 518 -18 Q563 -69 598 -143.5 Q633 -218 629 -294 Q624 -402 558.5 -448 Q493 -494 365 -494 L364 -494 Q329 -494 287.5 -486.5 Q246 -479 220 -467 L221 -314 Q240 -321 266 -324.5 Q292 -328 307 -328 L308 -328 Q360 -328 389.5 -318.5 Q419 -309 434.5 -278.5 Q450 -248 450 -187 Q450 -147 435 -102 Q420 -57 401 -19 Q306 -7 258 48 Q210 103 210 215 L210 994 L67 994 L67 1089 Q95 1096 131.5 1109 Q168 1122 179 1129 Q212 1153 233 1207 Q248 1241 272.5 1315.5 Q297 1390 306 1428 L436 1428 L438 1137 L774 1137 L774 994 L439 994 L439 389 Q439 267 446 219.5 Q453 172 474.5 158.5 Q496 145 553 145 L554 145 Q606 145 671.5 158 Q737 171 773 185 L774 185 L808 88 Z " />
<glyph glyph-name="uni021B" unicode="&#x21b;" horiz-adv-x="834" d="M465 -560 L387 -521 L386 -503 Q413 -491 429 -453.5 Q445 -416 445 -375 Q445 -350 433 -334.5 Q421 -319 400 -305 Q381 -293 370.5 -273 Q360 -253 360 -218 Q360 -177 381 -153 Q402 -129 430 -119.5 Q458 -110 482 -110 L492 -110 Q557 -110 594.5 -152.5 Q632 -195 632 -272 Q632 -345 599.5 -409.5 Q567 -474 526.5 -515.5 Q486 -557 468 -560 L465 -560 Z M67 994 L67 1089 Q95 1096 131.5 1109 Q168 1122 179 1129 Q212 1153 233 1207 Q248 1241 272.5 1315.5 Q297 1390 306 1428 L436 1428 L438 1137 L774 1137 L774 994 L439 994 L439 389 Q439 267 446 219.5 Q453 172 474.5 158.5 Q496 145 553 145 L554 145 Q606 145 671.5 158 Q737 171 773 185 L774 185 L808 88 Q778 63 718 37.5 Q658 12 589 -5 Q520 -22 462 -22 L460 -22 Q336 -22 273 32.5 Q210 87 210 215 L210 994 L67 994 Z " />
<glyph glyph-name="uni1E6B" unicode="&#x1e6b;" horiz-adv-x="834" d="M67 994 L67 1089 Q95 1096 131.5 1109 Q168 1122 179 1129 Q212 1153 233 1207 Q248 1241 272.5 1315.5 Q297 1390 306 1428 L436 1428 L438 1137 L774 1137 L774 994 L439 994 L439 389 Q439 267 446 219.5 Q453 172 474.5 158.5 Q496 145 553 145 L554 145 Q606 145 671.5 158 Q737 171 773 185 L774 185 L808 88 Q778 63 718 37.5 Q658 12 589 -5 Q520 -22 462 -22 L460 -22 Q336 -22 273 32.5 Q210 87 210 215 L210 994 L67 994 Z M222 1667 Q222 1735 261.5 1782 Q301 1829 372 1829 L373 1829 Q415 1829 446 1809.5 Q477 1790 493.5 1758 Q510 1726 510 1690 Q510 1620 470 1575 Q430 1530 354 1530 L353 1530 Q295 1530 258.5 1569 Q222 1608 222 1667 Z " />
<glyph glyph-name="u" unicode="u" horiz-adv-x="1307" d="M908 136 Q844 74 746 25.5 Q648 -23 548 -23 Q423 -23 345 21.5 Q267 66 230 163 Q193 260 193 419 L193 999 L82 1036 L82 1133 L378 1163 L379 1163 L421 1136 L421 430 Q421 316 438 252 Q455 188 498 158.5 Q541 129 622 129 Q700 129 767 159 Q834 189 883 228 L883 998 L740 1037 L740 1134 L1056 1163 L1058 1163 L1111 1136 L1111 113 L1231 113 L1231 13 Q1173 -4 1130.5 -13.5 Q1088 -23 1033 -23 Q969 -23 938.5 1.5 Q908 26 908 84 L908 136 Z " />
<glyph glyph-name="uacute" unicode="&#xfa;" horiz-adv-x="1307" d="M842 1814 L843 1814 L1002 1675 Q976 1631 896 1556.5 Q816 1482 728 1417 Q640 1352 595 1334 L593 1334 L512 1408 L842 1814 Z M908 136 Q844 74 746 25.5 Q648 -23 548 -23 Q423 -23 345 21.5 Q267 66 230 163 Q193 260 193 419 L193 999 L82 1036 L82 1133 L378 1163 L379 1163 L421 1136 L421 430 Q421 316 438 252 Q455 188 498 158.5 Q541 129 622 129 Q700 129 767 159 Q834 189 883 228 L883 998 L740 1037 L740 1134 L1056 1163 L1058 1163 L1111 1136 L1111 113 L1231 113 L1231 13 Q1173 -4 1130.5 -13.5 Q1088 -23 1033 -23 Q969 -23 938.5 1.5 Q908 26 908 84 L908 136 Z " />
<glyph glyph-name="ubreve" unicode="&#x16d;" horiz-adv-x="1307" d="M908 136 Q844 74 746 25.5 Q648 -23 548 -23 Q423 -23 345 21.5 Q267 66 230 163 Q193 260 193 419 L193 999 L82 1036 L82 1133 L378 1163 L379 1163 L421 1136 L421 430 Q421 316 438 252 Q455 188 498 158.5 Q541 129 622 129 Q700 129 767 159 Q834 189 883 228 L883 998 L740 1037 L740 1134 L1056 1163 L1058 1163 L1111 1136 L1111 113 L1231 113 L1231 13 Q1173 -4 1130.5 -13.5 Q1088 -23 1033 -23 Q969 -23 938.5 1.5 Q908 26 908 84 L908 136 Z M306 1693 Q306 1737 310 1753 L428 1753 Q428 1732 431 1716 Q441 1644 492.5 1587.5 Q544 1531 651 1531 Q757 1531 806 1587 Q855 1643 865 1716 Q868 1740 868 1753 L982 1753 Q983 1744 984.5 1725.5 Q986 1707 986 1694 Q986 1603 944 1524 Q902 1445 825 1398 Q748 1351 649 1351 Q546 1351 468 1398 Q390 1445 348 1523 Q306 1601 306 1693 Z " />
<glyph glyph-name="ucircumflex" unicode="&#xfb;" horiz-adv-x="1307" d="M558 1781 L738 1781 L1019 1383 L929 1325 L648 1606 L352 1324 L270 1382 L558 1781 Z M908 136 Q844 74 746 25.5 Q648 -23 548 -23 Q423 -23 345 21.5 Q267 66 230 163 Q193 260 193 419 L193 999 L82 1036 L82 1133 L378 1163 L379 1163 L421 1136 L421 430 Q421 316 438 252 Q455 188 498 158.5 Q541 129 622 129 Q700 129 767 159 Q834 189 883 228 L883 998 L740 1037 L740 1134 L1056 1163 L1058 1163 L1111 1136 L1111 113 L1231 113 L1231 13 Q1173 -4 1130.5 -13.5 Q1088 -23 1033 -23 Q969 -23 938.5 1.5 Q908 26 908 84 L908 136 Z " />
<glyph glyph-name="udieresis" unicode="&#xfc;" horiz-adv-x="1307" d="M258 1492 Q258 1559 296 1605.5 Q334 1652 405 1652 L406 1652 Q467 1652 502.5 1611 Q538 1570 538 1514 Q538 1444 498.5 1399.5 Q459 1355 385 1355 L384 1355 Q327 1355 292.5 1394 Q258 1433 258 1492 Z M726 1492 Q726 1559 764.5 1605.5 Q803 1652 873 1652 L874 1652 Q936 1652 971.5 1611 Q1007 1570 1007 1514 Q1007 1444 967.5 1399.5 Q928 1355 852 1355 L851 1355 Q796 1355 761 1395 Q726 1435 726 1492 Z M908 136 Q844 74 746 25.5 Q648 -23 548 -23 Q423 -23 345 21.5 Q267 66 230 163 Q193 260 193 419 L193 999 L82 1036 L82 1133 L378 1163 L379 1163 L421 1136 L421 430 Q421 316 438 252 Q455 188 498 158.5 Q541 129 622 129 Q700 129 767 159 Q834 189 883 228 L883 998 L740 1037 L740 1134 L1056 1163 L1058 1163 L1111 1136 L1111 113 L1231 113 L1231 13 Q1173 -4 1130.5 -13.5 Q1088 -23 1033 -23 Q969 -23 938.5 1.5 Q908 26 908 84 L908 136 Z " />
<glyph glyph-name="ugrave" unicode="&#xf9;" horiz-adv-x="1307" d="M908 136 Q844 74 746 25.5 Q648 -23 548 -23 Q423 -23 345 21.5 Q267 66 230 163 Q193 260 193 419 L193 999 L82 1036 L82 1133 L378 1163 L379 1163 L421 1136 L421 430 Q421 316 438 252 Q455 188 498 158.5 Q541 129 622 129 Q700 129 767 159 Q834 189 883 228 L883 998 L740 1037 L740 1134 L1056 1163 L1058 1163 L1111 1136 L1111 113 L1231 113 L1231 13 Q1173 -4 1130.5 -13.5 Q1088 -23 1033 -23 Q969 -23 938.5 1.5 Q908 26 908 84 L908 136 Z M453 1814 L454 1814 L784 1408 L702 1334 L701 1334 Q657 1350 569.5 1415 Q482 1480 401 1555 Q320 1630 294 1675 L453 1814 Z " />
<glyph glyph-name="uhungarumlaut" unicode="&#x171;" horiz-adv-x="1307" d="M908 136 Q844 74 746 25.5 Q648 -23 548 -23 Q423 -23 345 21.5 Q267 66 230 163 Q193 260 193 419 L193 999 L82 1036 L82 1133 L378 1163 L379 1163 L421 1136 L421 430 Q421 316 438 252 Q455 188 498 158.5 Q541 129 622 129 Q700 129 767 159 Q834 189 883 228 L883 998 L740 1037 L740 1134 L1056 1163 L1058 1163 L1111 1136 L1111 113 L1231 113 L1231 13 Q1173 -4 1130.5 -13.5 Q1088 -23 1033 -23 Q969 -23 938.5 1.5 Q908 26 908 84 L908 136 Z M616 1813 L761 1689 Q730 1640 657.5 1571 Q585 1502 504.5 1438.5 Q424 1375 375 1345 L299 1408 L616 1813 Z M1111 1810 L1249 1689 Q1223 1644 1149.5 1574 Q1076 1504 992.5 1438.5 Q909 1373 860 1345 L784 1409 L1111 1810 Z " />
<glyph glyph-name="umacron" unicode="&#x16b;" horiz-adv-x="1307" d="M908 136 Q844 74 746 25.5 Q648 -23 548 -23 Q423 -23 345 21.5 Q267 66 230 163 Q193 260 193 419 L193 999 L82 1036 L82 1133 L378 1163 L379 1163 L421 1136 L421 430 Q421 316 438 252 Q455 188 498 158.5 Q541 129 622 129 Q700 129 767 159 Q834 189 883 228 L883 998 L740 1037 L740 1134 L1056 1163 L1058 1163 L1111 1136 L1111 113 L1231 113 L1231 13 Q1173 -4 1130.5 -13.5 Q1088 -23 1033 -23 Q969 -23 938.5 1.5 Q908 26 908 84 L908 136 Z M927 1586 L927 1428 L369 1428 L369 1586 L927 1586 Z " />
<glyph glyph-name="uogonek" unicode="&#x173;" horiz-adv-x="1307" d="M981 -18 Q944 -10 926 15 Q908 40 908 84 L908 136 Q844 74 746 25.5 Q648 -23 548 -23 Q423 -23 345 21.5 Q267 66 230 163 Q193 260 193 419 L193 999 L82 1036 L82 1133 L378 1163 L379 1163 L421 1136 L421 430 Q421 316 438 252 Q455 188 498 158.5 Q541 129 622 129 Q700 129 767 159 Q834 189 883 228 L883 998 L740 1037 L740 1134 L1056 1163 L1058 1163 L1111 1136 L1111 113 L1231 113 L1231 13 Q1181 -3 1140 -11 Q1042 -55 984.5 -118 Q927 -181 927 -237 Q927 -300 968 -332.5 Q1009 -365 1075 -365 Q1142 -365 1216 -332 L1216 -442 Q1174 -474 1109 -492.5 Q1044 -511 980 -511 Q909 -511 850 -489 Q791 -467 755.5 -421.5 Q720 -376 720 -307 Q720 -258 755 -202.5 Q790 -147 850 -98 Q910 -49 981 -18 Z " />
<glyph glyph-name="uring" unicode="&#x16f;" horiz-adv-x="1307" d="M295 1593 Q295 1679 344 1742.5 Q393 1806 472.5 1839 Q552 1872 640 1872 L641 1872 Q743 1872 815 1836 Q887 1800 924 1737 Q961 1674 961 1594 Q961 1506 915.5 1441.5 Q870 1377 793.5 1343 Q717 1309 626 1309 L625 1309 Q515 1309 441 1346 Q367 1383 331 1447.5 Q295 1512 295 1593 Z M632 1415 Q723 1415 763.5 1457 Q804 1499 804 1585 Q804 1663 762 1713 Q720 1763 633 1763 L632 1763 Q543 1763 498.5 1719.5 Q454 1676 454 1598 Q454 1520 499 1467.5 Q544 1415 631 1415 L632 1415 Z M908 136 Q844 74 746 25.5 Q648 -23 548 -23 Q423 -23 345 21.5 Q267 66 230 163 Q193 260 193 419 L193 999 L82 1036 L82 1133 L378 1163 L379 1163 L421 1136 L421 430 Q421 316 438 252 Q455 188 498 158.5 Q541 129 622 129 Q700 129 767 159 Q834 189 883 228 L883 998 L740 1037 L740 1134 L1056 1163 L1058 1163 L1111 1136 L1111 113 L1231 113 L1231 13 Q1173 -4 1130.5 -13.5 Q1088 -23 1033 -23 Q969 -23 938.5 1.5 Q908 26 908 84 L908 136 Z " />
<glyph glyph-name="utilde" unicode="&#x169;" horiz-adv-x="1307" d="M908 136 Q844 74 746 25.5 Q648 -23 548 -23 Q423 -23 345 21.5 Q267 66 230 163 Q193 260 193 419 L193 999 L82 1036 L82 1133 L378 1163 L379 1163 L421 1136 L421 430 Q421 316 438 252 Q455 188 498 158.5 Q541 129 622 129 Q700 129 767 159 Q834 189 883 228 L883 998 L740 1037 L740 1134 L1056 1163 L1058 1163 L1111 1136 L1111 113 L1231 113 L1231 13 Q1173 -4 1130.5 -13.5 Q1088 -23 1033 -23 Q969 -23 938.5 1.5 Q908 26 908 84 L908 136 Z M222 1448 Q237 1496 277 1545.5 Q317 1595 377 1628.5 Q437 1662 509 1662 Q551 1662 585.5 1648.5 Q620 1635 644.5 1616.5 Q669 1598 703 1567 Q744 1530 771 1513 Q798 1496 832 1496 Q874 1496 903.5 1516 Q933 1536 947 1557 Q961 1578 980 1613 L1078 1551 Q1043 1459 976 1397.5 Q909 1336 810 1336 Q769 1336 735 1349 Q701 1362 676 1380 Q651 1398 616 1428 Q573 1466 542.5 1484.5 Q512 1503 474 1503 Q433 1503 402.5 1483 Q372 1463 356.5 1442.5 Q341 1422 319 1386 L222 1448 Z " />
<glyph glyph-name="v" unicode="v" horiz-adv-x="1169" d="M-3 1031 L-3 1137 L497 1137 L497 1031 L347 1005 L543 440 L631 171 L705 430 L894 1005 L756 1031 L756 1137 L1179 1137 L1179 1031 L1075 1004 L689 -16 L501 -16 L91 1005 L-3 1031 Z " />
<glyph glyph-name="w" unicode="w" horiz-adv-x="1758" d="M-14 1031 L-14 1137 L487 1137 L487 1031 L329 1005 L494 416 L551 161 L605 416 L806 1137 L1019 1137 L1225 417 L1280 163 L1340 414 L1500 1004 L1345 1031 L1345 1137 L1778 1137 L1778 1031 L1664 1005 L1351 -16 L1142 -16 L926 709 L875 950 L836 709 L628 -16 L424 -16 L96 1005 L-14 1031 Z " />
<glyph glyph-name="wacute" unicode="&#x1e83;" horiz-adv-x="1758" d="M1102 1814 L1103 1814 L1262 1675 Q1236 1631 1156 1556.5 Q1076 1482 988 1417 Q900 1352 855 1334 L853 1334 L772 1408 L1102 1814 Z M-14 1031 L-14 1137 L487 1137 L487 1031 L329 1005 L494 416 L551 161 L605 416 L806 1137 L1019 1137 L1225 417 L1280 163 L1340 414 L1500 1004 L1345 1031 L1345 1137 L1778 1137 L1778 1031 L1664 1005 L1351 -16 L1142 -16 L926 709 L875 950 L836 709 L628 -16 L424 -16 L96 1005 L-14 1031 Z " />
<glyph glyph-name="wcircumflex" unicode="&#x175;" horiz-adv-x="1758" d="M817 1781 L997 1781 L1278 1383 L1188 1325 L907 1606 L611 1324 L529 1382 L817 1781 Z M-14 1031 L-14 1137 L487 1137 L487 1031 L329 1005 L494 416 L551 161 L605 416 L806 1137 L1019 1137 L1225 417 L1280 163 L1340 414 L1500 1004 L1345 1031 L1345 1137 L1778 1137 L1778 1031 L1664 1005 L1351 -16 L1142 -16 L926 709 L875 950 L836 709 L628 -16 L424 -16 L96 1005 L-14 1031 Z " />
<glyph glyph-name="wdieresis" unicode="&#x1e85;" horiz-adv-x="1758" d="M538 1492 Q538 1559 576 1605.5 Q614 1652 685 1652 L686 1652 Q747 1652 782.5 1611 Q818 1570 818 1514 Q818 1444 778.5 1399.5 Q739 1355 665 1355 L664 1355 Q607 1355 572.5 1394 Q538 1433 538 1492 Z M1006 1492 Q1006 1559 1044.5 1605.5 Q1083 1652 1153 1652 L1154 1652 Q1216 1652 1251.5 1611 Q1287 1570 1287 1514 Q1287 1444 1247.5 1399.5 Q1208 1355 1132 1355 L1131 1355 Q1076 1355 1041 1395 Q1006 1435 1006 1492 Z M-14 1031 L-14 1137 L487 1137 L487 1031 L329 1005 L494 416 L551 161 L605 416 L806 1137 L1019 1137 L1225 417 L1280 163 L1340 414 L1500 1004 L1345 1031 L1345 1137 L1778 1137 L1778 1031 L1664 1005 L1351 -16 L1142 -16 L926 709 L875 950 L836 709 L628 -16 L424 -16 L96 1005 L-14 1031 Z " />
<glyph glyph-name="wgrave" unicode="&#x1e81;" horiz-adv-x="1758" d="M-14 1031 L-14 1137 L487 1137 L487 1031 L329 1005 L494 416 L551 161 L605 416 L806 1137 L1019 1137 L1225 417 L1280 163 L1340 414 L1500 1004 L1345 1031 L1345 1137 L1778 1137 L1778 1031 L1664 1005 L1351 -16 L1142 -16 L926 709 L875 950 L836 709 L628 -16 L424 -16 L96 1005 L-14 1031 Z M706 1814 L707 1814 L1037 1408 L955 1334 L954 1334 Q910 1350 822.5 1415 Q735 1480 654 1555 Q573 1630 547 1675 L706 1814 Z " />
<glyph glyph-name="x" unicode="x" horiz-adv-x="1218" d="M151 125 L498 568 L160 1005 L42 1031 L42 1137 L572 1137 L572 1031 L434 1005 L610 759 L669 669 L720 758 L904 1005 L757 1031 L757 1137 L1198 1137 L1198 1031 L1073 1005 L744 593 L1098 124 L1215 106 L1215 0 L682 0 L682 106 L813 125 L570 481 L519 392 L334 126 L499 106 L499 0 L14 0 L14 106 L151 125 Z " />
<glyph glyph-name="y" unicode="y" horiz-adv-x="1180" d="M146 -306 Q158 -313 195 -318.5 Q232 -324 265 -324 Q325 -324 375.5 -299.5 Q426 -275 478 -204 Q530 -133 579 0 L466 0 L92 1005 L-3 1031 L-3 1137 L506 1137 L506 1031 L349 1005 L542 401 L631 111 L711 402 L892 1006 L758 1031 L758 1137 L1178 1137 L1178 1031 L1076 1006 Q932 558 841.5 290.5 Q751 23 726 -34 Q658 -206 597.5 -306 Q537 -406 457.5 -458 Q378 -510 263 -510 Q232 -510 196 -505.5 Q160 -501 146 -495 L146 -306 Z " />
<glyph glyph-name="yacute" unicode="&#xfd;" horiz-adv-x="1180" d="M146 -306 Q158 -313 195 -318.5 Q232 -324 265 -324 Q325 -324 375.5 -299.5 Q426 -275 478 -204 Q530 -133 579 0 L466 0 L92 1005 L-3 1031 L-3 1137 L506 1137 L506 1031 L349 1005 L542 401 L631 111 L711 402 L892 1006 L758 1031 L758 1137 L1178 1137 L1178 1031 L1076 1006 Q932 558 841.5 290.5 Q751 23 726 -34 Q658 -206 597.5 -306 Q537 -406 457.5 -458 Q378 -510 263 -510 Q232 -510 196 -505.5 Q160 -501 146 -495 L146 -306 Z M816 1814 L817 1814 L976 1675 Q950 1631 870 1556.5 Q790 1482 702 1417 Q614 1352 569 1334 L567 1334 L486 1408 L816 1814 Z " />
<glyph glyph-name="ycircumflex" unicode="&#x177;" horiz-adv-x="1180" d="M146 -306 Q158 -313 195 -318.5 Q232 -324 265 -324 Q325 -324 375.5 -299.5 Q426 -275 478 -204 Q530 -133 579 0 L466 0 L92 1005 L-3 1031 L-3 1137 L506 1137 L506 1031 L349 1005 L542 401 L631 111 L711 402 L892 1006 L758 1031 L758 1137 L1178 1137 L1178 1031 L1076 1006 Q932 558 841.5 290.5 Q751 23 726 -34 Q658 -206 597.5 -306 Q537 -406 457.5 -458 Q378 -510 263 -510 Q232 -510 196 -505.5 Q160 -501 146 -495 L146 -306 Z M532 1781 L712 1781 L993 1383 L903 1325 L622 1606 L326 1324 L244 1382 L532 1781 Z " />
<glyph glyph-name="ydieresis" unicode="&#xff;" horiz-adv-x="1180" d="M146 -306 Q158 -313 195 -318.5 Q232 -324 265 -324 Q325 -324 375.5 -299.5 Q426 -275 478 -204 Q530 -133 579 0 L466 0 L92 1005 L-3 1031 L-3 1137 L506 1137 L506 1031 L349 1005 L542 401 L631 111 L711 402 L892 1006 L758 1031 L758 1137 L1178 1137 L1178 1031 L1076 1006 Q932 558 841.5 290.5 Q751 23 726 -34 Q658 -206 597.5 -306 Q537 -406 457.5 -458 Q378 -510 263 -510 Q232 -510 196 -505.5 Q160 -501 146 -495 L146 -306 Z M251 1492 Q251 1559 289 1605.5 Q327 1652 398 1652 L399 1652 Q460 1652 495.5 1611 Q531 1570 531 1514 Q531 1444 491.5 1399.5 Q452 1355 378 1355 L377 1355 Q320 1355 285.5 1394 Q251 1433 251 1492 Z M719 1492 Q719 1559 757.5 1605.5 Q796 1652 866 1652 L867 1652 Q929 1652 964.5 1611 Q1000 1570 1000 1514 Q1000 1444 960.5 1399.5 Q921 1355 845 1355 L844 1355 Q789 1355 754 1395 Q719 1435 719 1492 Z " />
<glyph glyph-name="uni1E8F" unicode="&#x1e8f;" horiz-adv-x="1180" d="M146 -306 Q158 -313 195 -318.5 Q232 -324 265 -324 Q325 -324 375.5 -299.5 Q426 -275 478 -204 Q530 -133 579 0 L466 0 L92 1005 L-3 1031 L-3 1137 L506 1137 L506 1031 L349 1005 L542 401 L631 111 L711 402 L892 1006 L758 1031 L758 1137 L1178 1137 L1178 1031 L1076 1006 Q932 558 841.5 290.5 Q751 23 726 -34 Q658 -206 597.5 -306 Q537 -406 457.5 -458 Q378 -510 263 -510 Q232 -510 196 -505.5 Q160 -501 146 -495 L146 -306 Z M482 1489 Q482 1557 521.5 1604 Q561 1651 632 1651 L633 1651 Q675 1651 706 1631.5 Q737 1612 753.5 1580 Q770 1548 770 1512 Q770 1442 730 1397 Q690 1352 614 1352 L613 1352 Q555 1352 518.5 1391 Q482 1430 482 1489 Z " />
<glyph glyph-name="ygrave" unicode="&#x1ef3;" horiz-adv-x="1180" d="M146 -306 Q158 -313 195 -318.5 Q232 -324 265 -324 Q325 -324 375.5 -299.5 Q426 -275 478 -204 Q530 -133 579 0 L466 0 L92 1005 L-3 1031 L-3 1137 L506 1137 L506 1031 L349 1005 L542 401 L631 111 L711 402 L892 1006 L758 1031 L758 1137 L1178 1137 L1178 1031 L1076 1006 Q932 558 841.5 290.5 Q751 23 726 -34 Q658 -206 597.5 -306 Q537 -406 457.5 -458 Q378 -510 263 -510 Q232 -510 196 -505.5 Q160 -501 146 -495 L146 -306 Z M427 1814 L428 1814 L758 1408 L676 1334 L675 1334 Q631 1350 543.5 1415 Q456 1480 375 1555 Q294 1630 268 1675 L427 1814 Z " />
<glyph glyph-name="z" unicode="z" horiz-adv-x="1138" d="M787 1015 L322 1000 L283 810 L146 810 L146 1137 L1009 1137 L1051 1045 L466 249 L335 121 L851 143 L927 360 L1057 345 L1027 0 L107 0 L62 94 L656 883 L787 1015 Z " />
<glyph glyph-name="zacute" unicode="&#x17a;" horiz-adv-x="1138" d="M775 1814 L776 1814 L935 1675 Q909 1631 829 1556.5 Q749 1482 661 1417 Q573 1352 528 1334 L526 1334 L445 1408 L775 1814 Z M787 1015 L322 1000 L283 810 L146 810 L146 1137 L1009 1137 L1051 1045 L466 249 L335 121 L851 143 L927 360 L1057 345 L1027 0 L107 0 L62 94 L656 883 L787 1015 Z " />
<glyph glyph-name="zcaron" unicode="&#x17e;" horiz-adv-x="1138" d="M299 1799 L583 1517 L872 1800 L955 1740 L672 1342 L492 1342 L210 1739 L299 1799 Z M787 1015 L322 1000 L283 810 L146 810 L146 1137 L1009 1137 L1051 1045 L466 249 L335 121 L851 143 L927 360 L1057 345 L1027 0 L107 0 L62 94 L656 883 L787 1015 Z " />
<glyph glyph-name="zdotaccent" unicode="&#x17c;" horiz-adv-x="1138" d="M787 1015 L322 1000 L283 810 L146 810 L146 1137 L1009 1137 L1051 1045 L466 249 L335 121 L851 143 L927 360 L1057 345 L1027 0 L107 0 L62 94 L656 883 L787 1015 Z M441 1489 Q441 1557 480.5 1604 Q520 1651 591 1651 L592 1651 Q634 1651 665 1631.5 Q696 1612 712.5 1580 Q729 1548 729 1512 Q729 1442 689 1397 Q649 1352 573 1352 L572 1352 Q514 1352 477.5 1391 Q441 1430 441 1489 Z " />
<glyph glyph-name="fi" unicode="&#xfb01;" horiz-adv-x="1513" d="M258 127 L258 991 L67 991 L67 1090 L258 1135 L258 1227 Q258 1353 321 1461 Q384 1569 485 1632.5 Q586 1696 694 1696 Q732 1696 764.5 1690.5 Q797 1685 814 1679 L814 1455 Q797 1472 741.5 1490 Q686 1508 633 1508 Q556 1508 521 1462.5 Q486 1417 486 1308 L487 1135 L762 1135 L762 991 L487 991 L487 126 L704 108 L704 0 L89 0 L89 108 L258 127 Z M1020 1489 Q1020 1557 1059.5 1604 Q1099 1651 1170 1651 L1171 1651 Q1213 1651 1244 1631.5 Q1275 1612 1291.5 1580 Q1308 1548 1308 1512 Q1308 1442 1268 1397 Q1228 1352 1152 1352 L1151 1352 Q1093 1352 1056.5 1391 Q1020 1430 1020 1489 Z M1068 126 L1068 964 L923 1005 L923 1123 L1241 1164 L1246 1164 L1297 1125 L1297 126 L1457 109 L1457 0 L906 0 L906 109 L1068 126 Z " />
<glyph glyph-name="fl" unicode="&#xfb02;" horiz-adv-x="1514" d="M258 127 L258 991 L67 991 L67 1090 L258 1135 L258 1227 Q258 1353 321 1461 Q384 1569 485 1632.5 Q586 1696 694 1696 Q732 1696 764.5 1690.5 Q797 1685 814 1679 L814 1455 Q797 1472 741.5 1490 Q686 1508 633 1508 Q556 1508 521 1462.5 Q486 1417 486 1308 L487 1135 L762 1135 L762 991 L487 991 L487 126 L704 108 L704 0 L89 0 L89 108 L258 127 Z M1061 126 L1061 1521 L897 1541 L897 1636 L1238 1679 L1240 1679 L1289 1645 L1289 126 L1459 109 L1459 0 L899 0 L899 109 L1061 126 Z " />
<glyph glyph-name="ordfeminine" unicode="&#xaa;" horiz-adv-x="1038" d="M115 929 Q115 1075 261 1147 Q407 1219 685 1228 L685 1253 Q685 1338 667.5 1383 Q650 1428 608 1446 Q566 1464 488 1464 Q355 1464 197 1392 L141 1499 Q180 1525 248.5 1551 Q317 1577 393.5 1594 Q470 1611 532 1611 Q652 1611 730 1579 Q808 1547 847.5 1473.5 Q887 1400 887 1278 L887 786 L997 786 L997 698 Q885 670 810 670 Q768 670 745 674.5 Q722 679 709 695.5 Q696 712 696 747 L696 796 Q637 741 566 705 Q495 669 400 669 Q315 669 250 702.5 Q185 736 150 795 Q115 854 115 929 Z M685 883 L685 1131 Q551 1127 474.5 1106 Q398 1085 366 1046 Q334 1007 334 945 Q334 882 375 842 Q416 802 488 802 Q525 802 565.5 815.5 Q606 829 638.5 848.5 Q671 868 684 884 L685 883 Z " />
<glyph glyph-name="ordmasculine" unicode="&#xba;" horiz-adv-x="1051" d="M96 1150 Q97 1302 162.5 1405 Q228 1508 328.5 1558 Q429 1608 537 1608 Q668 1608 762 1554.5 Q856 1501 905.5 1398 Q955 1295 955 1148 Q955 987 890.5 881 Q826 775 727 725.5 Q628 676 524 676 Q400 676 302.5 728.5 Q205 781 149.5 887.5 Q94 994 96 1150 Z M732 1128 Q732 1304 678.5 1403 Q625 1502 530 1502 Q319 1502 319 1158 Q319 1043 346.5 957.5 Q374 872 420.5 826.5 Q467 781 522 781 Q596 781 640.5 808.5 Q685 836 708.5 911.5 Q732 987 732 1128 Z " />
<glyph glyph-name="uni0410" unicode="&#x410;" horiz-adv-x="1417" d="M93 133 L586 1534 L824 1534 L1321 133 L1448 109 L1448 0 L899 0 L899 109 L1062 133 L967 425 L379 425 L288 133 L459 109 L459 0 L-33 0 L-34 109 L93 133 Z M926 552 L712 1209 L668 1377 L624 1207 L419 552 L926 552 Z " />
<glyph glyph-name="uni0411" unicode="&#x411;" horiz-adv-x="1344" d="M59 109 L266 132 L266 1385 L61 1411 L61 1522 L1173 1522 L1194 1138 L1045 1138 L977 1392 L499 1404 L499 911 Q537 914 612 917 Q687 920 755 920 Q1014 920 1145.5 805 Q1277 690 1277 476 Q1277 318 1208.5 207.5 Q1140 97 1017.5 40.5 Q895 -16 734 -16 Q720 -16 604 -10 Q450 0 390 0 L59 0 L59 109 Z M499 121 Q538 111 577.5 106.5 Q617 102 689 102 Q856 102 943 194 Q1030 286 1030 459 Q1030 625 941.5 707 Q853 789 690 789 Q579 789 499 783 L499 121 Z " />
<glyph glyph-name="uni0412" unicode="&#x412;" horiz-adv-x="1401" d="M264 133 L264 1386 L99 1411 L99 1522 L371 1522 Q439 1522 545 1530 Q627 1537 686 1537 Q967 1537 1093.5 1449.5 Q1220 1362 1220 1192 Q1220 1097 1183.5 1018.5 Q1147 940 1078 887.5 Q1009 835 914 816 Q1039 819 1132.5 775 Q1226 731 1277 648 Q1328 565 1328 454 Q1328 248 1182.5 118 Q1037 -12 701 -12 Q664 -12 623 -10 Q582 -8 565 -7 Q444 0 373 0 L96 0 L96 109 L264 133 Z M498 861 Q549 857 703 857 Q986 857 986 1150 Q986 1244 956 1303.5 Q926 1363 858 1392.5 Q790 1422 674 1422 Q602 1422 554 1416.5 Q506 1411 498 1410 L498 861 Z M497 123 Q521 112 573 108.5 Q625 105 695 105 Q895 105 984.5 186 Q1074 267 1074 421 Q1074 532 1039 600 Q1004 668 928.5 699.5 Q853 731 730 731 L633 731 Q528 731 497 729 L497 123 Z " />
<glyph glyph-name="uni0413" unicode="&#x413;" horiz-adv-x="1174" d="M854 108 L854 0 L50 0 L50 108 L275 135 L275 1384 L57 1414 L57 1522 L1127 1522 L1142 980 L993 980 L931 1390 L513 1404 L513 134 L854 108 Z " />
<glyph glyph-name="uni0403" unicode="&#x403;" horiz-adv-x="1174" d="M771 2012 L772 2012 L925 1885 Q889 1838 812 1785.5 Q735 1733 652 1690.5 Q569 1648 521 1633 L520 1633 L440 1701 L771 2012 Z M854 108 L854 0 L50 0 L50 108 L275 135 L275 1384 L57 1414 L57 1522 L1127 1522 L1142 980 L993 980 L931 1390 L513 1404 L513 134 L854 108 Z " />
<glyph glyph-name="uni0490" unicode="&#x490;" horiz-adv-x="1134" d="M269 1384 L269 135 L45 108 L45 0 L847 0 L847 108 L507 134 L507 1404 L1092 1392 L1112 1881 L963 1881 L898 1522 L50 1522 L50 1414 L269 1384 Z " />
<glyph glyph-name="uni0414" unicode="&#x414;" horiz-adv-x="1504" d="M69 127 L69 133 L214 133 Q263 196 321 333.5 Q379 471 424.5 709 Q470 947 470 1269 L470 1386 L261 1411 L261 1522 L1420 1522 L1420 1411 L1228 1386 L1228 133 L1413 133 Q1413 111 1398 -130 Q1383 -371 1381 -377 L1238 -377 Q1237 -339 1212 -179.5 Q1187 -20 1179 0 L277 0 Q272 -10 232.5 -169.5 Q193 -329 182 -379 L38 -379 Q41 -296 50.5 -100 Q60 96 63 133 L69 127 Z M997 133 L999 1392 L608 1392 L608 1257 Q610 972 575.5 738.5 Q541 505 493 352.5 Q445 200 404 133 L997 133 Z " />
<glyph glyph-name="uni0415" unicode="&#x415;" horiz-adv-x="1339" d="M264 133 L264 1386 L99 1411 L99 1522 L1141 1522 L1169 1205 L1040 1205 L978 1395 L499 1408 L499 843 L824 849 L854 1015 L983 1015 L983 541 L854 541 L825 717 L499 722 L499 124 L1049 146 L1162 397 L1290 359 L1231 0 L96 0 L96 109 L264 133 Z " />
<glyph glyph-name="uni0400" unicode="&#x400;" horiz-adv-x="1339" d="M508 2012 L509 2012 L840 1701 L760 1633 L759 1633 Q710 1649 625.5 1692 Q541 1735 464.5 1787.5 Q388 1840 356 1885 L508 2012 Z M264 133 L264 1386 L99 1411 L99 1522 L1141 1522 L1169 1205 L1040 1205 L978 1395 L499 1408 L499 843 L824 849 L854 1015 L983 1015 L983 541 L854 541 L825 717 L499 722 L499 124 L1049 146 L1162 397 L1290 359 L1231 0 L96 0 L96 109 L264 133 Z " />
<glyph glyph-name="uni0401" unicode="&#x401;" horiz-adv-x="1339" d="M308 1823 Q308 1891 346.5 1937 Q385 1983 455 1983 L456 1983 Q497 1983 527 1963.5 Q557 1944 572.5 1912.5 Q588 1881 588 1846 Q588 1776 548.5 1731.5 Q509 1687 434 1687 L433 1687 Q378 1687 343 1726.5 Q308 1766 308 1823 Z M808 1823 Q808 1891 846.5 1937 Q885 1983 954 1983 L955 1983 Q997 1983 1027 1963.5 Q1057 1944 1072.5 1912.5 Q1088 1881 1088 1846 Q1088 1776 1049 1731.5 Q1010 1687 935 1687 L934 1687 Q878 1687 843 1726.5 Q808 1766 808 1823 Z M264 133 L264 1386 L99 1411 L99 1522 L1141 1522 L1169 1205 L1040 1205 L978 1395 L499 1408 L499 843 L824 849 L854 1015 L983 1015 L983 541 L854 541 L825 717 L499 722 L499 124 L1049 146 L1162 397 L1290 359 L1231 0 L96 0 L96 109 L264 133 Z " />
<glyph glyph-name="uni0416" unicode="&#x416;" horiz-adv-x="2131" d="M1851 0 Q1817 0 1775 45 Q1733 90 1691 157 Q1649 224 1587 334 Q1518 455 1472.5 526.5 Q1427 598 1380 648 Q1333 698 1292 698 L1178 698 L1178 133 L1350 106 L1350 0 L784 0 L784 109 L953 134 L953 698 L839 698 Q798 698 750.5 648 Q703 598 657 524.5 Q611 451 544 333 Q478 218 438 153.5 Q398 89 356.5 44.5 Q315 0 281 0 L14 0 L14 109 L95 133 Q126 143 169 202 Q212 261 290 383 Q361 495 413 569.5 Q465 644 523 706.5 Q581 769 634 793 L205 1386 L45 1411 L45 1522 L548 1522 L548 1411 L395 1385 L783 806 L953 806 L953 1385 L787 1411 L787 1522 L1345 1522 L1345 1411 L1178 1386 L1178 806 L1348 806 L1735 1384 L1583 1411 L1583 1522 L2088 1522 L2088 1411 L1927 1386 L1497 793 Q1551 769 1609 706.5 Q1667 644 1717.5 570.5 Q1768 497 1841 383 Q1919 261 1962 202 Q2005 143 2037 133 L2118 109 L2118 0 L1851 0 Z " />
<glyph glyph-name="uni0417" unicode="&#x417;" horiz-adv-x="1243" d="M305 164 Q399 111 573 111 Q713 111 791.5 192.5 Q870 274 870 431 Q870 562 802 643.5 Q734 725 551 725 L406 725 L406 849 L526 849 Q607 849 681.5 883 Q756 917 803 987.5 Q850 1058 850 1162 Q850 1294 774.5 1357 Q699 1420 574 1420 Q484 1420 428 1397 Q372 1374 352 1335 L308 1159 L169 1159 L148 1472 Q189 1474 283 1497 Q379 1517 439.5 1527.5 Q500 1538 562 1538 Q820 1538 961 1452 Q1102 1366 1102 1193 Q1102 1082 1050.5 1001 Q999 920 918.5 872.5 Q838 825 747 806 Q880 803 970 753.5 Q1060 704 1103.5 624 Q1147 544 1147 448 Q1147 232 998 110 Q849 -12 528 -12 Q394 -12 289 12 Q184 36 92 69 L135 421 L238 421 L305 164 Z " />
<glyph glyph-name="uni0418" unicode="&#x418;" horiz-adv-x="1727" d="M1231 1386 L1061 1411 L1061 1522 L1623 1522 L1623 1411 L1462 1385 L1462 133 L1632 109 L1632 0 L1057 0 L1057 109 L1231 133 L1231 1143 L1106 944 L496 204 L496 134 L676 109 L676 0 L98 0 L98 109 L266 134 L266 1385 L105 1411 L105 1522 L683 1522 L683 1412 L496 1386 L496 388 L633 598 L1231 1333 L1231 1386 Z " />
<glyph glyph-name="uni0419" unicode="&#x419;" horiz-adv-x="1727" d="M480 2013 L650 2013 Q684 2013 684 1929 Q684 1850 727.5 1807 Q771 1764 872 1764 Q973 1764 1016.5 1807 Q1060 1850 1060 1929 Q1060 2013 1094 2013 L1264 2013 L1266 1969 Q1266 1661 871 1661 Q680 1661 579 1737.5 Q478 1814 478 1969 L480 2013 Z M1231 1386 L1061 1411 L1061 1522 L1623 1522 L1623 1411 L1462 1385 L1462 133 L1632 109 L1632 0 L1057 0 L1057 109 L1231 133 L1231 1143 L1106 944 L496 204 L496 134 L676 109 L676 0 L98 0 L98 109 L266 134 L266 1385 L105 1411 L105 1522 L683 1522 L683 1412 L496 1386 L496 388 L633 598 L1231 1333 L1231 1386 Z " />
<glyph glyph-name="uni040D" unicode="&#x40d;" horiz-adv-x="1727" d="M721 2012 L722 2012 L1053 1701 L973 1633 L972 1633 Q923 1649 838.5 1692 Q754 1735 677.5 1787.5 Q601 1840 569 1885 L721 2012 Z M1231 1386 L1061 1411 L1061 1522 L1623 1522 L1623 1411 L1462 1385 L1462 133 L1632 109 L1632 0 L1057 0 L1057 109 L1231 133 L1231 1143 L1106 944 L496 204 L496 134 L676 109 L676 0 L98 0 L98 109 L266 134 L266 1385 L105 1411 L105 1522 L683 1522 L683 1412 L496 1386 L496 388 L633 598 L1231 1333 L1231 1386 Z " />
<glyph glyph-name="uni048A" unicode="&#x48a;" horiz-adv-x="1724" d="M473 2013 L643 2013 Q677 2013 677 1929 Q677 1850 720.5 1807 Q764 1764 865 1764 Q966 1764 1009.5 1807 Q1053 1850 1053 1929 Q1053 2013 1087 2013 L1257 2013 L1259 1969 Q1259 1661 864 1661 Q673 1661 572 1737.5 Q471 1814 471 1969 L473 2013 Z M1231 1386 L1061 1411 L1061 1522 L1623 1522 L1623 1411 L1462 1385 L1462 135 L1669 135 L1669 0 Q1663 -11 1594 -185 Q1584 -211 1551.5 -292 Q1519 -373 1514 -379 L1367 -379 Q1377 -354 1415.5 -208 Q1454 -62 1461 -37 L1471 0 L1057 0 L1057 109 L1231 133 L1231 1143 L1106 944 L496 204 L496 134 L676 109 L676 0 L98 0 L98 109 L266 134 L266 1385 L105 1411 L105 1522 L683 1522 L683 1412 L496 1386 L496 388 L633 598 L1231 1333 L1231 1386 Z " />
<glyph glyph-name="uni041A" unicode="&#x41a;" horiz-adv-x="1445" d="M1165 0 Q1131 0 1090 45 Q1049 90 1008.5 155.5 Q968 221 904 333 Q836 453 790.5 525.5 Q745 598 697.5 648 Q650 698 609 698 L494 698 L494 133 L665 106 L665 0 L102 0 L102 109 L265 134 L265 1385 L102 1411 L102 1522 L655 1522 L655 1411 L494 1385 L494 806 L662 806 L1058 1384 L896 1411 L896 1522 L1404 1522 L1404 1411 L1243 1386 L812 794 Q865 772 922.5 709.5 Q980 647 1032 572.5 Q1084 498 1155 385 Q1231 264 1275.5 203.5 Q1320 143 1352 133 L1432 109 L1432 0 L1165 0 Z " />
</font>
</svg>
